<?xml version="1.0" encoding="utf-8"?><svg id="chickLoops_converted" image-rendering="auto" baseProfile="basic" version="1.1" preserveAspectRatio="xMidYMid meet" x="0px" y="0px" width="200" height="240" xmlns="http://www.w3.org/2000/svg" viewBox="0 0 200 240" xmlns:xlink="http://www.w3.org/1999/xlink"><defs><filter id="filter1" filterUnits="objectBoundingBox" width="100%" height="100%" x="0%" y="0%"><feColorMatrix type="matrix" in="SourceGraphic" result="colorTrans" values="1 0 0 0 0 0 1 0 0 0 0 0 1 0 0 0 0 0 0 0"/></filter><g id="zzz" overflow="visible"><path fill="#000" fill-opacity=".2980" stroke="none" d="M25.5 12.2Q26.5 10.75 26.9 9.8 27.2 8.75 27.2 8.3L27.2 .95Q27.2 .9 27.1 .65 26.9 .5 26.3 .25 24.9 0 22.35 0L15.65 .05Q13.5 .15 9.15 .15 7.45 .15 5.8 .25 4.05 .4 2.35 .4L1.9 .35Q1.65 .25 1.3 .25 .75 .25 .4 .65L.15 .9 .15 1.35Q.1 1.6 .1 2.35 .05 2.7 .05 3.4 0 3.75 0 4.15 0 5.5 .1 6.25 .25 8 .5 8.65 1 9.7 1.75 9.7L10.55 9.9Q10.75 9.9 10.75 10.05 10.75 10.35 10.3 10.95 10.1 11.3 9.2 12.4 8.95 12.7 7.9 13.9 6.9 15.1 5.75 16.15 3.85 18.3 .75 21.2L.75 29.7Q.75 30.1 1.2 30.5 1.55 30.85 2 30.85L5.7 30.9Q6.75 30.95 8.8 30.95 11 31 15.65 31L23.7 31Q25.05 31 25.6 30.85 26.2 30.8 26.6 30.65 26.95 30.4 26.95 30.1L26.95 22.55Q26.95 22.2 26.55 21.95 26.2 21.6 25.8 21.6L20.45 21.6Q19.5 21.65 17.45 21.65 23.5 15.35 25.5 12.2M57.85 12.2Q58.85 10.75 59.25 9.8 59.55 8.75 59.55 8.3L59.55 .95Q59.55 .9 59.45 .65 59.25 .5 58.65 .25 57.25 0 54.7 0L48 .05Q45.85 .15 41.5 .15 39.8 .15 38.15 .25 36.4 .4 34.7 .4L34.25 .35Q34 .25 33.65 .25 33.1 .25 32.75 .65L32.5 .9 32.5 1.35Q32.45 1.6 32.45 2.35 32.4 2.7 32.4 3.4 32.35 3.75 32.35 4.15 32.35 5.5 32.45 6.25 32.6 8 32.85 8.65 33.35 9.7 34.1 9.7L42.9 9.9Q43.1 9.9 43.1 10.05 43.1 10.35 42.65 10.95 42.45 11.3 41.55 12.4 41.3 12.7 40.25 13.9 39.25 15.1 38.1 16.15 36.2 18.3 33.1 21.2L33.1 29.7Q33.1 30.1 33.55 30.5 33.9 30.85 34.35 30.85L38.05 30.9Q39.1 30.95 41.15 30.95 43.35 31 48 31L56.05 31Q57.4 31 57.95 30.85 58.55 30.8 58.95 30.65 59.3 30.4 59.3 30.1L59.3 22.55Q59.3 22.2 58.9 21.95 58.55 21.6 58.15 21.6L52.8 21.6Q51.85 21.65 49.8 21.65 55.85 15.35 57.85 12.2M91.6 9.8Q91.9 8.75 91.9 8.3L91.9 .95Q91.9 .9 91.8 .65 91.6 .5 91 .25 89.6 0 87.05 0L80.35 .05Q78.2 .15 73.85 .15 72.15 .15 70.5 .25 68.75 .4 67.05 .4L66.6 .35Q66.35 .25 66 .25 65.45 .25 65.1 .65L64.85 .9 64.85 1.35Q64.8 1.6 64.8 2.35 64.75 2.7 64.75 3.4 64.7 3.75 64.7 4.15 64.7 5.5 64.8 6.25 64.95 8 65.2 8.65 65.7 9.7 66.45 9.7L75.25 9.9Q75.45 9.9 75.45 10.05 75.45 10.35 75 10.95 74.8 11.3 73.9 12.4 73.65 12.7 72.6 13.9 71.6 15.1 70.45 16.15 68.55 18.3 65.45 21.2L65.45 29.7Q65.45 30.1 65.9 30.5 66.25 30.85 66.7 30.85L70.4 30.9Q71.45 30.95 73.5 30.95 75.7 31 80.35 31L88.4 31Q89.75 31 90.3 30.85 90.9 30.8 91.3 30.65 91.65 30.4 91.65 30.1L91.65 22.55Q91.65 22.2 91.25 21.95 90.9 21.6 90.5 21.6L85.15 21.6Q84.2 21.65 82.15 21.65 88.2 15.35 90.2 12.2 91.2 10.75 91.6 9.8Z"/></g></defs><g id="anim_sleep_uninterupted" overflow="visible"><g id="chick_shadow" transform="matrix(.7764 0 0 1 68.95 198.25)"><animateTransform attributeName="transform" additive="replace" type="translate" repeatCount="indefinite" dur="1.5833s" keyTimes="0;.026299;.0263;.052599;.0526;.078899;.0789;.105299;.1053;.131599;.1316;.157899;.1579;.184199;.1842;.210499;.2105;.236799;.2368;.263199;.2632;.289499;.2895;.315799;.3158;.342099;.3421;.368399;.3684;.394699;.3947;.421099;.4211;.447399;.4474;.473699;.4737;.499999;.5;.684199;.6842;.710499;.7105;.736899;.7369;.763199;.7632;.789499;.7895;.815799;.8158;.842099;.8421;.868399;.8684;.894799;.8948;.921099;.9211;.947399;.9474;.973699;.9737;1" values="118.0819,212.65;118.0819,212.65;117.9197,212.65;117.9197,212.65;117.6697,212.65;117.6697,212.65;117.4697,212.65;117.4697,212.65;117.2197,212.65;117.2197,212.65;117.0197,212.65;117.0197,212.65;116.7697,212.65;116.7697,212.65;116.5697,212.65;116.5697,212.65;116.3197,212.65;116.3197,212.65;116.1197,212.65;116.1197,212.65;115.8309,212.65;115.8309,212.65;115.6697,212.65;115.6697,212.65;115.4197,212.65;115.4197,212.65;115.2197,212.65;115.2197,212.65;114.9697,212.65;114.9697,212.65;114.7697,212.65;114.7697,212.65;114.5197,212.65;114.5197,212.65;114.3197,212.65;114.3197,212.65;114.0697,212.65;114.0697,212.65;113.8319,212.65;113.8319,212.65;114.1697,212.65;114.1697,212.65;114.5197,212.65;114.5197,212.65;114.8697,212.65;114.8697,212.65;115.2197,212.65;115.2197,212.65;115.5697,212.65;115.5697,212.65;115.9697,212.65;115.9697,212.65;116.3197,212.65;116.3197,212.65;116.6697,212.65;116.6697,212.65;117.0197,212.65;117.0197,212.65;117.3697,212.65;117.3697,212.65;117.7197,212.65;117.7197,212.65;118.0819,212.65;118.0819,212.65" calcMode="discrete"/><animateTransform attributeName="transform" additive="sum" type="scale" repeatCount="indefinite" dur="1.5833s" keyTimes="0;.026299;.0263;.499999;.5;.684199;.6842;.973699;.9737;1" values=".7764,1;.7764,1;.7763,1;.7763,1;.7764,1;.7764,1;.7763,1;.7763,1;.7764,1;.7764,1" calcMode="discrete"/><animateTransform attributeName="transform" additive="sum" type="translate" repeatCount="indefinite" dur="1.5833s" keyTimes="0;.026299;.0263;.263199;.2632;.289499;.2895;.499999;.5;.684199;.6842;.973699;.9737;1" values="-63.35,-14.4;-63.35,-14.4;-63.4,-14.4;-63.4,-14.4;-63.35,-14.4;-63.35,-14.4;-63.4,-14.4;-63.4,-14.4;-63.35,-14.4;-63.35,-14.4;-63.4,-14.4;-63.4,-14.4;-63.35,-14.4;-63.35,-14.4" calcMode="discrete"/><path fill="#000" fill-opacity=".2980" stroke="none" d="M126.4 14.4Q126.4 8.45 107.9 4.2 89.4 0 63.2 0 37 0 18.5 4.2 0 8.45 0 14.4 0 20.35 18.5 24.55 37 28.8 63.2 28.8 89.4 28.8 107.9 24.55 126.4 20.35 126.4 14.4Z"/></g><g id="chick_Legs" transform="matrix(-.2982 -.0001 -.0001 .2982 118.6 181.65)"><path id="Layer4_0_1_STROKES" stroke="#EE9300" stroke-width="17" stroke-linejoin="round" stroke-linecap="round" fill="none" d="M38.4 120.75L83.95 0"/><path id="Layer5_0_1_STROKES" stroke="#EE9300" stroke-width="17" stroke-linejoin="round" stroke-linecap="round" fill="none" d="M5.05 67.8L51.35 83.05"/><path id="Layer6_0_1_STROKES" stroke="#EE9300" stroke-width="17" stroke-linejoin="round" stroke-linecap="round" fill="none" d="M0 100L50.6 84.15"/><path id="Layer7_0_1_STROKES" stroke="#EE9300" stroke-width="17" stroke-linejoin="round" stroke-linecap="round" fill="none" d="M-37.8 108.25L7.75 -12.5"/><path id="Layer8_0_1_STROKES" stroke="#EE9300" stroke-width="17" stroke-linejoin="round" stroke-linecap="round" fill="none" d="M-71.15 55.3L-24.85 70.55"/><path id="Layer9_0_1_STROKES" stroke="#EE9300" stroke-width="17" stroke-linejoin="round" stroke-linecap="round" fill="none" d="M-76.2 87.5L-25.6 71.65"/></g><g id="chick_all_sleep" transform="matrix(-.3492 0 0 .3492 199.3 18.5)"><animateTransform attributeName="transform" additive="replace" type="translate" repeatCount="indefinite" dur="1.5833s" keyTimes="0;.026299;.0263;.052599;.0526;.078899;.0789;.105299;.1053;.131599;.1316;.157899;.1579;.184199;.1842;.210499;.2105;.236799;.2368;.263199;.2632;.289499;.2895;.315799;.3158;.342099;.3421;.368399;.3684;.394699;.3947;.421099;.4211;.447399;.4474;.473699;.4737;.499999;.5;.684199;.6842;.710499;.7105;.736899;.7369;.763199;.7632;.789499;.7895;.815799;.8158;.842099;.8421;.868399;.8684;.894799;.8948;.921099;.9211;.947399;.9474;.973699;.9737;1" values="104.6592,124.7526;104.6592,124.7526;104.8159,124.6431;104.8159,124.6431;104.8952,124.4021;104.8952,124.4021;104.9702,124.2006;104.9702,124.2006;104.9661,123.9652;104.9661,123.9652;105.1107,123.7681;105.1107,123.7681;105.1164,123.5045;105.1164,123.5045;105.203,123.27;105.203,123.27;105.2667,123.0058;105.2667,123.0058;105.3683,122.8141;105.3683,122.8141;105.4726,122.5413;105.4726,122.5413;105.4574,122.3593;105.4574,122.3593;105.5182,122.1168;105.5182,122.1168;105.6493,121.9509;105.6493,121.9509;105.6568,121.6647;105.6568,121.6647;105.8052,121.4468;105.8052,121.4468;105.8144,121.2111;105.8144,121.2111;105.8977,121.0521;105.8977,121.0521;106.0061,120.7668;106.0061,120.7668;105.949,120.5143;105.949,120.5143;105.9037,120.896;105.9037,120.896;105.811,121.2705;105.811,121.2705;105.6462,121.6108;105.6462,121.6108;105.559,121.9442;105.559,121.9442;105.4478,122.3062;105.4478,122.3062;105.368,122.702;105.368,122.702;105.2454,123.0707;105.2454,123.0707;105.1213,123.45;105.1213,123.45;105.0674,123.7982;105.0674,123.7982;104.9494,124.0658;104.9494,124.0658;104.8099,124.4469;104.8099,124.4469;104.6592,124.7526;104.6592,124.7526" calcMode="discrete"/><animateTransform attributeName="transform" additive="sum" type="rotate" repeatCount="indefinite" dur="1.5833s" keyTimes="0;.026299;.0263;.052599;.0526;.078899;.0789;.105299;.1053;.131599;.1316;.157899;.1579;.184199;.1842;.210499;.2105;.236799;.2368;.263199;.2632;.289499;.2895;.315799;.3158;.342099;.3421;.368399;.3684;.394699;.3947;.421099;.4211;.447399;.4474;.473699;.4737;.499999;.5;.684199;.6842;.710499;.7105;.736899;.7369;.763199;.7632;.789499;.7895;.815799;.8158;.842099;.8421;.868399;.8684;.894799;.8948;.921099;.9211;.947399;.9474;.973699;.9737;1" values="0,0,0;0,0,0;-.3558,0,0;-.3558,0,0;-.7134,0,0;-.7134,0,0;-1.0717,0,0;-1.0717,0,0;-1.4317,0,0;-1.4317,0,0;-1.7882,0,0;-1.7882,0,0;-2.1488,0,0;-2.1488,0,0;-2.5067,0,0;-2.5067,0,0;-2.8652,0,0;-2.8652,0,0;-3.2209,0,0;-3.2209,0,0;-3.5798,0,0;-3.5798,0,0;-3.9385,0,0;-3.9385,0,0;-4.2977,0,0;-4.2977,0,0;-4.6574,0,0;-4.6574,0,0;-5.0142,0,0;-5.0142,0,0;-5.3732,0,0;-5.3732,0,0;-5.73,0,0;-5.73,0,0;-6.0907,0,0;-6.0907,0,0;-6.4483,0,0;-6.4483,0,0;-6.808,0,0;-6.808,0,0;-6.2419,0,0;-6.2419,0,0;-5.6729,0,0;-5.6729,0,0;-5.1044,0,0;-5.1044,0,0;-4.5393,0,0;-4.5393,0,0;-3.9689,0,0;-3.9689,0,0;-3.4039,0,0;-3.4039,0,0;-2.8355,0,0;-2.8355,0,0;-2.2684,0,0;-2.2684,0,0;-1.7,0,0;-1.7,0,0;-1.1346,0,0;-1.1346,0,0;-.5656,0,0;-.5656,0,0;0,0,0;0,0,0" calcMode="discrete"/><animateTransform attributeName="transform" additive="sum" type="skewY" repeatCount="indefinite" dur="1.5833s" keyTimes="0;1" values="180;180" calcMode="discrete"/><animateTransform attributeName="transform" additive="sum" type="scale" repeatCount="indefinite" dur="1.5833s" keyTimes="0;1" values=".3492,.3492;.3492,.3492" calcMode="discrete"/><animateTransform attributeName="transform" additive="sum" type="scale" repeatCount="indefinite" dur="1.5833s" keyTimes="0;1" values="-1,1;-1,1" calcMode="discrete"/><animateTransform attributeName="transform" additive="sum" type="translate" repeatCount="indefinite" dur="1.5833s" keyTimes="0;.026299;.0263;.052599;.0526;.078899;.0789;.105299;.1053;.131599;.1316;.157899;.1579;.184199;.1842;.210499;.2105;.236799;.2368;.263199;.2632;.289499;.2895;.315799;.3158;.342099;.3421;.368399;.3684;.394699;.3947;.421099;.4211;.447399;.4474;.473699;.4737;.499999;.5;.710499;.7105;.736899;.7369;.763199;.7632;.789499;.7895;.815799;.8158;.842099;.8421;.868399;.8684;.894799;.8948;.921099;.9211;.947399;.9474;.973699;.9737;1" values="-271,-304.25;-271,-304.25;-270.9,-304.3;-270.9,-304.3;-271,-304.35;-271,-304.35;-270.85,-304.4;-270.85,-304.4;-270.95,-304.35;-270.95,-304.35;-270.9,-304.45;-270.9,-304.45;-270.85,-304.35;-270.85,-304.35;-271,-304.35;-271,-304.35;-270.95,-304.3;-270.95,-304.3;-270.9,-304.3;-270.9,-304.3;-270.9,-304.25;-270.9,-304.25;-270.95,-304.3;-270.95,-304.3;-270.95,-304.35;-270.95,-304.35;-270.9,-304.35;-270.9,-304.35;-270.9,-304.3;-270.9,-304.3;-270.8,-304.3;-270.8,-304.3;-270.95,-304.25;-270.95,-304.25;-270.95,-304.45;-270.95,-304.45;-271,-304.45;-271,-304.45;-270.85,-304.7;-270.85,-304.7;-270.7,-304.85;-270.7,-304.85;-270.9,-304.75;-270.9,-304.75;-270.8,-304.7;-270.8,-304.7;-270.75,-304.75;-270.75,-304.75;-270.8,-304.75;-270.8,-304.75;-270.85,-304.75;-270.85,-304.75;-270.8,-304.8;-270.8,-304.8;-270.7,-304.8;-270.7,-304.8;-270.7,-304.75;-270.7,-304.75;-270.75,-304.75;-270.75,-304.75;-271,-304.25;-271,-304.25" calcMode="discrete"/><g id="chick_body_sleep" transform="translate(63.35 46.8)"><path fill="#EE9300" stroke="none" d="M412.45 266.05Q409.85 258.9 405.95 257.4 402.1 255.9 395.15 259.25 394.1 259.75 380.3 267.05 380.5 266.7 383.4 261.1 385.1 257.75 386.05 255.55 388.65 249.5 386.5 246.2 384.35 242.9 377.8 242.85 354.15 242.7 334.35 250.4 331.25 251.6 318.65 255.95 310.9 227.1 292.3 204.85 272.05 180.65 245.3 172.7 243.95 151.65 233.35 129.8 216.3 94.9 182.8 82.65 148.5 70.15 121.3 75.05 104.2 78.1 86.4 89.7 74.65 97.3 62.65 118.75 58.75 125.65 54.2 136.25 53.6 137.7 51.45 144.65 49.3 151.1 47.75 151.95 34.75 159.05 0 178.5L37.1 196.55Q36.95 199.75 36.3 214.05 35.8 224.35 35.6 230.85 35.05 254.15 37.4 273.8 40.15 296.15 46.85 315.85 60.55 355.95 87.9 383.9 114.4 410.95 154.75 427.7 183.6 439.65 222.3 439.55 241.65 439.5 255.25 437.05 261.8 435.4 274.25 432.45 285.15 429.75 292.3 427.35 309.6 421.55 326.75 413 388.85 381.9 411.4 315.45 420.7 288.4 412.45 266.05Z"/><path fill="#C47800" stroke="none" d="M402.9 287.55Q403.15 283.85 402.9 274.45 366.55 316.85 349.95 336.1 341.55 331 337 328.65 325.05 322.55 319.25 322.65L319.25 322.7 323.45 332.3Q327.5 342.8 327 347.15 320.4 349.5 311.7 349.15 311.15 349.15 296.1 347.65 297 349.4 303.05 358.75 307.2 365.1 308.3 369.95 300.7 372.45 289.8 370.95 283.8 370 280.8 369.55 275.4 368.7 271.7 368.6L292.7 386.2Q290.5 387.3 289.7 387.7 288.4 388.35 287.6 388.45 275.85 390.35 270 391.2 259.65 392.8 252.35 393.35 239.45 394.35 224.7 391.45 213.7 389.25 197.9 383.95 180.05 377.95 164.6 366.25 150.6 355.7 137.85 339.85 125.5 324.45 123.95 322.4 117.05 313.05 112.5 303.45 110.25 298.8 105.25 285 100.75 272.65 100.65 272.7 97.85 281.55 97.05 287.25 96.15 293.85 97.3 300.4 84.8 287.45 75.6 265.45 74.85 275.1 75.1 282.45 75.4 291.9 77.25 301.2 67.55 292.55 59 274.65 55.05 266.3 48.95 249.5 48.95 266.35 54.75 290.5 62 320.8 74.7 342.75 86.55 360.35 108.8 379.5 125.55 393.9 136.6 400.3 156.1 411.65 179.7 417.1 200.45 421.95 225.75 422.5 254.25 423.15 284 414.55 312.15 406.45 333.2 393.95 356.9 379.8 373.65 358.9 386.75 342.6 393.95 325.45 401.6 307.3 402.9 287.55Z"/><path fill="#C47800" stroke="none" d="M32.65 179.75Q19.2 179.95 12.1 179.95L46.6 195.15Q47 198.35 46.95 209.95 46.9 219.05 48.5 224.55 55.35 214.25 58.85 207.2 63.65 197.35 65.4 187.45 61.05 184.45 58.9 183.05 55.05 180.45 52.35 180.25 44.35 179.65 32.65 179.75Z"/><path fill="#C47800" stroke="none" d="M352.05 275.85Q346.95 284.5 344.3 288.75 348.15 286.7 355.85 282.6 362.4 278.95 366.65 275.65 377.95 266.75 381.05 253.45 366.7 255.4 360.4 263.4 356.7 268.2 352.05 275.85Z"/><path fill="#F3B000" stroke="none" d="M140.05 225.7Q133.55 227.95 129 232 121.4 238.75 119 249.05 117.3 256.5 118 268.6 118.75 280.5 124.25 293.2 128.2 302.3 136.55 315.5 142.05 324.05 151.4 333.85 156.85 339.55 168.15 350.5 169.15 351.5 170.85 352.6 171.85 353.2 173.85 354.45 169.45 343.75 167.35 338.5 163.55 329.2 161.25 322.75 157.05 310.7 156 307 153.55 297.9 153.7 290.1 156.85 293.95 162.65 301.3 167.8 307.75 171.4 311.85 181.2 322.95 194.1 326.1 184.45 311.35 180.2 293.4 176.55 277.9 176.65 258.45L178 257.8 211.3 287.8 212.4 287.05Q208 275.15 205.9 269.1 202.15 258.35 201.8 250.05 205.45 253.15 212.3 259.15 218.35 264.35 222.6 267.75 235.45 278.05 250.2 288.85 252.9 290.8 257.2 293.4 259.6 294.85 264.4 297.7 261.4 290.05 259.5 286.45 257.6 282.9 254.45 277.55 249.8 269.7 249.25 268.75L250.8 267.1Q255.25 269.6 264.3 274.35 272.3 278.7 277.2 282.4 288.4 290.85 313.55 312.85 308.6 305.45 302.35 296.45 289.85 278.4 283.3 270.45 277.5 263.3 267.75 255.85 259.5 249.45 255.65 246.75 248.75 241.85 242.9 238.85 237.2 235.95 228.05 232.75 217.85 229.3 212.8 227.4 198.8 222.15 182.8 221.25 168.9 220.5 152.3 223 144.65 224.15 140.05 225.7Z"/><path fill="#F3B000" stroke="none" d="M299.6 228Q292.95 216.85 286.1 209.25 278.9 201.3 274.1 200.3 268.95 214.3 276.1 223.8 281.2 230.5 289.6 240.35 302.1 254.9 303.5 256.55 305.8 259.3 309.05 263.5 310.9 265.9 314.85 271 315.2 254.2 299.6 228Z"/><path fill="#F3B000" stroke="none" d="M107.6 187.45Q112.4 191.5 119.75 193.2 126.85 194.8 134.3 193.85 151.3 191.65 156.45 179.95 156.45 173.25 149.6 168.8 147.45 167.45 144.9 166.45L142.75 165.75Q139.25 164.65 133.65 163.75 122.5 162.05 112.1 163.4 108.65 163.85 104.35 167.95 99.8 172.2 100.3 175.25 100.85 178.7 103.1 182.2 105.05 185.3 107.6 187.45Z"/><path fill="#F3B000" stroke="none" d="M239.9 373.6Q227.4 370.35 218.6 369.75 214.2 369.45 207.6 369.85 200.3 370.4 196.65 370.55 204.65 377.35 229.25 381.8 254.15 386.3 260.2 381.55 256.1 378.6 250.25 376.55 248.1 375.8 239.9 373.6Z"/><path fill="#F3B000" stroke="none" d="M357.4 289.1Q354 291.65 353.05 295.4 352.15 299.15 353.95 303.45 355.75 302.95 359.75 302.3 363.25 301.55 364.85 300.1 370.45 295.2 377 287.75 385.3 278.4 388.75 274.95 390.85 272.85 397.65 264.55 383.6 271.6 376.95 275.65 369.25 280.3 357.4 289.1Z"/><path fill="#F3B000" stroke="none" d="M34.45 164.55Q22.05 170.2 17.05 175 19.95 177 40.2 176.05 60.45 175.1 64.7 172.85 63.4 170.9 62.75 169.95 61.65 168.3 60.65 167.35 58.85 165.6 56.05 163.25 52.9 160.6 51.3 159.25 46.8 158.9 34.45 164.55Z"/><path fill="#F3B000" stroke="none" d="M59.45 143.55Q58.8 144.85 59.3 147.4 59.6 148.85 60.2 151.75L67.1 151.75Q73.4 146.5 76.8 134 80.15 121.55 78.2 110.55 77.8 110.9 76.95 111.5 76.25 112.05 75.95 112.5 73.15 117.65 67.5 127.95 62.65 136.9 59.45 143.55Z"/><path fill="#F3B000" stroke="none" d="M337.65 266.75Q344.7 261.35 350.8 258.25 357.05 255.1 365.4 252.75 368.8 251.8 377.65 247.5 371.25 245.9 358.35 247.85 349.7 249.2 343.45 251.3 335.7 253.85 329.75 258.1 326.9 260.15 326.05 261.5 324.55 263.85 325.9 266.85 332 271.05 337.65 266.75Z"/><path fill="#F7D57B" stroke="none" d="M129.8 240.55Q127.9 243.1 126.6 246.15 122.25 256.4 124.45 268.4 125.85 276.1 131.55 289.7 131.9 290.5 133.45 291.5 136.45 293.4 136.75 293.65L136.15 288.7Q135.55 282.8 135.25 279.85 134.75 274.6 134.85 271 135 266.15 138.05 260.9 140.7 256.5 145.1 255.75 149 255.15 154.75 257.3 156.7 251.4 157.65 248.55 159.35 243.45 161.4 240.75 163.55 237.9 167.95 234.6 173.1 231.05 175.55 229.05 174.55 228.1 174.45 228.1 151.6 225.8 134.35 236.25 131.95 237.7 129.8 240.55Z"/><path fill="#F7D57B" stroke="none" d="M229.05 240.6Q222.7 234.1 207.4 230.9 192 227.7 184.55 231.45 188.7 235.85 207.65 239.7 226.5 243.5 229.05 240.6Z"/><path fill="#F7D57B" stroke="none" d="M250.55 252.35Q248.6 250.3 247.7 249.4 246.2 247.85 244.95 247.35 243.85 246.85 241.9 246.95 239.55 247.15 238.35 247.15 239.55 251.5 242.5 252.75 245.45 254.05 250.55 252.35Z"/><path fill="#F7D57B" stroke="none" d="M298.3 238.8Q296.7 229.5 289.7 219.55 282.6 209.45 277.45 209.4 277.55 210.5 277.45 212.7 277.45 214.6 278 215.6 285.6 230.1 298.3 238.8Z"/><path fill="#F7D57B" stroke="none" d="M364.25 290.15Q364.05 291.15 363.65 293.2L365.7 294.25 376.7 284.85Q373.6 283.05 370.5 283.8 367.4 284.5 365.25 287.4 364.6 288.3 364.25 290.15Z"/><path fill="#F7D57B" stroke="none" d="M385.05 274.4L378.45 277.2 381 281.35 385.95 275.7 385.05 274.4Z"/><path fill="#F7D57B" stroke="none" d="M35.55 166.7Q29.3 169.85 26.15 171.4 35.25 173 42.25 170.7 49.25 168.4 50.7 163.5 48.7 162.8 47.7 162.5 45.95 161.9 45.05 162.3 41 164 35.55 166.7Z"/><path fill="#F7D57B" stroke="none" d="M66.05 134.45Q63.7 140 64.7 143.6 68.7 142.8 71.1 137.1 73.55 131.35 71.95 126.35 68.4 128.85 66.05 134.45Z"/><path fill="#F7D57B" stroke="none" d="M335.5 264.15L356 251.9Q348.9 251.75 341.4 254.9 333.7 258.1 333.1 261.8L335.5 264.15Z"/><g id="chick_feather1" transform="matrix(.1305 .9914 -.9914 .1305 174.85 86.45)"><path fill="#EE9300" stroke="none" d="M72.8 16.2Q71.4 10.15 64.95 5.55 58.25 .75 49.45 .1 39.5 -.7 30.05 4.2 17.95 10.5 7.75 23.45 4.55 27.55 1.95 31.75L0 35.2 10.6 31Q23.8 26.65 36.5 25.95 43.1 25.6 48.9 27 51.25 27.55 57.05 29.65 60.95 31.1 63.1 30.85 66.1 30.55 69.3 27.45 74.35 22.6 72.8 16.2Z"/></g><g id="chick_feather2" transform="matrix(.1305 .9914 -.9914 .1305 217.95 69.7)"><path fill="#EE9300" stroke="none" d="M52.25 13.7Q51.85 5.55 45.1 2.05 38.75 -1.3 29.85 .8 20.55 2.95 13.2 10.1 4.9 18.2 1.95 30.2 -1.85 45.6 1.75 64.4 3.5 73.85 6.05 80.15 7.35 75.05 10.5 67.65 16.8 52.85 25.9 41.2 30.6 35.15 36.25 31.15 38.55 29.5 44.8 26.1 49 23.75 50.5 21.7 52.5 18.9 52.25 13.7Z"/></g><g id="chick_eye2" transform="translate(108.95 139.95)"><path fill="#C47800" stroke="none" d="M54.65 35.4L54.55 35.4 54.35 35.5 49.6 37.3 49.1 37.45 48.9 37.55 48.5 37.7 48.45 37.75 48.4 37.75 47.6 38.05 47.5 38.1 37.5 41.45 37.15 41.6 34.75 42.25 34.7 42.25 34.6 42.3 33.8 42.5 33.4 42.65 33.2 42.7 33.1 42.7 33 42.75 31.7 43.05 31.6 43.05 31.5 43.1 25.85 44.15 25.65 44.15 22.15 44.5 21.95 44.55 19.8 44.55 19.4 44.6 19 44.55 18.05 44.55 17.85 44.5 17.45 44.5 17.1 44.45 16.7 44.45 15.95 44.35 15.75 44.35 15.55 44.3 14.8 44.2 14.6 44.2 14.4 44.15 13.65 44.05 13.5 44 13.4 44 12.7 43.85 12.6 43.85 12.5 43.8 11.5 43.55 11.1 43.5 9.7 43.1 9.35 42.95 9 42.85 6.9 42.05 6.55 41.95 .55 38.7 .25 38.55 -5.45 34.35 -5.65 34.15 -5.9 34 -6.3 33.6 -6.55 33.45 -7.15 32.9 -8.65 31.65 -9.1 31.2 -9.3 31.1 -11.95 28.8 -11.95 28.75 -12.1 28.8 -12.1 28.85 -11.2 32.55 -11.1 32.75 -9.55 36.75 -6.8 41.6 -5.4 43.55 -5.1 43.85 -4.6 44.5 -4.45 44.65 -4.3 44.85 -3.7 45.45Q-3.6 45.6 -3.1 46.1L-2.5 46.75 1.1 49.75Q1.6 50.15 1.9 50.3L2.3 50.6 3.6 51.4 3.8 51.5 3.9 51.6 4.05 51.65 8.25 53.6 9.85 54.1 9.95 54.15 10.75 54.4 10.85 54.45 12.35 54.8 17.15 55.5 22.45 55.45 22.75 55.4 23 55.4 24.05 55.3 29.1 54.3 35.1 52.15 38 50.75 38.05 50.7 38.35 50.55 43.75 47.2 44.65 46.45 45 46.25 49.8 41.85 49.95 41.75 50.6 41.05 50.6 41 50.65 41 50.65 40.95 51.2 40.4 53.2 37.9 54.55 35.75 54.7 35.55 54.65 35.4Z"/><path fill="#C47800" stroke="none" d="M52.55 56.55L52.7 56.4 39.3 41.8 33.55 51.15 52.55 56.55Z"/></g></g></g><g id="chick_shell" transform="matrix(-.2939 -.123 -.123 .2939 182.5 57.1)"><animateTransform attributeName="transform" additive="replace" type="translate" repeatCount="indefinite" dur="1.5833s" keyTimes="0;.026299;.0263;.052599;.0526;.078899;.0789;.105299;.1053;.131599;.1316;.157899;.1579;.184199;.1842;.210499;.2105;.236799;.2368;.263199;.2632;.289499;.2895;.315799;.3158;.342099;.3421;.368399;.3684;.394699;.3947;.421099;.4211;.447399;.4474;.473699;.4737;.499999;.5;.684199;.6842;.710499;.7105;.736899;.7369;.763199;.7632;.789499;.7895;.815799;.8158;.842099;.8421;.868399;.8684;.894799;.8948;.921099;.9211;.947399;.9474;.973699;.9737;1" values="131.2154,76.2919;131.2154,76.2919;130.858,75.8082;130.858,75.8082;130.5322,75.0902;130.5322,75.0902;130.1003,74.5457;130.1003,74.5457;129.7614,73.94;129.7614,73.94;129.3646,73.3434;129.3646,73.3434;129.0164,72.7361;129.0164,72.7361;128.5636,72.1547;128.5636,72.1547;128.2643,71.5956;128.2643,71.5956;127.8559,70.9952;127.8559,70.9952;127.5108,70.3333;127.5108,70.3333;127.1071,69.7023;127.1071,69.7023;126.8003,69.1176;126.8003,69.1176;126.3677,68.5586;126.3677,68.5586;125.955,67.9138;125.955,67.9138;125.6158,67.3091;125.6158,67.3091;125.2523,66.6503;125.2523,66.6503;124.8121,66.076;124.8121,66.076;124.5157,65.5055;124.5157,65.5055;124.0568,64.8706;124.0568,64.8706;124.7151,65.86;124.7151,65.86;125.3222,66.8579;125.3222,66.8579;125.9174,67.7657;125.9174,67.7657;126.4993,68.7435;126.4993,68.7435;127.1541,69.6526;127.1541,69.6526;127.6563,70.681;127.6563,70.681;128.2037,71.5439;128.2037,71.5439;128.8575,72.5534;128.8575,72.5534;129.4077,73.4911;129.4077,73.4911;130.0092,74.4423;130.0092,74.4423;130.6632,75.392;130.6632,75.392;131.2154,76.2919;131.2154,76.2919" calcMode="discrete"/><animateTransform attributeName="transform" additive="sum" type="rotate" repeatCount="indefinite" dur="1.5833s" keyTimes="0;.026299;.0263;.052599;.0526;.078899;.0789;.105299;.1053;.131599;.1316;.157899;.1579;.184199;.1842;.210499;.2105;.236799;.2368;.263199;.2632;.289499;.2895;.315799;.3158;.342099;.3421;.368399;.3684;.394699;.3947;.421099;.4211;.447399;.4474;.473699;.4737;.499999;.5;.684199;.6842;.710499;.7105;.736899;.7369;.763199;.7632;.789499;.7895;.815799;.8158;.842099;.8421;.868399;.8684;.894799;.8948;.921099;.9211;.947399;.9474;.973699;.9737;1" values="22.7146,0,0;22.7146,0,0;21.8787,0,0;21.8787,0,0;21.042,0,0;21.042,0,0;20.205,0,0;20.205,0,0;19.3737,0,0;19.3737,0,0;18.5385,0,0;18.5385,0,0;17.7014,0,0;17.7014,0,0;16.8677,0,0;16.8677,0,0;16.0314,0,0;16.0314,0,0;15.1945,0,0;15.1945,0,0;14.3583,0,0;14.3583,0,0;13.5241,0,0;13.5241,0,0;12.6899,0,0;12.6899,0,0;11.8526,0,0;11.8526,0,0;11.0186,0,0;11.0186,0,0;10.1815,0,0;10.1815,0,0;9.346,0,0;9.346,0,0;8.5108,0,0;8.5108,0,0;7.6761,0,0;7.6761,0,0;6.8408,0,0;6.8408,0,0;8.1641,0,0;8.1641,0,0;9.4856,0,0;9.4856,0,0;10.8096,0,0;10.8096,0,0;12.1312,0,0;12.1312,0,0;13.453,0,0;13.453,0,0;14.7768,0,0;14.7768,0,0;16.0976,0,0;16.0976,0,0;17.4217,0,0;17.4217,0,0;18.7441,0,0;18.7441,0,0;20.0647,0,0;20.0647,0,0;21.3899,0,0;21.3899,0,0;22.7146,0,0;22.7146,0,0" calcMode="discrete"/><animateTransform attributeName="transform" additive="sum" type="skewY" repeatCount="indefinite" dur="1.5833s" keyTimes="0;1" values="-180;-180" calcMode="discrete"/><animateTransform attributeName="transform" additive="sum" type="scale" repeatCount="indefinite" dur="1.5833s" keyTimes="0;.026299;.0263;.973699;.9737;1" values=".3187,.3187;.3187,.3187;.3186,.3186;.3186,.3186;.3187,.3187;.3187,.3187" calcMode="discrete"/><animateTransform attributeName="transform" additive="sum" type="scale" repeatCount="indefinite" dur="1.5833s" keyTimes="0;1" values="-1,1;-1,1" calcMode="discrete"/><animateTransform attributeName="transform" additive="sum" type="translate" repeatCount="indefinite" dur="1.5833s" keyTimes="0;.026299;.0263;.052599;.0526;.078899;.0789;.105299;.1053;.131599;.1316;.157899;.1579;.184199;.1842;.210499;.2105;.236799;.2368;.263199;.2632;.289499;.2895;.315799;.3158;.342099;.3421;.368399;.3684;.394699;.3947;.421099;.4211;.447399;.4474;.473699;.4737;.499999;.5;.684199;.6842;.710499;.7105;.736899;.7369;.789499;.7895;.815799;.8158;.842099;.8421;.868399;.8684;.894799;.8948;.921099;.9211;.947399;.9474;.973699;.9737;1" values="-125.2,-117.7;-125.2,-117.7;-125.1,-117.9;-125.1,-117.9;-125.15,-117.55;-125.15,-117.55;-125.2,-117.8;-125.2,-117.8;-125.25,-117.7;-125.25,-117.7;-125.15,-117.75;-125.15,-117.75;-125.1,-117.8;-125.1,-117.8;-125.25,-117.85;-125.25,-117.85;-124.95,-117.85;-124.95,-117.85;-125.05,-117.85;-125.05,-117.85;-125,-117.8;-125,-117.8;-125.15,-117.75;-125.15,-117.75;-125,-117.8;-125,-117.8;-125.1,-118;-125.1,-118;-125.25,-117.8;-125.25,-117.8;-125.15,-117.85;-125.15,-117.85;-125.05,-117.6;-125.05,-117.6;-125.3,-117.85;-125.3,-117.85;-125,-117.9;-125,-117.9;-124.9,-118.1;-124.9,-118.1;-124.9,-118.15;-124.9,-118.15;-124.8,-118.25;-124.8,-118.25;-124.85,-118.15;-124.85,-118.15;-124.7,-118.1;-124.7,-118.1;-124.95,-118.1;-124.95,-118.1;-124.85,-118;-124.85,-118;-124.75,-118.1;-124.75,-118.1;-124.8,-118.05;-124.8,-118.05;-124.9,-118.1;-124.9,-118.1;-124.75,-118.1;-124.75,-118.1;-125.2,-117.7;-125.2,-117.7" calcMode="discrete"/><path fill="#FFF" stroke="none" d="M235.9 51.85Q219.7 17.6 188.25 5.35 159.05 -6.05 123 6.75 94.15 17.05 62.25 42.2 39.5 60.2 17.45 83.9 6.45 95.7 0 103.95L63.95 102.85 67.85 164.45 146 137.4 152.4 205.15 215.4 175.65 231.4 235.15Q239.8 222.75 245.9 191.55 252.7 156.8 251.25 122.2 249.55 80.7 235.9 51.85Z"/><path fill="#D8D8D8" stroke="none" d="M173 88.95L165.8 94.2 163.35 111.1 161.05 96.55 144.4 102.5 160.65 89.95 170.85 82.55 165.95 60.15 127.85 90.65 115.05 92.55 113.2 113.2 110.15 93.8 92.4 100.55 109.4 87.7 130 78.3 135.65 45.6 97.25 70.85 112.35 28.2 84.05 43.4 77.55 70.4Q77.2 70.65 72.45 49.45L60.8 58.1 22.75 93.15 71.45 94.1 75.75 152.8 155.35 124.6 158.55 150.05 173 145.3 170.25 131.35 184.95 118.8 175.95 131.8 180.65 144.1 205.05 148.1 178.9 149.6 158.8 157.9 162.15 189.85 220.4 160.25 232 207.85Q233.35 203.8 234.75 198.05 237.6 186.55 238.15 178.25 240.8 137.8 236.35 109.35 234.95 100.45 233.05 93.8L231.4 88.95 211.9 125.6 201.95 75.15 175.1 106.55 173 88.95Z"/></g><g display="none"><use xlink:href="#zzz" transform="matrix(.5125 0 0 .5125 143.2 73.2)" filter="url(#filter1)"/><animate attributeName="display" repeatCount="indefinite" dur="1.5833s" keyTimes="0;.9737;1" values="none;inline;inline"/></g><g><use xlink:href="#zzz" transform="matrix(.5125 0 0 .5125 143.2 73.2)"><animateTransform attributeName="transform" additive="replace" type="translate" repeatCount="indefinite" dur="1.5833s" keyTimes="0;.026299;.0263;.052599;.0526;.078899;.0789;.105299;.1053;.131599;.1316;.157899;.1579;.184199;.1842;.210499;.2105;.236799;.2368;.263199;.2632;.289499;.2895;.315799;.3158;.342099;.3421;.368399;.3684;.394699;.3947;.421099;.4211;.447399;.4474;.473699;.4737;.499999;.5;.526299;.5263;.552599;.5526;.578999;.579;.605299;.6053;.631599;.6316;.657899;.6579;1" values="166.7505,81.1706;166.7505,81.1706;167.901,78.546;167.901,78.546;168.851,75.8716;168.851,75.8716;169.7267,73.1716;169.7267,73.1716;170.351,70.446;170.351,70.446;170.8767,67.7216;170.8767,67.7216;171.151,64.9216;171.151,64.9216;171.2003,62.1213;171.2003,62.1213;171.0759,59.2957;171.0759,59.2957;170.6003,56.5213;170.6003,56.5213;169.9259,53.7713;169.9259,53.7713;168.9259,51.0957;168.9259,51.0957;167.6267,48.5716;167.6267,48.5716;164.6161,44.2131;164.6161,44.2131;159.8603,40.1577;159.8603,40.1577;154.4973,37.6658;154.4973,37.6658;149.3953,35.5618;149.3953,35.5618;144.6104,33.3611;144.6104,33.3611;139.9577,30.5092;139.9577,30.5092;135.9589,26.9991;135.9589,26.9991;132.7547,23.1988;132.7547,23.1988;130.1059,19.3476;130.1059,19.3476;129.1497,17.7029;129.1497,17.7029;129.1535,17.7054;129.1535,17.7054;129.1525,17.703;129.1525,17.703;106,10.2511;106,10.2511" calcMode="discrete"/><animateTransform attributeName="transform" additive="sum" type="scale" repeatCount="indefinite" dur="1.5833s" keyTimes="0;.342099;.3421;.368399;.3684;.394699;.3947;.421099;.4211;.447399;.4474;.473699;.4737;.499999;.5;.526299;.5263;.552599;.5526;.578999;.579;.605299;.6053;.631599;.6316;.657899;.6579;1" values=".5125,.5125;.5125,.5125;.4739,.4755;.4739,.4755;.4353,.4386;.4353,.4386;.3967,.4016;.3967,.4016;.3581,.3647;.3581,.3647;.3195,.3277;.3195,.3277;.2809,.2908;.2809,.2908;.2424,.2539;.2424,.2539;.2038,.2169;.2038,.2169;.1652,.18;.1652,.18;.1266,.143;.1266,.143;.088,.1061;.088,.1061;.0494,.0692;.0494,.0692;.0108,.0322;.0108,.0322" calcMode="discrete"/><animateTransform attributeName="transform" additive="sum" type="translate" repeatCount="indefinite" dur="1.5833s" keyTimes="0;.026299;.0263;.052599;.0526;.078899;.0789;.105299;.1053;.131599;.1316;.157899;.1579;.210499;.2105;.236799;.2368;.263199;.2632;.289499;.2895;.315799;.3158;.342099;.3421;.368399;.3684;.394699;.3947;.421099;.4211;.447399;.4474;.473699;.4737;.499999;.5;.526299;.5263;.552599;.5526;.578999;.579;.605299;.6053;.631599;.6316;.657899;.6579;1" values="-46.05,-15.65;-46.05,-15.65;-46.15,-15.7;-46.15,-15.7;-46.15,-15.75;-46.15,-15.75;-46.2,-15.75;-46.2,-15.75;-46.15,-15.7;-46.15,-15.7;-46.2,-15.75;-46.2,-15.75;-46.15,-15.75;-46.15,-15.75;-46.2,-15.7;-46.2,-15.7;-46.15,-15.75;-46.15,-15.75;-46.2,-15.75;-46.2,-15.75;-46.2,-15.7;-46.2,-15.7;-46.2,-15.75;-46.2,-15.75;-46.25,-15.8;-46.25,-15.8;-46.2,-15.75;-46.2,-15.75;-46.25,-15.85;-46.25,-15.85;-46.2,-15.8;-46.2,-15.8;-46.35,-15.9;-46.35,-15.9;-46.3,-15.85;-46.3,-15.85;-46.25,-15.95;-46.25,-15.95;-46.4,-15.9;-46.4,-15.9;-46.35,-16.1;-46.35,-16.1;-46.6,-16.1;-46.6,-16.1;-47.2,-16.55;-47.2,-16.55;-47.6,-15.95;-47.6,-15.95;-55.3,-15.55;-55.3,-15.55" calcMode="discrete"/><animate attributeName="opacity" repeatCount="indefinite" dur="1.5833s" keyTimes="0;.026299;.0263;.052599;.0526;.078899;.0789;.105299;.1053;.131599;.1316;.157899;.1579;.184199;.1842;.210499;.2105;.236799;.2368;.263199;.2632;.289499;.2895;.315799;.3158;.342099;.3421;.368399;.3684;.394699;.3947;.421099;.4211;.447399;.4474;.473699;.4737;.499999;.5;.526299;.5263;.552599;.5526;.578999;.579;.605299;.6053;.631599;.6316;.657899;.6579;1" values="0;0;.08;.08;.17;.17;.25;.25;.33;.33;.42;.42;.5;.5;.58;.58;.67;.67;.75;.75;.83;.83;.92;.92;1;1;.92;.92;.85;.85;.77;.77;.69;.69;.62;.62;.54;.54;.46;.46;.38;.38;.31;.31;.23;.23;.15;.15;.08;.08;0;0" calcMode="discrete"/></use><animate attributeName="display" repeatCount="indefinite" dur="1.5833s" keyTimes="0;.6842;1" values="inline;none;none"/></g></g></svg>