<svg xmlns="http://www.w3.org/2000/svg" xmlns:xlink="http://www.w3.org/1999/xlink" version="1.1" width="256" height="256" viewBox="0 0 256 256" xml:space="preserve">

<defs>
</defs>
<g style="stroke: none; stroke-width: 0; stroke-dasharray: none; stroke-linecap: butt; stroke-linejoin: miter; stroke-miterlimit: 10; fill: none; fill-rule: nonzero; opacity: 1;" transform="translate(1.4065934065934016 1.4065934065934016) scale(2.81 2.81)" >
	<path d="M 78.974 90 H 11.026 C 4.936 90 0 85.064 0 78.974 V 11.026 C 0 4.936 4.936 0 11.026 0 h 67.948 C 85.064 0 90 4.936 90 11.026 v 67.948 C 90 85.064 85.064 90 78.974 90 z" style="stroke: none; stroke-width: 1; stroke-dasharray: none; stroke-linecap: butt; stroke-linejoin: miter; stroke-miterlimit: 10; fill: rgb(0,0,0); fill-rule: nonzero; opacity: 1;" transform=" matrix(1 0 0 1 0 0) " stroke-linecap="round" />
	<path d="M 10.484 10.346 V 9.714 c -0.219 -0.031 -0.441 -0.047 -0.662 -0.048 c -2.709 0 -4.914 2.205 -4.914 4.914 c 0 1.662 0.831 3.133 2.098 4.023 c -0.848 -0.907 -1.32 -2.103 -1.319 -3.346 C 5.686 12.587 7.828 10.409 10.484 10.346" style="stroke: none; stroke-width: 1; stroke-dasharray: none; stroke-linecap: butt; stroke-linejoin: miter; stroke-miterlimit: 10; fill: rgb(0,242,234); fill-rule: nonzero; opacity: 1;" transform=" matrix(3.89 0 0 3.89 -1.9444444444444287 -1.9444444444444287) " stroke-linecap="round" />
	<path d="M 10.6 17.501 c 1.209 0 2.195 -0.962 2.24 -2.16 l 0.004 -10.699 h 1.955 c -0.042 -0.223 -0.063 -0.45 -0.063 -0.677 h -2.67 l -0.005 10.699 c -0.044 1.198 -1.031 2.159 -2.24 2.159 c -0.363 0 -0.72 -0.088 -1.041 -0.258 C 9.201 17.153 9.878 17.501 10.6 17.501 M 18.45 8.274 V 7.68 c -0.718 0.001 -1.421 -0.208 -2.022 -0.601 C 16.954 7.685 17.664 8.105 18.45 8.274" style="stroke: none; stroke-width: 1; stroke-dasharray: none; stroke-linecap: butt; stroke-linejoin: miter; stroke-miterlimit: 10; fill: rgb(0,242,234); fill-rule: nonzero; opacity: 1;" transform=" matrix(3.89 0 0 3.89 -1.9444444444444287 -1.9444444444444287) " stroke-linecap="round" />
	<path d="M 16.427 7.078 c -0.589 -0.674 -0.914 -1.539 -0.913 -2.435 h -0.715 C 14.986 5.643 15.574 6.523 16.427 7.078 M 9.822 12.336 c -1.239 0.001 -2.243 1.005 -2.244 2.244 c 0.001 0.834 0.464 1.599 1.203 1.986 c -0.276 -0.381 -0.425 -0.839 -0.425 -1.309 c 0.001 -1.239 1.005 -2.243 2.244 -2.244 c 0.231 0 0.453 0.038 0.662 0.104 v -2.725 c -0.219 -0.031 -0.441 -0.047 -0.662 -0.048 c -0.039 0 -0.077 0.002 -0.116 0.003 v 2.093 C 10.27 12.371 10.047 12.336 9.822 12.336" style="stroke: none; stroke-width: 1; stroke-dasharray: none; stroke-linecap: butt; stroke-linejoin: miter; stroke-miterlimit: 10; fill: rgb(255,0,79); fill-rule: nonzero; opacity: 1;" transform=" matrix(3.89 0 0 3.89 -1.9444444444444287 -1.9444444444444287) " stroke-linecap="round" />
	<path d="M 18.45 8.274 v 2.075 c -1.384 0 -2.667 -0.443 -3.714 -1.194 v 5.425 c 0 2.709 -2.204 4.914 -4.913 4.914 c -1.047 0 -2.018 -0.33 -2.816 -0.891 c 0.927 1 2.23 1.569 3.594 1.568 c 2.709 0 4.914 -2.204 4.914 -4.913 V 9.832 c 1.082 0.778 2.381 1.196 3.714 1.194 v -2.67 C 18.961 8.356 18.701 8.327 18.45 8.274" style="stroke: none; stroke-width: 1; stroke-dasharray: none; stroke-linecap: butt; stroke-linejoin: miter; stroke-miterlimit: 10; fill: rgb(255,0,79); fill-rule: nonzero; opacity: 1;" transform=" matrix(3.89 0 0 3.89 -1.9444444444444287 -1.9444444444444287) " stroke-linecap="round" />
	<path d="M 14.735 14.58 V 9.154 c 1.082 0.778 2.382 1.196 3.714 1.194 V 8.274 c -0.786 -0.169 -1.495 -0.589 -2.022 -1.196 c -0.853 -0.555 -1.442 -1.435 -1.629 -2.435 h -1.954 L 12.84 15.342 c -0.045 1.198 -1.031 2.16 -2.24 2.16 c -0.722 -0.001 -1.399 -0.349 -1.819 -0.935 c -0.739 -0.387 -1.202 -1.152 -1.203 -1.986 c 0.001 -1.239 1.005 -2.243 2.244 -2.244 c 0.231 0 0.452 0.038 0.662 0.104 v -2.093 c -2.656 0.062 -4.798 2.24 -4.798 4.911 c 0 1.292 0.502 2.467 1.319 3.346 c 0.824 0.58 1.808 0.891 2.816 0.89 C 12.531 19.493 14.735 17.289 14.735 14.58" style="stroke: none; stroke-width: 1; stroke-dasharray: none; stroke-linecap: butt; stroke-linejoin: miter; stroke-miterlimit: 10; fill: rgb(255,255,255); fill-rule: nonzero; opacity: 1;" transform=" matrix(3.89 0 0 3.89 -1.9444444444444287 -1.9444444444444287) " stroke-linecap="round" />
</g>
</svg>