<svg id="Layer" viewBox="0 80 512 350" xmlns="http://www.w3.org/2000/svg"><path d="m458 88h-404c-29.776 0-54 24.224-54 54v228c0 29.776 24.224 54 54 54h404c29.775 0 54-24.224 54-54v-228c0-29.776-24.225-54-54-54zm-130 80h16c13.255 0 24 10.745 24 24s-10.745 24-24 24h-16c-13.255 0-24-10.745-24-24s10.745-24 24-24zm0 88c0 13.255-10.745 24-24 24h-16c-13.255 0-24-10.745-24-24s10.745-24 24-24h16c13.255 0 24 10.745 24 24zm-80-88h16c13.255 0 24 10.745 24 24s-10.745 24-24 24h-16c-13.255 0-24-10.745-24-24s10.745-24 24-24zm0 88c0 13.255-10.745 24-24 24h-16c-13.255 0-24-10.745-24-24s10.745-24 24-24h16c13.255 0 24 10.745 24 24zm-80-88h16c13.255 0 24 10.745 24 24s-10.745 24-24 24h-16c-13.255 0-24-10.745-24-24s10.745-24 24-24zm-80 0h16c13.255 0 24 10.745 24 24s-10.745 24-24 24h-16c-13.255 0-24-10.745-24-24s10.745-24 24-24zm32 176h-32c-13.255 0-24-10.745-24-24s10.745-24 24-24h32c13.255 0 24 10.745 24 24s-10.745 24-24 24zm16-64h-16c-13.255 0-24-10.745-24-24s10.745-24 24-24h16c13.255 0 24 10.745 24 24s-10.745 24-24 24zm192 64h-144c-13.255 0-24-10.745-24-24s10.745-24 24-24h144c13.255 0 24 10.745 24 24s-10.745 24-24 24zm24-88c0-13.255 10.745-24 24-24h16c13.255 0 24 10.745 24 24s-10.745 24-24 24h-16c-13.255 0-24-10.745-24-24zm72 88h-32c-13.255 0-24-10.745-24-24s10.745-24 24-24h32c13.255 0 24 10.745 24 24s-10.745 24-24 24zm0-128h-16c-13.255 0-24-10.745-24-24s10.745-24 24-24h16c13.255 0 24 10.745 24 24s-10.745 24-24 24z" fill="white"/></svg>
