<?xml version="1.0" encoding="utf-8"?>
<!-- Generator: Adobe Illustrator 24.3.0, SVG Export Plug-In . SVG Version: 6.00 Build 0)  -->
<svg version="1.1" id="Whipper" xmlns="http://www.w3.org/2000/svg" xmlns:xlink="http://www.w3.org/1999/xlink" x="0px" y="0px"
	 viewBox="0 0 106 106" style="enable-background:new 0 0 106 106;" xml:space="preserve">
<style type="text/css">
	.st0{fill:#FFFFFF;}
</style>
<path class="st0" d="M98,16.8l-2.9-3.4c-0.4-0.4-1.1-0.5-1.5-0.1L90.4,16c-0.3,0.3-0.5,0.7-0.3,1.1l-6.4,5.6l-5.4-5.7L76.3,16
	l-4-3.9l-0.7,0.5l-0.5,1.1l-1.7-2.1l-1,0.8l1.7,2.1l-1.2,0.2l-1.8,1.4l0.2,1.1l-1.1,0.8l-1.1-0.4l-1.7,1.3l0.2,1.2L62.7,21l-1.1-0.4
	L59.9,22l0.2,1.2L59.1,24l-1.2-0.4l-1.6,1.3l0.2,1.3l-1.1,0.8l-1.3-0.4l-1.7,1.4l0,1.3l-2.8-3.5l-1.8,1.5l3.7,4.5l-0.8,1.2l1.8,8.1
	L7.8,78l16,16.3H26l18.4-16l0,0l10.5-0.5l9.5-5.5l5.2-7.1v-7.4l9-6.2l2.1,4.1l5.3-4.2v-6.9l-3.7-6.2l3.7-3.2l3.9,4.2l4.1-3.3
	L89.3,30h-4l0,0l0.8-2.2l0,0l7.6-6.6c0.3,0.1,0.7,0,1-0.2l3.2-2.7C98.3,17.9,98.4,17.2,98,16.8z M58.6,66.1l-6.2,4.5l-6.6-7.3
	l10.6-9c1.5,1.9,4.6,4.9,4.6,4.9L58.6,66.1z M57.8,36.6l-0.6-2.3l14.4-12.1l3,0.5L57.8,36.6z M74.4,50l-4.1-3.3l-0.8-3.3l5.5-4.6
	l4.4,6.2L74.4,50z"/>
</svg>
