<svg xmlns="http://www.w3.org/2000/svg" id="Layer_1" viewBox="0 0 71.412065 50" width="71.412" height="50"><style id="style3">.st0{fill:#F00}.st1{fill:#FFF}.st2{fill:#282828}</style><g id="g5"><path class="st0" d="M69.94 7.824a8.947 8.947 0 0 0-6.293-6.295C58.06 0 35.707 0 35.707 0S13.352 0 7.764 1.47c-3 .824-5.47 3.295-6.294 6.354C0 13.412 0 25 0 25s0 11.647 1.47 17.176a8.947 8.947 0 0 0 6.295 6.295C13.412 50 35.705 50 35.705 50s22.354 0 27.942-1.47a8.947 8.947 0 0 0 6.294-6.295c1.472-5.588 1.472-17.176 1.472-17.176s.06-11.648-1.47-17.236z" id="path7" fill="red"/><path class="st1" id="polygon9" fill="#fff" d="M47.176 25L28.588 14.294v21.412z"/></g></svg>