<?xml version="1.0" encoding="UTF-8" standalone="no"?>
<svg
   viewBox="0 0 168 54"
   xml:space="preserve"
   version="1.1"
   id="svg12"
   sodipodi:docname="mercZone_blueWizard2.svg"
   inkscape:version="1.1.1 (3bf5ae0d25, 2021-09-20)"
   xmlns:inkscape="http://www.inkscape.org/namespaces/inkscape"
   xmlns:sodipodi="http://sodipodi.sourceforge.net/DTD/sodipodi-0.dtd"
   xmlns="http://www.w3.org/2000/svg"
   xmlns:svg="http://www.w3.org/2000/svg"><defs
     id="defs16" /><sodipodi:namedview
     id="namedview14"
     pagecolor="#ffffff"
     bordercolor="#666666"
     borderopacity="1.0"
     inkscape:pageshadow="2"
     inkscape:pageopacity="0.0"
     inkscape:pagecheckerboard="0"
     showgrid="false"
     inkscape:zoom="6.297619"
     inkscape:cx="98.21172"
     inkscape:cy="26.914934"
     inkscape:window-width="3840"
     inkscape:window-height="2089"
     inkscape:window-x="-8"
     inkscape:window-y="-8"
     inkscape:window-maximized="1"
     inkscape:current-layer="svg12" /><switch
     id="switch10"
     style="fill:#26c1ca;fill-opacity:1"><g
       fill="#FFD800"
       id="g8"
       style="fill:#26c1ca;fill-opacity:1"><path
         d="M135.7 32.1h1.1l2.1 2.7h5.3l-2.7-3.8c1.3-1 2.2-2.6 2.2-4.3 0-3-2.5-5.4-5.5-5.4h-7.6v13.6h5v-2.8zm0-6.7h1.4c.7 0 1.3.6 1.3 1.3s-.6 1.3-1.3 1.3h-1.4v-2.6zM97.1 21.3h5v13.6h-5zM66.3 28.8l-.9-.9-1 .5c-2.5 2-.2 2.4-.2 2.4l.8-.4.8.7c2.9-.4.5-2.3.5-2.3zM157.8 28.1c0-4.1-3.1-6.8-6.9-6.8h-6.2v13.6h6.2c3.8-.1 6.9-2.7 6.9-6.8zm-8.3 2.6v-5.2h1c1.6 0 2.3 1.3 2.3 2.6 0 1.2-.6 2.6-2.3 2.6h-1zM113.9 34.8l1.4-4.1h-5.4l5.3-9.4H103v4.1h4.8l-5.2 9.4zM140.4 39.3h-1.8V44h3.4v-1.4h-1.6zM120 34.8l.4-1.3h4.2l.4 1.3h5.1l-4.5-13.6h-6.3l-4.5 13.6h5.2zm2.5-8.1.8 2.7h-1.7l.9-2.7zM30.8 39.3h-2.2V44h2.2c1.3 0 2.4-.9 2.4-2.4 0-1.4-1.1-2.3-2.4-2.3zm-.1 3.3h-.4v-1.8h.4c.6 0 .8.5.8.9s-.3.9-.8.9zM67.2 42.5c-.1.1-.2.1-.4.1-.5 0-.8-.4-.8-.9 0-.6.4-1 .8-1s.7.2.8.6h1.7c-.1-1.3-1.2-2.2-2.5-2.2-1.4 0-2.5 1.1-2.5 2.5s1.1 2.5 2.5 2.5 2.4-1 2.5-2.3h-2.6l.5.7zM84 39.3h1.7V44H84zM100.6 40.8h1.3V44h1.7v-3.2h1.3v-1.5h-4.3zM120.3 39.3l-1.6 4.7h1.8l.1-.5h1.5l.1.5h1.8l-1.6-4.7h-2.1zm.8 2.8.3-1 .3 1h-.6zM47.9 39.3h1.7V44h-1.7zM35.6 34.3c-.9-.9-1.5-2.2-1.7-3.7h-4.3v-9.4h-5v13.6h11.5c-.2-.1-.3-.3-.5-.5z"
         id="path2"
         style="fill:#26c1ca;fill-opacity:1" /><path
         d="M40.7 35.2c3.9 0 6.1-2.3 6.1-6.2v-7.8h-4.9V29c0 1.2-.4 1.9-1.2 1.9s-1.2-.7-1.2-1.9v-7.8h-4.9V29c0 3.9 2.1 6.2 6.1 6.2zM58.6 30.7h-6V30H57v-3.9h-4.3v-.7h4.9c-.2 1.8.1 4.2 2.5 6l.6.4s-.4 1-.6 1.8c-.2.8-.5 1.9-.5 1.9s1.7 1.1 3.9 1.7c2.4.7 5.1 1.1 5.1 1.1l1-3.3s3.5 0 5.5-.6c1.7-.5 4.1-1.9 4.8-2.4l.7 2.7h5.3l.9-3.5 1 3.5H93l3.7-13.6h-5.1l-1.5 6-1.3-6h-3.9l-1.3 6-1.5-6h-4.9l-.2-.9.9-.5-.4-1.3-1-3.4h-.2l2-2.2 3.8 1.2 2.1-1.9-6.8-4.3H75.5l-10.2 4.6-1.3 2-1.2.7-2.3 4.2-1.9-.7-3.6-.5-2.1.6-1.8 1.3 2.8 1.3h-6.3v13.6h10.9l.1-4.2zm18.6-4.5 1.4 5.3c-.2.2-.4.3-.6.4-1.4.9-3.3 1.7-5.5 1.9 0 0-1.6.1-3.8.1-.4.8-.8 1.9-1.2 3.2 0 0-.5-.1-1.2-.2l.2-1.6-.7 1.5c-.3-.1-.6-.1-1-.2l.3-1.6-.8 1.5c-.4-.1-.7-.2-1.1-.3l.4-2-.8 1.8c-.4-.1-.8-.3-1.1-.4l.3-1.4-.7 1.1c-.2-.1-.4-.3-.5-.4 0 0 .5-2.2 1.2-3.1-.3-.2-.5-.4-.8-.6-.5-.4-1.1-.9-1.5-1.4 0 0-2.2-2.6-.7-6.2l1.9 1.4c-1 0-1.8.7-1.6 2.3 0 0 .6 2.6 1.9 2.3 1.4-.2 3.3-.8 2.7-2.7-.1-.4-.4-.7-.7-1l2.1-.1 3.2.2c-1.9 3.1 1.8 4.9 1.8 4.9 7.1 2.7 7-2.3 6.8-3.8 0-.2-.1-.5-.3-.9h.4zm-.7-6.9-1.6.4-.5-1.3 1.3-1.1.5 1.9c.1 0 .2 0 .3.1zm-23.2.6 1.8-.5 3.2.5 5.8 2.3 6.3-.2-7.4-1.5-1.3-.7 1.7.2 3.2.1-3.7-.8-.8-.3 1.5-2.7 1.9-.4 1.4 2.9.8-2.9 3.1-.1-2.5-1.2 1.3-2.1-3 1.5-.7-.3 9.9-4.5H77l5.2 3.2-.4.4-3.8-1.4-.4-.6.1.8-2.5 2.8-.8-1.1.4 1.1-1.6-.5 1.6 1.2.5.7.4 1.6-1.5-.1-.6-2.3-1 2.2h-1.9l1.4 1.3-1.1 1.7 2.3-1 1.1.7-2.5.7h-1.5l1.7.5 3.8-.1.8 3h-7.1l6.2.7h1.1l.1.4-1.7.2-12.1-.4-3.7-2.1-6.2-2.9zM23.9 30.7c0-1.2-.5-2.2-1.4-2.9.5-.6.9-1.4.9-2.4 0-2.3-1.9-4.1-4.2-4.1h-7.8v13.6h8.3c2.3-.1 4.2-1.9 4.2-4.2zm-7.5-5.9h1c.5 0 .9.3.9.8s-.4.8-.9.8h-1v-1.6zm1.3 6.7h-1.3v-1.7h1.3c.5 0 .9.4.9.9-.1.4-.5.8-.9.8z"
         id="path4"
         style="fill:#26c1ca;fill-opacity:1" /><path
         d="m75.4 12.4.3 1.1.3-1h.8l-.5-.6.3-.8-.9.4-.7-.4.1.7-.9.3z"
         id="path6"
         style="fill:#26c1ca;fill-opacity:1" /></g></switch></svg>
