<svg xmlns="http://www.w3.org/2000/svg" viewBox="0 0 570 26" preserveAspectRatio="none"><switch><g><path d="m8.4 25.7 8.4-.1 2.8-.4 5.6-.1 3.1.2 6-.2 8.1-.3 4 .1 9.9.7H81l3.4-.4 2-.2h5.4l2.9-.1 7 .1 2.1.1 108.4.1 3.4.4 28.3-.4 2.3-.1 3.3.1 3.4.1s7.5-.1 8.1-.1c.6 0 6.3-.2 6.3-.2l6.1.1 4.7.1 4.8.1 48.9.1h4.8l17.1-.7s3.6-.2 5.4-.1c1.8.1 12.6.4 12.9.4.2 0 2.6.3 5.5.6h30.3l6.9-.6 11.2.1 11.5-.2 24.5.3h19.4l9.2-.6h10.4l3.3.2 6.3-.1 4.8.2 1.8.2 8.5-.1 3.6-.4h5l6.5-.4 18 .8 10.9-.1V0H0v26l8.4-.3z" fill="#4c6e70"/></g></switch></svg>
