<?xml version="1.0" encoding="UTF-8" standalone="no"?>
<svg
   xmlns:dc="http://purl.org/dc/elements/1.1/"
   xmlns:cc="http://creativecommons.org/ns#"
   xmlns:rdf="http://www.w3.org/1999/02/22-rdf-syntax-ns#"
   xmlns:svg="http://www.w3.org/2000/svg"
   xmlns="http://www.w3.org/2000/svg"
   xmlns:sodipodi="http://sodipodi.sourceforge.net/DTD/sodipodi-0.dtd"
   xmlns:inkscape="http://www.inkscape.org/namespaces/inkscape"
   viewBox="0 0 264.23002 192.23135"
   version="1.1"
   id="svg10"
   sodipodi:docname="icon_hat.svg"
   width="264.23001"
   height="192.23135"
   inkscape:version="1.0.2-2 (e86c870879, 2021-01-15)">
  <metadata
     id="metadata14">
    <rdf:RDF>
      <cc:Work
         rdf:about="">
        <dc:format>image/svg+xml</dc:format>
        <dc:type
           rdf:resource="http://purl.org/dc/dcmitype/StillImage" />
        <dc:title></dc:title>
      </cc:Work>
    </rdf:RDF>
  </metadata>
  <sodipodi:namedview
     pagecolor="#ffffff"
     bordercolor="#666666"
     borderopacity="1"
     objecttolerance="10"
     gridtolerance="10"
     guidetolerance="10"
     inkscape:pageopacity="0"
     inkscape:pageshadow="2"
     inkscape:window-width="2194"
     inkscape:window-height="1349"
     id="namedview12"
     showgrid="false"
     fit-margin-top="40"
     lock-margins="true"
     fit-margin-left="40"
     fit-margin-right="40"
     fit-margin-bottom="40"
     inkscape:zoom="5.6559736"
     inkscape:cx="132.115"
     inkscape:cy="96.121359"
     inkscape:window-x="0"
     inkscape:window-y="0"
     inkscape:window-maximized="0"
     inkscape:current-layer="svg10" />
  <defs
     id="defs4">
    <style
       id="style2">.cls-1{fill:#2f4546;}</style>
  </defs>
  <g
     id="Layer_2"
     data-name="Layer 2"
     transform="translate(40,40.011359)">
    <g
       id="Layer_1-2"
       data-name="Layer 1">
      <path
         class="cls-1"
         d="m 126.21,0 a 3.56,3.56 0 0 0 -1.12,0.09 c -13.13,0 -18.78,11.53 -33,13.26 C 77.92,11.63 72.27,0.13 59.15,0.1 A 3.82,3.82 0 0 0 57.94,0 C 47.32,1 36.7,41.63 32.69,76.54 c 6.3,5.09 32.06,12 59.43,12 27.37,0 53.27,-4.91 59.57,-10 -4,-35 -14.81,-77.75 -25.48,-78.53 z M 34.47,64.32 33.78,64.43 C 13.16,67.81 0,72.94 0,78.68 c 0,10.18 32.69,33.54 92.12,33.54 50.87,0 92.11,-23.36 92.11,-33.54 0,-5.73 -13.07,-10.84 -33.58,-14.22 l -0.89,-0.13 0.7,6.26 v 0 c 0,6.44 -26.11,11.67 -58.33,11.67 C 59.91,82.26 33.78,77 33.78,70.59 l 0.69,-6.26 z"
         id="path6" />
    </g>
  </g>
</svg>
