<?xml version="1.0" encoding="utf-8"?>
<!-- Generator: Adobe Illustrator 25.2.3, SVG Export Plug-In . SVG Version: 6.00 Build 0)  -->
<svg version="1.1" id="Layer_3" xmlns="http://www.w3.org/2000/svg" xmlns:xlink="http://www.w3.org/1999/xlink" x="0px" y="0px"
	 viewBox="0 0 100 100" style="enable-background:new 0 0 100 100;" xml:space="preserve">
<style type="text/css">
	.st0{fill:#314647;}
</style>
<g>
	<path class="st0" d="M79.1,52.1v-2.4H68.9l-3.7-19.1H53.4l-2.9,19.1h-0.2l-3.9-19.1H34.7l-3.5,19.1h-10v2.4h9.5l-0.5,2.7h-9v2.4
		h8.6l-2.1,11.2h7.8l2-11.2h6.3l2.5,11.2h7.6l2.3-11.2h6.2l1.9,11.2h8.4l-2.2-11.2h8.7v-2.4h-9.1l-0.5-2.7H79.1z M59.5,41l1.5,8.7
		h-3.3L59.5,41z M40.3,41.5l1.8,8.2h-3.3L40.3,41.5z M37.9,54.8l0.5-2.7h4.3l0.6,2.7H37.9z M61.9,54.8h-5.2l0.6-2.7h4.2L61.9,54.8z"
		/>
	<path class="st0" d="M70.4,39.6c0,0,0.1,0.1,0.1,0.1c0.1,0.1,0,0.2-0.2,0.3c0,0-0.1-0.1-0.1-0.1C70.2,39.8,70.3,39.7,70.4,39.6z
		 M37.9,63.4c0.2-0.2,0.4-0.3,0.6-0.2c0.1,0,0.2,0.1,0.3,0.2c0,0.1,0,0.3,0,0.5c-0.2,0.2-0.4,0.4-0.6,0.6c-0.3-0.1-0.5-0.4-0.7-0.6
		C37.6,63.7,37.7,63.6,37.9,63.4z M52.3,32.1c-0.1,0.1-0.1,0.2-0.1,0.1C52,32.2,51.9,32.1,52,32c0-0.1,0.1-0.2,0.1-0.1
		C52.3,31.9,52.3,32,52.3,32.1z M49.6,38.5c0.3-0.3,0.6-0.3,0.9,0c-0.2,0.1-0.3,0.3-0.5,0.4c-0.1,0.1-0.2,0.2-0.3,0.1
		c-0.1-0.1-0.2-0.2-0.1-0.4C49.6,38.6,49.6,38.6,49.6,38.5z M47.6,28.6c0,0,0.1,0.1,0.1,0.1c0.1,0.1,0,0.2-0.2,0.3
		c0,0-0.1-0.1-0.1-0.1C47.3,28.8,47.4,28.7,47.6,28.6z M31.5,65.2c0-0.1,0.1-0.1,0.2-0.2c0.2,0.1,0.2,0.2,0.2,0.3
		c0,0.1-0.1,0.2-0.1,0.1C31.5,65.4,31.5,65.3,31.5,65.2z M29.8,65.5c0.1,0,0.2,0.2,0.2,0.3c0,0-0.1,0.1-0.1,0.1
		c-0.1-0.1-0.2-0.1-0.3-0.2C29.5,65.5,29.6,65.4,29.8,65.5z M29.5,65.1c0.1,0.1,0.2,0.2,0.1,0.4c0,0-0.1,0-0.2,0
		c-0.1,0-0.1-0.1-0.2-0.1c0,0-0.1-0.1-0.1-0.1C29.3,65,29.4,65,29.5,65.1z M27.4,59.8c0.1-0.2,0.2-0.2,0.3-0.2
		c0.1,0,0.1,0.1,0.2,0.2c0,0.1,0,0.1,0,0.2c0,0.3-0.1,0.5-0.3,0.4c-0.2-0.1-0.2-0.2-0.2-0.4C27.4,59.9,27.3,59.8,27.4,59.8z
		 M32.1,35.1c0.1,0,0.2,0.1,0.1,0.1c-0.1,0.2-0.2,0.2-0.3,0.2c-0.1-0.1-0.2-0.1-0.1-0.1C31.9,35.1,32,35.1,32.1,35.1z M36.6,70.7
		c0,0-0.1-0.1-0.1-0.1c-0.1-0.1,0-0.2,0.2-0.3c0,0,0.1,0.1,0.1,0.1C36.8,70.5,36.7,70.6,36.6,70.7z M55.5,66.3
		c-0.1,0-0.2-0.1-0.1-0.1c0.1-0.2,0.2-0.2,0.3-0.2c0.1,0.1,0.2,0.1,0.1,0.1C55.7,66.3,55.6,66.4,55.5,66.3z M31,43.9
		c0,0-0.1-0.1-0.1-0.1c-0.1-0.1,0-0.2,0.2-0.3c0,0,0.1,0.1,0.1,0.1C31.2,43.7,31.1,43.9,31,43.9z"/>
</g>
</svg>
