<?xml version="1.0" encoding="utf-8"?>
<!-- Generator: Adobe Illustrator 25.2.3, SVG Export Plug-In . SVG Version: 6.00 Build 0)  -->
<svg version="1.1" id="Layer_1" xmlns="http://www.w3.org/2000/svg" xmlns:xlink="http://www.w3.org/1999/xlink" x="0px" y="0px"
	 viewBox="0 0 100 100" style="enable-background:new 0 0 100 100;" xml:space="preserve">
<style type="text/css">
	.st0{fill:#314647;}
</style>
<g>
	<polygon class="st0" points="38.3,52.1 37.9,54.8 43.2,54.8 42.6,52.1 	"/>
	<polygon class="st0" points="40.3,41.5 38.8,49.7 42.1,49.7 	"/>
	<polygon class="st0" points="59.5,41 57.7,49.7 61,49.7 	"/>
	<polygon class="st0" points="56.6,54.8 61.9,54.8 61.4,52.1 57.2,52.1 	"/>
</g>
<path class="st0" d="M50.1,14.9c-19.2,0-34.8,15.6-34.8,34.8c0,19.2,15.6,34.8,34.8,34.8c19.2,0,34.8-15.6,34.8-34.8
	C84.9,30.4,69.3,14.9,50.1,14.9z M70.4,39.6c0,0,0.1,0.1,0.1,0.1c0.1,0.1,0,0.2-0.2,0.3c0,0-0.1-0.1-0.1-0.1
	C70.2,39.8,70.3,39.7,70.4,39.6z M65.3,23.3c0.1-0.1,0.2-0.1,0.4-0.1c0.3,0,0.4-0.2,0.5-0.4c0.2-0.1,0.5-0.1,0.6,0
	c0.2,0.2,0.4,0.4,0.6,0.6c-0.4,0.4-0.8,0.8-1.1,1.2c-0.3,0-0.6,0-0.9,0c-0.2-0.1-0.2-0.2-0.2-0.4c0-0.2,0-0.3,0-0.5
	C65.1,23.5,65.2,23.4,65.3,23.3z M55.7,28.3c0.1-0.1,0.2,0,0.3,0.2c0,0-0.1,0.1-0.1,0.1c-0.1,0.1-0.2,0-0.3-0.2
	C55.6,28.4,55.6,28.3,55.7,28.3z M51.4,21.5c0.2-0.2,0.4-0.3,0.6-0.2c0.1,0,0.2,0.1,0.3,0.2c0,0.1,0,0.3,0,0.5
	c-0.2,0.2-0.4,0.4-0.6,0.6c-0.3-0.1-0.5-0.4-0.7-0.6C51.1,21.8,51.3,21.7,51.4,21.5z M52.3,32.1c-0.1,0.1-0.1,0.2-0.1,0.1
	C52,32.2,51.9,32.1,52,32c0-0.1,0.1-0.2,0.1-0.1C52.3,31.9,52.3,32,52.3,32.1z M51.1,32.4c0.2-0.1,0.3,0.2,0.5,0.3
	c0.1,0,0.1,0.1,0.2,0.2c0,0.1,0.1,0.1,0.1,0.2c-0.3,0.3-0.6,0.3-0.9,0C51,32.8,50.9,32.5,51.1,32.4z M49.6,38.5
	c0.3-0.3,0.6-0.3,0.9,0c-0.2,0.1-0.3,0.3-0.5,0.4c-0.1,0.1-0.2,0.2-0.3,0.1c-0.1-0.1-0.2-0.2-0.1-0.4C49.6,38.6,49.6,38.6,49.6,38.5
	z M47.6,28.6c0,0,0.1,0.1,0.1,0.1c0.1,0.1,0,0.2-0.2,0.3c0,0-0.1-0.1-0.1-0.1C47.3,28.8,47.4,28.7,47.6,28.6z M45.1,23.3
	c0-0.1,0.1-0.1,0.2-0.2c0.2,0.1,0.2,0.2,0.2,0.3c0,0.1-0.1,0.2-0.1,0.1C45.1,23.5,45,23.4,45.1,23.3z M44.3,28.6
	c0.3,0.3,0.3,0.6,0,0.9C44,29.2,44,28.9,44.3,28.6z M43.4,23.6c0.1,0,0.2,0.2,0.2,0.3c0,0-0.1,0.1-0.1,0.1c-0.1-0.1-0.2-0.1-0.3-0.2
	C43.1,23.6,43.2,23.5,43.4,23.6z M43.1,23.2c0.1,0.1,0.2,0.2,0.1,0.4c0,0-0.1,0-0.2,0c-0.1,0-0.1-0.1-0.2-0.1c0,0-0.1-0.1-0.1-0.1
	C42.9,23.2,43,23.2,43.1,23.2z M43.1,29.4c0,0.1-0.1,0.2-0.1,0.1c-0.2-0.1-0.2-0.2-0.2-0.3c0-0.1,0.1-0.1,0.2-0.2
	C43.1,29.2,43.2,29.3,43.1,29.4z M40.9,17.9c0.1-0.2,0.2-0.2,0.3-0.2c0.1,0,0.1,0.1,0.2,0.2c0,0.1,0,0.1,0,0.2
	c0,0.3-0.1,0.5-0.3,0.4c-0.2-0.1-0.2-0.2-0.2-0.4C40.9,18,40.9,18,40.9,17.9z M32.1,35.1c0.1,0,0.2,0.1,0.1,0.1
	c-0.1,0.2-0.2,0.2-0.3,0.2c-0.1-0.1-0.2-0.1-0.1-0.1C31.9,35.1,32,35.1,32.1,35.1z M21.9,39.2c0,0,0.1,0.1,0.1,0.1
	c0.1,0.1,0,0.2-0.2,0.3c0,0-0.1-0.1-0.1-0.1C21.7,39.4,21.8,39.3,21.9,39.2z M36.6,70.7c0,0-0.1-0.1-0.1-0.1c-0.1-0.1,0-0.2,0.2-0.3
	c0,0,0.1,0.1,0.1,0.1C36.8,70.5,36.7,70.6,36.6,70.7z M48,77.6c0,0.1-0.1,0.1-0.2,0.2c-0.1,0.1-0.2,0-0.3-0.2c0-0.3,0-0.6,0-0.9
	c0-0.1,0.1-0.1,0.2-0.2c0.1-0.1,0.2,0,0.3,0.2C48,77,48,77.3,48,77.6z M50.7,71.6c0,0.1-0.1,0.1-0.1,0.2c0,0-0.1,0.1-0.1,0.1
	c-0.2-0.1-0.2-0.2-0.1-0.3c0.1-0.1,0.2-0.2,0.4-0.1C50.8,71.4,50.7,71.6,50.7,71.6z M51.4,71c-0.1,0-0.2,0-0.2,0
	c-0.1,0.4-0.1,0.4-0.5,0.5c0.1-0.4,0.1-0.4,0.5-0.5c0,0,0-0.1,0-0.2c0-0.1,0.2-0.2,0.3-0.2c0,0,0.1,0.1,0.1,0.1
	C51.5,70.8,51.5,70.9,51.4,71z M55.5,66.3c-0.1,0-0.2-0.1-0.1-0.1c0.1-0.2,0.2-0.2,0.3-0.2c0.1,0.1,0.2,0.1,0.1,0.1
	C55.7,66.3,55.6,66.4,55.5,66.3z M58.7,76.9c0,0-0.1-0.1-0.1-0.1c-0.1-0.1,0-0.2,0.2-0.3c0,0,0.1,0.1,0.1,0.1
	C58.9,76.7,58.9,76.8,58.7,76.9z M59.8,75.4c0,0.1-0.1,0.2-0.1,0.1c-0.2-0.1-0.2-0.2-0.2-0.3c0.1-0.1,0.1-0.2,0.1-0.1
	C59.8,75.2,59.9,75.3,59.8,75.4z M61,73.7c0,0-0.1-0.1-0.1-0.1c-0.1-0.1,0-0.2,0.2-0.3c0,0,0.1,0.1,0.1,0.1
	C61.2,73.5,61.2,73.6,61,73.7z M61.6,65.8c-0.2,0.1-0.3-0.2-0.5-0.3c-0.1,0-0.1-0.1-0.2-0.2c0-0.1-0.1-0.1-0.1-0.2
	c0.3-0.3,0.6-0.3,0.9,0C61.7,65.5,61.8,65.7,61.6,65.8z M79.1,52.1h-9.7l0.5,2.7h9.1v2.4h-8.7l2.2,11.2h-8.4l-1.9-11.2h-6.2
	l-2.3,11.1c0,0.1,0,0.1,0,0.2c0,0.1-0.1,0.1-0.2,0.2c-0.1,0-0.1,0-0.2,0c-0.2,0-0.4-0.1-0.4-0.2h-6.9l-2.5-11.2h-6.3l-2,11.2h-7.8
	l2.1-11.2h-8.6v-2.4h9l0.5-2.7h-9.5v-2.4h10l3.5-19.1h10.5c0-0.1,0.1-0.1,0.1-0.2c0.1,0.1,0.1,0.1,0.1,0.2h0.9l3.9,19.1h0.2
	l2.5-16.1c0-0.1-0.1-0.1,0-0.2c0,0,0-0.1,0.1-0.1l0.4-2.7h11.9l3.7,19.1h10.1V52.1z M81.6,37.9c0.2-0.2,0.4-0.4,0.6-0.6
	c0.3,0.5,0.3,0.5,0,0.9C82,38.2,81.6,38.4,81.6,37.9z"/>
</svg>
