<svg xmlns="http://www.w3.org/2000/svg" viewBox="0 0 760 30" preserveAspectRatio="none"><switch><g><path d="M0 0v20.6l4.9-.6 13.6 2.1 1.9 2.9h5.8l4 3h5.3c.9-.8 3.8-3 7.9-3 1.5 0 2.9.3 4.4.8 1.2-.8 4.8-2.7 9.4-2.7 4.7 0 9.1 2 13.1 5.8h38.4l12.4-3 7.9 3h19.9l13.8-4h21.1v-4.4l14.1 4.4h19.9l19.3 4h133l12.1-12.1.5.1c.5.1 12.7 2 19.9 6.8l4.8-2.9 11.1 4 9.9-4 46.1 8h58.7l26.1-9.1 5.5 1.8 4.6-10.4 4.6 12.7h45l23.1-5 13.3 4.1 16.8 5.9 42.4-4c1.6-1.2 10.4-7.6 16-7.6 1.1 0 2.1.2 2.8.7 3.8 2.3 5.9 4.5 6.8 5.6l8.5-3.8h4.9l3.7-2.5 2.6 4V0H0z" fill="#2f4546"/><path d="M758.5 13.2l-3.8 2.5-2 1.3h-4.5l-.8.3-6.3 2.8c-1.3-1.3-3.3-3-6-4.6-1.3-.8-2.7-1.1-4.4-1.1-6 0-14.1 5.4-17.2 7.7l-40.9 3.8-16.2-5.7h-.2l-13-4-1-.3-1 .2-22.5 4.9H576l-3-8.4-3.4-9.3-4 9.1-2.5 5.7-2.5-.8-1.3-.4-1.3.4-25.4 8.7h-57.9l-45.6-7.9-1.1-.2-1.1.4-8.6 3.4-9.6-3.5-1.8-.7-1.6 1-2.9 1.7c-7.8-4.4-18.9-6.2-19.4-6.3l-2-.3-1.4 1.4-10.8 11H237.3l-18.9-3.9-.4-.1H198.2l-12.4-3.8-5.2-1.6V22H162l-.5.2-13.1 3.8h-18.9l-7.1-2.7-1.2-.5-1.2.3-11.7 2.9H71.4c-4.3-3.8-9.2-5.8-14.3-5.8-4.3 0-7.7 1.4-9.7 2.4-1.3-.4-2.7-.6-4-.6-4.1 0-7.2 1.7-8.9 3h-3.2l-2.9-2.2-1.2-.8H22l-.8-1.2-1-1.5-1.7-.3-13-2H4.4l-4.4.6v4l4.9-.6 13 2 2 3h6l4 3h6s3-3 7.5-3c1.4 0 2.9.3 4.5 1 0 0 3.9-2.8 9.3-2.8 3.7 0 8.2 1.3 12.7 5.8h39l12.2-3 7.8 3h20.2l13.8-4h22v-4l13 4h20l19.3 4h133.5l12-12s13 2 20 7l5-3 11 4 10-4 45.9 8h58.9l26-9 6 2 4-9 4 11h46l23-5 13 4 17 6 42.9-4s9.8-7.6 15.7-7.6c.9 0 1.7.2 2.3.6 5 3 7 6 7 6l9-4h5l3-2 2 4 1-.4v-6.5l-1.9-2.9z" fill="#ffd800"/></g></switch></svg>