<svg xmlns="http://www.w3.org/2000/svg" viewBox="0 0 50 52"><style>.st1{fill:#ffd800}</style><switch><g><path fill="#2f4546" d="M50 50V0H0v46.75l3.97 1.38L6.62 50h9.94l2.26-.79 1.97.2 3.05 2.16h5.21l.3-1.08 8.06.1h2.23l2.4-1.67 2.36-2.17z" id="Background"/><g id="Icon"><path class="st1" d="M45.3 28.06l-7.93-7.93c.19.01.38.03.56.06.3.06.49.06.55-.13.16-.44-.24-.63-.4-.93-.59-.12-.95.08-1.12.59L25 7.76 4.7 28.06h8.37v13.21h8.77v-9.92h6.3v9.92h8.77V28.06h8.39zM36.27 14.55c.13-.73-.18-1.13-.92-1.2-.12.73.18 1.13.92 1.2zM28.22 43.6c-.18.03-.28.2-.23.5.01.03.22.06.34.05.19-.02.28-.2.23-.5-.01-.03-.22-.03-.34-.05zM8.28 8.11c.03.01.13-.19.16-.3.05-.18-.09-.33-.38-.39-.03-.01-.11.19-.16.3-.04.18.08.33.38.39z"/><path class="st1" d="M37.88 33.85c-.19.02-.28.2-.23.5 0 .03.22.03.34.05.18-.03.28-.2.23-.5-.01-.04-.23-.06-.34-.05zM40.05 29.06c-.11-.04-.32-.08-.34-.05-.12.28-.08.46.09.55.12.02.32.07.34.04.12-.27.08-.47-.09-.54zM37.58 14.19c.11.04.32.08.34.05.12-.28.08-.46-.09-.55-.12-.02-.32-.07-.34-.04-.13.27-.09.47.09.54zM17.87 10.38c-.01-.03-.22-.06-.34-.05-.19.02-.27.2-.25.5.12.02.24.05.35.04.19-.01.28-.2.24-.49zM40.37 17.68c.12.02.32.07.34.04.12-.28.08-.48-.09-.54-.11-.04-.32-.08-.34-.05-.12.28-.07.47.09.55zM10.03 36.19c-.18.03-.28.2-.23.5.01.03.22.06.34.05.19-.02.28-.2.23-.5-.01-.03-.22-.03-.34-.05z"/></g></g></switch></svg>