<svg xmlns="http://www.w3.org/2000/svg" viewBox="0 0 366 146"><style>.st2{fill:#24BCBC}</style><switch><g><path d="M149 127.1l-7-.4-5.8-3.7H122l-8 8.6-17.2-1.6-5.3 4.1-25-7.7-15.3 1.3-22.2 9.7-14.2-4-6.4-2.6v-23.9l7.4-8L7.4 89V5.7h351.1v100.4h-4.6l-10 19.4-19.4-1.2-13.1 15.6L295 123l-17.1.9-3.4 4.9h-.7c-9.5 0-28.7 3.8-32.3 4.5-1.3-1.1-3.8-1.7-7.4-1.7-1.7 0-3 .1-3.1.1h-.3l-5.7 4.1h-12.7l-5-5.3-14.4-.9-27.3 10.6-16.6-13.1z" fill="#2f4546" id="background"/><path d="M355.5 8.7v94.4h-3.4l-1.1 2.2-8.8 17.1-17-1.1-2-.1-1.3 1.6-10.6 12.7-13.8-14.2-1.3-1.3-1.8.1-16.1.8-2 .1-1.1 1.6-2.3 3.2c-9.1.2-25.3 3.2-30.8 4.3-1.9-1-4.5-1.5-8-1.5-1.9 0-3.3.1-3.4.2l-1.1.1-.9.6-4.7 3.4h-10.4l-3.8-4.1-1.1-1.2-1.6-.1-13.8-.8-.9-.1-.8.3-25.5 9.9L151 125l-1-.8-1.2-.1-5.9-.4-4.9-3.1-1-.6h-16.3l-1.2 1.3-6.7 7.2-15.3-1.5-1.6-.1-1.2 1-3.7 2.9-23.4-7.2-.7-.2-.8.1-15 1.2-.7.1-.6.3-21 9.3-13-3.7-4.4-1.8V108l6-6.5 2.4-2.6-2.3-2.7-7.1-8.4V8.7h345.1m4-4H6.5v84.6l8.1 9.5-7.1 7.6v25l7.1 2.9 14.6 4.1 22.3-9.9 15-1.2 25.4 7.8 5.4-4.1 17.3 1.7 8.1-8.7h13.4l5.8 3.7 6.9.4 16.9 13.2 27.7-10.7 13.8.8 5 5.4h13.4l5.8-4.1s1.3-.1 3-.1c2.5 0 5.9.3 7 1.8 0 0 22.3-4.6 32.6-4.6h1.2l3.5-5 16.1-.8 16.9 17.3 13.4-16.1 19.6 1.2 10-19.4h5V4.7h-.2z" fill="#24BCBC" id="inner_outline"/><g id="Text"><path class="st2" d="M13 69.8l.1.3h-.6v-.2l.5-.1zm1.2-6.3l-.5.3.2.6c.3 0 .4-.1.5-.4l-.2-.5zm.4-2h-.3v.1l.2.3h-.2c-.1 0-.2.2-.3.6l.2.1h.1l.5-.6-.2-.5zm0-7.6h-.2v.2h.5l-.3-.2zm.1 9.6h-.2v.1l.3.2h.3l-.4-.3zm.9 1.6l-.3.2-.2-.5.5.3zm.1-10.6h-.5l.4.2h.1v-.2zm.7-1.1c-.4.1-.6.2-.6.3 0 .2.2.3.6.3l-.1.1v.1l1.3.3v.1l-.2.1v.1c.2 0 .3.1.3.3l.2.1h.2l.3-.3v-.1h-.5l.4-.4h.2l-.3.3.8.2v-.2h-.3v-.1h.5c0 .1.2.2.5.2l.2.3c-.1.4-.2.6-.4.6l-.2-.3.2-.3h-.3l-.3.2h.2l-.1.1v.1l.8.5.2-.1h.2l.2.1.2-.1-.6-.6v-.2h.6v.1l-.2.1v.1l.2.1h.2l.2-.1v-.1l-.1-.1.1-.1v-.2l-1.1-.2.2-.1v-.1l-2.1-.7h-.3l-.6.2v-.2H17l.2-.1-.1-.2c-.2 0-.3.1-.3.3l-.2-.1h-.2l.2-.1v-.1l-.2-.1zm.4 8h-.2v.2l.5.1v-.1l-.3-.2zm1.6 3.7v.2h-1l.3-.2h.7zm-.3-11v.2l-.5-.1v-.1h.5zm1.7 5.8l.2.2v.1l-.1.4v.1h.3l.1-.7-.2-.1h-.3zm.5 1h-.5v.3l.3.2.1-.1v-.1H20l.2-.1v-.2zm-.1-2.6h-.3v.4h.5v-.1l-.2-.3zm.2 10.5l-.3.2H20l.3-.2h.1zm3.2-12.1h-.5l-.3.3h.8v-.3zm-.5-.8H23c.2.3.3.5.5.5v-.3l-.4-.2zm1.7 13.5h-.2l-1.3.5v.2l.3.2h.3c.2 0 .3-.2.3-.5h.6v-.4zm2.3-11.1l.1.3h-.1l-.3-.2v-.1h.3zm-.2-12.7l-.2.1v.1l.2.1h.2l.1-.1v-.1l-.2-.1h-.1zm.6 22.9l.1.4c-.2 0-.3.2-.2.5l-.2.1h-.1l-.3-.6c.2 0 .3-.1.3-.4h.4zm1.3.8l-.6.7h-.5l-.1-.4.1-.1h.2l.2.1.3-.2h.4zm-.4-1.2l-.3.3h-.3v-.2l.4-.1h.2zm.2-16.6h-.2l-.3.2.2.1h.2l.1-.1v-.2zm.7 16.7v.8l-.6.2v-.7l.4-.4h.2zm.3 1.1v.5H29l.3-.5h.3zM29.1 51v.3h.2l.3-.2-.2-.1h-.3zm2.3 1.7h-.3l-.3.5-.2-.1H30l-.3.2c.2 0 .4.2.5.5l-.3.2.2.1h.2l-.3.1v.2l.3.2h.3l.7-.2 1.1.1.5-.1v-.2h-.5l-.5.1v-.1l-.7-.7.2-.1-.4-.1v-.1c.3 0 .5-.1.5-.2v-.3zm-1.2-1.8H30l-.3.2h.5v-.2zm1.1 3.1v.2h-.1l-.4-.2v-.2h.2l.3.2zm.4 24.9l-.5.1v-.2l.5.1zm-.1-10.8l.3.6v.1h-.1l-.4-.1-.1-.5.3-.1zm.2-8.6l-.3.3v.1h.6l-.1-.1v-.1l.2-.1-.2-.1h-.2zm1 9.3v.6l-.7.1-.5-.1c.2-.4.5-.6 1-.6h.2zm-.4-7.9h-.1v.2h.5l-.4-.2zM33.5 76v.3l-.4.2-.6-.4v-.5l.2-.6h.2c.4 0 .6.4.6 1zm.1-7.9v.1l-.3.6H33l-.3-.5.2-.1.7-.1zm0-6.6h-.5l.4.2h.1v-.2zm.5-6.8h-.5v.2h.5v-.2zm6.4 17.6l.9.7-.2.5.2.3-.2.2H41c-.2-.5-.3-.7-.5-.7l-.9.9-1.3-.4h-.2l-.1.1h-.2v-.2h-.5l-.3 1.2v.1l.4.3h.2v-.6l.5.2 1.1-.5c.5.1.7.5.7 1.3l-.2.1H39l-1.8.2-2-.3v.4c-.6 0-1-.1-1.1-.4v-.2l.2-.5-.3-.4.2-.9v-1c0-.2 2.1-.3 6.3-.4zm-6.2-18.6l-.2.1v.1h.2l-.1.1v.2h.3v-.3l.8.1h.2v-.2l-1.2-.1zm1.4 7.3h-.5l-.2.1V61h-.5c0 .2.4.3 1.2.3v.2h.3l-.3-.5zm-.6 7.3v.5h-.6v-.5h.6zm.9-9.5l-1.4.2v.1l.8.1h.2l.6-.2-.2-.2zm-.4-.7h-.3l-.2.4.2.1-.1.1h.1l.3-.2-.2-.1.2-.1v-.2zm-.3 17v.1l.4.3.2-.1v-.1l-.2-.1h-.4zm8.4-1.6l-1.2.1H40l-4.5.1v.3h6.1l.9.1c0-.2.4-.3 1.2-.4v-.2zm-7.8-12.4v.2l-.5-.1v-.1h.5zm.6 7.9l.3.5h-.2l-.4-.1V69h.3zm0-7.9l.1.5h.3v-.3l-.4-.2zm1 10.9l-.3.2h-.5l.3-.2h.5zm.9-10.3l.3.3h1v.2h.2l.1-.1h.2l2 .5.2-.1v-.1c-1.3-.4-2.5-.6-3.4-.6l-.2.1-.4-.2zm.7-.8H39v.2h.5l-.4-.2zm2-1.7h-.3l-.1.4.4-.4zm.4 4.6H41l-.3.2h.8v-.2zm-.5-.9h-.2c.2.3.4.5.5.5v-.3l-.3-.2zm.3 1.5h-.2l-.3.2.2.1h.1l.1-.1v-.2zm.3-12.1h-.2l-.3.2.2.1-.2.1v.2h.2l.6-.2-.3-.4zm-.3-2.8l-.2.1.2.1-.1.5.2.3h.5c-.2-.6-.4-1-.6-1zm.8 6.4h-.3c-.2 0-.3.3-.3.8l-.3.2v.3l.6.1-.1.1.6 1.2h.1l.1-.5-.2-.1v-.4h.2c0 .4.2.5.7.5V58c0-.1.2-.2.5-.2v-.1l-.2-.1.1-.1v-.1c-.6-.5-.8-.8-.8-1l.2-.1c-.6 0-.9-.1-.9-.4zm-.1-1.3h-.8l.4 1.1h.3v-.6l-.2-.1v-.1l.3-.3zm-.2 17.9h-.5v.3h.5v-.3zm-.1-21.3h-.3l.2.5h.3l-.2-.5zm0 .7h-.3v.3h.3v-.3zm.6 13.2h-.2c-.2 0-.3.1-.3.4h-.3v.2h.2l.6-.4v-.2zm.5 7.2l.5.4h.7l.6-.3.2.5c-.4 0-.5.3-.5.9H44c0-.5-.1-.8-.4-.8-.2.6-.3.9-.5.9 0-.3-.5-.5-1.5-.6v-1h.2l.5.3.5-.3zm-.7-7.8H42v.2h.3c0 .1-.2.2-.5.2 0 .2.3.3.8.3V65l-.2-.1.2-.1v-.1l-.5-.2zm.8-4.6h-.5l-.3.2.2.1h.3l.3-.3zm-.3.5l-.3.2.2.1h.3l-.2-.3zm.3 2.1h-.2l-.3.2v.1h.3l.2.1.1-.1-.1-.3zm0-1.4h-.5v.2h.5v-.2zm.6-8.7h-.3l-.3.2.2.1.5-.1-.1-.2zm1.6 16.1l-.3.3-.2-.1h-.2l-1.1 1.2.1.1h.3l.3-.2.1.1h.2l.6-.1.3.2.1-.1.2.1h.8v-.2h-.7V69l-.5-.5zm-.9 10.3v.6h-.1l-.4-.1v-.1l.3-.4h-.5v-.1h.3l.4.1zm.6-26.2l-.2.1v.1l.2.1h.2l.1-.1v-.1l-.1-.1h-.2zm1.4 3.8c-1 .2-1.5.3-1.6.5v.1h.4c0-.2.2-.3.6-.3 0 .2.1.3.4.3h.2v-.1l-.2-.1v-.1l.2-.3zm-.9-11.9l-.5.3.2.6c.3 0 .4-.1.5-.4l-.2-.5zm.4-2.1h-.3v.1l.1.3h-.1c-.1 0-.2.2-.3.6l.2.1h.2l.4-.6-.2-.5zm.1 31.1v.5l-.4-.2.4-.3zm0-29h-.2v.1l.3.2h.3l-.4-.3zm.7 14h-.2l-.3.2.2.1h.2l.1-.1v-.2zm.1-12.5l-.3.2-.2-.5.5.3zm.4 19.6v.2h-.2l-.6-.3h.2l.6.1zm.7 2.5h-.3l-.7.1c.1.4.3.7.5.7l.6-.5-.1-.3zm-.5-28h-.3v.1l.3.2h.2l-.2-.3zM47 58v.3h.2l.3-.2-.2-.1H47zm1.1 11.1H48c0 .2-.1.3-.4.4l-.2.1.1.1.1.1h1l.2-.1.2.1h.8l.3-.2v-.1h-.3l-.2.1h-.1c0-.2-.1-.4-.3-.3h-.3c0 .2-.2.3-.6.4h-.2v-.1h.3l-.1-.1-.2-.4zm1.2-9.4H49l-.3.5-.2-.1h-.6l-.3.2c.2 0 .4.2.5.5l-.4.2.2.1h.2l-.2.1v.2l.3.2h.3l.7-.2 1.1.1.5-.1-.1-.2h-.5l-.5.1v-.1l-.7-.7.2-.1-.5-.1v-.1c.3 0 .5-.1.5-.2v-.3zm-1.2-1.9h-.2l-.3.2h.5v-.2zm-.1 6.3h-.3v.3h.3v-.3zm-.1-21.7h-.2v.2l.5.1v-.1l-.3-.2zm1.6 3.6v.2h-1l.3-.2h.7zm-.3 15v.2H49l-.3-.2v-.2h.2l.3.2zm.8 18l-.4.7c.2 0 .5.3.8.8l-.6.1-.1-.1-.2.1v.1l.3.2.4-.2h.2l.4.2.1-.1v-.1l-.3-.2.4-.4c-.1-.2-.4-.5-.9-.9l.1-.1-.1-.1H50zm.4-5.1l-.4.3h-.3v-.3h.7zm1.6.1v.7l-.2.1.2.1v.1l-.6.4-1.6-1.7.6-.6c.7.2 1.2.5 1.6.9zm-1-21.6v.2l-.5.3-.2-.4.2-.1h.5zm.2 4.1v.1l-.9.2v-.2l.2-.2h.7zm.3 2.7h-.2l-.4.2h.2l.4-.2zm-.3-17.1v.1l.2.1v.1l-.1.6v.2h.4l.2-1-.2-.1h-.5zm.7 1.3h-.6v.4l.4.3.2-.1v-.1h-.2l.2-.1v-.4zm-.2-3.4h-.4v.5h.7v-.1l-.3-.4zm.8 29.7v.4h-.8v-.3l.8-.1zm.1-.1H52v.3h.6v-.3zm.2-29.8l-.8 2.3.1.3h.2c.3 0 .6-.5 1-1.4v-.9l-.5-.3zm.2 28.7l-.2.1v.1h.2l-.2.2v.2h.4v-.4l1.1.1h.2v-.2l-1.5-.1zm.1 9.4l.2.3v.1h-.1L53 78l.1-.1zm1.1-5.3h-.3l-.3.3.2.1h.5v-.4zm.2-31.4H54v.5h.4v-.5zm-.2 4.8v.4l.4.3v-.4l-.4-.3zm1.1-3.3h-.7v.7h.5v-.2l-.3-.1V43h.5v-.3zm5.6 34.5l-.4.4-.3-.2h-.1v.2l-.2-.1h-.2l-.1.1h-.2l-.4-.1v.2l-.2-.1h-.3l-.3.2-.7-.2-1 .1-.9-.2c0 .2-.3.2-.9.2v.3h.3v.1h-.3v.2h.3c.2 0 .3-.1.3-.3h.3v.4l-.3.4v.2h.3l.7-.6-.2-.1.2-.1.1-.3h.1l.4.1v.6c-.4 0-.6.1-.6.2v.2l.3.3v.1h-.3v.1l-.1-.1h-.5l-.3.2.3.4h.1l1-.3c.4 0 .6-.1.6-.2l-.3-.3.3-.2-.2-.1v-.3h.1v.3c.4-.4.8-.6 1.4-.6l.3.2v.2h-.3l.3.3v.1l-.3.2h-.1l.4-.2h-.1l-.3.2v.1h.3v.1l-.1.1v.1l.2.1h-.3v.2h.3l-.3.3v.2h.6c.2 0 .3-.1.3-.4h.3v.2h.3l-.3-.3-.4.2h-.3c0-.3.2-.5.4-.5l-.1-.1v-.2l.1-.1v-.1l1.2.2v-.2c.3 0 .4-.1.4-.2l1.2.4-.1-.2H62V79h.3l-.2-.6.2-.1-.2-.1-.1.2h-.1l-.6-.3v.3h-.1c0-.2-.2-.3-.4-.3l.5-.7-.4-.2zm-5.4-33.6h-.6v.3h.6v-.3zm1.5.7v.1l.3 1.6h-.4v-.7l-.5-.3-.9.2-.2-.7.2-.1.2.1h.2l1.1-.2zm-1.2 17.6l-.2.1h-.2l.2.4h.7v-.3l-.5-.2zm.5-15.2l.1.1-.4.3h-.2v-.3l.2-.1h.3zm.2 7.7h-.6v.3h.6v-.3zm-.3 34.3l-.2.2c0 .2.3.3.8.3v.6c-.4 0-.6.1-.6.3l.9.6h1.2l.1-.2.2.2h.3l.3-.3.5.3h.7c.2 0 .3-.3.3-.9h.2c.1.6.2.9.4.9h.7l.1-.2.2.2h.8l.3-.3v-.6l-.3-.9c-.2 0-.3.3-.3.9h-.2c0-.6-.2-.9-.5-.9s-.4.2-.4.7h-.2c0-.5-.1-.7-.3-.7h-.3l-.1.1v-.1c-.4.3-.7.4-1.1.4l-.5-.6c-.6.1-.9.3-.9.5v.7H58c0-.5-.1-.8-.3-1l-.3.1-.5-.3h-.7zm.9-35.8h-.2l-.2.9h.4l.4-.3v-.4l-.4-.2zm.4 10.7v.5l-.4-.3v-.1l.4-.1zm1.2-16v.5h-.2l-1.2-.5v-.2l.5-.3c.6.2.9.3.9.5zm-1.2 42l.2.6h-.2l-.1.2v-.8h.1zm21.2-48.2c4.7 1.2 7 3.8 7 7.8v1l-.7.2.5 1.8h-.2l.2.8c-.9 6.4-1.7 10.3-2.2 11.7-1.3 2.5-3.5 3.8-6.4 3.8-3.7-.4-6.4-.7-7.8-1l-.1 6.3.3 1-.3.2.5 8.3-1.5-.4h-.3l-.3.3-.3-.3-1 .3-7.4-.8h-.3l-.6-7.6.2-.8.4-10.9.1-.8c1-6.8 2.2-14.6 3.4-23.4 5.5.5 11.1 1.3 16.8 2.5zm-20.2 5.2l-.2.1v.4h.4l.2-.4-.2-.1h-.2zm1.1-9.5v.3h-.9v-.3h.9zm-.4 4.8v.5h-.5v-.5h.5zm.7 32.4h-.5v.9h.5v-.9zm.9-34.2l.2.4h-.2l-.5-.3v-.1h.5zm1.5 28.4l-.4.3h-.2l.4-.3h.2zm.3-2h-.2l-.5.3.3.1-.2.2v.3h.2l.8-.3-.4-.6zm.2 9.7l-.9.4v.1l.3.2c.2 0 .3-.1.3-.3.5-.1.7-.2.7-.3l-.2-.1h-.2zm-.6-13.3l-.2.1.2.1-.2.7.2.4h.6c-.1-.9-.3-1.3-.6-1.3zm1 6.7h-1.1l.5 1.5h.4v-.8l-.2-.1V70l.4-.3v-.1zm-.4-4.6h-.5l.3.7h.4l-.2-.7zm0 1h-.4v.4h.4V66zm1.3-2l-.7 2.3v.3h.2c.3 0 .6-.5 1-1.4v-.9l-.5-.3zm-.3 25.2v1.2l.3.3.3-.3v-.8l-.1-.7h-.2l-.3.3zm.4-13.8v.4l-.3-.2v-.1l.3-.1zm.9-8.8h-.4l-.4.3.2.1.6-.1v-.3zM65 89.3v1.1l.3.3h2.2l.2-.2.1.2h2.7l.3-.3v-.5l-.2-.7h-.4l.1.7v.2l-.8-1.1c-.2 0-.3.2-.3.5H69l-.1-.5c-.2 0-.4.2-.5.6h-.1c0-.3-.3-.5-.9-.7l-.8.4c0-.3-.1-.4-.3-.4s-.4.4-.5 1.2h-.1l-.2-.2.2-.7-.5-.5-.2.6zm.5-27.7H65l.1.6h.4v-.6zm.2 3.9h-.5v.6l.5-.1v-.5zm-.2 4.8v.4l.4.3v-.4l-.4-.3zm1.1-3.4H66v.7h.4v-.1l-.2-.1v-.1h.4v-.4zm1.5 2.3h-.2l-1.7.6v.3l.4.3h.4c.2 0 .4-.2.4-.6h.8v-.6zm-1.2-1.3h-.7v.3h.7v-.3zm-.4 20.2l.3-.3-.5-.5h-.1l.3.8zm.5-20.9v.1h-.7V67l.7.2zm1.3 1.3v.2l.3 1.6h-.4l-.1-.7-.4-.3-.8.2-.2-.7.2-.1.3.1h.2l.9-.3zm.4 3.4c-1.3.2-2 .4-2 .7v.1h.4c0-.2.2-.4.8-.4 0 .3.2.4.5.4h.2v-.1l-.3-.1v-.1l.4-.3v-.2zm-1.1-.9l-.4.4H67v-.3l.2-.1h.4zm.1 18.5v.6h-.3v-.6h.3zm.9-12.6h-.3v.2l.2.1-.2.8h.5l-.2-.5.1-.1v-.1l-.1-.4zm.6 3.4l-.2.2v.1h.2l.2-.2-.1-.1h-.1zm3.1-32.6c-.4 2.5-1.1 6.6-2 12.3h.2l.3.2h1.8c2.1-.3 3.1-2.2 3.1-5.7.9-4.7-.1-7-3.1-6.9h-.3zM98.9 41.3h.8l1.8.2v.4L100 74.3v.2l.3.2 5.9.4h.3l.2.2-.2 5.8v.2l.3.2-.5 1.7-5.9-.4v.2l-.3.2h-.2l-.3-.2H97v-.5l-1.8.3-7-.4c.9-22.5 1.6-35.4 2-38.7l-.2-.8.4-2.1 8.5.5zm10.2 9.3c2.2.1 3.2.4 3.2.9l-3.4-.6v-.2h.2zm4.1 4.2l-.2.9h-.2l-.4-.9h.8zm-.6 1.8l.2 1.5-.2.9.2 1.1h-.2l-.2.2v-3.6h.2zm3 25.3h.4v-.7h-.4v.7zm.2-18.2c0 .4.2.6.5.6h.6l.6-.6V62h-.9c-.2 0-.5.6-.8 1.7zm0 9.2h.5v-.6h-.5v.6zm0 2.4h.5v-.6h-.5v.6zm.6 4h.4v-.7h-.4v.7zm.3-25.3h.4v-1.5h-.4V54zm13-3l.4.4h-.9l.5-.4z"/><path class="st2" d="M106.1 103.4h.6v.2h-.6v-.2zm3.5-67c.2 0 .3.3.2.7h.3l-.2.6v.1l.1.2-.4.5c-.2 0-.2-.2-.2-.6l-.1.1h-.1l-.2-.1v-.3h.3v-.9l.3-.3zm-.2-1.9v.1l-.1.2v.1c.3 0 .5.2.5.5l-.5.1.1.1v.1h-.3l.1-1 .2-.2zm.1-2.1h.4v.3l-.1.1.1.1-.3 1h.2v.1l-.1.4-.3-.1-.2-.3.1-1.5.2-.1zm.3 3.3l.2.5v.2h-.1c-.1 0-.2-.2-.4-.6l.1-.1h.2zm0 26.6v.3l.1.6h.1l.1-.8h-.3zm-.1 38.9h.3v-.2h-.1l-.2.2zm.5-41.6c0 .4-.1.7-.3 1 .2 0 .3.4.3 1.2l.1-.1h.1l-.1-.5v-.9l.1-.5v-.1h-.2zm1.1 17.2l-.1 2.6.2.1.1-2.7h-.2zm.1-1.5l-.1.7.4.7.1-1.7h-.1l-.3.3zm8.4-29.6l-2.4-.1c0 .2-.1.4-.3.6l-.1 1.9-.2.3-.4 8.2-.4.3.2.1-.1 1-.3.4-.1.2.1.4-.4.5v1.9c0 .1-.1.2-.3.2l-.2 3.2-.2.3-.1 2.5.2.3v.4c-.1.1-.2.5-.2 1.1l-.3.2.1.1v.9c0 .1-.1.2-.3.2l-.1 2.7-.2.3-.2 2.7-.3.5.1.1-.2 4.3-.1.1.1.1v.1l-.1.1.1.1v.1l-.3.4-.1 1.2h.2v.2c0 .1-.2.2-.3.2v.2l-.3.3c.1.8.2 1.3.3 1.4v.4l-.2.3v.3l.2.3-.3.3c.6.8.8 1.5.8 2l.1.1v.2l-.3.2v.3c.3 0 .4.1.4.3l-.1.5h.1l.4-.3h.1l.2.2v.5c0 .2-.1.2-.3.2v.3c.2 0 .3.1.3.2 0 .2-.2.2-.5.2l.4.6-.5.4h-.5l.1-.5h-.2c-.1 0-.2.1-.2.4l-.1.1-.1-.1-.2-.2c0 .2-.1.3-.2.3l-.4-.1v.3c.4 0 .5.1.5.2v.2l-.7-.1v.7l.2.4v.1l-.1.4.1.3h.1c.4-.4.9-.8 1.6-1.2l.1.1v.6c.3 0 .5.1.5.4h.4l.4-.2c.2 0 .4.1.7.4h.2l.3-.2h.3l.3.2h.7l.5-.1.6.1.6.1.3-.2h.5l.9.4v.5h.2l.2-.2-.1-.3.1-.4-.3-.3.3-6.2c0-.2.2-.2.3-.2l-.1-.5v-.2l.2-.2h.2l.3.2h.5l.3-.2h.9l1.1.4v.2l.8-.5.4.4v.5l-.2.3v.2h.2v.5l.3.6-.1.6v.5l.2.3-.1 1.5c.2.3.3.5.2.8v.1l-.1.5.5.6.6.3h.1l-.1-.1v-.2l.2-.2c.1 0 .2.1.2.3h.1l.4-.3 3.5.2.3-.2h.3l.3.2h.4l.4-.2 3.4.1.1-.9-.3-.4.1-2.6-.2-.3.1-1.4-.3-.4.1-1.1.1-.1v-.1l-.3-.3.1-.9-.2-.3v-1.9l-.3-.4.1-1.1-.2-.3.1-1.1c-.2-.2-.3-.5-.3-.7v-.7l.1-.1v-.1l-.3-.4v-1.4l-.2-.3V77c-.2 0-.3-.1-.3-.2v-1.4l-.2-.3v-1.6c-.2 0-.3-.1-.3-.2l.5-1.3.1-.1v-.1c-.2 0-.3-.3-.4-.9l-.2-.9-.2-.2v-1.6l-.2-.3.1-2.4-.3-.5.1-.3c-.2 0-.3-.4-.4-1.2l-.1-.1.2-.3V63l-.2-.3.1-2.3-.3-.4.1-1.6-.2-.3.1-1-.3-.5h.1v-.1l-.4-1.5v-.7c-.2 0-.3-.1-.3-.2v-1.3l-.2-.3.1-1.7-.3-.4.1-.3-.3-.3.1-2.1-.2-.3v-1.1l-.4-.2h-.1l-.5.4h-.2c0-.3-.2-.4-.6-.4l-.2.2-.3-.3h-1.1l-.3.2h-1.4l-.3-.3h-.2l-.3.2-.2-.2-2.4-.1-.3.2h-.1l-.3-.2-1.1-.1-.4-.3c-.4.1-.9.1-1.2.3zm-7.9 43.9l-.1 2.5h.2c0-.3.1-.5.3-.7V91l-.2-.3.2-.3.1-.9-.2-.1-.3.2zm.1-43.7l-.1 1 .1-.1h.1l-.1-.9zm.3 42.5l-.1.3.1.1h.3v-.1l-.3-.3zm.1 7l.2.2.2.1v-.2l-.4-.1zm.8-57.7l-.1.6h.1v-.6zm.1-2v.1h.3l.1-.4h-.1l-.3.3zm.4 15.7l-.1 2.3.4-.7-.2-.3.1-.5.2-.3v-.5l-.2-.2-.2.2zm.2 42.1l.1.1-.1.3-.2.2-.2-.2v-.1l.4-.3zm.3-31.9v1.8l-.3.4.1.2h.2l.1-1.4.2-.3c-.1-.1-.2-.4-.2-.8l-.1.1zm.5 30l.2.2-.2.2-.2-.2.2-.2zm-.1-32.5l-.1 2.1.2-.2v-.1l-.1-.5.1-.6.1-.7h-.2zm.9-4.1v.8l-.2.2-.2-.2h-.1l.1 1.1.6-.9v-1h-.2zm1.5 53.3l.2.2v.1h-.2v-.3zm2-72.2h.1l.2.3h-.4l.1-.3zm.7-3.3h.1l.3.3-.1.2h-.1l-.1-.2v-.3zM124 62l.5.5v.7l-.2.7c.2 0 .3.1.3.2v.9l.2.3-.1 2.7c.2 0 .3.1.3.2l-.1.9.2.3-.1 1.1.3.4-.1.3-.1.1.1.1-.1 2.6-.2.5.4.3-.1 2.1.2.3v1.2l.5.5v.9l.3.4v.1l-.2.7.3.3v.4l-.8.7-.5-.4h-.9l-.4.2h-1.4c-.2 0-.4-.5-.4-1.4l-.2-.2v-.4l.3-.4v-1.6l.2-.4.1-2.8c0-.2.1-.2.3-.2l.1-1.5c-.2 0-.3-.1-.3-.2l.1-2 .3-.4.1-3.5.2-.4.1-2.3-.2-.3v-.6c.2-.6.4-.8.5-.8l-.1-.5v-.2l.6-.1zm-.5 13.5v1l.3.3h.2l.3-.3-.8-1zm1.1 3.5v.4l.2.4h.2V79h-.4zm1.4 28.1h.3l-.2.2-.1-.2zm1.4-5.2l.2.2.2-.2.1.1h.1l-.1.1v.2h.2v.1l-.2.2c-.1 0-.2-.1-.2-.4l-.6.2-.1-.1v-.1c.1-.1.2-.2.4-.3zm4.9 4l-.2.3-.1-.1v-.1l.1-.1h.2zm.2-1h.3v.2l-.2.2h-.1v-.4zm1.6 2.9l.1.2-.2.2-.2-.2.3-.2zm1.4-39.7l.3-.1v-.1h-.1l-.2.2zm0 .5v.6l.2-.2v-.2l-.2-.2zm.2-2.8v.3l.2-.2-.2-.1zm9.5-31.8l.4.1.2.3-.4.2-.2-.3V34zM147.8 40.6l2.3 17.5h.5l1.3-9.2v-.3l-.3-.2.6-.6V47l-.3-.3c.8-4.1 1.3-6.2 1.6-6.2h.6l1 .3 1.1-.3h6l-1.1 4.4c-1.4 7.1-2.4 10.7-2.9 10.7l.3.9-.3 1.1c-2.5 8.1-3.7 14.7-3.7 19.9l.3 7v2.4h-9.1V72.1c0-3.6-.7-7.1-2.1-10.5l.2-.3-.5-.5v-.3l.3-.2V60l-.6-.5.3-.3-1.1-5.2-3.4-13.5h9zM139.7 97l.2.7h-.4l-.3-.7h.5zm1.9-3.2l.2.2.2-.2h.3l-.2.5-.8-.3v-.2h.3zm0 .6v.6h-.3v-.6h.3zm3.1-1.4l2.3.2.2-.2.8.2v.5l.2 1.6-.8.5c0 .3.3.5.8.5v.2h-.3l-1.2-.3-.3.3v.1l.3.5-.5.1h-.2l-.2-.1V97l-.1-.1-.3.3-.8-.3-1 .1h-.3l.2-.6-.2-.6v-.2l.2-.1c.3 0 .5.2.5.6h.3v-.3l.6.1c0 .4.1.6.3.6h.3l.3-.3V96c0-.9-.1-1.6-.3-2l-.3.3-.5-.5c-.2 0-.3.3-.3.8h-.3c0-.3-.2-.5-.6-.6l-.5.3h-.2c0-.4-.2-.8-.5-1.1V93h2.4zm-2 .5h.5v-.3h-.5v.3zm1.1 1v.5l-.5-.5h.5zm4.3 2l-.1.5-.3-.3v-.2h.4zm1.1-.6h.1l.2.8v.5l-.3.3-.3-.3v-.9l.3-.4zm.8 4.1v.1l.3.3h.1l.3-.3v-.1l-.3-.3h-.1l-.3.3zm7.3-2.5c0 .2.2.3.5.3v.1h-.5l-.1-.1v-.3h.1zm.8-10.7l.2-.1c0-.4.1-.6.3-.6v.8l-.6.2h-.2l-.1-.2v-.3h.1v.3h.3zm4 5.6l-.3 8.1v.1l.1.2c.3 0 .6-2.8.8-8.5l-.2-.2-.4.3zm5-23v.2l.2.2-.2.2v2.6l.2.2.4-.5v-.2l-.2-.9.2-.9V69l-.2-.3-.4.7zM176.7 57.6l.5.4v.2l-.8.6-.4-.4v-.2l.7-.6zm2.5 27.1c.4-.5.5-1.1.6-1.8l2.6.1.5-.3.5.4 2.3.1.5.4 2.1.1.5-.3.5.4h.5l.5-.3 1.2.8.3-.4 3.8.2.5.4 6.1.3.7-.1.7.2h.2l.5-.3.3.4.4-.3.5.4 1-.1.5.2.3-.4.1 1.6.1-.2h.2l-.4 2.1-.1 2.5.2.2-.2.2-.1 2.5-.4.3h-.5l-.5-.4h-.8l-.5.4h-.2l-.5-.4h-.5l-.5.3-3.5-.2-.5-.4-1.8-.1-.5.4-3.5-.2-.5-.4-.5.3-1.7-.1-.5-.4h-.5l-.5.4-.3-.4h-.8l-.5.3h-.7l-.5-.4-.8-.1-.5.3-.5-.4-3.3-.2-.7.5h-.2v-.2l.4-.5v-.3h-.3c0 .4-.1.5-.4.5h-.2l-.2-.2h-.1l.2-.5-.1-1.7.2-.2-.1-1.2.1-3.2-.2-.6zm2.7-42.4l-.7 16.9v.4c-.9 6.7-1.3 13.7-1.3 21.2l4.1.2 3.5-.2 2 .4V81l1-16.7.3-.2h.2l5.1 17.3 10.4.4.5-7.8-.3-.6.5-1.4.8-15.7.2-.2-.5-.4.8-5.5-.3-.6.5-3.3v-1.6l.3-1.4-.3-.2h-.2l-9.4-.4-.2.2v.2l-1 16.5h-.5L192 42.7h-3.3l-6.9-.6v.2zM180 75.1l-.1 1.5h.5l-.1-1.5h-.3zm1.2-11.2v.6c0 .3.3.6 1.1.7l.3-.2v-.2c-.2-.6-.4-.8-.7-.8l-.7-.1zm.4-3l.5.4h.7V61l-.5-.4h-.2l-.5.3zm1.2-.5l.5.4.2-.2.1-.6h-.3l-.5.4zm.5-23.2v.8h.2l.2-.2h.3l-.2-.6h-.5zm4.3 44l.6.9-.5.3h-.4v-.6l-.9-.1v.3h.5l-.3 1 .2.2-.2.2-1.9-.7v-.5c.3 0 .5-.1.5-.6l2.4-.4zm-1.2-31.4l.4.6v.2h-.2l-1.4-.5v-.2l1.2-.1zm.8-16.5h1.4l-.5-.4h-.4l-.5.4zm1.1 39.1l.7.6-.1.6h-.4l-.2-1.1v-.1zm.6 1.9h.5l.5 2.1-.2.2h-.2c-.5-.5-.7-1-.7-1.5l.1-.8zm.2-41.2v.2h.9v-.2h-.9zm3.4 28.8h.3l.4.4-.5.4-.2-.2-.2-.1.2-.5zm6.5-8.8l-1 1.2c1.1-.2 1.8-.5 2.1-1l.1-.2h-.3l-.2.2-.2-.2h-.5zm-.2 19.1l1 .1-.1.2-.5.4-.4-.4v-.3zm.3-9.1v.2h.7l.1-.6h-.3l-.5.4zm.3-6.6l-.1.4 1.2.3h.5v-.8l-1.6.1zm.2 6.8h.8l-.1.4h-.7v-.4zm2.3-1.8l-.1.4.4.5.3-.2v-.6h-.6zm-.1-8.1l.2.2h.7c0-.4.2-.6.5-.6v-.2l.2-.1c-.2.1-.8.3-1.6.7zm1 26.2l-.7.6-.2-.2v-.2l.2-.2h.7zm.3-14.8v.5l.9.4h.2l-.8-.9h-.3zm0 8.8l-.1.8.2.1.8-.6-.2-.2h-.7zm1.9 5.7h.4v.4l-1.4.4-.5-.1-.4-.4 1.9-.3zm-1.3-7.9l-.1.6.8-.6h-.7zm.9-19v.4l.7.1-.4-.5h-.3zm3.8 11.4h.7v-.4h-.2l-.5.4zm1.5 8.5c0 .4.7.8 2.3 1l.7-.2 1.4.5 1.6-.4v-.4l-1.4-.1c-1.5-.5-2.8-.7-3.9-.8h-.2l-.5.4zm2.3 9.8v.2l.7.1.1-.6h-.3l-.5.3zm.6-16.9h.2l.5.4h-.7v-.4zm1.5-29.6c0 .4-.3.7-.8 1.2v.2h1.4v-.4l-.4-.7.2-.2-.2-.2h-.2zm-.5 28.4v.2h.5l.5-.4v-.2h-.5l-.5.4zm0 18.4l-.1 1.1h.2l.1-1.1h-.2zm1.4-12.5v.2l.6.6.5-.4v-.2l-1.1-.2zm.8-1.4l-.1.6h.5v-.6h-.4zm2.7-7.7l-.2.2-.1.4.7.3.3-.2v-.2l-.7-.5z"/><path class="st2" d="M213.8 49.4c1.5-6.1 5.9-8.9 12.9-8.4v.2l.2.2 1.1-.1h.6c1.1.1 2.3.4 3.6.9 4.5 2.1 6.5 5.9 6 11.4L238 57l-.3 1.2.2 1-.3 3-.3 1.1.1 1.2-.5 7c-.2 2.7-.8 4.8-1.8 6.5-2.6 3-4.9 4.4-7 4.3L227 82v.6h-.4v-.4h-.2c-.6.4-1.1.5-1.6.5h-.6c-5.8-.4-9.5-2.4-11.2-5.9-1-1.4-1.2-6.5-.6-15.3l1-9.6.4-2.5zm11.7-1.4c-.8-.1-1.5 2.9-2.1 8.9l-.3 6.2c-.6 8.5-.5 12.8.3 12.8h.7c1.1.1 1.7-.6 1.9-2.1l1.8-23.9c.1-1.3-.4-2-1.6-2.1l-.7.2zm.7 30.9l-.2.2.3.3-.1-.5zm.1-8v.3l.1.2.3-.3v-.3l-.1-.2-.3.3zm.9-.2l-.1.6.3.3.3-.3v-.5l-.2-.5-.3.4zm8.1-4.3l-.1.9-.3.3-.1-1.3.5.1zm3.9 3.7l.2 1v.2h-.2l-.2-.6v-.6h.2zm2.3 7.2l-.1 1.2h-.2l.1-1.2h.2zm.3-12.8l-.1.8h-.2v-.8h.3zm.7-7.2l.4.5h.3v-.4l-.4-.5h-.2v.4zm.9-.9v.4l.2.2-.2.2-.1.2.4.4c.3 0 .4-.2.5-.6.7.1 1.1 0 1.1-.3-.4 0-.9-.3-1.5-.9l-.4.4zm.5 8.9l-.2.2c.1.7.3 1 .6 1.1h.4l.2-.2-.3-1.1h-.7zm4.5.7l.1.1h.2l.2-.1-.3-.3h-.1v.3zm7.2-2.9v.4l.2.3.5-.4V63l-.2-.3-.5.4zm.5-2.5l-.1 1.2.4.4h.2l.2-.1-.2-.7.3-.8-.4-.5-.4.5zm.3 4.2l.2.2.5-.4v-.2h-.6l-.1.4zm3.4-3.1l.2.3.5-.4V61l-.7-.1v.8z"/><path class="st2" d="M242.6 66.2v.5l-.3.2-1.9-.6v-.5l.2-.2c.6.4 1.2.6 2 .6zm.1 25.8l1.2.8h.3l.3-.3-.4 1.5h-.2l-.2-.3h-.3l-.3.2-.2-.3v-.2l.2-.2-.7.2-1.6-.8.1-.3h.5l.2.3 1.1-.6zm16-49.4c0-.8 1.3-1.3 3.8-1.5h1.2l.2.3c-.1 2.4.4 5 1.7 7.9l-.3 1v.5l.2.3c.5 0 .7.3.7.8l-.5.5.9 6.1h.2l.2-.2-.2.7c.4 4.8.9 7.2 1.5 7.2l-.3.7.2 1.5-.1 1.5h-.5v.5l.4.5h.7l.2-.3-.2-1.2.1-1.5.3-1.7-.2-.3h.2c.9-8.2 1.7-13.5 2.2-16l1.6.6h.2l.3-.2 3.2 1.2-.1 2-.3 1.2.2.3-.3 1.7-.1.2.3.3v.2l-.2.3v.2l.3.3-.8 1.9v.3l.3.3-.7 3.1.2.8-.6 1.9v.3l.2.3c0 1-.2 1.4-.5 1.4-.4 1.9-.7 2.9-1.1 2.9v.5l2.1.3v.3l-.2.2-1.2-.3c-.6 0-1 .7-1.3 2.1.2.8.4 1.3.6 1.3l-.2.2.2 1-.5 1.3-.5-.5c-.4 0-.7.7-1.1 2.4l.5.5c-.5 0-.9.3-1.2.9l1.2-.4h.3l-.1 1.7c-.5 0-.7.1-.7.4v.5h.5v.3l-.3.2-.9-.8h-.3c0 1.1-.9 1.9-2.7 2.3l-.3-.3-3.3-.2-1.2.9h-.2l-1.2-.3-.2.2h-.2l-.2-.3-.9.2h-.7v-1.3l1.4-4.6h.3l1.6.3v-.2c0-.3-.5-.6-1.4-1.1.9-2.9 1.5-4.3 1.8-4.3.5 0 1.1.3 1.6.8h.3l.1-1.7c-.1-2.1-.5-3.2-1.3-3.3v-.2l.3-.2c-1 0-1.8-3.8-2.5-11.2l.1-.2-.5-.1-.3 1.3v.2l.3.3-.3.2v.5h.5v1.5h-.3l-.2-.3h-.3c-.8 5.3-1.5 8-2 8v.7l.2.3c-.6.1-1 1-1.1 2.9-1.1 2.4-2.3 6-3.6 10.9h-3.5l-2.1-.1-.3.2-.4-2h.3c0-7.9-.1-12.5-.3-13.8l-1.2.2-.7-.5h-.5l-.2.2-1.9-1.6v-.3l.3-.2c.9.3 1.4.5 1.4.8l1.4-.2 3.5 1.2.9-.2h.3l.2.2h.2l.3-.2v.2l1.7-.4 1.4.3.7-.2v.2l1.4-.2v-.7l-4.7-.5h-.5l-.7-.5h-.5l-1 .2-.9-.3h-.5l-.2.2-.3-.3-.7-.1-.2.2-2.9-22.5v-1.2l6.4-.9c.7 4.3 1.2 8.4 1.5 12.3h-.2c.1 1.5.3 2.2.6 2.2l-.3.2c.5 6.6.9 9.9 1.4 9.9h.9l2.8-14.1c0-.5.4-.7 1-.7v-.5l-.7-.3 1.6-8.8zm-13.8 48.5l1 .5v.3l-.3.2-.7-.3h-.2l-.2.2v-.2l-.2-.3v-.2l.6-.2zm-.4-24.5l.7.3v.3l-.3-.1-.7-.3v-.2h.3zm.5 4.2v.7h-.5l.3-.7h.2zm.8 22.3v.3l-.7.2v-.5h.7zm1.5-2.6v.3h.5c0 .3-.7.5-2.1.6l-.3-.3c0-.3.7-.5 1.9-.6zm-1-1.1l.2.6v.2h-.8V90l.6-.6zm.2-58.7h.3l.5-.5V30l-.4-.5-.4 1.2zm.2 5.9h1.2l.1-.7-1.2-.1-.1.8zm1.3 55.7v.7h-.5v-.3l.5-.4zm1-1.7v.3l-.5.4h-.5v-.5l1-.2zm0-5.4l-.6.6.3-1 .3.4zm.4 6.7h.2v.5l-.7-.1.5-.4zm1.5-60.3l-.3.9v.3l.2.3h-.7l.1-1.5h.7zm.7 54.6l.4.4-.8-.1.4-.3zm.7 8.5v.5h-.3l-.4-.5h.7zm1.3 8.1h.6l.2.2-.9 1h-.2l-.2-.6c.1-.5.3-.7.5-.6zm1-16.1v.2l-1-.1v-.2l1 .1zm.3-53.2v.3l-.5.9h-.2v-.3l.3-.9h.4zm.1 70.3l-.4.4-.4-.5.8.1zm.1-2.4l-.4.4h-.4v-.4h.8zm-.2 1l.2.6h-.2l-.2.2v-.8h.2zm.4-15.8h1v.4l-1.4-.1.4-.3zm.7-52.8h.3l-.3.8-.5-.1.1-.3.4-.4zm.7 1.6h.3l-.3 1.5-.4-.5v-.5l.4-.5zm.2 34.1v.2h.2l.5-.4v-.5h-.5l-.2.7zm3.8 22.9c0 .4-.8.7-2.2.9l-.2-.2v-.3l.3-.2h.2l.2.3 1.2.1.1-.5.4-.1zm1.1-60.2v.2l.2.3-1 .5v.2l.2.3h-.5c0-.5-.4-.7-1.1-.8v-.3l2.2-.4zm-.9-1.5l.4.5v.5l-1.5-.1.1-.5c.5 0 .7-.1.7-.4h.3zm.9 38.5h.5v.3l-1.2.2h-.9v-.3l1.6-.2zm-.5 24.5l.4.5v.2l-.7.2h-.2v-1h.5zm1.7-62.9l1 .8v.2l-.3.2-.4-.5h-.3l-.2.2h-.3v-1l.5.1zm6.5 59.9h1.4l-2.6 1.1h-.2l-.2-.3c-.5 0-1.3.3-2.2 1.1l-.5-.5-.7.2h-.5v-.2c.7 0 1-.1 1-.5l.5.6c.9-1.1 2.2-1.6 4-1.5zm-3.9 2.7v.5h-.7v-.5h.7zm.6-54.9v.3l-1.2-.1v-.2h1.2zm.7-.4h.2l.2 1-.2-.1v.5l-.6-.8v-.2l.4-.4zm1.2 57.5l-.5.4h-.5l.1-.5.9.1zm-.4-48.4v.2l-.4-.5v-.3l.4.6zm.3 46.1l-.5.9h-.3l.1-1 .7.1zm.7-6.1l-.5.5h-.5v-.5h1zm-.2 16.5h-.6v-.2l.2-.2.4.4zm1.7-70.1l-.1.5h-1.2v-.3l1.3-.2zm.3 4l-.1 1.5-.5.4h-.5l.6-2 .5.1zm2 40.8v.3l-.5.5v-.3l.5-.5zm4.4-40.8l.2-.2c.3-.7.6-1 .8-1h.2l.2 1h.5l.2-.3.2.3-.7 5.4c-.5.8-.9 2.4-1.2 4.6l.2.3-.8 2.6h-.3c0-.5-.1-.7-.4-.8v-.2l.3-.3v-.2l-1.8-2.8v-.7l.5-.7-.7-.8c-.3 0-.5.3-.5.9h-.2c0-.5-.3-1-1.1-1.5h-.3v.5h-.3v-.5l.3-.2-.3-.3.9-2.7c.8-.2 1.2-.9 1.3-2.1v-.3l-.2-.2 1.2-.2h.2l.2.3.7-.2.2.3h.5zm-3.6-.6v1.5l-.3.2h-.3l-.2-.3h-.3l-.2.2c.1-.6.6-1.2 1.3-1.6zm-.7-4.5l.5.5v.5l-.3.2-.4-.5v-.7h.2zm1.4.3h-.5c0-.6-.3-1-.9-1l.5-.7c.7.3 1 .9.9 1.7zm-.6 54.3v.2l-.2.2-.4-.4h.6zm.5.9h.2l-.1 1.2h-.5v.5l1.1.3c0 .3-.6.5-1.7.6l-.2-1v-.2l.2-.3v-.2l-.2-.3 1.2-.6zm2.5-2.3l.2 1.3c0 .3-.6.7-1.7 1.2l-.2-.1v-.2l.2-.2-.5-.5-.5.4-.7-1 .1-.3.2-.2h.3l.2.3h.3v-.5l1.2.1c0 .5.1.7.4.8h.3v-1h.2zm-2.2 6.2l1.1.3v.3l-.2.2-.7-.3-.7.2v-.2l.5-.5zm1.8-7.2v.2l-.7.2h-.2v-.2l.3-.2h.6zm.5-1.7v.3l-1.2.2h-.2V83l.2-.2 1.2.2zm-.1 21.1l.2.6-.7.4h-.2l-.2-.2.2-.8h.7zm-.5-17.5l.4.4h-.6v-.4h.2zm2.2-1.6v.7l.2 1.2c-.7.6-1 1.2-1 1.7h-.3l-.2-.3c0-.8.4-1.2 1-1.2v-.5h-.5l.1-1.7.7.1zm.1-2.9h.3l.2-.3v.5l-.3.3-.7-.3-.5.5-.4-.5V82l.3-.3 1.1.4zm-.2-1h-.7v-.2l.3-.3.4.5zm1.1 12.1v.3l-.7.7h-.3l.5-.9h.5zm-.6 6.3l.2.2v.2l-.2.2h-.2l-.2-.2v-.2l.2-.2h.2zm.6-26.4l.2.2-.3 1.3-.3-.1-.2-.2-.2-.1.3-1.2.5.1zm-.1 7.1h.2v.3l-.5.4h-.3v-.2l.6-.5zm.2 10.5h.2l-.3 1.4h-.5v-1l.6-.4zm.1.5l.8.3v.2l-1.2.1v-.2l-.2-.2.6-.2zm.8-9.5h.5l-1 .9h-.3v-.3l.8-.6zm.8-.5l-1.2-.5v-.3l.3-.2.9 1zm-.3-37.2v.7l-.4-.5V44h.4zm1.4 14v1h-.5l.1-1h.4zm.6-21.8v1l-.5-.5.5-.5z"/></g><path class="st2" d="M298 48.3l-.7 35.4L322.2 66z" id="Arrow"/></g></switch></svg>