<svg xmlns="http://www.w3.org/2000/svg" viewBox="0 0 50 52"><style>.st1{fill:#ffd800}</style><switch><g><path d="M13.09 48.85c.2 0 4.91-.27 4.96-.27h5.87L28.3 50h15.14l2.26-2.64 2.37-.68H50V0H0v50h10.72c1.21-.62 2.28-1.15 2.37-1.15z" fill="#2f4546" id="Background_2_"/><g id="Icon_2_"><path class="st1" d="M17.82 10.63V7.04H7.04v10.78h3.59v-4.67l6.83 6.82 2.51-2.51-6.82-6.83zM39.37 36.85l-6.83-6.82-2.51 2.51 6.82 6.83h-4.67v3.59h10.78V32.18h-3.59zM32.18 7.04v3.59h4.67l-6.82 6.83 2.51 2.51 6.83-6.82v4.67h3.59V7.04zM17.46 30.03l-6.83 6.82v-4.67H7.04v10.78h10.78v-3.59h-4.67l6.82-6.83zM19.29 24.44c-.15.19-.25.31-.35.43-.36.06-.4-.26-.61-.38.15-.19.25-.31.35-.43.35-.06.4.26.61.38zM31.73 28.52c-.31-.26-.58-.51-.88-.71-.23-.16-.37-.32-.35-.59.02-.21.18-.27.5-.27.36-.01.72-.08 1.04-.12.23.19.42.35.62.51.12.73-.26 1.08-.93 1.18zM12.64 20.74c-.06.06-.11.16-.18.18-.44.14-1.07-.4-.95-.8.02-.07.1-.16.17-.18.11-.03.26-.07.35-.01.21.13.4.28.56.46.07.07.04.23.05.35zM17.71 26.88c.27.11.38.31.32.59-.06.28-.45.27-.81-.03-.09-.08-.22-.14-.27-.24a.622.622 0 01-.04-.36c.04-.19.23-.27.53-.2.09.04.18.16.27.24zM20.68 11.13c-.04.18-.21.27-.51.21-.03-.01-.05-.22-.03-.34.02-.19.21-.27.51-.21.02.01.02.22.03.34zM22.12 20c-.04.18-.21.27-.51.21-.03-.01-.05-.22-.03-.34.02-.19.21-.27.51-.21.02.01.02.23.03.34zM20.64 21.4c.09.29.05.48-.13.54-.11.04-.33.06-.34.03-.11-.28-.06-.48.11-.54.12-.03.25-.02.36-.03zM29.52 30c-.04.18-.21.27-.51.21-.03-.01-.05-.22-.03-.34.02-.19.21-.27.51-.21.03.01.02.22.03.34zM11.7 24.52c.03.01.06.29.03.31-.17.07-.38.16-.54.12-.34-.08-.36-.3-.04-.45.15-.07.37-.02.55.02zM8.68 26.05c-.09.05-.21.06-.32.06-.08 0-.22-.02-.24-.07-.12-.29-.04-.42.19-.46.24-.04.45 0 .57.22.03.04-.11.2-.2.25zM21.07 29.39c-.18-.04-.27-.21-.21-.51.01-.03.22-.05.34-.03.19.02.27.21.21.51-.01.03-.22.02-.34.03zM24.37 32.11c-.01-.12-.06-.33-.03-.34.28-.11.48-.06.54.11.04.11.06.33.03.34-.28.11-.46.06-.54-.11zM20.23 39.12c-.29.09-.48.05-.54-.13-.04-.11-.06-.33-.03-.34.28-.11.48-.06.54.11.03.12.02.24.03.36z"/></g></g></switch></svg>