<svg version="1.1" id="Layer_1" xmlns="http://www.w3.org/2000/svg" x="0" y="0" viewBox="0 0 146.04 126.77" xml:space="preserve"><style>.st0{fill:#213132}</style><switch><g><path class="st0" d="M119.65 84.11l.86-1.24-.84-6.28-2.19-1.7.32-.26 3.24-4.39-.23-2.09-4.8-3.58-2.09.23-3.24 4.39c-.01.15-.18.28-.18.28L86.75 51.54l47.11-35.82-5.28-6.99-2.3 2c-.01-.15-.03-.29-.19-.42l-5.32-7.16-2.09 1.8 1.96 9.74.01.15-11.1 8.35-9.25 1.82-1.17.12-24.8 18.72-1.48.03-1.48-.03-24.78-18.73-1.17-.12-9.25-1.82-11.1-8.35.01-.15 1.96-9.74-2.09-1.8-5.32 7.16c-.16.13-.18.28-.19.42l-2.3-2-5.28 6.99 47.11 35.82L35.2 69.47s-.16-.13-.18-.28l-3.24-4.39-2.09-.23-4.8 3.58-.23 2.09 3.24 4.39.32.26-2.19 1.7-.84 6.28.86 1.24-21.88 22.7 20.42 16.81 17.01-31.5 3.02-2.22 2.6 6.38 6.98 11.38 10.34-7.39s-2.03-4.07-4.12-8.72c.13-.16.42-.19.55-.35l9.73-7.32.62-4.04-3.78-4.99a31.8 31.8 0 005.3-5.56 31.8 31.8 0 005.3 5.56l-3.78 4.99.64 4.03 9.73 7.32c.13.16.42.19.55.35-2.09 4.65-4.12 8.72-4.12 8.72l10.34 7.39 6.98-11.38 2.6-6.38 3.02 2.22 17.01 31.5 20.42-16.81-21.88-22.69zm-52.99-3.17l-8.18 6.27c-1.27-2.71-2.03-4.4-2.47-5.83l1.06-.79c2.49-.8 4.87-1.91 7.09-3.3l2.5 3.65zm20.58 6.27l-8.18-6.27 2.5-3.66c2.22 1.39 4.6 2.5 7.09 3.3l1.06.79c-.45 1.44-1.21 3.13-2.47 5.84z"/><path class="st0" d="M11.81 89.97c.49.33 1.01.63 1.48.93.6-.1 1.16-.18 1.71-.27.15-.2.29-.41.46-.64.38-.07.78-.15 1.21-.24.39-.64.8-1.29 1.21-1.96.4-.08.81-.15 1.22-.23.4-.65.82-1.31 1.2-1.98.05-.08-.06-.26-.1-.39-.67-.51-1.22-1.3-2.21-1.04-.24.28-.29.85-.83.69-.43-.13-.34-.65-.51-.99-.23.03-.53-.01-.67.11-.18.15-.3.42-.31.66-.01.25.18.53.23.8.08.43-.14.75-.51.91-.35.15-.76.2-1.05.27-.66.91-1.01 1.9-1.74 2.59-.19.03-.32.07-.46.07-.38-.01-.56.09-.5.33.03.14.07.32.17.38zM14.32 44.81c.28-.21.64-.48 1.13-.84-.74-.74-1-2.13-1.84-2.57-.28.21-.64.48-1.13.84.73.74 1 2.13 1.84 2.57zM6.4 48.23c.14 0 .3.04.42-.01a.67.67 0 00.3-.3c.11-.2-.01-.42-.33-.57-.12-.06-.29.02-.42-.01-.33-.08-.58 0-.73.31-.15.3.21.57.76.58zM19.94 68.96c.1-.2.01-.41-.3-.58-.03-.02-.21.17-.28.28-.12.19-.01.4.3.57.03.03.19-.17.28-.27zM18.9 71.9c.02-.03-.18-.19-.28-.29-.2-.1-.41-.01-.58.3-.02.03.17.21.28.28.19.12.41.02.58-.29zM46.89 51.17c.2.04.4.14.54.11.34-.08.65-.22.91-.32.08-.23.13-.38.18-.52-.18-.31-.35-.6-.53-.9-.17-.07-.33-.13-.51-.2-.23.09-.47.17-.71.27-.16-.06-.42-.21-.5-.16-.71.45-.64.73.2 1.1.15.22.29.43.42.62zM108.84 54.09c.9.62.91.62 1.77-.02v-.87c-.9-.62-.91-.62-1.77.02v.87zM79.87 104.27c-.67.84-.66.85-.07 1.74.1-.08.21-.15.3-.24.11-.09.22-.19.3-.3.21-.3.76-.45.6-.89-.19-.51-.74-.25-1.13-.31zM139 98.28c.14 0 .3.04.42-.01a.67.67 0 00.3-.3c.11-.2-.01-.42-.33-.57-.12-.06-.29.02-.42-.01-.33-.08-.58 0-.73.31-.15.3.21.57.76.58zM41.68 49.76c.3.15.58-.21.58-.76 0-.14.04-.3-.01-.42s-.18-.24-.3-.3c-.2-.11-.42.01-.57.33-.06.12.02.29-.01.42-.08.34 0 .58.31.73zM136.42 93.1c.03.02.19-.18.29-.28.1-.2.01-.41-.3-.58-.03-.02-.21.17-.28.28-.13.2-.02.41.29.58zM76.27 104.29c-.03-.02-.19.18-.29.28-.1.2-.01.41.3.58.03.02.21-.17.28-.28.13-.19.02-.41-.29-.58zM73.57 95.01c-.1.1-.3.25-.28.29.17.31.39.42.57.3.12-.07.3-.25.28-.28-.16-.31-.37-.41-.57-.31zM78.14 93.11c-.03-.02-.21.17-.28.28-.12.19-.01.4.3.57.03.02.19-.18.29-.28.1-.2 0-.4-.31-.57zM57.44 21.66c-.29.22-.44.43-.36.63.14.32.41.39.75.33.29-.05.59-.01.88-.01.08-.64.28-.89.59-.73.3.15.39.41.29.73.74 0 1.48.01 2.22-.01.11 0 .24-.18.3-.3.04-.07.01-.24-.05-.3-.42-.4-.81-.88-1.31-1.12-.35-.17-.86-.03-1.13-.46-.1-.4.15-.89-.57-1.36-.53.36-1.45-.52-2.11.46v.85c.3.34.57.64.83.95-.12.13-.22.25-.33.34zM58.35 28.1c.1.1.22.19.3.31.21.31.42.42.61.26.11-.09.26-.21.26-.32.02-.72.01-1.44.01-2.17h-.89c.1.33 0 .58-.3.74-.54.28-1.12.06-1.67.16-.25.05-.46.28-.69.42.63.92 1.66.14 2.37.6zM78.59 32.38c.17-.61.2-1.3-.04-1.98-.04-.12-.2-.21-.3-.31-.4.06-.88-.18-1.19.33-.22.66-.2 1.34.09 2.38.62-.11 1.1.13 1.44-.42zM63.39 26.04c.2.1.41.01.58-.3.02-.03-.17-.21-.28-.28-.19-.12-.4-.01-.57.3-.03.03.17.18.27.28z"/></g></switch></svg>