<?xml version="1.0" encoding="UTF-8"?>
<svg enable-background="new 0 0 82.3 56.7" version="1.1" viewBox="0 0 82.3 56.7" xml:space="preserve" xmlns="http://www.w3.org/2000/svg">
<style type="text/css">
	.st0{fill:#2F4546;}
</style>

	<polygon class="st0" points="40.8 32 66.1 15.7 65.8 9 14.4 11.5 14.8 18.3"/>
	<path class="st0" d="m66.3 20-25.3 16.3-26-13.7 1.2 25.5 51.3-2.5-1.2-25.6zm-47 19.4s-0.1-0.1-0.2-0.1c-0.1-0.1-0.1-0.2 0-0.4 0 0 0.1 0 0.2 0.1s0.1 0.3 0 0.4zm1.8 4.6c-0.2 0-0.3-0.1-0.3-0.3 0-0.1 0.1-0.2 0.1-0.2 0.2 0 0.3 0.1 0.3 0.2-0.1 0.2-0.1 0.3-0.1 0.3zm0.9-5.8c0.5 0.2 0.6 0.5 0.4 1-0.5-0.2-0.6-0.6-0.4-1zm0.8 7.5c-0.5-0.4-0.5-0.4-0.4-1 0.3-0.1 0.5-0.4 0.8 0.1-0.1 0.3-0.2 0.6-0.4 0.9zm1.4-9.8c-0.1 0.1-0.2 0.1-0.4 0 0 0 0.1-0.1 0.1-0.2 0.1-0.1 0.2-0.1 0.4 0l-0.1 0.2zm4.5 3.6c-0.6 0-0.7-0.3-0.3-0.7 0.7 0 0.7 0.2 0.3 0.7z"/>
	<path class="st0" d="m37.6 31.8c0.1-0.1 0.2-0.1 0.4 0 0 0 0 0.1-0.1 0.2s-0.2 0.1-0.4 0c0 0 0-0.1 0.1-0.2z"/>
	
		<path class="st0" d="m52.9 5.5v-1c0.3-0.5 0.9-0.3 1.3-0.3 0.3 0.1 0.2 0.4 0.3 0.8-0.2 0.2-0.4 0.4-0.7 0.6-0.1 0.1-0.3 0.1-0.5 0.1s-0.3-0.1-0.4-0.2z"/>
		<path class="st0" d="m13 39.5c0.3 0.2 0.5 0.4 0.8 0.6-0.3 0.5-1 0.2-1.2 0.8-0.2 0-0.3 0.1-0.5 0-0.1 0-0.1-0.1-0.2-0.1 0 0-0.1-0.1 0-0.2 0.4-0.3 0.7-0.8 1.1-1.1z"/>
		<path class="st0" d="m15.8 44.9h0.6c0.4 0.5 0.4 0.5 0 1h-0.7c-0.2 0-0.3 0-0.4-0.1s0-0.2 0.1-0.4c0.2-0.1 0.3-0.3 0.4-0.5z"/>
		<path class="st0" d="m53.2 50.6c0.2-0.2 0.4-0.5 0.7-0.7s0.6-0.1 0.9 0.1c-0.2 0.2-0.4 0.5-0.7 0.7-0.4 0.2-0.7 0.1-0.9-0.1z"/>
		<path class="st0" d="m16.9 52.4h0.5c0.4 0.5 0.4 0.5 0.1 1.1h-0.5c-0.4-0.5-0.4-0.5-0.1-1.1z"/>
		<path class="st0" d="m56.8 46.9c-0.4-0.4-0.4-0.7-0.1-1.1 0.2 0 0.5-0.1 0.7 0.1 0.1 0.1 0 0.2-0.1 0.4-0.3 0.2-0.4 0.4-0.5 0.6z"/>
		<path class="st0" d="m48.1 28.6c0-0.3-0.1-0.5 0.1-0.7 0.3-0.1 0.4 0.2 0.5 0.3 0.1 0 0.1 0.1 0.2 0.2l0.2 0.2c-0.3 0.3-0.6 0.3-1 0z"/>
		<path class="st0" d="m16.7 54.4c0.2-0.4 0.6-0.3 0.9-0.3s0.5 0 0.7 0.3c-0.2 0.4-0.6 0.3-0.9 0.3s-0.5 0-0.7-0.3z"/>
		<path class="st0" d="m22.3 8.3c0.3-0.4 0.7-0.4 1.1 0-0.2 0.2-0.4 0.3-0.5 0.5-0.2 0.2-0.3 0.3-0.4 0.2-0.2-0.1-0.2-0.2-0.2-0.4v-0.3z"/>
		<path class="st0" d="m21.1 50.6c-0.4 0.4-0.7 0.4-1.1 0.1 0-0.2-0.1-0.5 0.1-0.7 0.1-0.1 0.2 0 0.4 0.1 0.2 0.2 0.4 0.3 0.6 0.5z"/>
		<path class="st0" d="m50.7 2c0.4 0.5 0.4 0.5 0.1 1-0.3 0-0.6 0.2-0.7-0.3 0.1-0.2 0.4-0.4 0.6-0.7z"/>
		<path class="st0" d="m56.7 3.3c-0.4-0.3-0.4-0.7-0.1-1 0.4 0.3 0.5 0.6 0.1 1z"/>
		<path class="st0" d="m36.1 10.5c-0.4-0.3-0.4-0.7-0.1-1 0.4 0.3 0.4 0.6 0.1 1z"/>
		<path class="st0" d="m16.7 41.3c-0.4-0.3-0.4-0.7-0.1-1 0.5 0.3 0.5 0.6 0.1 1z"/>
		<path class="st0" d="m15.4 40.8c0.5 0.1 0.6 0.2 0.5 0.8 0 0.1-0.1 0.1-0.2 0.2 0 0-0.1 0-0.2-0.1-0.1 0-0.1-0.1-0.1-0.2v-0.7z"/>
		<path class="st0" d="m24 51.7c-0.3 0-0.5-0.2-0.5-0.4 0.1-0.2 0.2-0.3 0.4-0.3h0.2c0.2 0.1 0.3 0.3 0.2 0.4 0 0.1-0.1 0.2-0.2 0.2 0 0.2-0.1 0.1-0.1 0.1z"/>
		<path class="st0" d="m26.2 50.9c0.4 0.3 0.4 0.7 0.1 1-0.4-0.3-0.4-0.6-0.1-1z"/>
		<path class="st0" d="m57.8 4.2c0.4 0.3 0.4 0.7 0.1 1-0.4-0.2-0.5-0.6-0.1-1z"/>
		<path class="st0" d="m59.9 46.3v0.2c-0.2 0.3-0.7 0.3-0.8 0v-0.2c0-0.1 0.1-0.2 0.2-0.2h0.5c0 0.1 0.1 0.2 0.1 0.2z"/>
		<path class="st0" d="m20.5 21c0.1 0 0.1 0.1 0.2 0.2v0.2c0 0.3-0.1 0.5-0.3 0.5"/>
		<path class="st0" d="m53.6 46.5c0.2 0.1 0.3 0.2 0.2 0.3 0 0.1-0.1 0.2-0.2 0.2-0.2-0.1-0.2-0.2-0.2-0.3"/>
		<path class="st0" d="m54.5 48.3c-0.1-0.1 0-0.2 0.2-0.3l0.2 0.2c0.1 0.1 0 0.2-0.2 0.3l-0.2-0.2z"/>
		<path class="st0" d="m52.8 48.9c-0.1 0.1-0.1 0.2-0.2 0.2-0.2-0.1-0.3-0.2-0.2-0.3 0-0.1 0.1-0.2 0.2-0.2 0.2 0.1 0.3 0.2 0.2 0.3z"/>
		<path class="st0" d="m55.3 7.1c-0.1 0.1-0.2 0-0.3-0.2l0.2-0.2c0.1-0.1 0.2 0 0.3 0.2l-0.2 0.2z"/>
		<path class="st0" d="m7.2 20.6c-0.1 0-0.1-0.1-0.2-0.1 0 0-0.1-0.1-0.1-0.2 0.1-0.2 0.2-0.2 0.3-0.1s0.2 0.2 0.1 0.4c0.1 0.1 0 0.1-0.1 0z"/>
		<path class="st0" d="m9.8 20c0.2 0.1 0.2 0.2 0.2 0.3s-0.1 0.2-0.2 0.2c-0.2-0.1-0.3-0.2-0.2-0.3 0-0.1 0.1-0.1 0.2-0.2z"/>
		<path class="st0" d="m7.9 20.9-0.1 0.2c-0.1-0.1-0.3-0.1-0.3-0.2-0.1-0.2 0-0.3 0.2-0.2 0.1 0 0.2 0.1 0.2 0.2z"/>
		<path class="st0" d="m45.3 31.9c-0.1 0.1-0.2 0-0.3-0.2l0.2-0.2c0.1-0.1 0.2 0 0.3 0.2 0 0.1-0.2 0.2-0.2 0.2z"/>
		<path class="st0" d="m61 5.1c0.1 0.1 0 0.2-0.2 0.3l-0.2-0.2c-0.1-0.1 0-0.2 0.2-0.3l0.2 0.2z"/>
		<path class="st0" d="m55.1 2.8c0.2 0.1 0.2 0.2 0.2 0.3s-0.1 0.2-0.2 0.2c-0.1-0.1-0.2-0.2-0.1-0.3 0-0.1 0.1-0.1 0.1-0.2z"/>
		<path class="st0" d="m48.3 48.8c-0.1 0-0.1 0.1-0.2 0.1-0.2-0.1-0.2-0.1-0.2-0.2 0 0 0.1-0.1 0.2-0.1 0.2 0 0.3 0.1 0.2 0.2z"/>
		<path class="st0" d="m41.1 50.9c-0.1 0.2-0.2 0.2-0.3 0.2s-0.2-0.1-0.2-0.2c0.1-0.2 0.2-0.3 0.3-0.2l0.2 0.2z"/>
		<path class="st0" d="m38.1 53.8c-0.1 0.1-0.1 0.2-0.2 0.2-0.2-0.1-0.3-0.2-0.2-0.3 0-0.1 0.1-0.2 0.2-0.2 0.2 0 0.2 0.1 0.2 0.3z"/>
		<path class="st0" d="m65 12.2c0.1 0.1 0.2 0.1 0.2 0.2-0.1 0.2-0.2 0.3-0.3 0.2-0.1 0-0.2-0.1-0.2-0.2 0.1-0.2 0.2-0.3 0.3-0.2z"/>
		<path class="st0" d="m28.8 51.7c0.1-0.1 0.1-0.2 0.2-0.2 0.2 0.1 0.3 0.2 0.2 0.3 0 0.1-0.1 0.2-0.2 0.2s-0.2-0.2-0.2-0.3z"/>
		<path class="st0" d="m68.9 36.5c0.2 0.1 0.2 0.2 0.2 0.3s-0.1 0.2-0.2 0.2c-0.2-0.1-0.3-0.2-0.2-0.3 0-0.1 0.1-0.2 0.2-0.2z"/>
		<path class="st0" d="m41.1 6.5c-0.1 0.1-0.2 0-0.3-0.2l0.2-0.2c0.1-0.1 0.2 0 0.3 0.2 0 0.1-0.1 0.2-0.2 0.2z"/>
		<path class="st0" d="m10.5 37.6c0.1 0.1 0 0.2-0.2 0.3l-0.2-0.2c-0.1-0.1 0-0.2 0.2-0.3l0.2 0.2z"/>
		<path class="st0" d="m45.6 8.8c-0.1-0.1 0-0.2 0.2-0.3l0.2 0.2s0 0.2-0.2 0.3l-0.2-0.2z"/>
		<path class="st0" d="m15.2 40.8c-0.1 0-0.1-0.1-0.2-0.1 0 0-0.1-0.1-0.1-0.2 0.1-0.2 0.2-0.2 0.3-0.1s0.2 0.2 0.1 0.4h-0.1z"/>
		<path class="st0" d="m11 45.4c-0.1 0.2-0.2 0.2-0.3 0.2s-0.2-0.1-0.2-0.2c0.1-0.2 0.2-0.3 0.3-0.2s0.1 0.2 0.2 0.2z"/>
		<path class="st0" d="m15 48.3 0.2 0.2c-0.1 0.2-0.2 0.3-0.3 0.2-0.1 0-0.2-0.2-0.2-0.2 0-0.2 0.1-0.2 0.3-0.2z"/>
		<path class="st0" d="m15.9 49.8-0.2-0.2c0.1-0.2 0.2-0.3 0.3-0.2 0.1 0 0.2 0.2 0.2 0.2-0.1 0.2-0.2 0.3-0.3 0.2z"/>
	

</svg>
