<svg version="1.1" id="Watch" xmlns="http://www.w3.org/2000/svg" x="0" y="0" viewBox="0 0 82.3 56.7" xml:space="preserve"><style>.st0{fill:#2f4546}</style><path class="st0" d="M41.5 11.8c-16.3 0-29.8 17.4-29.8 17.4s13.5 17.4 29.8 17.4 29.8-17.4 29.8-17.4-13.5-17.4-29.8-17.4zm0 31.9c-8 0-14.5-6.5-14.5-14.5s6.5-14.5 14.5-14.5S56 21.1 56 29.2s-6.5 14.5-14.5 14.5z"/><path class="st0" d="M41.5 20.4c-4.9 0-8.8 3.9-8.8 8.8s3.9 8.8 8.8 8.8c1.5 0 2.9-.4 4.1-1-1.8-.4-3.2-1.9-3.2-3.9 0-2.2 1.8-3.9 3.9-3.9 1.6 0 3 1 3.6 2.4.2-.8.3-1.5.3-2.4.1-4.9-3.8-8.8-8.7-8.8zm-2.9 6.9c-1.1 0-2-.9-2-2s.9-2 2-2 2 .9 2 2-.9 2-2 2zM18.4 14.8l.8.8c0 .2.1.4 0 .5-.1.3-.3.4-.6.4-.2 0-.3.1-.4.3-.1.2-.3.3-.4.2l-.7-.7c.1-.2.3-.3.5-.3.3.1.5-.1.6-.4-.1-.3-.1-.6.2-.8zM70.1 40.4v.6l-.5.5c-.4.4-.7.4-1.1 0-.2-.2-.4-.4-.6-.5.2-.3.4-.3.7-.3.3 0 .4-.3.6-.4.4-.3.7-.2.9.1zM45.1 46.8l.6.9c0 .3-.1.5-.3.6-.3.2-.5.5-1 .4l.3-1.8c0-.1.2-.1.4-.1zM68.2 37.4c.5.1 1-.1 1.6.2 0 .2.1.4.1.7-.2.1-.5.2-.7.2-.8-.7-.8-.7-1-1.1z"/><path class="st0" d="M35.2 26.1c-.4-.6-.4-.6 0-1.1h.5c.4.6.4.6 0 1.1h-.5zM28.8 19.7v-1.1c.1-.2.2-.3.4-.2.1 0 .1.1.2.2v1.1c-.1.2-.2.3-.4.2l-.2-.2zM57.1 12.5c0-.2-.1-.6.2-.7.3-.1.4.2.6.3.1 0 .1.1.2.2l.2.2c-.6.4-.6.4-1.2 0zM59.2 45.6c.4-.4.7-.4 1.1 0 0 .3.2.7-.4.8-.2-.3-.5-.6-.7-.8zM27.7 26.4c-.1.3-.7.3-.9 0v-.2c.1-.3.7-.3.9 0v.2zM31 32.1c-.5-.1-.6-.3-.5-.9 0-.1.1-.1.2-.2 0 0 .1 0 .2.1s.1.1.1.2c.1.3 0 .5 0 .8zM23.8 40.7c-.1.3-.7.3-.9 0v-.2c.1-.3.7-.3.9 0v.2zM14.5 20.6h-.8c-.1 0-.3-.2-.3-.3 0-.2.2-.3.4-.2.2 0 .3 0 .5.1s.2.2.2.4zM30.9 45.4c.3.1.3.7 0 .9h-.2c-.3-.1-.3-.7 0-.9h.2zM10.1 35c.4.4.4.7 0 1.1-.4-.3-.4-.7 0-1.1zM25.9 12c-.1.2-.2.3-.4.2-.1 0-.2-.2-.2-.2.1-.2.2-.3.4-.2.1 0 .2.1.2.2zM26.6 12.1c-.1-.1 0-.3.2-.4l.2.2c.1.1 0 .2-.2.4-.1 0-.2-.2-.2-.2zM23.6 12.4c.1.1 0 .3-.2.4l-.2-.2c-.1-.1 0-.2.2-.4l.2.2zM31.5 43.3c.1.1 0 .3-.2.4l-.2-.2c-.1-.1 0-.2.2-.4l.2.2zM43 44.3l.2.2c-.1.2-.2.3-.4.2-.1 0-.2-.2-.2-.2.1-.2.2-.3.4-.2zM25.4 34.8c-.1.1-.3 0-.4-.2l.2-.2c.1-.1.2 0 .4.2-.1 0-.2.1-.2.2zM21.1 45.6s-.1.2-.2.2c-.1-.1-.3-.1-.3-.2-.1-.2 0-.3.2-.2.1 0 .2.1.3.2zM28.5 45.4c.1-.1.3 0 .4.2l-.2.2c-.1.1-.2 0-.4-.2 0-.1.1-.1.2-.2zM73.4 34.9l-.2.2c-.2-.1-.3-.2-.2-.4 0-.1.2-.2.2-.2.2.1.2.3.2.4zM25.6 46.2c-.1-.1 0-.3.2-.4l.2.2c.1.1 0 .2-.2.4l-.2-.2zM27.9 16.1c.2.1.3.2.2.4 0 .1-.2.2-.2.2-.2-.1-.3-.2-.2-.4 0-.1.1-.1.2-.2zM59.4 8.4l-.2-.2c.1-.2.2-.3.4-.2.1 0 .2.2.2.2-.2.2-.3.3-.4.2zM32.1 29.6c-.1.2-.2.3-.4.2-.1 0-.2-.2-.2-.2.1-.2.2-.3.4-.2l.2.2zM27.1 9.3c-.1-.1 0-.3.2-.4l.2.2c.1.1 0 .2-.2.4l-.2-.2zM37.7 19.3l-.2.2c-.2-.1-.3-.2-.2-.4 0-.1.2-.2.2-.2.2.1.2.2.2.4zM67.9 23c.1.1 0 .3-.2.4l-.2-.2c-.1-.1 0-.2.2-.4.1 0 .2.1.2.2zM53 47.6c-.1-.1 0-.3.2-.4l.2.2c.1.1 0 .2-.2.4-.1 0-.2-.2-.2-.2zM48.5 22.7c-.1.1-.3 0-.4-.2l.2-.2c.1-.1.2 0 .4.2-.1 0-.2.1-.2.2zM29.9 16.3h-.2c0-.2 0-.3.2-.4h.2c.1.2 0 .4-.2.4zM26.1 10.7c.1-.1.3 0 .4.2l-.2.2c-.1.1-.2 0-.4-.2 0 0 .2-.1.2-.2zM27.6 42.5c-.1.1-.3 0-.4-.2l.2-.2c.1-.1.2 0 .4.2-.1 0-.2.1-.2.2z"/></svg>