<svg version="1.1" id="Layer_1" xmlns="http://www.w3.org/2000/svg" x="0" y="0" viewBox="0 0 32 32" xml:space="preserve"><style>.st0{fill:#E9E4C6}</style><switch><g><path class="st0" d="M21.3 13.6l.2.2h.2c.1-.2 0-.3-.1-.4h-.1l6.6-6.6L25.3 4 16 13.2 6.7 3.9 3.9 6.7l4.8 4.8c-.1 0-.1.1-.1.2v.5c.6.2.3 1 .8 1.3.2-.2.4-.5.6-.7l3.2 3.2-9.3 9.3 2.8 2.8 9.3-9.3 3.9 3.9h-.1c-.3.2-.1.5-.2.7.3.4.7.4 1 0l4.7 4.7 2.8-2.8-9.3-9.3 2.5-2.4z"/><path class="st0" d="M24.8 17.8c-.2.1-.2.2-.2.4.1.2.3.2.4.2h.8c.4-.5.4-.5 0-1.1h-.6c-.1.1-.2.3-.4.5zM23.1 14.3c.4-.4.4-.7 0-1.1-.4.4-.4.8 0 1.1zM21.7 14.5c0 .1.1.1.1.2 0 0 .1.1.2.1s.2-.1.2-.2c.1-.6.1-.7-.5-.8v.7zM6.7 13.6c.1-.1 0-.2-.2-.3l-.2.2c-.1.1 0 .2.2.3.1 0 .2-.1.2-.2zM16.2 5.9c.1-.1 0-.2-.2-.3l-.2.2c-.1.1 0 .2.2.3l.2-.2zM6.2 16.3c.2-.1.2-.2.2-.3l-.2-.2c-.2 0-.3.2-.2.3 0 .1.1.2.2.2zM19 25c-.1-.1-.2-.1-.3.1 0 0 0 .1.1.2 0 .1.1.1.2.1h.2c0-.1-.1-.2-.2-.4zM21.4 25.1c-.1.1 0 .2.2.3l.2-.2c.1-.1 0-.2-.2-.4-.1.2-.2.2-.2.3zM19.4 25.5c-.2-.1-.3 0-.2.2.1.1.2.2.3.2 0 0 .2-.1.2-.2-.2 0-.2-.2-.3-.2z"/></g></switch></svg>