<svg xmlns="http://www.w3.org/2000/svg" viewBox="0 0 421.56 339.5"><style>.st1{fill:#2f4546}</style><switch><g><path d="M26.11 119.58v10.77l-3.02 1.72v35.77l10.54-4.57 6.99-.85 3.18-3.6 4.02-1.4 2.96 3.1 6.99 1.27 7.41 6.05h4.87l8.26-2.24s7.41 1.08 8.05 2.24l.64 1.15 5.72-3.39h2.96l16.94-5.51 17.36-1.48h3.39v106.04l53.37 31.23 47.52 5.65 10.3-9.3 14.95-2.66 6.31-10.97 39.87 2.99 18.61 18.28 74.43-1.99 4.65-81.74-9.97-5.59-3.99-10.36-29.24.33-.66-23.26 7.31-4.32V15.78h-8.31l-3.66-2.66-1.66-1.66h-3.66l-1.33 3.66-10.97 1.99-2.99-1.33-3.32 1.33h-3.66l-2.66-2.66-2.5-.52-1.94 1.47h-4.81l-10.08-.78-23.87-.16-8.29 4.88-11.16 2.48h-80.61l-.9-5.41-12.28 2.55-2.25-2.99-17.22.6-6.14-.75-6.14.45-6.74 3.89-.9-3.14-4.19.15H34.95v64.69l-8.84 37.72z" fill="#ffd800" id="background"/><g id="text"><path class="st1" d="M150.18 307.07h-.37l-.44-.44h-.44l-.44.35-.44-.35h-.44l-.09.35.44 1.59v.35l-.44.44v.35l.44.44c2.42-.18 3.63-.56 3.63-1.15l.09-.8-.18-.15c-.3.16-.66.28-1.15.32a7.01 7.01 0 00-.17-1.3zM150.26 291.5l.75.05c-.04-.5-.17-.9-.4-1.18l-.41 1.03.06.1zM150.25 306.62l-.24-.22c.08.21.12.44.17.66h.07v-.44z"/><path class="st1" d="M152.64 305.56l-1.42-.09v.44l.44 1.86h-.53l.35.29c.42-.23.67-.55.71-1h.21l.15-.8.09-.7zM150.69 289.37l-.16-.57.06.57zM160.51 185.67l.62-.53h2.39l2.3.7 1.86-.9-7.7.2z"/><path class="st1" d="M149.36 288.22l-3.27.71.44 2.74-.09 1.59-.89-.09v.53l1.86.35v-.8c1.18 0 2.24-.38 3.19-1.15l-.34-.61-.1-.01.04-.1-.48-.87v-.71c.39.07.68.27.9.55l.08-.2-.1-.8h-1.32l.08-1.13zM151.04 292.46l.53-.44v-.44l-.56-.04c.02.18.04.35.03.57v.35zM165.73 252.03l.09-1.15-1.77-.09 1.15 1.24zM149.91 285.92l-.11.09h-.01c0 .18-.02.34-.04.48l.49.05.12.97.4-1.2-.23-.4h-.62zM149.01 304.23l.44-.44h-.44v-.44l.53-.44c1.47 0 2.24-.29 2.3-.88-2.37-1.85-3.54-4.09-3.53-6.73l-.01.01-.44-.44-.97.8v.33l.44.35H146l-.53-.35v.35l-.44.44v.71l2.3-.71-.53 1.95.89 1.24c-1.06-.06-1.98.94-2.74 3.01l.44.35h.44l.44-.35.44.09v1.95h-.97v.71l3.19.44.44-.35.64.58c-.22-.62-.55-1.2-1-1.73v-.45zM157.59 245.39v1.77h1.77zM169.45 184.08l-1.77.86 3.43-.09-1.04-.77zM150.53 288.8l-.16-1.29-.12.35zM171.11 184.85l.63.47 4.78.09c.07 0 .14-.02.21-.03l.23-.68-5.85.15zM145.74 284.68h.53l-.09.35 1.1-.21c-.76-.45-1.42-.67-1.99-.67l-.44.44v1.33l.84.33-.39-1.22.44-.35zM147.51 288.31c.63-.27 1.1-.57 1.41-.88l-1.07-.2-.34 1.08z"/><path class="st1" d="M146.62 285.48h-.44v.97l-.49-.2.49 1.53.88-.71.79.15.1-.33zM148.92 287.42c.47.05.74-.27.84-.93l-.4-.04c0 .34-.15.67-.44.97zM203.51 151.6l-1.86-.44v.44l-.44.44v.88c1.54-.17 2.3-.61 2.3-1.32zM151.04 292.91l-.44.44.89.8v1.06l.44-1.42zM148.74 294.85l-.24.24c.22-.02.45-.07.69-.15l-.45-.09zM148.3 295.12c0 .06.01.11.01.17l.2-.2c-.07.01-.14.03-.21.03z"/><path class="st1" d="M151.49 295.3v-.09h-.44v-1.42c-.66.58-1.27.95-1.85 1.15l1.85.36h.44zM241.03 259.73l-.88-5.31.44-.53-.89-1.06.44-.53-.44-5.22.44-2.65-.44-3.72.44-2.65-.44-3.1v-4.78l-1.77-2.65V227c.53 0 .8.53.8 1.59h.97l.44-.53-.44-2.65.44-2.04-.44-.53h.44l-.89-7.43.44-2.57-.97-2.12.97-1.59v-.53h-.97v1.06l-.8-1.06 1.33-1.59-.53-.53.53-.53-.53-1.59.97-6.81v-.53c-.71-6.31-3.89-9.47-9.56-9.47h-.89c-7.32 1.83-10.97 7.96-10.97 18.4l.44.53-.44 2.12v.53l.44.53-.44 1.59.44 6.81-.44 1.59.44.53h-.44l.44 2.65-.44 5.22.44.53-.44.53v1.59l.44 2.12v.53l-.44.53.88 22.12-.44 1.59v.53l.44.53v.53l-.44.53.44 2.04v4.78l.53.53h-.53l.53 2.65c.53 7.02 3.24 10.53 8.14 10.53h1.42c1.65 0 3.33-.53 5.04-1.59 4.48-1.95 6.72-7.23 6.72-15.84l-.44-2.04v-.53l.47-.51zM308.98 223.27l2.13.62.88.09.09-1.86-3.01.27zM309.52 238.93l1.32.09.09-.97h-1.41zM309.43 214.87l-.44-.09-.44.53-.35-.53-.89-.09-.53 2.83c1.18-.35 2.04-1.09 2.57-2.21l.08-.44zM282.18 207.61l-.09.44 2.47 1.15h.45v-.53l-.8-1.41zM313.5 234.95l.79.97.54-.53.08-1.32h-1.32zM316.33 212.48v.88l1.24.18-.8-1.06zM277.57 231.32l.8.98.44-.36.09-1.41h-.44zM275.89 239.38l-1.24-.18-.09 1.41c-.06.77.62 1.27 2.04 1.5l.44-.35v-.53c-.35-1.23-.74-1.85-1.15-1.85zM335.62 174.96h-.35c-.12.77-.62 1.65-1.5 2.65v.53l2.57.09.09-.88-.8-1.5.44-.35-.45-.54zM278.46 178.68l-.09 1.77.35.08.45-.44h.44l-.35-1.41zM316.86 146.56v-.98h-.8l-.79.98zM295.4 322.2l.71.88.89-.8.08-.35-1.68-.09zM280.76 145.58v-.44l-6.46-1.32h-.8v.44l6.82 1.32zM276.25 231.77l-.89.88.8.97 1.33.09v-.88l-.89-.98zM312.35 215.49l.44.53 1.24.09c.06-.94.38-1.42.97-1.42v-.35l-.89-1.06c-.52.05-1.11.79-1.76 2.21zM316.64 321.31h-.35l-.88.71c-.06.88 1.3 1.53 4.07 1.95l1.24-.35 2.48.97 2.92-.71v-.8l-2.48-.18c-2.61-.94-4.94-1.47-7-1.59zM297.39 317.24v.44h1.24l.09-1.24h-.44zM324.78 317.59l1.15 1.24.88-.71v-.44l-2.03-.53zM327.57 329.27h.88v-1.23h-.79zM314.03 318.57h1.24v-.8h-.36zM303.1 324.76l-.09 1.59.44.09 1.33-1.24-.35-.44zM304.16 321.49l1.33-1.24h-1.24zM410.12 197.88l.27-3.28-.23.18-.18 3.09zM376.14 317.51l-1.59-1.15-1.06-.09-1.15 1.06c.59 1.36 1.62 2.33 3.1 2.92l2.83-1.5.62.09-.09.53-.53.53-.09 1.06 4.25 2.48 1.15.09 2.3-2.57.09-.62-3.19-2.39-6.64-.44z"/><path class="st1" d="M400.39 168.5l-10.71-1.15-1.5 1.42c.06-1.36-.88-2.09-2.83-2.21h-.53c-2.24-.18-3.89.74-4.95 2.74.12-2.06-.33-3.13-1.33-3.18l-2.48-.18-.53.44-.53 2.03-1.06.97-1.42-1.15-4.42-.18c-1.65.71-2.54 2.18-2.65 4.42-.65-.06-1.06-1.47-1.24-4.25l1.06-1.95-2.3-1.24-13.4-1.32c-.42 1.25-1.94 2.6-4.56 4.06h-.53l-.44-2.21.61-1.92c-.2.16-.32.38-.35.68-.53-.71-2.57-1.36-6.11-1.95l-.09.53-.53.44-3.1 53.62.8 3.27-1.06 1.95-.18 1.5c0 .71.65 1.09 1.95 1.15l-2.12 3.01-1.59 27.34.97 1.59-1.15 1.5-.09 1.06 1.86 2.65-1.95-.09-.48 7.65c-.19-1.74-.58-2.91-1.2-3.49l-1.24.35h-.44l-.35-3.36.8-1.5-.44-3.36.44-3.01-.44-1.86c.53-1.47.8-3.72.8-6.72l1.33-1.86v-2.65l-.89-2.21.89-4.07v-2.74h.88l-.44-1.77v-1.24c1.42 0 2.12-.24 2.12-.71v-1.06c0-1.47-.56-2.21-1.68-2.21l.53-3.8V222l-.53-.44-.88.71v2.74l.44 1.77h-.44v.8h-.44l-.44-3.01.44-4.07v-6.02c.88-1 1.62-2.74 2.21-5.22 1.42-.82 2.12-1.83 2.12-3.01v-.35l-.8-.71h-.53l-2.12 4.78h-.44v-1.06l.44-4.42-.44-1.24.44-4.07v-4.16l.44-2.21-.44-1.15 1.33-25.75-.35-.35.8-13.45v-.44c-3.72.77-5.57 1.65-5.57 2.65h-6.46l-2.3-.44-.35.44h-.44l-22.04-1.01-.01-.01h-.25l-6.17-.28-.53-.19-.15.16-3.48-.16c-.5-.38-1.01-.84-1.51-1.43h-.86l.17 1.33-13.66-.62v.27h-.97l-.44-.27h-.35l-.53.27c0 .53.44.8 1.33.8 0 7.49-.44 13.98-1.33 19.47l.53.35-.53 3.36v1.5l-1.15.35.8 1.15v1.86l-1.68 4.16v3.27c0 .53.41.8 1.24.8v1.86l-.89-.8-.8.8v2.21l.44.44h.35l.53-.44.35 1.95c-.35 7.49-.92 11.24-1.68 11.24l.44 3.63-.62 7.17-1.41.53-1.33-1.06-.97 1.06h-.88v-.53h.44l.44-.53c0-1.65 1.39-3.57 4.16-5.75v-.53l-.44-.53h-.44l-.53.53h-.89c0-2.95.47-5.6 1.42-7.96h-.53l-.44-.53c.94-1.42 1.42-3.33 1.42-5.75l-.44-4.25.44-2.65-.44-1.5.44-.53V187h-.97l-.44.53-.44-2.65c1.53 0 2.3-1.06 2.3-3.19v-26.9c0-1.36-7.29-2.57-21.85-3.63l-1.33-.53c-.77 2.07-2.12 3.1-4.07 3.1v-.97h.44l.35.53h.44v-1.59c0-.71-.89-1.24-2.65-1.59h-.44c.94 4.19 1.98 6.99 3.1 8.41v.53c-1.48 0-2.21.53-2.21 1.59h-.88v1.06h-.44v-1.06l.44-.53-.44-2.12v-.53l.44-.53v-.53l-1.33.53h-.97l.97-1.59v-1.06l-.97-1.5h.97l-.53-2.12c0-.71-6.96-1.77-20.88-3.18l-.97 2.65h-.89c0-1.77-.3-2.65-.89-2.65h-.97l-.89 1.06v1.06l.44.53-4.07-.53.53-.53-.97-1.59h-.44l-.44.53v.53l.44.53c-.12 0-.24.01-.35.01l-.36-1.52h-1.33l-.89.88-.09 1.77.89.09.27-.23c0 .02-.01.03-.01.05v.53h1.42l2.3.53v.53l-.44.53v.53l.44.53h-.44c0 2.77-.47 4.16-1.42 4.16l-.44.53h-.41l.41-.44-.44-.44.53-1.33v-.44l-.89-.09-1.36 1.36c-1.33-.33-2-.75-2-1.27l-2.3 1.06h-.35l-.44-.53h-.44l-.05.05c-.43-.78-.7-1.74-.84-2.88l.53-.35v-.35l-.44-.44.44-2.3h.44l.53.44h.44v-1.24l-1.77-1.59-62.91-1.06-.97.8-3.63 162.9.89.8 15.93.26c.06-1.06.53-1.56 1.42-1.5v-.89c-1 0-1.53-2.24-1.59-6.72l.89.09v-.8c-.77 0-1.33-1.56-1.68-4.69l.44-.44-.89-3.1.53-.35v-.44l-.44-.44h.44l-.44-1.95v-.8l.53-.35-1.33-3.1.44-.35h-.44l-3.63.62h-2.3l-2.3-.44-1.33.35h-.97l2.83-4.25v-.35l-.44-.35.53-1.24h.88c.83-2.3 1.62-3.45 2.39-3.45-.06 1.06.23 1.59.88 1.59h.44c0-.65.47-1.3 1.42-1.95.47 0 .91.91 1.33 2.74l-.53.35h-.44l-.44-.35-.88.8 2.65.44.53-2.03h.44c.41 1.36 1.18 2.07 2.3 2.12l-.53 1.5c.94 2.12 1.98 3.19 3.1 3.19v.35l-.75.14c.5.3 1.05.69 1.64 1.18h.88c0-.03.01-.05.01-.09h.11l.42-.35.2.35h.24v.35l-.01.04 3.02 5.27-.44.44c0 .59.44.91 1.33.97v.44l-.44.44h.89l3.54 5.13v.44l-.44.44v.89c1.53.24 2.27 1.15 2.21 2.74l2.21 4.16-3.63.44-.44-.53-1.86.44v-.89h-.44l-1.42.89h-.88l-1.33-.97h-.24l-.29 1.59c.35 1.53.77 2.3 1.24 2.3l26.9.53.97-.8.09-4.69h.89l-1.24-3.98.88.09v.71h1.33l.53-.35.8 2.39-.44.35v.88l.44.35-.44.35v.35l.44.44h-.44l.35 1.95h-.88c.35 1.3.8 1.95 1.33 1.95l6.64.12v10.23l.53.53-.53.53v2.65l.97 1.06v-1.06l-.44-.53h.44c.59 0 .88.53.88 1.59h8.14v-1.59c.59 0 .89.53.89 1.59h9.11l.97-1.06v-4.25l-.53-.53h8.67l.44.53c0-.71.91-1.24 2.74-1.59l2.74 2.12c.3 3.18.89 4.78 1.77 4.78h21.41c.3-2.83.74-4.25 1.33-4.25l-.44-2.65h.97l.44.53v-1.06l-.44-.53 2.74-.53.89 1.06c.65-.71 2.3-1.24 4.95-1.59l1.42.53v2.65l-.44 5.31h.44l.44.53h1.86l.88-1.06v-16.61c8.37.68 25.62 1.7 51.76 3.07 2.54 0 3.8.5 3.8 1.5h3.54c.53-.83 1.39-7.02 2.57-18.58l1.77-18.05-.53-1.86c.88 0 1.33-.27 1.33-.8v-2.12l1.24.27 1.04-.21-.78 12.42.44 2.12-.62 2.03-1.86 30.35.97 1.06 2.57-2.39-.35-1.59 2.74-22.56.53.09-.26 4.16-.97 8.67 1.24 1.68 2.04-.44 1.95.71 4.34.27 3.45-.27.44.53h.53l.53-.44 9.2 1.59 1.95-.35 2.92.18 5.4.88 1.95-.44 1.42.71 1.95-.44 13.71.88c2.59.18 3.8 1.44 3.63 3.8l-.62 2.57 2.18 1.32.21.37h.39l1.02.62c1.16-.11 2.14-.25 2.99-.4l.02.05.08-.07c2.19-.42 3.33-.98 3.38-1.7.71.06 1 .94.88 2.65l.89.09 1.15-1.06 7.12-121.94-.93-.08.09-2.21 1.02-.8.22-3.8-.53-.62.62-.44 1.06-19.56-.88-1.15-10.38-.71zm-197.76-20.53v1.22c-.18.07-.33.15-.44.25v-.15l-.44-.44.88-.88zm-24.24 34.51c-.33 1.78-.88 2.74-1.65 2.89l-14.56 42.7-6.18 10.78c4.66.59 7.4 1.24 8.23 1.95h.53l.09-1.24 2.92.71 1.77-.62 4.69 1.33-.09 8.23c-.12 5.13-.77 7.7-1.95 7.7l-2.39-.09-2.92-.62-.62.62-7.7-1.33-1.77.53-2.92-.62-1.77.53-3.54-.71h-.62l-.62.62-.53-.62h-1.24l-.53.53-.62-.62h-2.92l-3.01.53-1.68-4.16.09-3.54.62-3.01-.22-.22.1-.31h.12l-.04-.25 18.18-59.65-18.14-1.06.09-2.92-.62-.62.62-.53.18-6.55-.62-.62c.53 0 .94-1.56 1.24-4.69l.62.62 1.77-.53 7.08 1.24 2.39-.53h.62l5.31.71 2.3-.53 1.77.62 2.39-.53h2.39l4.16.71.53-.53.62.53 1.15.09 3.54-.53 1.77.62h.62v-1.15h1.24l-.62.53.35 13.61zm-9.65 30.17l-4.78 12.3-.13.22 4.91-12.52zm13.01-23.62h-.53v-.53l.62-3.54h1.15l-1.24 4.07zm17.43-23.63h.44l1.86 3.63h-.44c-.53 0-1.15-1.06-1.86-3.19v-.44zm.44 35.84l.53-.53h.44l.44 2.57h-1.42l-.44-2.03h.45zm-1.33 85.43v-.14h.44l.24.28c-.2-.05-.43-.1-.68-.14zm-.44-3.76h-.53l-1.68-4.25v-.53h1.68l.53 3.72v1.06zm-1.77-11.59l.8-1.06v2.65l-.8-1.06v-.53zm.44-2.13v-.24l.23-.06-.23.3zm.36-14.24l-.8-1.06v-.53l.8 1.06v.53zm-5.13-66.63c.17 0 .36-.28.56-.8h.15v1.06l-.44 1.5v.53l.44.53v.53l-.15.18c-.21-.93-.42-1.61-.64-2.04l.44-.35.09-.8-.45-.34zm5.57 95.12v.09c-.09 0-.16.01-.25.02l.25-.11zm2.57 5.93l.34.06-.11.22-.23-.28zm-2.04-42.83l.89-1.06h.44l-.44 3.72h-.89v-2.66zm-.97-80.16l-.35 2.12h-.09l-.29-1.18.73-.94zm-.79-1.57l.1-.47h.33l-.43.47zm-3.64 43.87v2.81l-.35.28-1.77-.8c.28-1.51.99-2.27 2.12-2.29zm-4.77-20.09l1.24-1.15v1.15l-1.24 1.15v-1.15zm-2.48 44.68l.53-1.68.44.53 5.57-5.4-.88-1.24h-.44l-.44.35-2.03-11.41v-.71l.97-1.15 1.77 1.15c.59.06.91-.44.97-1.5h.44l.4.36.4 2.29v17.96l-.44 2.65.88 1.59-.44.44v11.15l.44 2.57-.44.53.44 2.65-.44 1.59v.53l.44.53-.64 5.13c-1.75-.6-2.63-1.24-2.63-1.94l.53-1.5v-.35h-1.42l1.5-3.1c0-.59-.47-.89-1.42-.89l.53-.35-.44-.35.44-1.24-1.24-3.54.44-1.95h-.89l.44-.35c0-.89-.59-2.09-1.77-3.63l.09-.71.44-.44h-.44l.44-.35-.44-1.24.53-2.3v-.35l-.44-.44.44-.35v-.35l-.88-.89h-.44v.8h-.44l-.43-3.1zm1.33 43.45l-.8-3.1.44-2.03v-.35l-.44-.35.44-.35 1.42.35h.44l.44-.35v-.44l-.44-.35 3.27-1.5h.44v.71h.1l-.37 2.92v4.11l-.35-.31-1.86-.09-1.86 1.15h-.87zm4.86 8.31c0-.77-.3-1.15-.89-1.15l-.09.71h-.89l.44-.35c.06-.53-.53-.8-1.77-.8V283c.73 0 1.82-1.06 3.27-3.14v5.16l-.07.01zm9.21 3.63l-.18.37v-.37c0-.17-.02-.33-.05-.48l.23-.05v.53zm-.98-28.93v-1.06h.53l.89 1.06h-1.42zm1.86-40.09h-.44l-.89-2.12h.89l.44.53v1.59zm0-4.77h-.88l-.44-1.5 1.33-1.06v2.56zm-1.86-17.35v-7.43l.97-.97h.44l.44 1.5-1.33 1.59v.53l.44.53h.44l.44-.53h.08l.19 1.24.13.01c-.17 2.35-.92 3.53-2.24 3.53zm56.98 47.43h.44c2.06 1.53 3.1 2.6 3.1 3.18l2.3-2.12v-.53l-2.3-.53c0-2.6 1.31-4.14 3.89-4.65v1.47H262v.53l.88 1.06h.44l.53-.53v1.06l-1.42.53.44 1.59c-.3 2.77-.74 4.16-1.33 4.16h-.44v-.53l.44-.44v-.53h-.97v1.5h-1.33l-2.65-4.69v-.53zm2.22 36.9v-.53h.89l.44.53v.53l-.44.53-.89-1.06zm-41.41-118.57l4.07.53 3.27-.53h1.77v.53c-1.18 0-2.09 1.21-2.74 3.63-.71 0-1.15-.85-1.33-2.57v-.53l-4.16 1.06-.44-1.59-1.77 1.59-1.86-2.12h3.19zm8.67 4.16h-.44l-.44.53h-.44l.44-2.12h.44l.44 1.59zm-15.04-4.16l.89-1.06-.44 1.59v.53l.44.53v.53l-.89-1.06v-1.06zm-5.84 20h.89v1.59h-.89v-1.59zm4.42 130.69l-3.1-2.12v-.53h.44c1.77.71 2.65 1.42 2.65 2.12v.53zm27.43-11.06l-.97-1.06h.44l.97 1.06h-.44zm4.51-3.19l-2.3-1.06v-.53l.89-.97h.44v.97c1.24.53 1.86 1.06 1.86 1.59h-.89zm12.3 10c-1.53-.41-2.3-.91-2.3-1.5l-2.74 1.5h-.44c0-.65.44-.97 1.33-.97v-.53l-.88-1.06-2.74 2.57v-.53l.97-2.57h1.77l2.74-1.06 2.3 3.63v.52zm-7.79-11.06v-.53h.97l1.33.53v.53h-.44l-1.86-.53zm3.19-1.51l1.33.44 1.42-.97h.88v.97c-1.24 0-1.86.53-1.86 1.59h-.88l-.89-2.03zm5.49-13.71h-1.42v-2.12l1.42.53v1.59zm-2.3-5.31c0 1.18-2.27 4.87-6.81 11.06-5.72 4.31-10.59 7.11-14.6 8.41h-.44l-.44-.44-4.07.44h-1.33v-.97h-.53l-.89.97h-.44l-.44-.44c-3.6 0-7.55-2.48-11.86-7.43l-4.51-9.47.44-1.59-.44-.53c0-3.19-.62-4.78-1.86-4.78v-.44l1.86-.53-.89-1.06.44-.53-.44-3.72v-5.31l.44-3.63-.97-1.06v-7.87l-.44-.53.44-.53v-3.18l-.44-.53.44-2.12h1.42l9.11-2.65v-1.06h-2.74c-1.95 1.42-4.37 2.12-7.26 2.12l-.97-1.06v-8.41l.44-4.25-.44-4.16v-11.06l-.44-.53.44-.53v-6.37l.97-6.28v-.53l-.53-.53c1.47-6.19 3.75-11.83 6.81-16.9l6.37-5.22c2.71-1 4.25-2.06 4.6-3.19v-1.06l-.53-.53h.53l.44-.53c0-1.06.44-1.59 1.33-1.59v.53l-.89 1.59v1.59c3.01-1.06 6.67-1.77 10.97-2.12l1.33.53.44-.53 8.67 3.72c4.6 3.78 7.79 9.06 9.56 15.84l-.44.44v1.06l.88 4.25h-.44l.44 2.12-.44 2.65.44 2.57-.44 2.12.89 4.78-.44.53v1.06l.44.53-.89 1.06v16.28l.44 2.65-2.74.53.44 3.18-.44 1.59h1.33v-2.65h.97c0 1.42.29 2.12.89 2.12l-.44 3.63h-.44l-.44-2.12-1.86 1.59 1.33 2.12v1.06l-.44.53h.97v-1.06h.88l-.44 2.65.89 10-.44.53.44 1.59-.44 2.65.44 3.63c-.6 7.14-1.52 12.24-2.75 15.31zm2.74 1.06h1.86l.44 1.59-.44 1.59h-1.86v-3.18zm3.18 8.41h-1.33c0-1.42-.33-2.12-.97-2.12l.97-2.04h.44l.44.53-.44 1.5.89 1.59v.54zm0-8.94l2.21-2.12v2.12l-.88 1.06h-1.33v-1.06zm4.07 35.84h-1.33v-1.06h1.33v1.06zm1.97-83.83c-.71-.08-1.08-.41-1.08-1.03.94-1.3 1.42-2.54 1.42-3.72v-1.15l.18-.18-.52 6.08zm.51-7.58l-.18-.11v-1.61l.18.21v1.51zm25.84-53.62v.44l-1.77-.09v-.44l1.77.09zm-2.57.27l-2.48-.09.89-.88h.8l.79.97zm-18.4 98.39l.18-3.27h.44l.27 3.27h-.89zm34.24 41.15l-1.68-.97.09-.97h.44l1.5 1.95h-.35zm16.46-134.05v3.36l-.89 6.99.44 1.15-1.24 11.59.8.8-.35.35-1.42 32.83-.8 2.83.44 1.33-.89 16.37-17.61-.8-3.8-15.84.44.53.88-.89-.8-.97h-.44l-.24.68-4.71-19.62h-.35l-.53.35-1.68 34.95v.44l-3.45-.89-5.93.44-6.99-.44c0-15.57.74-30.35 2.21-44.33v-.8l1.24-35.3v-.44l11.68 1.24h5.57l9.03 35.3h.9l1.68-34.51v-.44l.44-.35 15.93.8h.44l.44.35-.44 2.94zm2.92 40.7h-.44v-8.23h.44l.44 3.63-.44 4.6zm.79-9.56h-.35l-.89-2.3h1.77l-.53 2.3zm12.13 74.41h-.53l.09-1.68 1.15.09-.71 1.59zm2.3-18.66l-1.06-1.15.18-2.21 1.06.09-.18 3.27zm48.13-89.46l1.06 1.15-.09 1.06h-1.06l-.44-1.68.53-.53zm-2.92 3.1l1.42 3.45v.53l-1.15-.09-1.42-3.98 1.15.09zm.62 8.32l-.18 2.21-1.06-1.15.09-1.06h1.15zm-14.69-5.31l3.01-3.1.97 1.15v.53l-3.01 4.25.44 2.21-.18 2.21h-1.06l-1.5-3.45 1.77-2.12.09-1.06-.53-.62zm-4.16 5.31l1.06.09-.09 1.59-1.06-1.15.09-.53zm-25.83 5.57l1.15-1.06-.09 1.68-1.06-.09v-.53zm2.56 12.92l-2.03-3.45 4.34.8c-.6 1.64-1.36 2.53-2.31 2.65zm1.07-17.7c-.77 0-1.18.53-1.24 1.59l-1.06-.09.71-2.65-.44-2.3c.77.06 1.18-.47 1.24-1.59l.53.09c-.18 2.6.83 4.48 3.01 5.66l1.06.09c.83-2.53 1.65-3.77 2.48-3.72l2.21.18.53.53-.8 3.27h-1.06l.18-2.83h-1.15c-1.12 2.83-2.51 4.22-4.16 4.16l-2.04-2.39zm47.16 61.67l1.59.09 1.77-1.06.53.09.27 3.89-.35 6.64-1.24 1.5h-.53l-.53-.62h-.53l-6.11.71-2.83-.18-2.65-.71c-.06.53-1.95.8-5.66.8l-2.65-.71c-.06.71-.65 1.03-1.77.97-.65 2.36-1.86 4.13-3.63 5.31 1 1.48 1.45 3.16 1.33 5.04l-.8 4.95-.09.53.53.62-.71 2.12c-.06.77 1.74 1.45 5.4 2.03l4.51-.27 2.65.71.62-.53h.53l.53.62 4.51-.8 3.19 1.33 2.3-.44 1.59.09.44 1.68-.89 6.02-.44 7.17-1.68.44-2.74-.71-1.68.44-2.21-.71-4.95.27-2.74-.71-2.74.35-2.74-.71-1.68.44-8.23-2.12-1.68.97h-.53l-1.06-1.24-1.15 1.06-1.68-.62-4.95.27c-.65-.06-1.15-1.03-1.5-2.92l1.06-7.7.09-1.06 1.15-1.06-.35-3.89.18-2.21 2.92-2.03-.09 1.15 1.68.09.53-.53.09-.53-.53-.62 1.06.09c3.3.18 5.01-.65 5.13-2.48.83.06 1.65 1.77 2.48 5.13l2.92-2.04-.97-3.36.71-2.12-1.59-.18-2.83.44-1.06-1.24-1.59-.09-4.25 4.78-.53.53c-1.83-.12-2.8-5.54-2.92-16.28l.62-.53c-4.13-22.71-6.05-36.66-5.75-41.85 4.42.3 6.67-.12 6.73-1.24l1.68.09c4.07-.47 6.13-1.09 6.19-1.86l1.68.71 9.47-1.68 1.59.71c2.12-1.36 7.17-2.33 15.13-2.92l1.77 7.79-.09.62-.53.44 1.06 1.24-.09.53-.53.53.97 1.15-.62 1.59-.09.62.53.53c-2.12.12-3.8.56-5.04 1.33l-4.95-.27-1.15 1.06c-9.32.77-14.01 1.77-14.07 3.01v.53c.89 11.5 1.8 17.29 2.74 17.34l1.15.09 1.15-1.06.53.53 10.09-1.59.53.09.53.53v-.53l.62-.53c4.78.12 7.2-.27 7.26-1.15l4.87 2.48-.09.53h-1.06l-.53-.62c-.77-.06-1.18.47-1.24 1.59-1.83-.12-2.77.18-2.83.89v.62l1.54 1.78zm8.05-41.58l-1.06-.09-.53-.62 1.15-.97h.53l-.09 1.68zm2.65-24.78l-1.06-1.15 1.68-.44h.62l-.09.53-1.15 1.06zm2.39 23.36l-1.59-.09v-1.06l1.68.09-.09 1.06zm1.51 11.77l1.06 1.15v.53l-1.06-1.15v-.53zm2.56 12.3l-.53.53-1.68-.62.09-.53 2.21.09-.09.53zM346.72 325.91c.12-1.12-.21-1.71-.97-1.77h-.53c-2.3.83-3.51 2.24-3.63 4.25v.53l.53.53 1.77-1.5 2.65.71h.62l.53-.44c.12-1.48.53-2.21 1.24-2.21l.09-.53-.53-.53-1.77.96z"/><path class="st1" d="M377.21 247.34l-.09.53.53.62 1.15-1.06.09-.53-.53-.62zM380.57 245.92v.53l1.06 1.15 2.74.18c2.71.18 4.22-.29 4.51-1.42l.09-1.06-.53-.62c-5.19-.05-7.81.36-7.87 1.24zM357.12 248.84l-.53.54.97 1.15.62.08.53-.53-.97-1.15zM345.88 163.37l3.67.36c.07-.21.12-.42.13-.63h-.53c-1.59-.12-2.65-.91-3.19-2.39.06-.77 1-1.09 2.83-.97l1.33-2.65-4.34-2.48-1.5 7.61.44.62v.53l-.09.29c.27-.22.68-.32 1.25-.29zM337.79 328.12l-.09 1.68 1.59.09.62-.53-1.06-1.15zM351.55 241.32l-.62.53 1.06 1.15h.53l.62-.44-1.06-1.24zM411.62 191.33v1.15l1.6.09.09-1.68zM343.27 320.16l-1.06-1.15-1.15-.09-1.15 1.06 1.06 1.15 1.06.09zM20.95 20.89l1.05-.26-.61-1.84h-.35l-.7.88c.46 0 .67.41.61 1.22zM25.33 14.41l-.7-.09v1.32l.7.08zM21.74 31.41l1.05.43v-.43l.35-.44h-1.4zM23.58 30.18v-1.66l-.7-.88-.7.88v.79l.7.87zM126.08 124.53l-1.14 1.14.7.97zM20.86 12.57l-.35-.44h-.35l-.35.44-.09 1.67h.7zM124.68 81.96l-.09.87h.35l.79-.79zM127.48 79.59h-.35l-.7.79h1.05zM68.46 61.83l-.11-.11c-.24 0-.45.35-.64 1.05h.55l.2-.94zM80.7 159.23l-.35.35-.61-.79h-.97l1.23 2.36h.96l.35-1.49-.26-.43zM84.03 79.42l-.35-.53-2.46.35v.88h.35l1.76-.44v1.22l.7.18v-.88l-.35-.52.35.09zM81.4 99.22h.35l-.26-.36.35-.43-.35-1.67h-.7v.79l.35.44-.35.44zM64.93 156.77h1.31v-1.57h-1.22zM79.56 154.93l.61.79h.62v-.7l-.97-.44h-.26zM89.37 153.79v.35h1.23v-.7zM82.63 155.81h-.88l-.35 1.49c.41 0 .58.53.53 1.58l.35.44h.35l.61-1.93c-.41 0-.61-.53-.61-1.58zM87.62 159.05v1.58h1.23c0 1.05.2 1.58.61 1.58l.61.09.7-.79v-.79l-2.8-1.66h-.35zM71.94 156.6v.35h.26l.96-.35.09-1.84-.7-.09zM70.36 156.95h-.35l-.09 1.93 1.58.44.96-.35c-.35-1.35-1.05-2.02-2.1-2.02zM77.98 109.99v1.23h.7l.09-2.11zM69.75 154.58l-1.58-.09v.44l.61 1.93h.62l.7-1.84zM77.63 154.85l-.09 2.71 1.32.79v-2.28l-.88-1.22zM76.93 158.7l-.09 1.58h1.32l-.62-1.58zM80 100l-.35.35 1.4.97h.35l1.75-.44v-.35L80 99.56zM97.17 157.12l.61.79h.35l-.61-.79zM118.63 125.5v.79l2.11.08-.71-.79z"/><path class="st1" d="M108.47 95.36c.14-.84.29-1.87.45-3.07l-1.68-.08v-.88l1.05.09.64.8c1.42-10.8 3.58-36.06 6.46-75.79h-2.8l-33.9-3.24-10.23 48.64.24.24-.35.44.26 2.1-.35 1.23h-1.05c.14-1.36.31-2.38.5-3.07h-.85l-3.5-50.9-36.01-2.54-.7 1.93-4.21 50.81.7 3.33-1.4 1.31c-1.52 18.39-2.53 32.7-3.03 42.99l-.38 3.62h.22c-.14 3.49-.22 6.42-.22 8.76l24.27 2.02 5.52-69.12h1.4l2.1 46.87 1.4 1.31v4.55l-.7 6.57c.58 7.36 1.26 11.04 2.01 11.04l11.74.49v-.06h.35c.09 0 .16.04.23.08l4.32.18v-.7l2.67-12.62h-1.62l-.09.79h-.35l-.26-.53h-.35l-4.29 2.02-.35-.44v-.44c2.92-1.58 5.4-2.34 7.45-2.28l.04.05L86.3 52.93h1.31L85.1 82.74h.24v.79h-.3l-2.14 25.32h.43c-.02.34-.19.61-.49.81l-1.43 16.98c2.45.87 7.77 1.31 15.94 1.31l3.5-.61 1.4 1.31h4.12l2.8-31.98-.7-.61v-.7zm-.79-6.83l.7-.79h.35c-.35 1.34-.73 2.01-1.14 2.01l.09-1.22zM25.59 61.89h.7l.26 1.66H25.5l.09-1.66zm-3.24 44.86H21.3v-.88h1.05v.88zm.44-1.67h-.7v-.44l.35-.44v-.35h-.7v-.88h1.05v2.11zm.79 9.55l-.7.88v-1.31l.7-.79v1.22zm.35-14.45l-.7-.09v-1.67l.7.09v1.67zm.26-11.65l-.7-.09.09-2.1.7.09-.09 2.1zm2.81 13.4l-.35-.09c-.53 0-1.05-1.37-1.58-4.12v-2.98l.79-.79 1.23 7.18-.09.8zm3.15-25.67l-.35-.09-3.5-.96v-.79l2.1.09 1.75.87v.88zm5.43-34.87h-.7l-.35-1.23.35-.44h.35l.35.44v1.23zm1.93 20.94l-.7-.87v-1.23l.7-.79h.35l.35 2.89h-.7zm.96 1.67l1.05.09v.79l-1.05-.09V64zm1.49 25.05h-1.05v-.79l.79-.88.26.44h.35l-.35 1.23zm27.51-20.67h.7l-.35 2.02h-.7l.35-2.02zm.61 2.89v1.23h-.7v-1.23h.7zm-1.31 11.21h1.75l-.79 4.56h-.7l.09-2.45.35-.44v-.44l-.7-.79v-.44zm-3.24-9.2h.7l.61.79-.35.44-1.05-.44.09-.79zm-7.54-49.85l-.79.79h-.35l.44-1.22h.7v.43zm4.91 68.86h-.7c.06-.7-.38-1.17-1.31-1.4-.06.88-.32 1.31-.79 1.31h-.35v-.44l.44-.44v-.44l-.7-.79v-.44c2.16.64 3.3 1.37 3.42 2.19v.45zm3.94 24.27l-.26-.44.35-1.23h.35l.7.88v.44l-.7-.09-.44.44zm.97-7.45l-.09.88-1.05-.09.09-.88 1.05.09zm-.71-1.75l.35-1.23.7.96-.35.35-.7-.08zm3.16 15.07l.35.09.7.88-.44.44h-.35l-.26-.53v-.88zm-1.75.44h.35l-.09.88h-.7c0 .53.35.79 1.05.79 0 .64-.58 1.05-1.75 1.23v-.35l.35-.44-.35-.44v-.44l1.14-1.23zm-.27-17.43l-.7-.18-.7-.79v-.44l1.05.09.7.88-.35.44zm2.37-12.09l-1.4.35.35.44-1.23 4.99h-.35l-.26-2.1.35-.35.09-1.66h-.35c-.06 1.34-.56 1.99-1.49 1.93v-.35c0-.58-.35-.88-1.05-.88v-.44l.44-.35-.35-.44v-.44c1.23-1.99 1.84-3.36 1.84-4.12l-.35-.44c1.17.06 1.78-.47 1.84-1.58h.7c.47 0 .67 1.11.61 3.33l.61.79v1.32zm.09-17.97h-.35l-1.4-.79.79-1.66h.35l.7.79-.44.44.35.44v.78zm.08 26.38v-.44h.7l.26 1.66-.96-1.22zm4.73 7.62h-1.05l.7-.87h.35v.87zm19.28-42.32l.35.17.61.79-1.05-.09.09-.87zm-3.07 37.06l-1.4-.09.35-.44v-.35l-.35-.44.44-.44h.35l.61 1.31v.45zm3.77-24l-.35.44h-.35l.35.35-.09.88-.7.7h-.7l-1.4-.79-2.45.26-1.05-.35.09-.88h1.05l1.05.44v-.44l1.49-2.8-.35-.44 1.05-.44v-.35c-.7 0-1.05-.29-1.05-.88V74.6h.7l.7 2.1.35-.44 1.4.09.7.87c-.53 0-.91.67-1.14 2.02l.7.88zm1.66-11.22h-.35l-.7-.88.35-.44h.7v1.32zm1.67 2.19h-.35l-.26-.44v-.88h.35l.7.88-.44.44zm2.45-25.32l.35-.44h.35l.35.44v.44l-.44.35h-.35l-.26-.35v-.44zM113.46 161.5l1.32.09v-.79l-1.23-.43zM117.84 85.9v-.35l-.26-.44h.35l-.7-.88-.7-.09.35 1.4-.44 1.14c-.47 0-.79-.85-.96-2.54l.35-1.23c.7.06 1.05-.18 1.05-.7h1.05v.35h-.7v.88l1.75-.88-.61-1.23h.35l.96 1.75-1.05-.09v.44l.7 1.23.35.09.35-.35c0-.88.23-1.31.7-1.31v-.35l-.35-.44.09-.44 2.8-1.14v-.44l-.35-.35c.93 0 1.4-.44 1.4-1.31.06-.41-.38-.82-1.31-1.23v.44l-.35.44-.09.35.35.44h-.35l-.35.35c.06-.88-.15-1.31-.61-1.31l-.09.88.35.44h-.35v.79l-1.05-.79h-.7l-4.64 2.63v.44l.35.44-2.45.7v.88l.35.44-.35.35-.09.44.35.44.35.09.35-.44.09-.44-.35-.35v-.44h1.4v.79l-.44 2.1.35.44.23-.29-.15 2.39 1.23 1.58.17-4.17 1.32-1.54zm1.58-5.35l1.05.09v.44l-1.05.26v-.79zM115.48 97.46h-.7l-.35 1.23v.44h1.05zM114.6 104.56l.27 2.89h.7v-.35l-.27-1.66V105l.35-.44v-.44h-.7zM114.51 109.11l.36.44h-.36v.44l.27.44.79-.88v-1.22h-1.06z"/><path class="st1" d="M84.29 82.74v.79h.75l.06-.79zM82.28 108.85l-.35.35-.35-.35h-1.05l-.44 1.93.7.09v-.79c.95 0 1.63-.14 2.05-.42l.07-.81h-.63zM90.34 80.03v.79h.35l.7-.79v-.88h-.35zM74.13 112.71l.7-.79v-.35l-.7.7-.31-.39-.17.83zM109 92.29l-.06-.08c0 .03-.01.05-.01.08h.07zM66.07 126.64l1.31 1.66h.35v-.88h-.7c.05-.89-.09-1.41-.38-1.58l-.58-.02v.82zM14.47 158.79h-.7v.7l1.57.09v-.79l-.87-.44zM37.25 154.58l-.09 1.14 1.23 1.58c.47.06.82-.7 1.05-2.28l-1.58-.44h-.61zM36.54 158h-.35l-.61.79-.09.35h.7v.44h-.35c-.82-.06-1.23-.47-1.23-1.23H34c-.47-.06-.7.32-.7 1.14l-.26-.09-.35-.35h-.61v.35l.61.79 1.84.09.35-.35.35.35 2.19.09.26-.35.09-.44-.35-.35c-.64-.06-.93-.47-.88-1.23zM17.97 143.19l.61-.79v-.35l-.61-.08zM17.45 151.95l-.35 1.14v.35l.61.09.61-.79-.61-.79zM23.84 147.22h-.61l-.35 1.14v.35l.26.44-.35 1.84 1.23.09-.53-2.72.35-.35zM42.68 150.55h-.27l-.35 1.14v.35h.27l.35-1.05zM21.3 158.61l-.26.44.61.79h.61v-.44l-.61-.79zM22.26 147.14l.61-.7V146l-1.84-1.58h-.61l-.35.35c0 .47.53.87 1.58 1.23 0 .76.21 1.14.61 1.14z"/><path class="st1" d="M29.1 151.6c1.23.06 2.25.73 3.07 2.02l.09-1.14h.26v1.14l-.35.44.61.79-.61 1.14c-.06.47.35.73 1.23.79l2.19 1.23h.26l.7-1.49-.61-.79-.96-.09-.26.44v-.44H34l.09-.44.61-1.05v-.79c0-.53-.41-.79-1.23-.79l.09-1.93.96-.35h.26l.26 1.14.35.44-.35.35 1.58 1.93.61.09v-.79l-.61-1.23.09-1.49.61.09c-.06.7.15 1.08.61 1.14h.61v-.7l-.61-.09v-.35h.61v-.79c-1.23 0-1.84-.26-1.84-.79l-1.93.7-2.19-.44-1.58.7-.61-.79-.61-.09-.35.44v-.79l-1.23.35h-.35l-.26-.44h-.35l-.35.35v-.79h-.26l-.7.79-.88-1.23-.61.79 1.14 2.37c-.58-.06-.91.29-.96 1.05h-.26v-1.14l-1.31 1.05h-.26l-.35-.35-.35.35.35.35-.35 1.93h.61v.44h-.61l-.09.7 2.63-1.4c-.06.53.23.79.88.79v.79l2.54-.7v.35l.26.44v.79l-.26.35c.53 0 .82.53.88 1.58h-.61l-.96-.79-.36 1.84.61.09v-.79h.7c-.06.76.14 1.17.61 1.23h1.23v-.79l-.61-1.14h.61l.09-.79h-.7l.35-.35v-.44l-.26-.35v-.44l.61.09v-.44l-.61-.79h-.26l-.09.79h-.26l-.61-.79v-.44l.61-1.14h-.62v-.79l.7-.7zM43.82 156.33l-.35.44-.62-.87-1.31 1.92v1.93l-1.58-.09v.79l1.84.09.35-.35.26.35.71-.7 1.22.35.35.09.27-.44.61.79.7.08.26-.43-2.36-3.95zM8.86 153.97h.61l.09-1.14h-.7zM55.82 127.86v.88h.35l1.4-1.23h-.35zM61.86 153.53v1.93h.27l.96-.35v-.35l-.61-1.23.96.09v-.44h-.61zM20.69 18.44v-.88h-1.05l.7.88zM61.07 159.66h.35l.97-.35v-1.49l-.61-.08zM121.44 111.83l1.05-.26v-.88l-.35-.09-.7.79zM16.48 60.06l.61.78v2.11h.7l.35.43.35-.43 1.14-3.68-.26-2.46.26.44h.35l.09-.87-.7-.79-.35-.18-1.05.88.35.43-.09.36zM17.53 159.66l.62-.78h-1.23zM49.77 159.66l-1.31-.44c.7-1.75 1.26-2.63 1.66-2.63l-.88-2.37h-.34l-.26.35.26.44c-1.17 1.11-1.81 2.1-1.93 2.98l.88 1.23-.61.7v.44l.26.35.96-.7h.35l.88.79.7-.79v-.35l-.35-.35-.27.35zM119.42 28.08c.06-1.05.47-1.58 1.23-1.58l2.01 2.37c.55.02 1.07-.14 1.56-.44.48 9.25 2.59 26.18 6.32 50.82l-.7.7c.17 14.43 1.28 21.73 3.33 21.9l.61-.79 4.73-6.4 1.75.18 1.23 1.66 3.15-.61 1.84.26-.79 2.8 1.05 4.47-3.24 2.8c-.93-4.56-1.87-6.86-2.8-6.92-.12 2.45-2.04 3.56-5.78 3.33l-1.14-.09.53.79-.09.7-.61.7-1.84-.09.09-1.58-3.24 2.8-.26 2.89.44 5.26-.48.51c-.12-1.34-.31-2.04-.57-2.09h-.35l.35-1.23v-.44h-.7l-.35 2.1.91 2.41-.12.13-.09 1.4-.25 2.28h-.28l-1.05 1.31h.7l.56-.7-.82 7.44c.35 2.57.9 3.88 1.66 3.94l5.52-.35 1.93.79 1.23-1.4 1.23 1.66h.61l1.84-1.31 9.29 2.89 1.84-.61 3.07.96 3.07-.53 3.15.96 5.52-.35 2.45.97 1.93-.61 3.07.96 1.84-.61.53-9.55.96-8.15-.44-2.19-1.84-.18-2.54.61-3.59-1.75-5.08 1.05-.53-.79h-.61l-.7.7-2.98-.97-5.08.35c-4.09-.82-6.1-1.72-6.04-2.72l.79-2.89-.61-.79.09-.7.96-6.66c.12-2.51-.38-4.76-1.49-6.75 1.99-1.58 3.33-3.97 4.03-7.18 1.28.12 1.96-.29 2.01-1.23l2.98.87c4.15 0 6.25-.35 6.31-1.05l2.98.96 3.15.26 6.92-.96h.53l.61.79h.61l1.4-2.01.35-8.85-.26-5.26-.61-.09-1.93 1.4-1.84-.09-1.75-2.37v-.8c.06-.93 1.11-1.31 3.15-1.14.06-1.52.53-2.25 1.4-2.19l.61.88h1.14l.09-.7-5.43-3.33c-.06 1.17-2.77 1.66-8.15 1.49l-.7.7V64l-.61-.79-.53-.09-11.3 2.1-.61-.7-1.31 1.49-1.31-.18c-1.05-.06-2.07-7.8-3.07-23.21v-.7c.06-1.69 5.31-3.04 15.77-4.03l1.31-1.49 5.52.44c1.4-1.05 3.3-1.66 5.69-1.84l-.61-.7.09-.79.7-2.19-1.05-1.49.61-.79.09-.7-1.23-1.66.61-.53.09-.88-2.02-10.43c-2.66.25-5.03.54-7.11.87l.01-.17-1.05-1.14-.53.53.26 1c-4.14.75-6.98 1.7-8.5 2.85l-1.84-.96-2.43.52-.81-.96-1.39 1.43-5.97 1.28-1.84-.96c-.12.99-2.45 1.81-7.01 2.45l-1.84-.09c-.06 1.52-2.57 2.07-7.53 1.66-.05 1.08-.05 2.45.02 4.1l-.81-.07c-2.16-1.17-3.15-3.04-2.98-5.61l-.53-.09c-.06 1.11-.47 1.64-1.23 1.58l.44 2.28-.7 2.63 1.05.11zm43.89 41.79c.06-1.17 3.01-1.72 8.85-1.66l.61.87-.09 1.4c-.35 1.52-2.05 2.16-5.08 1.93l-3.07-.26-1.23-1.58v-.7zm-3.76 1.92l1.31-1.4.61.79-.17.7-1.23 1.49-.61-.88.09-.7zm-22.52 2.02l.7.09 1.05 1.58-.53.7-.7-.09-1.14-1.58.62-.7zm-6.22-10.08h.53l1.23 1.67-.7.61h-.61l-1.14-1.58.69-.7zM118.19 30.18l-1.13 1.05v.53l1.05.08zM114.52 114.46l-1.23-.09-.18 2.28h.62zM188.19 34.04l1.58.08.09-1.66-1.67.44zM264.86 35.52c.85-.14 1.56-.95 2.14-2.42 2.77-1.6 4.2-3.08 4.26-4.42h-.53c-1.58-.12-2.63-.9-3.15-2.37.06-.76.99-1.08 2.8-.96l1.31-2.63-4.29-2.45-1.49 7.53.44.61v.53l-.7 2.19.09.43-3.15-.69 2.27 4.65zM189.33 11.61l-1.93-.09v1.4l1.84.18zM116.53 181.92l-.09 1.66 1.58.09.61-.53-1.05-1.14zM127.66 179.29l-.53-.53-1.75.96c.12-1.11-.2-1.7-.96-1.75h-.53c-2.28.82-3.47 2.22-3.59 4.21v.53l.53.53 1.75-1.49 2.63.7h.61l.53-.44c.12-1.46.53-2.19 1.23-2.19l.08-.53zM179.08 20.81l.09-.53h-.61l-1.67.44 1.05 1.14zM121.96 174.03l-1.05-1.14-1.14-.09-1.14 1.06 1.05 1.13 1.06.09zM183.55 14.94l.09-2.19h-.53l-1.31 1.31.61.79zM186.97 36.14l-1.23.96-.09 2.19 1.05.09zM196.03 109.98l.22 1.29c.22-.15.52-.34.89-.57l-.14-.9-.97.18zM203.94 127.16c-.4.09-.77.18-1.13.26l.06.35 1.07-.61zM267.96 115.77l-1.32.78.35 2.28 2.55.09-.62-.35-.17-1.14.87-.09zM204.27 126.98l-.33.18c.38-.09.78-.18 1.2-.27l-.87.09zM193.4 112.44l.53-.09-.17-.37c-1.23.44-1.36.6-.36.46zM192.79 91.59l-.12-.79h-.31l-.44.61c.18 1.11-.06 1.72-.7 1.84l.18 1.14 1.41.12-.27-.65.25-2.27zM198.22 128.55l-.01-.04c-.2.06-.2.08.01.04zM265.77 39.37l-.35.61.08.62.53.44.53-.09.35-.53-.09-.61-.53-.44zM194.81 124.26l-1.06-1.05.09.61 1.05.97zM195.59 125.84l-1.22-.96-.53.08 1.23.97zM188.06 94.83l.18 1.13 1.92.18-.52-1.49zM195.95 100.08l1.05-.18.43-.29-.34.55.69-.73-.09.01.22-.15 1.05-1.11c-.27-.45-.91-.61-1.96-.47l-.09-.53.44-.7-1.93-.18-1.23 1.31-.53.09-.22-.19-.33.69c1.84.75 2.78 1.37 2.84 1.88zM251.4 65.83l.35-.62-.09-.52-1.4.26zM183.42 92.2v-2.19l-.88.09.35 2.19zM186.83 26.32l.09-3.42-.09-.44-.52.09-.09 2.28.18 1.58zM187.18 31.4l-.7-4.38h-.52l.7 4.47z"/><path class="st1" d="M190.78 30.35l1.05 6.57c.23 1.69-.03 3.07-.79 4.12l.53.44.09.61-1.14 8.59.61.44.09.61-.17 8.94.61.53.17 10.69.53.44.96 2.8c1.23-.18 1.9.12 2.02.88-.64 2.69-1.61 4.15-2.89 4.38l.61.53-.61 1.66.44.53.09.61c.06 3.74-.29 5.67-1.05 5.78l.61.44.14.87h.12l.53.44.09.61-.17 1.58.53.61-.35.53-.61-.05.61 1.45-.44.7.09.53.39.34.66-1.39.61.44h.35l2.19-1.93 2.8 2.37-1.11 1.17c.06.1.12.19.14.32l-1.19.8-.13.14 1.15-.14.18 1.14c-1.29.17-1.84.82-1.66 1.93l1.4.03-.79.43-.52.06.03.21-2.66 1.46.09.53.44-.09 1.84-.79 1.05.96.09.44-.53-.35-.88.18-2.19 1.31.18 1.14.35-.53.44-.09 1.67 1.4.26 1.7c-.2.12-.39.23-.56.34l.12.77-.96.09-.05-.28c-.21.14-.35.26-.43.33l-.4-.4-.17-1.58.26-.7v-.44c-.99.12-1.55-.2-1.66-.96l.26-1.75-.53.09 1.93-3.59-.09-.61-.53.09-1.31.79-.09-.61-.12-.2c-.57.8-.91 2.15-1.02 4.06l.96 2.71-.53.09.61.44.09.53-.44.53.09.61.61 1.3c.27-.1.58-.21.96-.33l-.35.53 1.58 1.49-.44.61 1.23.96.09.61-.61-.53h-.09l.26.26.26 1.66-.71.07-.01.95c.6-.54 1.27-1.16 2.03-1.89l.96-.18-.09-.61.52.15.01-.06-.61-.44-.05-.47-1-.06.97-.29-.09-.85.44-.7-.61-.44-.18-1.18 1.76-1.36.09.61-.44.61.09.61.23-.04-.41 2.23.96-.18-.12.17.12-.04.15.91.02.01v.53l-.69.6.34.1.09.61.96-.09-2.28.88.13-.83-1.6 1.39-.36.14.17.03-1.53 1.33v.27l3.46-.76-.53.09.11-.71 2.34.36-5.39 1.11-.04 2.83c.18 1.11.73 1.58 1.66 1.4l.09.61-.7 1.75.09.61.96-.18.26 1.62c.46-.13 2-.5 4.59-1.09l-.03-.18c-.12-.76-.61-1.08-1.49-.96l-.18-1.14 1.67-1.84-.61-.53 6.13 1.93-3.85-2.89.44-.09 6.22 1.49 2.91.45-.81.87c5.84-1.75 9.37-2.83 10.6-3.24l-.17-1.05-1.93-3.77h.44l1.49.35 1.31-.79-.26-2.19-.53.09-1.31.7-.7-1.58c-.02-.29-.04-.57-.05-.85l.14-.02-.17-.47c-.43-7.24-.31-11.49.35-12.76-.47.06-1.02-.58-1.66-1.93l.17-1.84-.53-.53.7-1.14-.53-.53-.09-.61c.53-.7.44-4.64-.26-11.83l.35-.44-.53-.53c.58-.12.79-.76.61-1.93l.44-.61h.53c8.18-1.23 12.73 1.31 13.67 7.62l.09 3.94 1.31 8.76.09 3.33.88 2.71.09.61-.35.61.53.53.53 3.77-.09 2.28.79 2.19-.35.53 2.28 3.07-.35.61 1.4-.17.26-1.75 2.01.26 2.1-.87 6.75 2.37 3.5-2.8 1.23 1.58.35-.61 8.37-.24.24.26h.57v-1.14h-.28l-.32-2.38-1.75.26-.17-1.14c1.52-.23 2.19-.9 2.01-2.02l-2.19-1.31.7-2.98-.61-.44.44-.7.88-.09.09 1.14c.93-.17 1.52.47 1.75 1.93l.53-.09-.09 2.89.53 3.85 1.23.97.26-1.75-.61-.44-.09-1.05.53-2.45c-.93-6.07-.99-9.81-.18-11.21-.64.12-1.05-.41-1.23-1.58l-1.23 1.31c-1.99.29-4.03-4.64-6.13-14.81-1.05-3.91-2.42-6.72-4.12-8.41l.26-.61c-1.69-3.04-5.26-5.34-10.69-6.92l-.35.09.17 1.66-1.05-.96.44-.61-1.05.18.09-2.89.96-.18.26 1.75 1.93-.26 1.14-1.4.53-.09.53.53 7.45-5.61c3.33-7.77 4.5-14.92 3.51-21.46-.93-6.07-3.68-11.48-8.24-16.21l.35-.7c-.37.07-.87-.03-1.49-.28l-.08-.42-.65.07c-.82-.43-1.79-1.06-2.94-1.91-5.02-1.93-10.86-3.3-17.52-4.12l-.44.61-5.87-.35-.35.7-.44.09c-1.58-.47-6.28-.5-14.1-.09l-1.31.7-4.53-1.17-1.84.96-7.88-.61-.44.7-2.28-.26-1.05.09c.23 1.58.06 2.4-.53 2.45l.53.53.27 12.35zm5.34 82.52l1.75-1.36c.09.74-.49 1.19-1.75 1.36zm56.95-55.71l.96 1.05-.09 2.19-1.14-.96.27-2.28zm-8.15.61l-1.23-.96.44-.53-.61-.53-.09-.61c-.23-4.03.09-6.1.96-6.22l.61.35.09.61.18 7.8-.35.09zm-1.58-20.06l.88-.18v6.22l-.96.18-.79-2.1.87-4.12zm-11.13 23.13l-.26-1.67.96-.17.26 1.66-.96.18zm-14.36-27.86c8.76.47 13.32 1.87 13.67 4.21l1.31 1.49-.44.7.61.52.61 4.29c.29 1.81-.2 2.8-1.49 2.98l.09.61 1.14 1.58.09.53-1.31 7.53-.53-.53-.53.09-2.01 2.02-9.99 1.05-.61-.53-.09-.61.53-2.37c-1.4-15.59-1.75-23.45-1.05-23.56zm-17.68 69.44l1.12.03-1.15.13.03-.16zm-.37 3.01l-.09-.44.11-.62c.61.21.96.5 1.03.88l-1.05.18zm2.54 6.92l-.53.09-.44-.53-.18-1.05.35-.09 1.14.88-.34.7zm3.77-13.49l-.44.61-.53.09-1.05-1.05.26-2.19-.79-1.66.53-.09 2.01-1.93.09.44c.06.76-.35 1.2-1.23 1.31l-.44.7.09.61c.99-.12 1.55.18 1.67.88l.26-.61 1.05-.17.17 1.05c-1.27.17-1.83.84-1.65 2.01zm2.19 1.22l-1.05.18 1.23-1.75.44-.09.09.53-.71 1.13zm-3.07-12.96l1.66.88c-.18-1.17.32-2.19 1.49-3.07l1.84 2.63c-1.17.7-1.7 1.31-1.58 1.84l.09.53 1.05 1.58-.44.09-.44-.53-.53.61-.88.18-.26-1.66-.96.17-.44.53-.44.09-1.14-.96c.13-1.89.46-2.85.98-2.91zm-1.93-3.68l.96 2.8h-.53l-1.05-1.05-.09-.53.71-1.22zm-.61 9.11c-.18-1.11.09-1.72.79-1.84l.44.53c.12.99-.53 1.81-1.93 2.45-1.72-.48-2.79-1.2-3.22-2.15.62-.1.98-.35 1.06-.78.28.1.53.22.76.38l-.17-1-.63.09a3.29 3.29 0 00-.17-.5l.75.12-.05-.28.53-.09c.04.16.07.31.11.46l.42.06-.39.06c.45 1.76 1.01 2.6 1.7 2.49zm-6.66-9.64c1.63.23 2.48.64 2.54 1.23l-.35.7 1.49-.26.26 1.66-.44.7c.08.71-.05 1.21-.39 1.52-.68-.39-1.31-1.53-1.89-3.45h-.53c.23 1.52.06 2.34-.53 2.45h-.53l.37-4.55z"/><path class="st1" d="M200.37 89.85l.05.29.57-.08-.03-.12-.59-.09zM194.63 100.87l-.09-1.05-.38-.02.03.37-1.11-.43-.84-.05.03.13 1.11 1.9c.33-.48.75-.76 1.25-.85zM195.86 116.47l-.53-.44.35-.7h.44l-.17-.18h-.53l-.44.62.79 1.57.17-.02.01-.33z"/><path class="st1" d="M193.08 99.74l1.08.06-.06-.68-1.49.18.51-1.07c-.27-.11-.55-.22-.86-.33l-.79 1.75.76.04-.06-.31.91.36zM200.66 114.79l-.6-.43.32-.44-1.72.51.04.34 1.98.12zM195.49 119.85l.42-.36.02-1.22c-1.22 1.09-2.09 1.78-2.63 2.06l-2.34.51-.53 3.5 2.28-.96.79-2.37h.35l1.58.88.44-.09-.7-1.67.21-.18.54-.11v-.09l-.43.1zm-2.61.65l-.53.09.74-.15c-.08.02-.15.05-.21.06zM199.99 115.93l-.64-.19-.13.86zM350.27 157.04c.57 0 .86-.48.86-1.43l1.71.95c.89 0 1.33-.32 1.33-.95v-1.43c-.89 0-1.33-.29-1.33-.86-2.29 0-3.43.92-3.43 2.76l.86.96zM342.37 35.41h-1.14v1.05l1.14 1.14zM342.85 42.65V41.6h-1.62l.57 2.2zM343.99 99.8l-1.14 1.05v1.14l1.14-1.14zM344.47 80.56h1.14v2.76h-1.14zM341.8 131.33l1.05 1.23h.57l.57-2.85v-6.77l-1.14-1.14-1.05 1.14v2.19l1.05 1.72-1.05 1.71zM350.27 149.99l-.85-.95h-.86l-.38.48 1.24 1.43zM341.23 79.42l-.96-1.05v.38l.96 1.24zM296.94 146.75l-.38-.48-2.19.48c0-.95-.29-1.43-.86-1.43h-1.71l-.48.48v-.48l-3.81.95-.48-1.43h-.38l-.48.48c0 .76.57 1.84 1.71 3.24l1.71-1.81 3.05 2.76h.38l.48-.48 2.19.48v-.48l.38-.47v-.48l-.38-.48h1.24v-.85zM278.65 135.9v-2.19h-.57l-1.05 1.04zM338.18 39.89h.48v2.76h-.48zM265.32 126.28h1.14c3.11-.76 4.67-1.68 4.67-2.76l-1.43-1.71c-1.46 2.22-2.92 3.33-4.38 3.33v1.14zM337.61 79.99l-1.05 1.14h2.1zM300.37 150.95h.47l.38-.48-1.24-2.38-2.19.95zM281.22 86.75v1.24c.7 0 1.05-.6 1.05-1.81l-.48-1.62h.48c.76 0 1.49 1.14 2.19 3.43 1.73-.33 3.2-.64 4.43-.94-1.75 1.39-3.83 2.09-6.24 2.09l-2.09-.57-1.14 3.43c2.6 8.38 6.54 14.42 11.81 18.1 2.54 3.37 7.3 5.81 14.29 7.33l5.9 1.71 3.14-.67 3.72.67 2.19-.67v.67l10.57-3.43c2.48 0 3.72-4.16 3.72-12.48l1.05-1.62c-1.33-1.14-2.92-1.71-4.76-1.71h-1.14l-9.05 3.33-.38-.48h-.57l-5.33.48-4.19-.48-.57.48c0-.82-1.43-1.75-4.29-2.76-6.73-5.01-10.1-9.91-10.1-14.67h-.57l-3.14 2.19h-.48l-2.09-1c2.92-.73 4.38-1.38 4.38-1.95l-2.19-9.05.57-2.86v-7.81c1.08-5.59 3.91-10.48 8.48-14.67 0-1.4 2.48-3.11 7.43-5.14l6.86-1.71 2.19.67.57-.67c5.14.89 8.51 2.03 10.1 3.43 1.08 0 1.97.54 2.67 1.62l3.71 1.81v-1.81h.48l-.48-.57v-.48l.48-4-1.05-10.19.57-.57-8-3.43h-1.05l-3.14.67-5.43-2.29-.48.57h-.57l-.57-.57-5.81 1.14-.48-.57h-.57l-3.14 1.71h-1.05v-1.14h-.57c0 1.52-.35 2.29-1.05 2.29v-.57l-.48.57h-.57l-2.19-.57c0 .89-1.4 1.62-4.19 2.19-7.11 4.57-11.71 10.25-13.81 17.05-2.6 0-4.38 6.95-5.33 20.86v1.14l.57 3.43-.57 2.86v1.05c-.03 1.38 1.91 3.83 5.78 7.32zm-3.14-8.38l-.48-.67v-.57l.48-.57h.57l.48.57v.57l-.48.67h-.57z"/></g></g></switch></svg>