<svg xmlns="http://www.w3.org/2000/svg" viewBox="0 0 115 43" preserveAspectRatio="none"><switch><g><path fill="#2f4546" d="M42.4 40l-3.9-2.4-2.5-2.2-5.3 4.4-5.6-.8-.7.8-4-.9-3.2-1.1-3.9-.6-6.1-1.6L1 38.3V1h113v29.2l-1.8 3.7.7 1.8h-5.3l-7.4 1.2-.2 2.2-9.6-.5-8.5.7-4.9-.7-4.4 3.1-3.2-2.6-2.3 1h-4.8L59.4 38l-4.2.2-3.9 2.2-3.5 1.5z"/><path d="M112 3v26.7l-1.4 2.9-.5 1.1H107.2l-6.5 1-2.3.4-.2 1.9-7.7-.3h-.4l-8.2.6-4.3-.6-1.2-.2-1 .7-2.8 2-1.6-1.3-1.4-1.2-1.6.8-1.4.6H63l-2.1-1.5-.9-.7-1.1.1-3.7.2h-.7l-.5.4-3.5 2-2.7 1.1-4.5-1.6-3.6-2.2-1.7-1.4-1.9-1.7-2 1.7-3.9 3.3-4.2-.6-1.6-.2-.7.7-2.7-.6-2.9-1-.2-.1h-.2l-3.7-.6-6-1.6-1-.2-.9.4L3 35.3V3h109m3-3H0v39.8l7.3-3.1 5.9 1.5 3.9.6 3.1 1.1 4.6 1.1.8-.8 5.6.8 5-4.2 1.9 1.7 4.1 2.5 5.9 2.1 3.9-1.7 3.7-2.1 3.7-.2 2.9 2.1h5.2l2-.8 3.3 2.7 4.7-3.4 4.6.6 8.5-.6 10.5.5.2-2.4 6.5-1h6.7l-1.1-2.8 1.7-3.5L115 0z" fill="#FFD800"/></g></switch></svg>