<svg xmlns="http://www.w3.org/2000/svg" viewBox="0 0 115 43" preserveAspectRatio="none"><switch><g><path d="M56.3 42l-1.6-.9-8-3.8-5.3-.1-3.9 2.4-4.5-.3-5 1.4-5.9-2.5-5.9-.2-5.7 2.2-2.9 1.7-2.8-1.2H3.1L1 39.8v-6l2.3-3.9-.2-1.5-2.1-2V1h113v29.6l-2.3 4.9-2.3 3.1-1.9 3-2.7-2-1-3h-9.1l-1.1 2.6-5.1.6-9.3.1-2.7 1-3.6-.5c-5.2-2.2-5.5-2.2-5.7-2.2-.3 0-.6 0-7.6 3.8h-3.3z" fill="#2f4546"/><path d="M112 3v27.2l-2.1 4.3-2.2 2.9-.1.1-.1.1-.7 1.1-.5-.4-.6-1.7-.7-2H93.3l-.8 1.9-.4.9-3.8.4-9.1.1h-.5l-.4.1-2 .7-2.8-.4c-5.3-2.2-5.6-2.2-6.3-2.2-.9 0-1.1 0-8.2 3.8h-2.1l-1.1-.6h-.2l-7.7-3.7-.6-.3h-.6l-4.8-.1H41l-.8.5-3.1 1.9-3.9-.2h-.5l-.5.1-4.2 1.2-5-2.3-.5-.2h-.6l-5.5-.2h-.6l-.6.2-5.5 2.1-.2.1-.2.1-1.9 1.1-1.7-.7-.6-.2H3.5l-.5-.2v-4.1l1.9-3.1.5-.9-.2-1-.1-.8-.1-1-.7-.7L3 25.5V3h109m3-3H0v26.8l2.2 2.1.1.8L0 33.5v7l3 1.1h1.6L7.7 43l3.2-1.9 5.5-2.1 5.5.2 6 2.6 5.2-1.5 4.8.2 3.9-2.4 4.8.1 7.7 3.7 1.8 1h3.6s7.1-3.8 7.4-3.8 5.5 2.1 5.5 2.1l4 .6 2.7-1 9.2-.1 5.7-.7 1-2.5h7.7l.9 2.6 3.9 2.8 2.4-3.8 2.4-3.2 2.5-5.2V0z" fill="#FFD800"/></g></switch></svg>