<svg xmlns="http://www.w3.org/2000/svg" viewBox="0 0 115 43" preserveAspectRatio="none"><path fill="#2f4546" d="M55.3 42l-1.7-1.4-3.1-2.4-3.5 3.1h-.9l-2.5-2.6-3.3-1.7-2 2.5-3.9.3-2.1 1.4-3.1-.8H9.8l-.9.9H5.7l-2-1H1.2l-.2-.2V25.7l4-4.3-1.5-5.8L1 11.4V1h113v34h-10l-2.6 2.1-6.8 1.8-2.4.5-5.9-.1-3.3-.2-3.9.2-.9 1.6-1.3.1h-4.3l-1.4-1.7H68l-3.8.7-5.4 2z"/><path d="M112 3v30h-8.7l-.8.7-2 1.6-6.4 1.6-2.1.5-5.6-.1-3.2-.2h-.4l-3.3.2-1.6.1-.8 1.4-.1.2h-3.5l-.5-.6-.9-1.1h-4.3l-.3.1-3.6.6h-.3l-.2.1-5 1.8H56l-1.1-.9-.1-.1-2.4-1.8-2-1.5-1.8 1.6-2 1.7-1.5-1.6-.3-.4-.4-.2-2.4-1.1-2.2-1.1-1.5 1.9-1 1.2-2.7.2h-.8l-.7.5-1.1.8-2.1-.5-.4-.1H9l-.9.9H6.2l-1.3-.7-.7-.3H3V26.5l3.1-3.3L7.3 22l-.4-1.6-1.4-5.2-.1-.4-.2-.4L3 10.9V3h109m3-3H0v11.7L2.6 16 4 21.2l-4 4.1v15.1l.6.9h2.8l1.9 1h3.9l.9-.9H29l3.4.9 2.3-1.6 4-.2 1.8-2.3 2.4 1.2 2.7 2.8h1.7l3.2-2.8 2.4 1.8 1.9 1.7H59l5.5-2 3.6-.7h2.6l1.4 1.7H77l1.8-.1.9-1.6L83 40l3.3.2 6.1.1 2.5-.6 7.1-1.8 2.5-2H115V0z" fill="#FFD800"/></svg>