<svg xmlns="http://www.w3.org/2000/svg" viewBox="0 0 115 43" preserveAspectRatio="none"><switch><g><path d="M72.4 42l-2.6-2.6-3.1-1.2-5.8 3.8h-2.6l-4.7-3.6-5.8-2.1-4.8 3.3h-7.2L33.4 38l-7.8-1-4.9 2.6h-2.6L15.7 38h-.3s-2.3.1-4 .1H9.9c-.4-.1-5.1-1.6-5.8-1.8L1 34.6V1h113v39.7l-7.3-3-4.2 3-3.3-2.6-2.9-.5-4.7 1.1L90 42H72.4z" fill="#2f4546"/><path d="M112 3v34.8l-4-1.7-1.5-.6-1.3 1-2.5 1.8-1.9-1.5-.6-.5-.7-.1-2.4-.5-.6-.1-.6.1-4 .9-1.4.3-.6 1.3-1.2 1.8H73.2l-1.8-1.9-.5-.5-.6-.2-2.4-.9-1.4-.5-1.3.8-4.9 3.2H59l-4-3.1-.4-.3-.4-.2-5.2-1.7-1.5-.5-1.2.8-3.9 2.7h-6l-1.6-1.1-.6-.4-.7-.2-7.2-.9-1-.1-.8.5-4.2 2.2h-1.5l-1.6-1.1-.9-.6h-1s-2.3.1-4 .1h-1.1c-1.1-.3-4.4-1.4-5.4-1.7l-1.9-1V3H112m3-3H0v35.2l3.7 2s5.5 1.7 5.9 1.8c.2.1.9.1 1.7.1 1.7 0 4.1-.1 4.1-.1l2.4 1.7H21l4.8-2.6 7.2.9 2.4 1.7h7.9l4.7-3.2 5.1 1.8L58 43h3.2l5.6-3.7 2.4.9L72 43h18.6l1.8-3.5 4-.9 2.4.5 3.7 2.9 4.3-3.1 8.2 3.4V0z" fill="#FFD800"/></g></switch></svg>