<svg version="1.1" id="Profile" xmlns="http://www.w3.org/2000/svg" x="0" y="0" viewBox="0 0 82.3 56.7" xml:space="preserve"><style>.st0{fill:#2f4546}</style><path class="st0" d="M51.5 18.3l-2.3.6H49c-.2 0-.3.2-.3.4v3.8c0 .7-.5 1.3-1.2 1.3h-4.2c-.5 0-.9-.3-1.1-.7l-1.8-3.9c-.1-.1-.2-.2-.3-.2h-.6c-.1 0-.3.1-.3.2l-1.8 3.9c-.2.4-.6.7-1.1.7h-4.1c-.2 2.2.1 4.5.1 4.5l4.2 7.6 4.6 2.2s3-1.1 5-2.7c1.4-1.1 3.3-2.9 3.3-2.9l.3-2.9.8-5.2c1.2-.6 1.7-3.4 1.7-3.4.7-2.4-.4-3-.7-3.3zM48.7 17.8l3-.6c.3-2.9.3-7.5.3-7.5s-1.9-1.5-2.8-2C48 7 45.6 6.2 41.1 6.2l-2.3-2.7-1.5 1.7-.7-.3-.6.4-1.7-.4s-1.5 1.2-3 6.2c0 0-.3 1 .1 6.6h17.3zM52.8 32.3v.5c-.2.2-.4 0-.6.1v-.5c.2-.3.4-.1.6-.1zM51.5 28.8h-.3c-.1 0-.1 0-.2-.1 0-.1 0-.1.1-.2l.2-.2h.2c.1.2.1.4 0 .5zM54.2 33.7zM31.4 31.1c.1.1 0 .3-.2.4l-.2-.2c-.1-.1 0-.3.2-.4.1-.1.2.1.2.2zM45.6 38.6c.1.1 0 .3-.2.4l-.2-.2c-.1-.1 0-.3.2-.4l.2.2zM17.1 45.1c.2.1.3.3.2.4l-.2.2c-.2-.1-.3-.3-.2-.4.1-.1.2-.1.2-.2zM47.5 40c.1.1 0 .3-.2.4l-.2-.2c-.1-.1 0-.3.2-.4.1 0 .2.1.2.2zM28.5 30.6s.1 0 0 0c.1 0 0 .1 0 0 0 .1 0 .1 0 0zM29.4 24.7c0 .1-.1.2-.2.2s-.2.1-.2.1c-.2-.1-.2-.3-.1-.4.1-.2.3-.3.5-.2v.3zM26.2 35.4c-.1.1-.3 0-.4-.2 0 0 .1-.2.2-.2.1-.1.3 0 .4.2l-.2.2zM51.8 35.1l-.2-.2c.1-.2.3-.3.4-.2l.2.2c-.2.2-.3.3-.4.2zM27.6 34.4c-.1.2-.3.3-.4.2l-.2-.2c.1-.2.3-.3.4-.2.1 0 .1.1.2.2zM36.1 46.3c-.1.1-.2.3-.3.3-.3-.2-.4-.4-.3-.6.1-.1.2-.3.3-.3.3.2.4.4.3.6z"/><path class="st0" d="M25.6 34.9h.5c.1.1.1.2.1.3 0 .1.1.2.2.3.1.2.1.3-.1.4h-.2l-.3-.3h-.2c-.1-.1-.1-.2-.1-.3 0-.1-.1-.3.1-.4z"/><g><path class="st0" d="M37.7 53.3h5.9l-1.3-9.1 1.2-2.7-1.6-3.2-2.5-.5-1.9 3.4 1.2 3.3zM65.5 53.3C64.2 48 62.9 42.9 62 41.5l-3.7-2.7-1.3-.6c-.9 0-1.9 0-2.8-.1.6.2-.2 0 0 0 .5-.3.8-.5 1.2-.7L50.1 35v.2c-.9 5.4-1.6 9.8-1.6 9.8l-1.1 8.4h18.1zm-5.9-11.4l.2.2c.1.1 0 .3-.2.4l-.2-.2c0-.1 0-.3.2-.4zm-2.2.6l.2.2c.1.1 0 .3-.2.4l-.2-.2c-.1-.1 0-.2.2-.4zm-3.5-2.3l.2.2c.1.1 0 .3-.2.4l-.2-.2c-.1-.2 0-.3.2-.4zM35.6 53.3c-.4-2.5-1.7-10.7-2.4-14.2-.1-.7-.9-4.2-.9-4.2L24 38.8l-3.7 2.7c-.8 1.3-2.2 6.4-3.5 11.8h18.8zm-7.4-14.2c.6.2.6.2 1.2 1.1-.6.4-.7.4-1.2-.2v-.9zm-2.7 8c.1-.1.3 0 .4.2l-.2.2c-.1.1-.3 0-.4-.2 0 0 .2-.1.2-.2zm-3 .6c.1-.3.8-.4 1 0v.2c-.1.3-.8.4-1 0-.1 0-.1-.1 0-.2zm-1.7-2.2c.1.1.2.2.3.4l-.2.2c-.1-.1-.3-.2-.4-.3-.1-.3 0-.4.3-.3z"/></g></svg>