<svg xmlns="http://www.w3.org/2000/svg" viewBox="0 0 50 52"><style>.st1{fill:#EB4040}</style><path d="M14 50c.2 0 1-2 1-2h2l4 1h20l4.7-1.6 2.4-.7H50V0H0v49l6.7-1c1.2-.6 7.2 2 7.3 2z" fill="#E9E4C6" id="Background_copy"/><g id="Icon"><path class="st1" d="M41.3 36.8v1.8H8.7v-1.8l3.6-3.6V22.3c0-5.6 3.7-10.6 9.1-12.2v-.5C21.4 7.6 23 6 25 6s3.6 1.6 3.6 3.6v.5c5.4 1.6 9.1 6.5 9.1 12.2v10.9l3.6 3.6m-12.7 3.6c0 2-1.6 3.6-3.6 3.6s-3.6-1.6-3.6-3.6M10.6 18.3l.4.4v.2c0 .1-.2.2-.3.2-.1 0-.2 0-.2.1-.1.1-.1.1-.2.1L10 19c.1-.1.1-.9.2-.9.2-.1.3.3.4.2zM39.2 24c.2 0 .4 0 .6.1v.3c-.1 0-.2.1-.2.1-.4-.3-.4-.3-.4-.5zM40.2 22.7c-.8-.2-.9-.4-.7-1.2 0-.1.1-.2.2-.2s.2.1.2.1c.1.1.2.2.2.3.1.3.1.6.1 1zM5.1 19.4c-.1.2-.3.3-.4.2l-.2-.2c.1-.2.3-.3.4-.2l.2.2z"/><path class="st1" d="M17 11.5c-.1-.2 0-.3.3-.5 0 0 .2.1.2.2.1.2 0 .3-.3.5 0 0-.2-.1-.2-.2zM10.9 24c.1.2 0 .3-.3.5 0 0-.2-.1-.2-.2-.1-.2 0-.3.3-.5 0-.1.2.1.2.2zM45.5 33.4c.1.1.3.2.2.2-.1.3-.3.4-.5.3-.1-.1-.3-.2-.2-.2.2-.3.4-.4.5-.3zM7.5 45.2l-.2.2c-.2-.1-.4-.2-.4-.3-.2-.3 0-.5.3-.3.1 0 .2.2.3.4zM33.7 40.9c.2-.1.3 0 .5.3 0 0-.1.2-.2.2-.2.1-.3 0-.5-.3-.1 0 .1-.1.2-.2zM43.8 20c-.1-.2 0-.3.3-.5 0 0 .2.1.2.2.1.2 0 .3-.3.5 0 .1-.1-.1-.2-.2zM42.7 21.1c.2.1.3.3.2.4l-.2.2c-.2-.1-.3-.3-.2-.4l.2-.2zM11.4 32.2c-.4-.2.1-.6.2-.5.1.1.3.2.2.2-.1.3-.2.3-.4.3zM38.7 19.3c-.2.3-.3.3-.5.2-.1-.1-.3-.2-.2-.2.1-.3.3-.4.5-.3 0 .1.1.2.2.3zM14.7 8.7c-.1-.2 0-.3.3-.5 0 0 .2.1.2.2.1.2 0 .3-.3.5 0 .1-.1-.1-.2-.2zM13.3 10.7c.2-.1.3 0 .4.2 0 0-.1.2-.2.2-.1.1-.3 0-.4-.2 0-.1.1-.2.2-.2z"/></g></svg>