<svg xmlns="http://www.w3.org/2000/svg" viewBox="0 0 30 450" preserveAspectRatio="none"><switch><g><path fill="#2f4546" d="M29 450v-12l-1.8-2.2 1.8-3.7v-9.7l-6.7-6.6 3.2-15.7 3.5-7.4v-38.2l-2.7-4.4-.3-9.3 3-3.8V223.1l-3-20v-21l3-22.3V0H0v450z"/><path fill="#ffd800" d="M26 0v159.6l-3 22v22l3 19.7V336l-2.1 2.6-.9 1.2v1.5l.3 8.6v1.1l.6.9 2.1 3.5V392l-3.2 6.7-.2.4-.1.5-3 15.1-.4 2.1 1.5 1.6 5.4 5.2v7.8l-1.2 2.5-1.1 2.2 1.5 2 .8 1V450h4v-12.3l-1.6-2.1 1.6-3.3V422l-6.6-6.5 3.1-15.1 3.5-7.5v-38.7l-2.7-4.4-.3-8.7 3-3.7V223l-3-20v-20.9l3-22.2V0z"/></g></switch></svg>