<svg xmlns="http://www.w3.org/2000/svg" viewBox="0 0 50 52"><style>.st1{fill:#ffd800}</style><switch><g><path d="M50 50V0H0v50l3.89-.37 3.69-.23 2.63-1.14 3.73 2.21 3.04.91h3.12l2.1-2.01 10.39.63 1.84 1.34 1.25-2.09h12.14L50 50z" fill="#2f4546" id="Background_1_"/><g id="Icon_1_"><path class="st1" d="M43.16 28.63v-7.26l-4.91-.32c-.27-.92-.64-1.8-1.09-2.64l3.24-3.69-5.13-5.12-3.69 3.25c-.84-.45-1.73-.82-2.64-1.09l-.31-4.91h-7.26l-.31 4.91c-.92.27-1.8.64-2.64 1.09l-3.69-3.24-5.12 5.13 3.24 3.69c-.45.84-.81 1.73-1.09 2.64l-4.91.31v7.26l4.91.31c.27.92.64 1.8 1.09 2.64L9.6 35.28l5.12 5.12 3.69-3.25c.84.45 1.73.82 2.64 1.09l.31 4.91h7.26l.32-4.91c.92-.27 1.8-.63 2.64-1.09l3.69 3.25 5.13-5.12-3.25-3.7c.45-.84.82-1.73 1.09-2.64l4.92-.31zM25 33.69c-4.8 0-8.69-3.9-8.69-8.7 0-4.8 3.9-8.69 8.7-8.69 4.8 0 8.68 3.89 8.69 8.68.01 4.8-3.88 8.7-8.68 8.7-.01.01-.02.01-.02.01z"/><path class="st1" d="M32.76 40.11l.53.53c.01.12.06.25.02.36-.06.19-.23.26-.43.24-.12-.01-.23.06-.3.17-.09.13-.18.18-.28.13l-.47-.5c.09-.15.19-.21.33-.18.22.04.37-.07.4-.27.03-.18.03-.36.2-.48zM39.27 18.98c.05-.34-.16-.78.24-.97.4-.18.51.31.76.47.1.06.17.17.26.25.08.08.16.17.24.26-.74.51-.75.51-1.5-.01zM21.76 8.72c-.17.38-1 .4-1.25.02a.31.31 0 01-.02-.25c.16-.38.99-.39 1.24-.02.05.06.02.17.03.25zM29.99 28.41c-.35 0-.71.04-1.05-.02-.15-.03-.39-.3-.37-.42.05-.25.31-.35.55-.31.22.03.44.06.64.15.24.11.3.33.23.6zM30.83 24.36c.38.17.39.99.01 1.25a.31.31 0 01-.25.02c-.38-.16-.39-.99-.02-1.24.07-.05.18-.02.26-.03zM7.58 17.13c-.17.25-.34.35-.5.25-.1-.06-.26-.21-.24-.24.14-.26.33-.35.49-.25.09.05.16.15.25.24zM21.24 20.47c-.08-.17-.01-.34.26-.49.03-.02.18.14.24.24.1.16.01.34-.25.49-.04.01-.17-.16-.25-.24zM6.05 11.47c.08.17.01.34-.26.49-.03.02-.18-.14-.24-.24-.1-.16-.01-.34.25-.49.04-.01.17.16.25.24zM44.72 35.42c.08.17.01.34-.26.49-.03.02-.18-.14-.24-.24-.1-.16-.01-.34.25-.49.03-.01.16.16.25.24zM25.36 29.69c.02.03-.19.23-.22.22-.16-.09-.37-.19-.44-.34-.15-.32 0-.47.32-.32.15.08.25.28.34.44zM31.71 45.15c.17-.08.34-.01.49.26.02.03-.14.18-.24.24-.16.1-.34.01-.49-.25-.02-.03.15-.17.24-.25zM30.02 21.89c.25.17.35.34.25.5-.06.1-.21.26-.24.24-.26-.14-.35-.33-.25-.49.05-.09.15-.17.24-.25zM23.78 28.29c-.08-.08-.25-.21-.24-.24.14-.26.33-.35.49-.25.1.06.26.21.24.24-.15.26-.32.33-.49.25zM19 6.48c-.08-.17 0-.35.26-.49.03-.02.18.14.24.24.1.16.01.34-.25.49-.03.01-.17-.16-.25-.24zM20.71 19.12c.17-.08.34-.01.49.26.02.03-.14.18-.24.24-.16.1-.34.01-.49-.25-.01-.04.16-.17.24-.25zM35.43 6.32c-.17.08-.34.01-.49-.26-.02-.03.14-.18.24-.24.16-.1.34-.01.49.25.02.03-.15.16-.24.25z"/></g></g></switch></svg>