<svg version="1.1" id="Home" xmlns="http://www.w3.org/2000/svg" x="0" y="0" viewBox="0 0 82.3 56.7" xml:space="preserve"><style>.st0{fill:#2f4546}</style><path class="st0" d="M13.5 33.3L41.1 5.8l27.6 27.5z"/><path class="st0" d="M24.9 31.8v19.5h11.9V37.8h8.6v13.5h11.9V31.8z"/><g><path class="st0" d="M57.2 22.5c.1-1.1.7-1.5 1.7-1.3.2.4.8.7.5 1.3-.1.3-.3.3-.8.2-.4-.1-.9-.1-1.4-.2zM55.2 13.3c1 .1 1.4.6 1.2 1.6-1 0-1.4-.6-1.2-1.6zM45.5 54.4c.2 0 .5 0 .5.1.1.4-.1.7-.3.7-.2 0-.5 0-.5-.1-.1-.4 0-.6.3-.7zM26.5 21.7c.1-.1.2-.4.2-.4.4.1.6.3.5.5 0 .2-.2.4-.2.4-.3-.1-.5-.3-.5-.5zM34.8 16.5c-.1-.1-.4-.2-.4-.2.1-.4.3-.6.5-.5.2 0 .4.2.4.2-.1.4-.3.5-.5.5zM17.9 5.7c.1-.1.2-.4.2-.4.4.1.6.3.5.5 0 .2-.2.4-.2.4-.4-.1-.6-.3-.5-.5zM58.7 41.9c-.2 0-.5 0-.5-.1-.1-.4.1-.7.3-.7.2 0 .5 0 .5.1.1.5 0 .7-.3.7zM61.2 35.4c-.2-.1-.3-.4-.1-.7 0 0 .3 0 .5.1s.3.4.1.7c-.1 0-.3-.1-.5-.1zM58.5 13.8c.2.1.3.4.1.7 0 0-.3 0-.5-.1s-.3-.4-.1-.7c.1 0 .4.1.5.1zM30.6 9.9c0-.4.1-.7.3-.7.2 0 .5 0 .5.1.1.4-.1.7-.3.7-.2 0-.3-.1-.5-.1zM62 19.2c-.2-.1-.3-.4-.1-.7 0 0 .3 0 .5.1s.3.4.1.7c-.1 0-.4-.1-.5-.1zM20.8 44.4c.2 0 .5 0 .5.1.1.4-.1.7-.3.7-.2 0-.5 0-.5-.1-.1-.5 0-.7.3-.7z"/></g></svg>