<?xml version="1.0" encoding="utf-8"?>
<!-- Generator: Adobe Illustrator 24.1.3, SVG Export Plug-In . SVG Version: 6.00 Build 0)  -->
<svg version="1.1" id="Layer_1" xmlns="http://www.w3.org/2000/svg" xmlns:xlink="http://www.w3.org/1999/xlink" x="0px" y="0px"
	 viewBox="0 0 530 20" style="enable-background:new 0 0 530 20;" xml:space="preserve" preserveAspectRatio="none">
<style type="text/css">
	.st0{fill:#2F4546;}
</style>
<path class="st0" d="M-0.1,19.8L8,16.9l8.1-1.4l2.7-4.2l5.4-1.3l3,2.2l5.8-2.2l7.8,0.2l3.9,0.7l9.5,8.8h24l3.3-3.6l1.9-2l5.2,0.2
	l2.8-1.3l6.7,0.7l2,1.1l104.6,1.1l3.3,3.8l27.3-3.6l2.2-1.4l3.2,1.4l3.3,1.4c0,0,7.3-1.5,7.8-1.4c0.6,0.1,6.1-2.3,6.1-2.3l6,0.9
	l4.5,1.4l4.7,1.6l47.2,0.7h4.6l16.6-8.2l5.2-1.5l6.2,7l17,4h23.7l6.6-6l10.8,0.7l11.2-2.1l23.6,3l8.7,0.2l10,0.4l8.9-6.2l10,0.4
	l3.2,2.4l6.1-1.3l4.6,1.7l1.7,1.7l8.2-0.6l3.5,0.7l4.8,0.4l1.2,1.5l13-2.3V-0.2h-530V19.8z"/>
</svg>
