<?xml version="1.0" encoding="utf-8"?><svg id="chickLoops_converted" image-rendering="auto" baseProfile="basic" version="1.1" preserveAspectRatio="xMidYMid meet" x="0px" y="0px" width="200" height="240" xmlns="http://www.w3.org/2000/svg" viewBox="0 0 200 240" xmlns:xlink="http://www.w3.org/1999/xlink"><defs><g id="chick_all" overflow="visible"><g id="chick_body" transform="translate(63.35 46.8)"><path fill="#EE9300" stroke="none" d="M412.45 266.05Q409.85 258.9 405.95 257.4 402.1 255.9 395.15 259.25 394.1 259.75 380.3 267.05 380.5 266.7 383.4 261.1 385.1 257.75 386.05 255.55 388.65 249.5 386.5 246.2 384.35 242.9 377.8 242.85 354.15 242.7 334.35 250.4 331.25 251.6 318.65 255.95 310.9 227.1 292.3 204.85 272.05 180.65 245.3 172.7 243.95 151.65 233.35 129.8 216.3 94.9 182.8 82.65 148.5 70.15 121.3 75.05 104.2 78.1 86.4 89.7 74.65 97.3 62.65 118.75 58.75 125.65 54.2 136.25 53.6 137.7 51.45 144.65 49.3 151.1 47.75 151.95 34.75 159.05 0 178.5L37.1 196.55Q36.95 199.75 36.3 214.05 35.8 224.35 35.6 230.85 35.05 254.15 37.4 273.8 40.15 296.15 46.85 315.85 60.55 355.95 87.9 383.9 114.4 410.95 154.75 427.7 183.6 439.65 222.3 439.55 241.65 439.5 255.25 437.05 261.8 435.4 274.25 432.45 285.15 429.75 292.3 427.35 309.6 421.55 326.75 413 388.85 381.9 411.4 315.45 420.7 288.4 412.45 266.05Z"/><path fill="#C47800" stroke="none" d="M402.9 287.55Q403.15 283.85 402.9 274.45 366.55 316.85 349.95 336.1 341.55 331 337 328.65 325.05 322.55 319.25 322.65L319.25 322.7 323.45 332.3Q327.5 342.8 327 347.15 320.4 349.5 311.7 349.15 311.15 349.15 296.1 347.65 297 349.4 303.05 358.75 307.2 365.1 308.3 369.95 300.7 372.45 289.8 370.95 283.8 370 280.8 369.55 275.4 368.7 271.7 368.6L292.7 386.2Q290.5 387.3 289.7 387.7 288.4 388.35 287.6 388.45 275.85 390.35 270 391.2 259.65 392.8 252.35 393.35 239.45 394.35 224.7 391.45 213.7 389.25 197.9 383.95 180.05 377.95 164.6 366.25 150.6 355.7 137.85 339.85 125.5 324.45 123.95 322.4 117.05 313.05 112.5 303.45 110.25 298.8 105.25 285 100.75 272.65 100.65 272.7 97.85 281.55 97.05 287.25 96.15 293.85 97.3 300.4 84.8 287.45 75.6 265.45 74.85 275.1 75.1 282.45 75.4 291.9 77.25 301.2 67.55 292.55 59 274.65 55.05 266.3 48.95 249.5 48.95 266.35 54.75 290.5 62 320.8 74.7 342.75 86.55 360.35 108.8 379.5 125.55 393.9 136.6 400.3 156.1 411.65 179.7 417.1 200.45 421.95 225.75 422.5 254.25 423.15 284 414.55 312.15 406.45 333.2 393.95 356.9 379.8 373.65 358.9 386.75 342.6 393.95 325.45 401.6 307.3 402.9 287.55Z"/><path fill="#C47800" stroke="none" d="M32.65 179.75Q19.2 179.95 12.1 179.95L46.6 195.15Q47 198.35 46.95 209.95 46.9 219.05 48.5 224.55 55.35 214.25 58.85 207.2 63.65 197.35 65.4 187.45 61.05 184.45 58.9 183.05 55.05 180.45 52.35 180.25 44.35 179.65 32.65 179.75Z"/><path fill="#C47800" stroke="none" d="M352.05 275.85Q346.95 284.5 344.3 288.75 348.15 286.7 355.85 282.6 362.4 278.95 366.65 275.65 377.95 266.75 381.05 253.45 366.7 255.4 360.4 263.4 356.7 268.2 352.05 275.85Z"/><path fill="#F3B000" stroke="none" d="M140.05 225.7Q133.55 227.95 129 232 121.4 238.75 119 249.05 117.3 256.5 118 268.6 118.75 280.5 124.25 293.2 128.2 302.3 136.55 315.5 142.05 324.05 151.4 333.85 156.85 339.55 168.15 350.5 169.15 351.5 170.85 352.6 171.85 353.2 173.85 354.45 169.45 343.75 167.35 338.5 163.55 329.2 161.25 322.75 157.05 310.7 156 307 153.55 297.9 153.7 290.1 156.85 293.95 162.65 301.3 167.8 307.75 171.4 311.85 181.2 322.95 194.1 326.1 184.45 311.35 180.2 293.4 176.55 277.9 176.65 258.45L178 257.8 211.3 287.8 212.4 287.05Q208 275.15 205.9 269.1 202.15 258.35 201.8 250.05 205.45 253.15 212.3 259.15 218.35 264.35 222.6 267.75 235.45 278.05 250.2 288.85 252.9 290.8 257.2 293.4 259.6 294.85 264.4 297.7 261.4 290.05 259.5 286.45 257.6 282.9 254.45 277.55 249.8 269.7 249.25 268.75L250.8 267.1Q255.25 269.6 264.3 274.35 272.3 278.7 277.2 282.4 288.4 290.85 313.55 312.85 308.6 305.45 302.35 296.45 289.85 278.4 283.3 270.45 277.5 263.3 267.75 255.85 259.5 249.45 255.65 246.75 248.75 241.85 242.9 238.85 237.2 235.95 228.05 232.75 217.85 229.3 212.8 227.4 198.8 222.15 182.8 221.25 168.9 220.5 152.3 223 144.65 224.15 140.05 225.7Z"/><path fill="#F3B000" stroke="none" d="M299.6 228Q292.95 216.85 286.1 209.25 278.9 201.3 274.1 200.3 268.95 214.3 276.1 223.8 281.2 230.5 289.6 240.35 302.1 254.9 303.5 256.55 305.8 259.3 309.05 263.5 310.9 265.9 314.85 271 315.2 254.2 299.6 228Z"/><path fill="#F3B000" stroke="none" d="M110.35 182.1Q112.3 185.2 114.85 187.35 119.65 191.4 127.3 193.1 134.65 194.75 142.4 193.8 150.4 192.85 156.4 189.4 162.9 185.75 165.45 179.95 165.45 173.25 160.05 170.4 158.35 169.55 156.35 169.15L154.65 168.95Q148.75 167.75 140.7 166.85 124.7 165 114.3 166.35 111.05 166.75 109.05 169.35 107.05 172 107.55 175.15 108.1 178.6 110.35 182.1Z"/><path fill="#F3B000" stroke="none" d="M239.9 373.6Q227.4 370.35 218.6 369.75 214.2 369.45 207.6 369.85 200.3 370.4 196.65 370.55 204.65 377.35 229.25 381.8 254.15 386.3 260.2 381.55 256.1 378.6 250.25 376.55 248.1 375.8 239.9 373.6Z"/><path fill="#F3B000" stroke="none" d="M357.4 289.1Q354 291.65 353.05 295.4 352.15 299.15 353.95 303.45 355.75 302.95 359.75 302.3 363.25 301.55 364.85 300.1 370.45 295.2 377 287.75 385.3 278.4 388.75 274.95 390.85 272.85 397.65 264.55 383.6 271.6 376.95 275.65 369.25 280.3 357.4 289.1Z"/><path fill="#F3B000" stroke="none" d="M34.45 164.55Q22.05 170.2 17.05 175 19.95 177 40.2 176.05 60.45 175.1 64.7 172.85 63.4 170.9 62.75 169.95 61.65 168.3 60.65 167.35 58.85 165.6 56.05 163.25 52.9 160.6 51.3 159.25 46.8 158.9 34.45 164.55Z"/><path fill="#F3B000" stroke="none" d="M59.45 143.55Q58.8 144.85 59.3 147.4 59.6 148.85 60.2 151.75L67.1 151.75Q73.4 146.5 76.8 134 80.15 121.55 78.2 110.55 77.8 110.9 76.95 111.5 76.25 112.05 75.95 112.5 73.15 117.65 67.5 127.95 62.65 136.9 59.45 143.55Z"/><path fill="#F3B000" stroke="none" d="M337.65 266.75Q344.7 261.35 350.8 258.25 357.05 255.1 365.4 252.75 368.8 251.8 377.65 247.5 371.25 245.9 358.35 247.85 349.7 249.2 343.45 251.3 335.7 253.85 329.75 258.1 326.9 260.15 326.05 261.5 324.55 263.85 325.9 266.85 332 271.05 337.65 266.75Z"/><path fill="#F7D57B" stroke="none" d="M129.8 240.55Q127.9 243.1 126.6 246.15 122.25 256.4 124.45 268.4 125.85 276.1 131.55 289.7 131.9 290.5 133.45 291.5 136.45 293.4 136.75 293.65L136.15 288.7Q135.55 282.8 135.25 279.85 134.75 274.6 134.85 271 135 266.15 138.05 260.9 140.7 256.5 145.1 255.75 149 255.15 154.75 257.3 156.7 251.4 157.65 248.55 159.35 243.45 161.4 240.75 163.55 237.9 167.95 234.6 173.1 231.05 175.55 229.05 174.55 228.1 174.45 228.1 151.6 225.8 134.35 236.25 131.95 237.7 129.8 240.55Z"/><path fill="#F7D57B" stroke="none" d="M229.05 240.6Q222.7 234.1 207.4 230.9 192 227.7 184.55 231.45 188.7 235.85 207.65 239.7 226.5 243.5 229.05 240.6Z"/><path fill="#F7D57B" stroke="none" d="M250.55 252.35Q248.6 250.3 247.7 249.4 246.2 247.85 244.95 247.35 243.85 246.85 241.9 246.95 239.55 247.15 238.35 247.15 239.55 251.5 242.5 252.75 245.45 254.05 250.55 252.35Z"/><path fill="#F7D57B" stroke="none" d="M298.3 238.8Q296.7 229.5 289.7 219.55 282.6 209.45 277.45 209.4 277.55 210.5 277.45 212.7 277.45 214.6 278 215.6 285.6 230.1 298.3 238.8Z"/><path fill="#F7D57B" stroke="none" d="M155.8 176.15L140.05 187.4Q145.75 190.05 152 187 158.25 183.95 159.55 177.9L155.8 176.15Z"/><path fill="#F7D57B" stroke="none" d="M364.25 290.15Q364.05 291.15 363.65 293.2L365.7 294.25 376.7 284.85Q373.6 283.05 370.5 283.8 367.4 284.5 365.25 287.4 364.6 288.3 364.25 290.15Z"/><path fill="#F7D57B" stroke="none" d="M385.05 274.4L378.45 277.2 381 281.35 385.95 275.7 385.05 274.4Z"/><path fill="#F7D57B" stroke="none" d="M35.55 166.7Q29.3 169.85 26.15 171.4 35.25 173 42.25 170.7 49.25 168.4 50.7 163.5 48.7 162.8 47.7 162.5 45.95 161.9 45.05 162.3 41 164 35.55 166.7Z"/><path fill="#F7D57B" stroke="none" d="M66.05 134.45Q63.7 140 64.7 143.6 68.7 142.8 71.1 137.1 73.55 131.35 71.95 126.35 68.4 128.85 66.05 134.45Z"/><path fill="#F7D57B" stroke="none" d="M335.5 264.15L356 251.9Q348.9 251.75 341.4 254.9 333.7 258.1 333.1 261.8L335.5 264.15Z"/><g id="chick_feather1" transform="translate(149.55 44.95)"><path fill="#EE9300" stroke="none" d="M72.8 16.2Q71.4 10.15 64.95 5.55 58.25 .75 49.45 .1 39.5 -.7 30.05 4.2 17.95 10.5 7.75 23.45 4.55 27.55 1.95 31.75L0 35.2 10.6 31Q23.8 26.65 36.5 25.95 43.1 25.6 48.9 27 51.25 27.55 57.05 29.65 60.95 31.1 63.1 30.85 66.1 30.55 69.3 27.45 74.35 22.6 72.8 16.2Z"/></g><g id="chick_feather2" transform="translate(138.55 0)"><path fill="#EE9300" stroke="none" d="M52.25 13.7Q51.85 5.55 45.1 2.05 38.75 -1.3 29.85 .8 20.55 2.95 13.2 10.1 4.9 18.2 1.95 30.2 -1.85 45.6 1.75 64.4 3.5 73.85 6.05 80.15 7.35 75.05 10.5 67.65 16.8 52.85 25.9 41.2 30.6 35.15 36.25 31.15 38.55 29.5 44.8 26.1 49 23.75 50.5 21.7 52.5 18.9 52.25 13.7Z"/></g><g id="chick_eye" transform="translate(108.95 139.95)"><g id="chick_eye_g"><animateTransform attributeName="transform" additive="replace" type="translate" repeatCount="indefinite" dur="16.2917s" keyTimes="0;.102299;.1023;.104899;.1049;.309499;.3095;.311999;.312;.319699;.3197;.322199;.3222;1" values="21.85,21.85;21.85,21.85;21.85,21.9041;21.85,21.9041;21.85,21.85;21.85,21.85;21.85,21.9041;21.85,21.9041;21.85,21.85;21.85,21.85;21.85,21.9041;21.85,21.9041;21.85,21.85;21.85,21.85" calcMode="discrete"/><animateTransform attributeName="transform" additive="sum" type="scale" repeatCount="indefinite" dur="16.2917s" keyTimes="0;.102299;.1023;.104899;.1049;.309499;.3095;.311999;.312;.319699;.3197;.322199;.3222;1" values="1,1;1,1;1,.183;1,.183;1,1;1,1;1,.183;1,.183;1,1;1,1;1,.183;1,.183;1,1;1,1" calcMode="discrete"/><animateTransform attributeName="transform" additive="sum" type="translate" repeatCount="indefinite" dur="16.2917s" keyTimes="0;.102299;.1023;.104899;.1049;.309499;.3095;.311999;.312;.319699;.3197;.322199;.3222;1" values="-21.85,-21.85;-21.85,-21.85;-21.85,-22.15;-21.85,-22.15;-21.85,-21.85;-21.85,-21.85;-21.85,-22.15;-21.85,-22.15;-21.85,-21.85;-21.85,-21.85;-21.85,-22.15;-21.85,-22.15;-21.85,-21.85;-21.85,-21.85" calcMode="discrete"/><path fill="#FEFEFD" stroke="none" d="M6.4 6.4Q0 12.8 0 21.85 0 30.95 6.4 37.3 12.8 43.7 21.85 43.7 30.9 43.7 37.3 37.3 43.7 30.9 43.7 21.85 43.7 12.8 37.3 6.4 30.9 0 21.85 0 12.8 0 6.4 6.4Z"/></g></g></g></g></defs><g id="anim_speak" overflow="visible"><g id="chick_shadow" transform="matrix(.7764 0 0 1 68.95 198.25)"><animateTransform attributeName="transform" additive="replace" type="translate" repeatCount="indefinite" dur="1.6667s" keyTimes="0;.249999;.25;.274999;.275;.299999;.3;.324999;.325;.349999;.35;.424999;.425;.449999;.45;.474999;.475;.499999;.5;.524999;.525;.624999;.625;.649999;.65;.674999;.675;.699999;.7;.724999;.725;1" values="118.0819,212.65;118.0819,212.65;118.0549,212.7664;118.0549,212.7664;118.0278,212.8332;118.0278,212.8332;118.0047,212.8001;118.0047,212.8001;117.9355,212.8669;117.9355,212.8669;117.8976,212.8946;117.8976,212.8946;115.7687,212.8329;115.7687,212.8329;113.6487,212.8783;113.6487,212.8783;111.5155,212.9202;111.5155,212.9202;109.3937,212.9123;109.3937,212.9123;107.1729,212.9044;107.1729,212.9044;109.3672,212.8933;109.3672,212.8933;111.5847,212.8786;111.5847,212.8786;113.7568,212.8191;113.7568,212.8191;115.889,212.7103;115.889,212.7103;118.0819,212.65;118.0819,212.65" calcMode="discrete"/><animateTransform attributeName="transform" additive="sum" type="scale" repeatCount="indefinite" dur="1.6667s" keyTimes="0;.249999;.25;.274999;.275;.299999;.3;.324999;.325;.349999;.35;.424999;.425;.449999;.45;.474999;.475;.499999;.5;.524999;.525;.624999;.625;.649999;.65;.674999;.675;.699999;.7;.724999;.725;1" values=".7764,1;.7764,1;.7933,1.0218;.7933,1.0218;.8102,1.0437;.8102,1.0437;.8272,1.0655;.8272,1.0655;.8442,1.0874;.8442,1.0874;.8612,1.1092;.8612,1.1092;.8261,1.0641;.8261,1.0641;.7912,1.0191;.7912,1.0191;.7561,.974;.7561,.974;.7212,.9289;.7212,.9289;.6862,.8839;.6862,.8839;.7042,.9071;.7042,.9071;.7222,.9303;.7222,.9303;.7403,.9535;.7403,.9535;.7583,.9767;.7583,.9767;.7764,1;.7764,1" calcMode="discrete"/><animateTransform attributeName="transform" additive="sum" type="translate" repeatCount="indefinite" dur="1.6667s" keyTimes="0;.249999;.25;.324999;.325;.349999;.35;.424999;.425;.449999;.45;.474999;.475;.649999;.65;.674999;.675;.699999;.7;.724999;.725;1" values="-63.35,-14.4;-63.35,-14.4;-63.35,-14.5;-63.35,-14.5;-63.3,-14.5;-63.3,-14.5;-63.4,-14.6;-63.4,-14.6;-63.45,-14.55;-63.45,-14.55;-63.45,-14.6;-63.45,-14.6;-63.5,-14.6;-63.5,-14.6;-63.6,-14.65;-63.6,-14.65;-63.5,-14.65;-63.5,-14.65;-63.55,-14.6;-63.55,-14.6;-63.35,-14.4;-63.35,-14.4" calcMode="discrete"/><path fill="#000" fill-opacity=".2980" stroke="none" d="M126.4 14.4Q126.4 8.45 107.9 4.2 89.4 0 63.2 0 37 0 18.5 4.2 0 8.45 0 14.4 0 20.35 18.5 24.55 37 28.8 63.2 28.8 89.4 28.8 107.9 24.55 126.4 20.35 126.4 14.4Z"/></g><g id="chick_Legs" transform="matrix(-.2983 0 0 .2983 118.6 181.65)"><animateTransform attributeName="transform" additive="replace" type="translate" repeatCount="indefinite" dur="1.6667s" keyTimes="0;.424999;.425;.449999;.45;.474999;.475;.499999;.5;.524999;.525;.624999;.625;.649999;.65;.674999;.675;.699999;.7;.724999;.725;1" values="118.6,181.65;118.6,181.65;117.2501,178.5991;117.2501,178.5991;115.9501,175.5991;115.9501,175.5991;114.6501,172.5991;114.6501,172.5991;113.3501,169.5991;113.3501,169.5991;112.1,166.65;112.1,166.65;113.3501,169.5991;113.3501,169.5991;114.6501,172.5991;114.6501,172.5991;115.9501,175.5991;115.9501,175.5991;117.2501,178.5991;117.2501,178.5991;118.6,181.65;118.6,181.65" calcMode="discrete"/><animateTransform attributeName="transform" additive="sum" type="skewY" repeatCount="indefinite" dur="1.6667s" keyTimes="0;1" values="180;180" calcMode="discrete"/><animateTransform attributeName="transform" additive="sum" type="scale" repeatCount="indefinite" dur="1.6667s" keyTimes="0;1" values=".2983,.2983;.2983,.2983" calcMode="discrete"/><animateTransform attributeName="transform" additive="sum" type="scale" repeatCount="indefinite" dur="1.6667s" keyTimes="0;1" values="-1,1;-1,1" calcMode="discrete"/><path id="Layer6_0_1_STROKES" stroke="#EE9300" stroke-width="17" stroke-linejoin="round" stroke-linecap="round" fill="none" d="M38.4 120.75L83.95 0"/><path id="Layer7_0_1_STROKES" stroke="#EE9300" stroke-width="17" stroke-linejoin="round" stroke-linecap="round" fill="none" d="M5.05 67.8L51.35 83.05"/><path id="Layer8_0_1_STROKES" stroke="#EE9300" stroke-width="17" stroke-linejoin="round" stroke-linecap="round" fill="none" d="M0 100L50.6 84.15"/><path id="Layer9_0_1_STROKES" stroke="#EE9300" stroke-width="17" stroke-linejoin="round" stroke-linecap="round" fill="none" d="M-37.8 108.25L7.75 -12.5"/><path id="Layer10_0_1_STROKES" stroke="#EE9300" stroke-width="17" stroke-linejoin="round" stroke-linecap="round" fill="none" d="M-71.15 55.3L-24.85 70.55"/><path id="Layer11_0_1_STROKES" stroke="#EE9300" stroke-width="17" stroke-linejoin="round" stroke-linecap="round" fill="none" d="M-76.2 87.5L-25.6 71.65"/></g><g display="none"><use xlink:href="#chick_all" transform="matrix(-.3492 0 0 .3492 199.25 17.75)"/><animate attributeName="display" repeatCount="indefinite" dur="1.6667s" keyTimes="0;.725;1" values="none;inline;inline"/></g><g display="none"><use xlink:href="#chick_all" transform="matrix(-.3492 0 0 .3492 201.5 21.1)"><animateTransform attributeName="transform" additive="replace" type="translate" repeatCount="indefinite" dur="1.6667s" keyTimes="0;.424999;.425;.449999;.45;.474999;.475;.499999;.5;.524999;.525;.624999;.625;.649999;.65;.674999;.675;.699999;.7;1" values="201.5,21.1;201.5,21.1;197.9041,17.7953;197.9041,17.7953;194.3042,14.4953;194.3042,14.4953;190.7042,11.1953;190.7042,11.1953;187.1042,7.8953;187.1042,7.8953;183.5,4.6;183.5,4.6;186.6542,7.2453;186.6542,7.2453;189.8041,9.8453;189.8041,9.8453;192.9542,12.4954;192.9542,12.4954;196.1042,15.0954;196.1042,15.0954" calcMode="discrete"/><animateTransform attributeName="transform" additive="sum" type="skewY" repeatCount="indefinite" dur="1.6667s" keyTimes="0;1" values="180;180" calcMode="discrete"/><animateTransform attributeName="transform" additive="sum" type="scale" repeatCount="indefinite" dur="1.6667s" keyTimes="0;1" values=".3492,.3492;.3492,.3492" calcMode="discrete"/><animateTransform attributeName="transform" additive="sum" type="scale" repeatCount="indefinite" dur="1.6667s" keyTimes="0;1" values="-1,1;-1,1" calcMode="discrete"/></use><animate attributeName="display" repeatCount="indefinite" dur="1.6667s" keyTimes="0;.35;.725;1" values="none;inline;none;none"/></g><g><use xlink:href="#chick_all" transform="matrix(-.3492 0 0 .3492 199.25 17.75)"><animateTransform attributeName="transform" additive="replace" type="translate" repeatCount="indefinite" dur="1.6667s" keyTimes="0;.249999;.25;.274999;.275;.299999;.3;.324999;.325;1" values="199.25,17.75;199.25,17.75;199.7041,18.3954;199.7041,18.3954;200.1542,19.0954;200.1542,19.0954;200.6042,19.7453;200.6042,19.7453;201.0542,20.4453;201.0542,20.4453" calcMode="discrete"/><animateTransform attributeName="transform" additive="sum" type="skewY" repeatCount="indefinite" dur="1.6667s" keyTimes="0;1" values="180;180" calcMode="discrete"/><animateTransform attributeName="transform" additive="sum" type="scale" repeatCount="indefinite" dur="1.6667s" keyTimes="0;1" values=".3492,.3492;.3492,.3492" calcMode="discrete"/><animateTransform attributeName="transform" additive="sum" type="scale" repeatCount="indefinite" dur="1.6667s" keyTimes="0;1" values="-1,1;-1,1" calcMode="discrete"/></use><animate attributeName="display" repeatCount="indefinite" dur="1.6667s" keyTimes="0;.35;1" values="inline;none;none"/></g><g id="chick_shell" transform="matrix(-.3158 -.0428 -.0428 .3158 172.75 35.75)"><animateTransform attributeName="transform" additive="replace" type="translate" repeatCount="indefinite" dur="1.6667s" keyTimes="0;.249999;.25;.274999;.275;.299999;.3;.324999;.325;.349999;.35;.424999;.425;.449999;.45;.474999;.475;.499999;.5;.524999;.525;.624999;.625;.649999;.65;.674999;.675;.699999;.7;.724999;.725;1" values="128.1589,67.5584;128.1589,67.5584;128.458,68.5674;128.458,68.5674;128.6579,69.4075;128.6579,69.4075;129.0032,70.3466;129.0032,70.3466;129.1983,71.2539;129.1983,71.2539;129.4524,72.1138;129.4524,72.1138;123.4024,65.8638;123.4024,65.8638;117.2024,59.5638;117.2024,59.5638;111.0537,53.248;111.0537,53.248;104.8524,46.9638;104.8524,46.9638;98.6037,40.598;98.6037,40.598;104.5748,46.0428;104.5748,46.0428;110.466,51.4477;110.466,51.4477;116.463,56.8543;116.463,56.8543;122.3659,62.1541;122.3659,62.1541;128.1589,67.5584;128.1589,67.5584" calcMode="discrete"/><animateTransform attributeName="transform" additive="sum" type="rotate" repeatCount="indefinite" dur="1.6667s" keyTimes="0;.249999;.25;.274999;.275;.299999;.3;.324999;.325;.349999;.35;.624999;.625;.649999;.65;.674999;.675;.699999;.7;.724999;.725;1" values="7.7182,0,0;7.7182,0,0;7.0828,0,0;7.0828,0,0;6.4474,0,0;6.4474,0,0;5.8122,0,0;5.8122,0,0;5.1755,0,0;5.1755,0,0;4.5419,0,0;4.5419,0,0;5.1755,0,0;5.1755,0,0;5.8096,0,0;5.8096,0,0;6.4474,0,0;6.4474,0,0;7.0828,0,0;7.0828,0,0;7.7182,0,0;7.7182,0,0" calcMode="discrete"/><animateTransform attributeName="transform" additive="sum" type="skewY" repeatCount="indefinite" dur="1.6667s" keyTimes="0;1" values="-180;-180" calcMode="discrete"/><animateTransform attributeName="transform" additive="sum" type="scale" repeatCount="indefinite" dur="1.6667s" keyTimes="0;.249999;.25;.274999;.275;.699999;.7;.724999;.725;1" values=".3187,.3187;.3187,.3187;.3186,.3186;.3186,.3186;.3187,.3187;.3187,.3187;.3186,.3186;.3186,.3186;.3187,.3187;.3187,.3187" calcMode="discrete"/><animateTransform attributeName="transform" additive="sum" type="scale" repeatCount="indefinite" dur="1.6667s" keyTimes="0;1" values="-1,1;-1,1" calcMode="discrete"/><animateTransform attributeName="transform" additive="sum" type="translate" repeatCount="indefinite" dur="1.6667s" keyTimes="0;.249999;.25;.274999;.275;.299999;.3;.324999;.325;.349999;.35;.474999;.475;.499999;.5;.524999;.525;.624999;.625;.649999;.65;.674999;.675;.699999;.7;.724999;.725;1" values="-125.25,-117.7;-125.25,-117.7;-125.1,-117.9;-125.1,-117.9;-125.15,-117.75;-125.15,-117.75;-125.05,-117.75;-125.05,-117.75;-125.3,-117.7;-125.3,-117.7;-125.2,-117.8;-125.2,-117.8;-125.2,-117.75;-125.2,-117.75;-125.2,-117.8;-125.2,-117.8;-125.2,-117.75;-125.2,-117.75;-125.05,-117.8;-125.05,-117.8;-125,-117.9;-125,-117.9;-125.1,-118.05;-125.1,-118.05;-125.1,-117.7;-125.1,-117.7;-125.25,-117.7;-125.25,-117.7" calcMode="discrete"/><path fill="#FFF" stroke="none" d="M235.9 51.85Q219.7 17.6 188.25 5.35 159.05 -6.05 123 6.75 94.15 17.05 62.25 42.2 39.5 60.2 17.45 83.9 6.45 95.7 0 103.95L63.95 102.85 67.85 164.45 146 137.4 152.4 205.15 215.4 175.65 231.4 235.15Q239.8 222.75 245.9 191.55 252.7 156.8 251.25 122.2 249.55 80.7 235.9 51.85Z"/><path fill="#D8D8D8" stroke="none" d="M173 88.95L165.8 94.2 163.35 111.1 161.05 96.55 144.4 102.5 160.65 89.95 170.85 82.55 165.95 60.15 127.85 90.65 115.05 92.55 113.2 113.2 110.15 93.8 92.4 100.55 109.4 87.7 130 78.3 135.65 45.6 97.25 70.85 112.35 28.2 84.05 43.4 77.55 70.4Q77.2 70.65 72.45 49.45L60.8 58.1 22.75 93.15 71.45 94.1 75.75 152.8 155.35 124.6 158.55 150.05 173 145.3 170.25 131.35 184.95 118.8 175.95 131.8 180.65 144.1 205.05 148.1 178.9 149.6 158.8 157.9 162.15 189.85 220.4 160.25 232 207.85Q233.35 203.8 234.75 198.05 237.6 186.55 238.15 178.25 240.8 137.8 236.35 109.35 234.95 100.45 233.05 93.8L231.4 88.95 211.9 125.6 201.95 75.15 175.1 106.55 173 88.95Z"/></g><g display="none"><g id="chick_beak" transform="matrix(.9996 -.0269 .0269 .9996 141.15 67.15)"><animateTransform attributeName="transform" additive="replace" type="translate" repeatCount="indefinite" dur="1.6667s" keyTimes="0;.624999;.625;.649999;.65;.674999;.675;.699999;.7;.724999;.725;1" values="140.9442,80.2077;140.9442,80.2077;143.0836,83.2143;143.0836,83.2143;145.1518,86.1703;145.1518,86.1703;147.1019,89.0343;147.1019,89.0343;149.233,92.0304;149.233,92.0304;151.2078,94.9091;151.2078,94.9091" calcMode="discrete"/><animateTransform attributeName="transform" additive="sum" type="rotate" repeatCount="indefinite" dur="1.6667s" keyTimes="0;.624999;.625;.649999;.65;.674999;.675;.699999;.7;.724999;.725;1" values="-1.541,0,0;-1.541,0,0;6.0085,0,0;6.0085,0,0;13.5605,0,0;13.5605,0,0;21.1127,0,0;21.1127,0,0;28.6637,0,0;28.6637,0,0;36.2159,0,0;36.2159,0,0" calcMode="discrete"/><animateTransform attributeName="transform" additive="sum" type="scale" repeatCount="indefinite" dur="1.6667s" keyTimes="0;.624999;.625;.649999;.65;.674999;.675;.699999;.7;.724999;.725;1" values=".9998,.9998;.9998,.9998;.9995,.9995;.9995,.9995;.9991,.9991;.9991,.9991;.9988,.9988;.9988,.9988;.9984,.9984;.9984,.9984;.9983,.9983;.9983,.9983" calcMode="discrete"/><animateTransform attributeName="transform" additive="sum" type="translate" repeatCount="indefinite" dur="1.6667s" keyTimes="0;.624999;.625;.649999;.65;.674999;.675;.699999;.7;.724999;.725;1" values=".55,-13.05;.55,-13.05;.55,-13.1;.55,-13.1;.45,-13.1;.45,-13.1;.5,-13.05;.5,-13.05;.35,-13;.35,-13;.45,-13.05;.45,-13.05" calcMode="discrete"/><animate attributeName="opacity" repeatCount="indefinite" dur="1.6667s" keyTimes="0;.624999;.625;.649999;.65;.674999;.675;.699999;.7;.724999;.725;1" values="1;1;.8;.8;.6;.6;.4;.4;.2;.2;0;0" calcMode="discrete"/><path fill="#EE9300" stroke="none" d="M15.65 15.9L7.55 10.9 19.6 0 0 1.5 .4 7.75 -4 16.5 15.65 15.9Z"/><path id="Layer3_0_1_STROKES" stroke="#FFF" stroke-opacity="0" stroke-width="1" stroke-linejoin="round" stroke-linecap="round" fill="none" d="M7.575 10.925L15.65 15.9"/><path fill="#F3B000" stroke="none" d="M15.05 1.1Q12.65 .85 8.1 2 3.6 3.05 2.4 4.1 2.3 4.8 2 6.2 1.7 7.4 1.6 8.3 1.5 8.75 1.55 9.45 1.6 9.85 1.7 10.65 3.3 10.35 9 6.3 14.7 2.25 15.05 1.1Z"/><path fill="#F7D57B" stroke="none" d="M11.85 2.1Q10.65 2.3 8.3 2.75 6.2 3.25 4.75 3.6 4.4 3.7 4.1 4.25 3.9 4.5 3.5 5.15 4.95 6.2 7.35 5.3 9.7 4.45 11.85 2.1Z"/></g><animate attributeName="display" repeatCount="indefinite" dur="1.6667s" keyTimes="0;.525;.75;1" values="none;inline;none;none"/></g></g></svg>