<?xml version="1.0" encoding="UTF-8"?>
<svg width="64px" height="64px" viewBox="0 0 64 64" version="1.1" xmlns="http://www.w3.org/2000/svg" xmlns:xlink="http://www.w3.org/1999/xlink">
    <!-- Generator: Sketch 43.2 (39069) - http://www.bohemiancoding.com/sketch -->
    <title>Artboard Copy</title>
    <desc>Created with Sketch.</desc>
    <defs></defs>
    <g id="Page-1" stroke="none" stroke-width="1" fill="none" fill-rule="evenodd">
        <g id="Artboard-Copy" fill="#53AA28">
            <path d="M53.8534101,18.8330876 C54.4035204,19.3831978 54.6785714,20.0511789 54.6785714,20.8370507 C54.6785714,21.6229225 54.4035204,22.2909035 53.8534101,22.8410138 L28.5091705,48.1852535 C27.9590602,48.7353637 27.2910792,49.0104147 26.5052074,49.0104147 C25.7193355,49.0104147 25.0513545,48.7353637 24.5012442,48.1852535 L9.82516129,33.5091705 C9.27505101,32.9590602 9,32.2910792 9,31.5052074 C9,30.7193355 9.27505101,30.0513545 9.82516129,29.5012442 L13.8330876,25.493318 C14.3831978,24.9432077 15.0511789,24.6681567 15.8370507,24.6681567 C16.6229225,24.6681567 17.2909035,24.9432077 17.8410138,25.493318 L26.5052074,34.1869816 L45.8375576,14.8251613 C46.3876679,14.275051 47.0556489,14 47.8415207,14 C48.6273926,14 49.2953736,14.275051 49.8454839,14.8251613 L53.8534101,18.8330876 Z" id=""></path>
        </g>
    </g>
</svg>