<?xml version="1.0" encoding="UTF-8"?>
<svg width="32px" height="32px" viewBox="0 0 32 32" version="1.1" xmlns="http://www.w3.org/2000/svg" xmlns:xlink="http://www.w3.org/1999/xlink">
    <!-- Generator: Sketch 43.2 (39069) - http://www.bohemiancoding.com/sketch -->
    <title>Slice 1</title>
    <desc>Created with Sketch.</desc>
    <defs></defs>
    <g id="Page-1" stroke="none" stroke-width="1" fill="none" fill-rule="evenodd">
        <g id="6ddfde482412d43404615568a7a4a848" fill-rule="nonzero" fill="#000000">
            <path d="M29.1460039,17.6017961 C29.227628,17.1217471 29.227628,16.5633228 29.227628,16.0016328 C29.227628,15.4399429 29.1460039,14.9631595 29.1460039,14.4014695 L32.5807464,11.7628329 C32.9072428,11.5244413 32.9888669,11.1227676 32.7439946,10.7243596 L29.4725003,5.20216349 C29.3092521,4.88213083 28.8195075,4.7221145 28.4897461,4.88213083 L24.3987458,6.48229411 C23.5792397,5.8422288 22.5997504,5.28053883 21.6169962,4.88213083 L21.0456274,0.640065313 C20.9640033,0.320032656 20.6375069,0 20.2293863,0 L13.6831328,0 C13.2750123,0 12.9452509,0.320032656 12.8636268,0.640065313 L12.2106339,4.87886519 C11.2278797,5.28053883 10.3300145,5.83896316 9.42888432,6.47902847 L5.33788402,4.87886519 C4.92976347,4.71884886 4.51837797,4.87886519 4.35512975,5.19889785 L1.0836355,10.721094 C0.920387279,11.0411266 1.00201139,11.5211756 1.24688371,11.7595673 L4.76651526,14.4014695 C4.76651526,14.9631595 4.68489115,15.4399429 4.68489115,16.0016328 C4.68489115,16.5633228 4.76651526,17.0401061 4.76651526,17.6017961 L1.32850782,20.2404327 C1.00201139,20.4788244 0.920387279,20.880498 1.1652596,21.278906 L4.43675386,26.8011022 C4.60000208,27.1211348 5.08974673,27.2811511 5.41950812,27.1211348 L9.51050843,25.5209715 C10.3300145,26.1610368 11.3095038,26.7227268 12.292258,27.1211348 L12.9452509,31.3599347 C13.026875,31.7616083 13.3533714,32 13.7647569,32 L20.3110104,32 C20.719131,32 21.0488924,31.6799673 21.1305165,31.3599347 L21.7867743,27.1211348 C22.7695286,26.7194612 23.6673938,26.1610368 24.5685239,25.5209715 L28.6595242,27.1211348 C29.0676448,27.2811511 29.4790303,27.1211348 29.6422785,26.8011022 L32.9137727,21.278906 C33.0770209,20.9588734 32.9953968,20.4788244 32.7505245,20.2404327 L29.1460039,17.6017961 Z M16.9546271,21.6022043 C13.7647569,21.6022043 11.2278797,19.123584 11.2278797,16.0016328 C11.2278797,12.8796816 13.7647569,10.4010613 16.9546271,10.4010613 C20.1444972,10.4010613 22.6813745,12.8796816 22.6813745,16.0016328 C22.6846395,19.123584 20.1477622,21.6022043 16.9546271,21.6022043 Z" id="Shape"></path>
        </g>
    </g>
</svg>