<?xml version="1.0" ?><svg style="enable-background:new 0 0 512 512;" version="1.1" viewBox="0 0 512 512" xml:space="preserve" xmlns="http://www.w3.org/2000/svg" xmlns:xlink="http://www.w3.org/1999/xlink"><style type="text/css">
	.st0{fill:#7A1414;}
	.st1{fill:#E42B26;}
	.st2{opacity:0.45;fill:#231F20;}
	.st3{fill:#FFFFFF;}
</style><g id="Edges"/><g id="Background_Bottom"><g><path class="st0" d="M492.3,443.1c0,34.2-27.7,61.9-61.9,61.9H80.7c-34.2,0-61.9-27.7-61.9-61.9V93.4c0-34.2,27.7-61.9,61.9-61.9    h349.7c34.2,0,61.9,27.7,61.9,61.9V443.1z"/></g></g><g id="Background"><path class="st1" d="M492.3,418.4c0,34.2-27.7,61.9-61.9,61.9H80.7c-34.2,0-61.9-27.7-61.9-61.9V68.6c0-34.2,27.7-61.9,61.9-61.9   h349.7c34.2,0,61.9,27.7,61.9,61.9V418.4z"/></g><g id="Shadow"><path class="st2" d="M332.1,104.7l-0.1,0.1h-15.6v13.3L303,104.8v-0.1h-15.7v23.7l-17.9-17.9c-0.5-0.6-1-1.2-1.6-1.7   c-2.8-2.8-6.1-4.6-9.9-5.5l-28.5-28.5l0,0h-18l-4.6,19l-18.9-18.9l0,0H170l21.1,69v45.4h0.1l10.8,10.8c-14.9,0.5-29.7,1.4-44.4,3   c-7.5,0.8-14.3,4-19.7,8.9c-5.3,4.9-9.3,11.4-11,18.9c-2.3,10.1-3.5,20.6-4.1,31.1c-0.6,10.6-0.6,21.1-0.6,31.3   c0,10.2,0,20.6,0.6,31.2c0.6,10.6,1.7,21.1,4.1,31.1c1.7,7.5,5.7,14,11,18.9c0.1,0.1,0.3,0.2,0.4,0.3l105.6,105.6h186.7   c34.2,0,61.9-27.7,61.9-61.9l0-153.4L332.1,104.7z"/></g><g id="Symbol"><path class="st3" d="M211.3,74.7l-11,45.7h-1.1l-11.4-45.7H170l21.1,69v45.4h17.6v-47.5l20.6-66.9H211.3z M246.2,174.7   c-1.1-1.2-1.7-3.1-1.7-5.4v-45.9c0-1.9,0.6-3.3,1.8-4.5s2.8-1.7,4.7-1.7c2.1,0,3.8,0.6,5,1.7c1.2,1.1,1.9,2.6,1.9,4.5v45.9   c0,2.2-0.6,4-1.9,5.4c-1.2,1.3-2.9,1.9-5.1,1.9C249,176.6,247.4,175.9,246.2,174.7 M234.8,108.4c-4.2,3.9-6.4,9-6.4,15.6v43.8   c0,7.1,2,12.8,6.1,17.1c4.1,4.2,9.6,6.4,16.5,6.4c7.1,0,12.7-2.1,16.8-6.1c4-4.1,6.1-9.8,6.1-17.1v-43.6c0-6.5-2.1-11.7-6.2-15.7   c-4.1-4.1-9.5-6.1-15.9-6.1C244.7,102.6,239,104.5,234.8,108.4 M316.4,104.7v64c-1.4,1.9-3.1,3.3-4.8,4.6c-1.8,1.2-3.2,1.8-4.3,1.8   c-1.4,0-2.6-0.4-3.2-1.3c-0.7-0.9-1-2.3-1-4.3v-64.7h-15.7v70.6c0,5,0.9,8.8,2.7,11.3c1.9,2.5,4.6,3.8,8.3,3.8c2.9,0,6-0.9,9.1-2.7   c3.1-1.8,6.1-4.5,9-7.8v9.4h15.7v-84.4h-15.7V104.7z"/><g><path class="st3" d="M280.4,275.3c-1.1,0-2.2,0.3-3.3,0.9s-2.1,1.3-3.2,2.6v52.6c1.2,1.4,2.5,2.5,3.7,3c1.2,0.6,2.5,0.9,3.8,0.9    c1.9,0,3.3-0.6,4.2-1.8c0.9-1.1,1.3-3.1,1.3-5.8h0.1V284c0-2.8-0.6-5-1.7-6.5C284,276.1,282.5,275.3,280.4,275.3z"/><path class="st3" d="M338,275.9c-2.5,0-4.2,0.7-5.4,2.2s-1.7,4-1.7,7.6h0.1v8.6h13.8v-8.6c0-3.6-0.6-6-1.7-7.6    C342.1,276.6,340.5,275.9,338,275.9z"/><path class="st3" d="M389,292.6c0-20.4,0-42-4.6-61.9c-1.7-7.5-5.7-14-11-18.9v0c-5.4-4.9-12.2-8.1-19.7-8.9    c-16.2-1.8-32.6-2.7-49-3.2c-16.3-0.5-32.7-0.5-49.1-0.4c-16.4,0-32.7,0-49.1,0.4c-16.4,0.5-32.8,1.4-49,3.2    c-7.5,0.8-14.3,4-19.7,8.9c-5.3,4.9-9.3,11.4-11,18.9c-2.3,10.1-3.5,20.6-4.1,31.1c-0.6,10.6-0.6,21.1-0.6,31.3    c0,10.2,0,20.6,0.6,31.2c0.6,10.6,1.7,21.1,4.1,31.1c1.7,7.5,5.7,14,11,18.9c5.4,4.9,12.2,8.1,19.7,8.9c16.2,1.8,32.6,2.7,49,3.2    c16.3,0.5,32.7,0.5,49.1,0.4c16.4,0,32.7,0,49.1-0.4c16.4-0.5,32.8-1.4,49-3.2c7.5-0.8,14.3-4,19.7-8.9c5.4-4.9,9.3-11.4,11-18.9    c2.3-10.1,3.5-20.6,4.1-31.1c0.6-10.4,0.6-21,0.6-31.2h0L389,292.6L389,292.6z M179.7,347.4h-17.6v-97.8h-18.3V233H198v16.6h-18.3    V347.4z M242.7,347.7H227v-9.4c-2.9,3.3-5.9,6-9,7.8c-3.1,1.8-6.2,2.7-9.1,2.7c-3.7,0-6.4-1.3-8.3-3.8c-1.9-2.5-2.8-6.2-2.8-11.3    v-70.6h15.7v64.7c0,2,0.3,3.5,1,4.3c0.6,0.9,1.7,1.3,3.1,1.3c1.1,0,2.6-0.6,4.3-1.8c1.9-1.2,3.5-2.7,4.9-4.6h0.1v-63.9h15.7V347.7    z M303,330c0,6-1.2,10.6-3.7,13.8c-2.5,3.2-6,4.8-10.7,4.8c-3.1,0-5.8-0.7-8.3-1.9c-2.5-1.2-4.7-3.1-6.7-5.7v6.5h-15.8V233.1h15.8    v36.8c2.1-2.7,4.3-4.6,6.7-5.9c2.5-1.3,4.8-2,7.2-2c5,0,8.8,1.8,11.5,5.5c2.6,3.6,3.9,8.8,3.9,15.7V330z M361,307.3v0.1h-30v15.9    c0,4.5,0.4,7.6,1.6,9.3c1,1.7,2.8,2.6,5.2,2.6c2.6,0,4.5-0.8,5.5-2.2s1.6-4.6,1.6-9.6v-5.9H361v6.4c0,8.6-2,15.2-5.9,19.5    c-3.9,4.3-9.8,6.6-17.6,6.6c-7,0-12.6-2.2-16.6-6.9c-4-4.7-6-11-6-19.2v-37.9c0-7.4,2.2-13.4,6.7-18c4.5-4.6,10.1-6.9,17.2-6.9    c7.1,0,12.6,2.1,16.5,6.4c3.9,4.2,5.8,10.4,5.8,18.4V307.3z"/></g></g></svg>