<svg version="1.1" id="Capa_1" xmlns="http://www.w3.org/2000/svg" xmlns:xlink="http://www.w3.org/1999/xlink" x="0px" y="0px"
	 viewBox="0 0 512 512" xml:space="preserve">
<g>
	<g>
		<path d="M486.4,0H25.6C12.8,0,0,10.24,0,25.6V384c0,12.8,12.8,25.6,25.6,25.6h204.8v51.2h-69.12c-5.12,0-10.24,2.56-10.24,7.68
			l-20.48,25.6c-5.12,7.68,0,17.92,10.24,17.92h230.4c10.24,0,15.36-10.24,10.24-17.92l-20.48-25.6c-2.56-5.12-7.68-7.68-10.24-7.68
			H281.6v-51.2h204.8c15.36,0,25.6-12.8,25.6-25.6V25.6C512,10.24,501.76,0,486.4,0z M460.8,332.8H51.2V51.2h409.6V332.8z" fill="white"/>
	</g>
</g>
</svg>
