<?xml version="1.0" encoding="iso-8859-1"?>
<!-- Generator: Adobe Illustrator 19.0.0, SVG Export Plug-In . SVG Version: 6.00 Build 0)  -->
<svg version="1.1" id="Capa_1" xmlns="http://www.w3.org/2000/svg" xmlns:xlink="http://www.w3.org/1999/xlink" x="0px" y="0px"
	 viewBox="0 0 512 512" xml:space="preserve">
<g>
	<g>
		<path d="M255.999,332.068c-7.221,0-13.096,5.875-13.096,13.096s5.875,13.096,13.096,13.096c7.221,0,13.096-5.875,13.096-13.096
			C269.097,337.943,263.222,332.068,255.999,332.068z" fill="white"/>
	</g>
</g>
<g>
	<g>
		<path d="M385.782,219.44h-4.839v-94.498C380.943,56.049,324.894,0,255.999,0S131.057,56.049,131.057,124.942v94.498h-4.839
			c-19.169,0-34.764,15.596-34.764,34.764v188.981c0,37.944,30.87,68.815,68.814,68.815H351.73
			c37.944,0,68.815-30.871,68.815-68.815V254.204C420.546,235.036,404.951,219.44,385.782,219.44z M270.977,385.525v24.883
			c0,8.272-6.706,14.978-14.978,14.978c-8.272,0-14.978-6.706-14.978-14.978v-24.883c-16.376-6.097-28.074-21.886-28.074-40.36
			c0-23.739,19.313-43.052,43.052-43.052s43.052,19.313,43.052,43.052C299.052,363.639,287.354,379.428,270.977,385.525z
			 M306.348,219.44H205.651v-95.038c0-27.763,22.586-50.349,50.349-50.349s50.349,22.586,50.349,50.349V219.44z" fill="white"/>
	</g>
</g>
</svg>
