<?xml version="1.0" encoding="UTF-8"?>
<svg width="366px" height="136px" viewBox="0 0 366 136" version="1.1" xmlns="http://www.w3.org/2000/svg" xmlns:xlink="http://www.w3.org/1999/xlink">
    <!-- Generator: Sketch 43.2 (39069) - http://www.bohemiancoding.com/sketch -->
    <title>desktop-hint-SPACE</title>
    <desc>Created with Sketch.</desc>
    <defs>
        <rect id="path-1" x="36" y="19" width="294" height="76" rx="6"></rect>
    </defs>
    <g id="Page-1" stroke="none" stroke-width="1" fill="none" fill-rule="evenodd">
        <g id="desktop-hint-SPACE">
            <rect id="Rectangle-Copy-2" fill="#FFFFFF" x="154" y="13" width="56" height="52"></rect>
            <rect id="Rectangle-2-Copy-3" fill="#000000" x="24" y="20" width="319" height="97" rx="9"></rect>
            <g id="Rectangle-2-Copy-4" stroke-linecap="round" stroke-linejoin="round">
                <use fill="#000000" fill-rule="evenodd" xlink:href="#path-1"></use>
                <rect stroke="#FFFFFF" stroke-width="6" x="33" y="16" width="300" height="82" rx="6"></rect>
            </g>
            <path d="M130.412109,59.2578125 C130.412109,61.4225369 129.854661,63.3675044 128.739746,65.0927734 C127.624832,66.8180425 125.993175,68.1689404 123.844727,69.1455078 C121.696278,70.1220752 119.149103,70.6103516 116.203125,70.6103516 C112.671206,70.6103516 109.757824,69.9430405 107.462891,68.6083984 C105.835278,67.6481072 104.512863,66.3663817 103.495605,64.7631836 C102.478348,63.1599855 101.969727,61.6015701 101.969727,60.0878906 C101.969727,59.20898 102.274899,58.4562206 102.885254,57.8295898 C103.495609,57.2029591 104.272782,56.8896484 105.216797,56.8896484 C105.981775,56.8896484 106.628741,57.1337866 107.157715,57.6220703 C107.686689,58.110354 108.138344,58.8346306 108.512695,59.7949219 C108.968427,60.9342505 109.460772,61.8863894 109.989746,62.6513672 C110.51872,63.416345 111.263342,64.0470353 112.223633,64.543457 C113.183924,65.0398788 114.445305,65.2880859 116.007812,65.2880859 C118.156261,65.2880859 119.901849,64.7876027 121.244629,63.7866211 C122.587409,62.7856395 123.258789,61.5364658 123.258789,60.0390625 C123.258789,58.8509055 122.896651,57.8865597 122.172363,57.1459961 C121.448076,56.4054325 120.512213,55.8398457 119.364746,55.4492188 C118.217279,55.0585918 116.683278,54.6435569 114.762695,54.2041016 C112.191068,53.601885 110.038583,52.8979532 108.305176,52.0922852 C106.571769,51.2866171 105.196457,50.1879952 104.179199,48.7963867 C103.161942,47.4047782 102.65332,45.6754661 102.65332,43.6083984 C102.65332,41.6389875 103.190424,39.8893306 104.264648,38.359375 C105.338873,36.8294194 106.893219,35.6534872 108.927734,34.831543 C110.96225,34.0095988 113.354804,33.5986328 116.105469,33.5986328 C118.302745,33.5986328 120.202954,33.8712538 121.806152,34.4165039 C123.40935,34.961754 124.739904,35.6860306 125.797852,36.5893555 C126.8558,37.4926803 127.628904,38.4407502 128.117188,39.4335938 C128.605471,40.4264373 128.849609,41.3948521 128.849609,42.3388672 C128.849609,43.2015017 128.544437,43.9786749 127.934082,44.6704102 C127.323727,45.3621454 126.56283,45.7080078 125.651367,45.7080078 C124.821285,45.7080078 124.190595,45.5004904 123.759277,45.0854492 C123.32796,44.6704081 122.860029,43.9908901 122.355469,43.046875 C121.704424,41.6959568 120.923182,40.6420936 120.011719,39.8852539 C119.100256,39.1284142 117.635427,38.75 115.617188,38.75 C113.745433,38.75 112.235846,39.1609659 111.088379,39.9829102 C109.940912,40.8048544 109.367188,41.793614 109.367188,42.9492188 C109.367188,43.6653682 109.562498,44.2838516 109.953125,44.8046875 C110.343752,45.3255234 110.880856,45.7731101 111.564453,46.1474609 C112.24805,46.5218118 112.939775,46.8147776 113.639648,47.0263672 C114.339522,47.2379568 115.495109,47.5471985 117.106445,47.9541016 C119.124685,48.4261091 120.951652,48.9469373 122.587402,49.5166016 C124.223153,50.0862659 125.61474,50.7779907 126.762207,51.5917969 C127.909674,52.405603 128.804847,53.4350524 129.447754,54.6801758 C130.090661,55.9252992 130.412109,57.4511628 130.412109,59.2578125 Z M150.456055,56.0595703 L143.81543,56.0595703 L143.81543,66.1914062 C143.81543,67.6399812 143.473636,68.738603 142.790039,69.4873047 C142.106442,70.2360063 141.24382,70.6103516 140.202148,70.6103516 C139.111648,70.6103516 138.232751,70.2400753 137.56543,69.4995117 C136.898109,68.7589481 136.564453,67.6725332 136.564453,66.2402344 L136.564453,38.6523438 C136.564453,37.0572837 136.93066,35.9179722 137.663086,35.234375 C138.395511,34.5507778 139.559237,34.2089844 141.154297,34.2089844 L150.456055,34.2089844 C153.206719,34.2089844 155.322584,34.4205708 156.803711,34.84375 C158.268562,35.2506531 159.534012,35.9261021 160.600098,36.8701172 C161.666184,37.8141323 162.475909,38.9697197 163.029297,40.3369141 C163.582685,41.7041084 163.859375,43.242179 163.859375,44.9511719 C163.859375,48.5970234 162.736339,51.3598539 160.490234,53.2397461 C158.244129,55.1196383 154.899436,56.0595703 150.456055,56.0595703 Z M148.698242,39.6533203 L143.81543,39.6533203 L143.81543,50.5908203 L148.698242,50.5908203 C150.407235,50.5908203 151.835443,50.4117856 152.98291,50.0537109 C154.130377,49.6956362 155.005205,49.1097046 155.607422,48.2958984 C156.209638,47.4820923 156.510742,46.4160222 156.510742,45.0976562 C156.510742,43.5188723 156.04688,42.2330779 155.119141,41.2402344 C154.077469,40.1822864 151.937191,39.6533203 148.698242,39.6533203 Z M188.419922,65.9472656 L186.710938,61.4550781 L172.160156,61.4550781 L170.451172,66.0449219 C169.783851,67.8352954 169.214195,69.0437794 168.742188,69.6704102 C168.27018,70.2970409 167.497076,70.6103516 166.422852,70.6103516 C165.511389,70.6103516 164.705733,70.276696 164.005859,69.609375 C163.305986,68.942054 162.956055,68.1852256 162.956055,67.3388672 C162.956055,66.8505835 163.037434,66.3460312 163.200195,65.8251953 C163.362957,65.3043594 163.631509,64.5800828 164.005859,63.6523438 L173.161133,40.4101562 C173.421551,39.7428352 173.734861,38.9412482 174.101074,38.0053711 C174.467287,37.069494 174.857908,36.2923208 175.272949,35.6738281 C175.68799,35.0553354 176.233232,34.5548522 176.908691,34.1723633 C177.584151,33.7898744 178.418289,33.5986328 179.411133,33.5986328 C180.420252,33.5986328 181.262529,33.7898744 181.937988,34.1723633 C182.613447,34.5548522 183.158689,35.0471975 183.57373,35.6494141 C183.988772,36.2516306 184.338703,36.8985968 184.623535,37.590332 C184.908367,38.2820673 185.270506,39.2057234 185.709961,40.3613281 L195.060547,63.4570312 C195.792972,65.2148525 196.15918,66.492509 196.15918,67.2900391 C196.15918,68.1201213 195.813317,68.8810187 195.121582,69.5727539 C194.429847,70.2644891 193.595708,70.6103516 192.619141,70.6103516 C192.049476,70.6103516 191.5612,70.5086273 191.154297,70.3051758 C190.747394,70.1017242 190.4056,69.8250343 190.128906,69.4750977 C189.852212,69.125161 189.555177,68.588057 189.237793,67.8637695 C188.920409,67.1394821 188.647788,66.5006538 188.419922,65.9472656 Z M174.064453,56.0107422 L184.757812,56.0107422 L179.362305,41.2402344 L174.064453,56.0107422 Z M230.729492,58.6962891 C230.729492,59.8356177 230.448733,61.0685155 229.887207,62.3950195 C229.325681,63.7215236 228.442714,65.0235939 227.238281,66.3012695 C226.033848,67.5789452 224.495778,68.6165325 222.624023,69.4140625 C220.752269,70.2115925 218.571302,70.6103516 216.081055,70.6103516 C214.193024,70.6103516 212.475919,70.4313169 210.929688,70.0732422 C209.383456,69.7151675 207.979661,69.1577186 206.718262,68.4008789 C205.456862,67.6440392 204.297206,66.6471416 203.239258,65.4101562 C202.295243,64.2871038 201.489587,63.0297921 200.822266,61.6381836 C200.154945,60.2465751 199.654461,58.7614011 199.320801,57.1826172 C198.98714,55.6038333 198.820312,53.9274177 198.820312,52.1533203 C198.820312,49.2724465 199.239416,46.6927197 200.077637,44.4140625 C200.915857,42.1354053 202.116203,40.1863688 203.678711,38.5668945 C205.241219,36.9474203 207.072255,35.7145225 209.171875,34.8681641 C211.271495,34.0218057 213.509428,33.5986328 215.885742,33.5986328 C218.782892,33.5986328 221.362619,34.1764265 223.625,35.3320312 C225.887381,36.487636 227.620762,37.9158444 228.825195,39.6166992 C230.029628,41.3175541 230.631836,42.9247971 230.631836,44.4384766 C230.631836,45.2685588 230.33887,46.0009734 229.75293,46.6357422 C229.166989,47.270511 228.458989,47.5878906 227.628906,47.5878906 C226.701167,47.5878906 226.005373,47.3681663 225.541504,46.9287109 C225.077634,46.4892556 224.560875,45.7324272 223.991211,44.6582031 C223.047196,42.8841057 221.936367,41.5576216 220.658691,40.6787109 C219.381016,39.7998003 217.806324,39.3603516 215.93457,39.3603516 C212.95604,39.3603516 210.58383,40.4915251 208.817871,42.7539062 C207.051912,45.0162874 206.168945,48.2307734 206.168945,52.3974609 C206.168945,55.180678 206.559566,57.4959218 207.34082,59.3432617 C208.122074,61.1906017 209.228834,62.5699824 210.661133,63.4814453 C212.093432,64.3929082 213.769847,64.8486328 215.69043,64.8486328 C217.773773,64.8486328 219.535637,64.3318737 220.976074,63.2983398 C222.416511,62.264806 223.502926,60.7470803 224.235352,58.7451172 C224.544598,57.8011021 224.927081,57.0320668 225.382812,56.4379883 C225.838544,55.8439098 226.570958,55.546875 227.580078,55.546875 C228.442713,55.546875 229.183265,55.8479788 229.801758,56.4501953 C230.42025,57.0524119 230.729492,57.8011023 230.729492,58.6962891 Z M260.832031,39.7998047 L244.499023,39.7998047 L244.499023,48.5888672 L259.538086,48.5888672 C260.644862,48.5888672 261.470863,48.8370743 262.016113,49.3334961 C262.561363,49.8299178 262.833984,50.485022 262.833984,51.2988281 C262.833984,52.1126343 262.565432,52.7758763 262.02832,53.2885742 C261.491208,53.8012721 260.661138,54.0576172 259.538086,54.0576172 L244.499023,54.0576172 L244.499023,64.2382812 L261.393555,64.2382812 C262.532883,64.2382812 263.391436,64.5027643 263.969238,65.0317383 C264.547041,65.5607123 264.835938,66.264644 264.835938,67.1435547 C264.835938,67.9899131 264.547041,68.677569 263.969238,69.206543 C263.391436,69.735517 262.532883,70 261.393555,70 L241.691406,70 C240.112622,70 238.97738,69.6500686 238.285645,68.9501953 C237.593909,68.250322 237.248047,67.1191484 237.248047,65.5566406 L237.248047,38.6523438 C237.248047,37.6106719 237.402668,36.7602572 237.711914,36.1010742 C238.02116,35.4418912 238.505368,34.9617528 239.164551,34.6606445 C239.823734,34.3595363 240.66601,34.2089844 241.691406,34.2089844 L260.832031,34.2089844 C261.987636,34.2089844 262.846189,34.4653295 263.407715,34.9780273 C263.969241,35.4907252 264.25,36.1621052 264.25,36.9921875 C264.25,37.8385459 263.969241,38.5180638 263.407715,39.0307617 C262.846189,39.5434596 261.987636,39.7998047 260.832031,39.7998047 Z" id="SPACE" fill="#FFFFFF"></path>
        </g>
    </g>
</svg>