<?xml version="1.0" encoding="UTF-8"?>
<svg width="366px" height="271px" viewBox="0 0 366 271" version="1.1" xmlns="http://www.w3.org/2000/svg" xmlns:xlink="http://www.w3.org/1999/xlink">
    <!-- Generator: Sketch 43.2 (39069) - http://www.bohemiancoding.com/sketch -->
    <title>desktop-hint-WASD</title>
    <desc>Created with Sketch.</desc>
    <defs>
        <rect id="path-1" x="125" y="31" width="76" height="76" rx="6"></rect>
        <rect id="path-2" x="145" y="148" width="76" height="76" rx="6"></rect>
        <rect id="path-3" x="262" y="148" width="76" height="76" rx="6"></rect>
        <rect id="path-4" x="28" y="148" width="76" height="76" rx="6"></rect>
    </defs>
    <g id="Page-1" stroke="none" stroke-width="1" fill="none" fill-rule="evenodd">
        <g id="desktop-hint-WASD">
            <rect id="Rectangle" fill="#FFFFFF" x="135" y="25" width="56" height="52"></rect>
            <rect id="Rectangle-Copy" fill="#FFFFFF" x="155" y="142" width="56" height="52"></rect>
            <rect id="Rectangle-Copy-3" fill="#FFFFFF" x="272" y="142" width="56" height="52"></rect>
            <rect id="Rectangle-Copy-2" fill="#FFFFFF" x="38" y="142" width="56" height="52"></rect>
            <rect id="Rectangle-2" fill="#000000" x="115" y="32" width="97" height="97" rx="9"></rect>
            <rect id="Rectangle-2-Copy" fill="#000000" x="135" y="149" width="97" height="97" rx="9"></rect>
            <rect id="Rectangle-2-Copy-5" fill="#000000" x="252" y="149" width="97" height="97" rx="9"></rect>
            <rect id="Rectangle-2-Copy-3" fill="#000000" x="18" y="149" width="97" height="97" rx="9"></rect>
            <g id="Rectangle-2" stroke-linecap="round" stroke-linejoin="round">
                <use fill="#000000" fill-rule="evenodd" xlink:href="#path-1"></use>
                <rect stroke="#FFFFFF" stroke-width="6" x="122" y="28" width="82" height="82" rx="6"></rect>
            </g>
            <g id="Rectangle-2-Copy-2" stroke-linecap="round" stroke-linejoin="round">
                <use fill="#000000" fill-rule="evenodd" xlink:href="#path-2"></use>
                <rect stroke="#FFFFFF" stroke-width="6" x="142" y="145" width="82" height="82" rx="6"></rect>
            </g>
            <g id="Rectangle-2-Copy-6" stroke-linecap="round" stroke-linejoin="round">
                <use fill="#000000" fill-rule="evenodd" xlink:href="#path-3"></use>
                <rect stroke="#FFFFFF" stroke-width="6" x="259" y="145" width="82" height="82" rx="6"></rect>
            </g>
            <g id="Rectangle-2-Copy-4" stroke-linecap="round" stroke-linejoin="round">
                <use fill="#000000" fill-rule="evenodd" xlink:href="#path-4"></use>
                <rect stroke="#FFFFFF" stroke-width="6" x="25" y="145" width="82" height="82" rx="6"></rect>
            </g>
            <path d="M169.29834,81.3603516 L163.512207,59.9003906 L157.652832,81.3603516 C157.197101,82.9879639 156.834962,84.1557582 156.566406,84.8637695 C156.29785,85.5717809 155.829919,86.2065402 155.162598,86.7680664 C154.495277,87.3295927 153.608241,87.6103516 152.501465,87.6103516 C151.606278,87.6103516 150.869795,87.4435238 150.291992,87.1098633 C149.71419,86.7762028 149.246258,86.3042023 148.888184,85.6938477 C148.530109,85.083493 148.237143,84.3592164 148.009277,83.5209961 C147.781412,82.6827758 147.577963,81.9056025 147.398926,81.1894531 L141.441895,57.0927734 C141.08382,55.6930269 140.904785,54.6269568 140.904785,53.8945312 C140.904785,52.9667922 141.230303,52.18555 141.881348,51.5507812 C142.532393,50.9160125 143.338049,50.5986328 144.29834,50.5986328 C145.616706,50.5986328 146.503741,51.0218057 146.959473,51.8681641 C147.415204,52.7145225 147.813963,53.9433513 148.155762,55.5546875 L152.843262,76.453125 L158.092285,56.8974609 C158.482912,55.4000576 158.832844,54.2607461 159.14209,53.4794922 C159.451336,52.6982383 159.955888,52.0227893 160.655762,51.453125 C161.355635,50.8834607 162.307774,50.5986328 163.512207,50.5986328 C164.732916,50.5986328 165.680986,50.8956676 166.356445,51.4897461 C167.031904,52.0838246 167.499836,52.7307908 167.760254,53.4306641 C168.020672,54.1305374 168.370603,55.2861248 168.810059,56.8974609 L174.10791,76.453125 L178.79541,55.5546875 C179.023276,54.4641873 179.238931,53.6097036 179.442383,52.9912109 C179.645834,52.3727183 179.995766,51.8193384 180.492188,51.3310547 C180.988609,50.842771 181.708817,50.5986328 182.652832,50.5986328 C183.596847,50.5986328 184.398434,50.9119435 185.057617,51.5385742 C185.7168,52.165205 186.046387,52.9505161 186.046387,53.8945312 C186.046387,54.5618523 185.867352,55.6279224 185.509277,57.0927734 L179.552246,81.1894531 C179.145343,82.8170654 178.807619,84.0092736 178.539062,84.7661133 C178.270506,85.522953 177.814782,86.1861951 177.171875,86.7558594 C176.528968,87.3255237 175.621588,87.6103516 174.449707,87.6103516 C173.342931,87.6103516 172.455895,87.3336616 171.788574,86.7802734 C171.121253,86.2268853 170.657391,85.6043329 170.396973,84.9125977 C170.136555,84.2208624 169.770347,83.0367922 169.29834,81.3603516 Z" id="W" fill="#FFFFFF"></path>
            <path d="M198.428711,193.257812 C198.428711,195.422537 197.871262,197.367504 196.756348,199.092773 C195.641433,200.818042 194.009776,202.16894 191.861328,203.145508 C189.71288,204.122075 187.165705,204.610352 184.219727,204.610352 C180.687808,204.610352 177.774426,203.943041 175.479492,202.608398 C173.85188,201.648107 172.529465,200.366382 171.512207,198.763184 C170.494949,197.159985 169.986328,195.60157 169.986328,194.087891 C169.986328,193.20898 170.291501,192.456221 170.901855,191.82959 C171.51221,191.202959 172.289383,190.889648 173.233398,190.889648 C173.998376,190.889648 174.645342,191.133787 175.174316,191.62207 C175.70329,192.110354 176.154946,192.834631 176.529297,193.794922 C176.985028,194.93425 177.477374,195.886389 178.006348,196.651367 C178.535322,197.416345 179.279943,198.047035 180.240234,198.543457 C181.200526,199.039879 182.461906,199.288086 184.024414,199.288086 C186.172862,199.288086 187.91845,198.787603 189.26123,197.786621 C190.604011,196.78564 191.275391,195.536466 191.275391,194.039062 C191.275391,192.850906 190.913252,191.88656 190.188965,191.145996 C189.464677,190.405432 188.528814,189.839846 187.381348,189.449219 C186.233881,189.058592 184.699879,188.643557 182.779297,188.204102 C180.207669,187.601885 178.055184,186.897953 176.321777,186.092285 C174.58837,185.286617 173.213058,184.187995 172.195801,182.796387 C171.178543,181.404778 170.669922,179.675466 170.669922,177.608398 C170.669922,175.638988 171.207026,173.889331 172.28125,172.359375 C173.355474,170.829419 174.909821,169.653487 176.944336,168.831543 C178.978851,168.009599 181.371406,167.598633 184.12207,167.598633 C186.319347,167.598633 188.219556,167.871254 189.822754,168.416504 C191.425952,168.961754 192.756505,169.686031 193.814453,170.589355 C194.872401,171.49268 195.645505,172.44075 196.133789,173.433594 C196.622073,174.426437 196.866211,175.394852 196.866211,176.338867 C196.866211,177.201502 196.561038,177.978675 195.950684,178.67041 C195.340329,179.362145 194.579432,179.708008 193.667969,179.708008 C192.837886,179.708008 192.207196,179.50049 191.775879,179.085449 C191.344562,178.670408 190.87663,177.99089 190.37207,177.046875 C189.721025,175.695957 188.939783,174.642094 188.02832,173.885254 C187.116857,173.128414 185.652028,172.75 183.633789,172.75 C181.762035,172.75 180.252447,173.160966 179.10498,173.98291 C177.957514,174.804854 177.383789,175.793614 177.383789,176.949219 C177.383789,177.665368 177.5791,178.283852 177.969727,178.804688 C178.360354,179.325523 178.897458,179.77311 179.581055,180.147461 C180.264652,180.521812 180.956377,180.814778 181.65625,181.026367 C182.356123,181.237957 183.511711,181.547198 185.123047,181.954102 C187.141286,182.426109 188.968254,182.946937 190.604004,183.516602 C192.239754,184.086266 193.631342,184.777991 194.778809,185.591797 C195.926275,186.405603 196.821449,187.435052 197.464355,188.680176 C198.107262,189.925299 198.428711,191.451163 198.428711,193.257812 Z" id="S" fill="#FFFFFF"></path>
            <path d="M290.892578,168.208984 L300.34082,168.208984 C302.798515,168.208984 304.906241,168.436847 306.664062,168.892578 C308.421884,169.34831 310.01692,170.202793 311.449219,171.456055 C315.176451,174.646175 317.040039,179.496387 317.040039,186.006836 C317.040039,188.155284 316.852866,190.116528 316.478516,191.890625 C316.104165,193.664722 315.526371,195.263828 314.745117,196.687988 C313.963863,198.112149 312.962897,199.385737 311.742188,200.508789 C310.781896,201.371424 309.732102,202.063148 308.592773,202.583984 C307.453445,203.10482 306.228685,203.471028 304.918457,203.682617 C303.608229,203.894207 302.131193,204 300.487305,204 L291.039062,204 C289.720697,204 288.727868,203.80062 288.060547,203.401855 C287.393226,203.00309 286.957846,202.441573 286.754395,201.717285 C286.550943,200.992998 286.449219,200.053066 286.449219,198.897461 L286.449219,172.652344 C286.449219,171.089836 286.79915,169.958662 287.499023,169.258789 C288.198897,168.558916 289.33007,168.208984 290.892578,168.208984 Z M293.700195,173.946289 L293.700195,198.238281 L299.193359,198.238281 C300.397792,198.238281 301.341793,198.205729 302.025391,198.140625 C302.708988,198.075521 303.416989,197.912762 304.149414,197.652344 C304.88184,197.391926 305.516599,197.025719 306.053711,196.553711 C308.478853,194.502919 309.691406,190.971054 309.691406,185.958008 C309.691406,182.426089 309.158371,179.781259 308.092285,178.023438 C307.026199,176.265616 305.711922,175.14665 304.149414,174.666504 C302.586906,174.186358 300.698904,173.946289 298.485352,173.946289 L293.700195,173.946289 Z" id="D" fill="#FFFFFF"></path>
            <path d="M74.8256836,199.947266 L73.1166992,195.455078 L58.565918,195.455078 L56.8569336,200.044922 C56.1896125,201.835295 55.6199568,203.043779 55.1479492,203.67041 C54.6759417,204.297041 53.9028374,204.610352 52.8286133,204.610352 C51.9171504,204.610352 51.1114944,204.276696 50.4116211,203.609375 C49.7117478,202.942054 49.3618164,202.185226 49.3618164,201.338867 C49.3618164,200.850583 49.4431958,200.346031 49.605957,199.825195 C49.7687183,199.304359 50.0372703,198.580083 50.4116211,197.652344 L59.5668945,174.410156 C59.8273125,173.742835 60.1406232,172.941248 60.5068359,172.005371 C60.8730487,171.069494 61.2636698,170.292321 61.6787109,169.673828 C62.0937521,169.055335 62.638994,168.554852 63.3144531,168.172363 C63.9899122,167.789874 64.824051,167.598633 65.8168945,167.598633 C66.8260142,167.598633 67.6682909,167.789874 68.34375,168.172363 C69.0192091,168.554852 69.564451,169.047198 69.9794922,169.649414 C70.3945333,170.251631 70.7444647,170.898597 71.0292969,171.590332 C71.314129,172.282067 71.6762673,173.205723 72.1157227,174.361328 L81.4663086,197.457031 C82.1987341,199.214853 82.5649414,200.492509 82.5649414,201.290039 C82.5649414,202.120121 82.219079,202.881019 81.5273438,203.572754 C80.8356085,204.264489 80.0014697,204.610352 79.0249023,204.610352 C78.455238,204.610352 77.9669617,204.508627 77.5600586,204.305176 C77.1531555,204.101724 76.8113621,203.825034 76.534668,203.475098 C76.2579739,203.125161 75.9609391,202.588057 75.6435547,201.86377 C75.3261703,201.139482 75.0535493,200.500654 74.8256836,199.947266 Z M60.4702148,190.010742 L71.1635742,190.010742 L65.7680664,175.240234 L60.4702148,190.010742 Z" id="A" fill="#FFFFFF"></path>
        </g>
    </g>
</svg>