<?xml version="1.0" encoding="UTF-8"?>
<svg width="16px" height="13px" viewBox="0 0 16 13" version="1.1" xmlns="http://www.w3.org/2000/svg" xmlns:xlink="http://www.w3.org/1999/xlink">
    <!-- Generator: Sketch 43.2 (39069) - http://www.bohemiancoding.com/sketch -->
    <title>sign-out-alt-solid</title>
    <desc>Created with Sketch.</desc>
    <defs></defs>
    <g id="Page-1" stroke="none" stroke-width="1" fill="none" fill-rule="evenodd">
        <g id="sign-out-alt-solid" transform="translate(8.000000, 6.071795) rotate(-180.000000) translate(-8.000000, -6.071795) " fill-rule="nonzero" fill="#000000">
            <path d="M15.7785604,6.60897656 L10.4449625,11.9209148 C9.96874845,12.395195 9.14331068,12.0631988 9.14331068,11.3833972 L9.14331068,8.34800395 L4.82563619,8.34800395 C4.40339303,8.34800395 4.06369364,8.00968408 4.06369364,7.58915564 L4.06369364,4.55376238 C4.06369364,4.13323394 4.40339303,3.79491406 4.82563619,3.79491406 L9.14331068,3.79491406 L9.14331068,0.759520802 C9.14331068,0.0828810544 9.96557369,-0.252276951 10.4449625,0.222003245 L15.7785604,5.53394145 C16.0738132,5.83115704 16.0738132,6.31176097 15.7785604,6.60897656 Z M6.09554045,11.7628214 L6.09554045,10.4980742 C6.09554045,10.2893909 5.92410338,10.11865 5.71456918,10.11865 L3.04777023,10.11865 C2.48583759,10.11865 2.03184682,9.6665029 2.03184682,9.10685227 L2.03184682,3.03606575 C2.03184682,2.47641511 2.48583759,2.02426799 3.04777023,2.02426799 L5.71456918,2.02426799 C5.92410338,2.02426799 6.09554045,1.85352712 6.09554045,1.64484384 L6.09554045,0.380096644 C6.09554045,0.171413358 5.92410338,0.000672486927 5.71456918,0.000672486927 L3.04777023,0.000672486927 C1.36514708,0.000672486927 0,1.36027572 0,3.03606575 L0,9.10685227 C0,10.7826423 1.36514708,12.1422455 3.04777023,12.1422455 L5.71456918,12.1422455 C5.92410338,12.1422455 6.09554045,11.9715047 6.09554045,11.7628214 Z" id="Shape"></path>
        </g>
    </g>
</svg>