<?xml version="1.0" encoding="UTF-8"?>
<svg width="32px" height="32px" viewBox="0 0 32 32" version="1.1" xmlns="http://www.w3.org/2000/svg" xmlns:xlink="http://www.w3.org/1999/xlink">
    <!-- Generator: Sketch 43.2 (39069) - http://www.bohemiancoding.com/sketch -->
    <title>Shape</title>
    <desc>Created with Sketch.</desc>
    <defs></defs>
    <g id="Page-1" stroke="none" stroke-width="1" fill="none" fill-rule="evenodd">
        <g id="Artboard-Copy" fill-rule="nonzero" fill="#FFFFFF">
            <path d="M28.1472998,17.6017961 C28.2289239,17.1217471 28.2289239,16.5633228 28.2289239,16.0016328 C28.2289239,15.4399429 28.1472998,14.9631595 28.1472998,14.4014695 L31.5820423,11.7628329 C31.9085387,11.5244413 31.9901628,11.1227676 31.7452905,10.7243596 L28.4737962,5.20216349 C28.310548,4.88213083 27.8208033,4.7221145 27.491042,4.88213083 L23.4000416,6.48229411 C22.5805356,5.8422288 21.6010463,5.28053883 20.618292,4.88213083 L20.0469233,0.640065313 C19.9652992,0.320032656 19.6388027,0 19.2306822,0 L12.6844287,0 C12.2763082,0 11.9465468,0.320032656 11.8649227,0.640065313 L11.2119298,4.87886519 C10.2291756,5.28053883 9.33131036,5.83896316 8.43018021,6.47902847 L4.3391799,4.87886519 C3.93105936,4.71884886 3.51967386,4.87886519 3.35642564,5.19889785 L0.0849313828,10.721094 C-0.0783168336,11.0411266 0.00330727458,11.5211756 0.248179599,11.7595673 L3.76781114,14.4014695 C3.76781114,14.9631595 3.68618704,15.4399429 3.68618704,16.0016328 C3.68618704,16.5633228 3.76781114,17.0401061 3.76781114,17.6017961 L0.329803707,20.2404327 C0.00330727458,20.4788244 -0.0783168336,20.880498 0.166555491,21.278906 L3.43804975,26.8011022 C3.60129796,27.1211348 4.09104261,27.2811511 4.42080401,27.1211348 L8.51180431,25.5209715 C9.33131036,26.1610368 10.3107997,26.7227268 11.2935539,27.1211348 L11.9465468,31.3599347 C12.0281709,31.7616083 12.3546673,32 12.7660528,32 L19.3123063,32 C19.7204269,32 20.0501882,31.6799673 20.1318124,31.3599347 L20.7880702,27.1211348 C21.7708244,26.7194612 22.6686896,26.1610368 23.5698198,25.5209715 L27.6608201,27.1211348 C28.0689406,27.2811511 28.4803261,27.1211348 28.6435744,26.8011022 L31.9150686,21.278906 C32.0783168,20.9588734 31.9966927,20.4788244 31.7518204,20.2404327 L28.1472998,17.6017961 Z M15.955923,21.6022043 C12.7660528,21.6022043 10.2291756,19.123584 10.2291756,16.0016328 C10.2291756,12.8796816 12.7660528,10.4010613 15.955923,10.4010613 C19.1457931,10.4010613 21.6826704,12.8796816 21.6826704,16.0016328 C21.6859354,19.123584 19.1490581,21.6022043 15.955923,21.6022043 Z" id="Shape"></path>
        </g>
    </g>
</svg>