<svg xmlns="http://www.w3.org/2000/svg" xmlns:xlink="http://www.w3.org/1999/xlink" version="1.1" width="39.74795246886291" height="75.93545628356019" viewBox="0.976023431782532 -0.22397661590118378 39.74795246886291 75.93545628356019">
  <!-- Exported by Scratch - http://scratch.mit.edu/ -->
  <path id="ID0.39104347536340356" fill="#FFFFFF" stroke="#0A061C" d="M 21 0.5 C 26.242 0.5 30.992 2.629 34.431 6.069 C 37.871 9.508 40 14.258 40 19.5 C 40 24.742 37.871 29.492 34.431 32.931 C 30.992 36.371 26.242 38.5 21 38.5 C 15.758 38.5 11.008 36.371 7.569 32.931 C 4.129 29.492 2 24.742 2 19.5 C 2 14.258 4.129 9.508 7.569 6.069 C 11.008 2.629 15.758 0.5 21 0.5 Z " stroke-width="1"/>
  <path id="ID0.39104347536340356" fill="#000000" stroke="#0A061C" stroke-width="1.4479532318023676" d="M 20.7 66.6375 C 25.942 66.6375 30.692 67.1053 34.131 67.8612 C 37.571 68.6169 39.7 69.6606 39.7 70.8125 C 39.7 71.9644 37.571 73.0081 34.131 73.7638 C 30.692 74.5197 25.942 74.9875 20.7 74.9875 C 15.458 74.9875 10.708 74.5197 7.269 73.7638 C 3.829 73.0081 1.7 71.9644 1.7 70.8125 C 1.7 69.6606 3.829 68.6169 7.269 67.8612 C 10.708 67.1053 15.458 66.6375 20.7 66.6375 Z "/>
</svg>