<svg xmlns="http://www.w3.org/2000/svg" viewBox="0 0 300 137.9"><defs><style>.cls-1{fill:#faa620;}</style></defs><title>logo</title><path class="cls-1" d="M126.76,18.5a4.47,4.47,0,0,0,2.9,2h0a6.6,6.6,0,0,0,4-1.7,11.13,11.13,0,0,0,3.05-3.7c.92-2.06.71-3.62-.36-4.68s-3.1-1.63-5.8-1.63a5.5,5.5,0,0,0-4,1.56,5.4,5.4,0,0,0-1.27,4.46A8.36,8.36,0,0,0,126.76,18.5Z"/><path class="cls-1" d="M50.89,116.54c-3.55-.77-5.53-2.76-6.6-6.3s-1.13-8.44-.36-14.84A78,78,0,0,1,46.69,83c1.2-4,2.63-7.6,3.7-10.36a40,40,0,0,0,1.83-5c.06-1.13-.71-2-1.84-2.83a13.7,13.7,0,0,0-4.27-1.42H46a7.73,7.73,0,0,0-1.35-.06,8.1,8.1,0,0,0-4.9,1.9c-2.2,1.62-4.82,4.47-7.66,9.72A143.64,143.64,0,0,1,23.9,88.4a39.43,39.43,0,0,0-12.27-6.47c-2.28-.64-4-.64-5.4.14A6.47,6.47,0,0,0,3,85.7a13.35,13.35,0,0,0-1.2,4.9C1.75,92,2,93,2.55,93a18.82,18.82,0,0,0,1.9-.64,13.74,13.74,0,0,1,3.7-.64,23.48,23.48,0,0,1,8.72,2c.64.28,1.42.56,2.06.92-3.9,4.25-7.52,6.53-11.14,6.45A6.5,6.5,0,0,1,3.19,99c-.34-.36-1.06.36-1.84,1.56A9.13,9.13,0,0,0,0,105.26a7,7,0,0,0,1.43,4.33,5.6,5.6,0,0,0,5,2.27c3.83,0,8.23-2.83,13.48-8.43,1.42-1.64,3-3.4,4.47-5.4A25.94,25.94,0,0,1,27,100.37,29.67,29.67,0,0,1,34.57,113a.8.8,0,0,0,.2.5,22.6,22.6,0,0,0,1.34,4.68c1.2,3.12,3.12,5.32,5.67,6h0c1.7.5,3.55-.21,5.18-1.28A11.58,11.58,0,0,0,50.82,119C51.67,117.84,51.82,116.76,50.89,116.54ZM37.67,79.65a88.05,88.05,0,0,0-3,13.7c-.29,2.34-.57,4.75-.64,7.17a39.36,39.36,0,0,0-5.75-8h0c2.7-4,5.39-8.52,8.17-13.62a26.45,26.45,0,0,1,3.18-4.75C38.94,75.83,38.23,77.75,37.67,79.65Z"/><path class="cls-1" d="M92.92,56.46a8.36,8.36,0,0,0,5.46-2.34c1.92.92,4.12,2,6.46,3.27,5.32,2.7,11.62,6,18.58,9.08s14.2,5.75,21.5,7h0c7.23,1.35,14.18,1.21,20.58-1.27.38-.17.75-.37,1.11-.57v0c9.07-4.31,8.5-12.81,5.8-13.06A8.35,8.35,0,0,1,166,54.28a18.43,18.43,0,0,1-2.48-7.67,28.35,28.35,0,0,1,0-7.37,65.9,65.9,0,0,1,2.83-12,11.77,11.77,0,0,0,5.48-1.39,96.44,96.44,0,0,0-3,16.72,20.5,20.5,0,0,0,1.48,9.5c1.13,2.47,2.9,4,5,4,3,0,5.89-2.2,8.23-5a28.89,28.89,0,0,0,3-3.92,13.15,13.15,0,0,0,3.43,5.36,13.56,13.56,0,0,0,9.64,4.1A26.8,26.8,0,0,0,214,52.06a33.3,33.3,0,0,0,10.72-11.27A28.38,28.38,0,0,0,229,26.25c0-3.4-1-5.89-2.62-7.52a7.77,7.77,0,0,0-6-2.48,10.36,10.36,0,0,0-6.67,2.7,7,7,0,0,0-2.62,4.4c0,.78.63.65,1.85.85a11,11,0,0,1,5.1,2.13c1.7,1.13,2.48,3.25,2.48,5.75,0,4.1-2.13,8.08-5.38,11.2a16.9,16.9,0,0,1-11.5,5,8.6,8.6,0,0,1-5.75-1.84,7.64,7.64,0,0,1-2-2.7,20.82,20.82,0,0,0,7-4.9c3-3,5.17-6.81,5.17-10.43a6.5,6.5,0,0,0-1.64-4.55,6.85,6.85,0,0,0-5.25-1.9c-4.39,0-7.94,2.83-10.64,6.73a28.22,28.22,0,0,0-3.85,8.57l-.1.16a64,64,0,0,1-3.9,6.17c-1.36,1.77-2.7,3.13-3.56,3.13-.63,0-1.13-.37-1.4-1.5a18.8,18.8,0,0,1,.07-6c.22-1.63.85-4.33,1.42-6.67s1.27-4.26,1.27-4.33c3.84-5.66,5.9-10.14,6.1-15a10.06,10.06,0,0,0-1.2-4.77c-.78-1.4-1.85-2.4-3-2.4-2.34,0-5.61,4.64-8.62,13.46a2,2,0,0,0-.84-.19h-3.62c1.35-3.41,2.4-5.68,2.4-6.25a4.42,4.42,0,0,0-1.9-3.76A6.2,6.2,0,0,0,166,7.94c-1.63,0-4,3.27-6.26,9.44-.27.64-.4,1.35-.7,2h-7.6l.1-.28c1.12-3,2.1-5.18,2.1-6a4.6,4.6,0,0,0-1.9-3.76A6.22,6.22,0,0,0,148,7.94c-1.42,0-2.55,1.06-3.9,3.76a64.56,64.56,0,0,0-2.78,7.45c-1.12-.21-2-.35-2.6-.43-1.36-.35-1.72-.7-2-.7a2,2,0,0,0-1.35,1.06,3.8,3.8,0,0,0-.07,2.7c.57,1.42,1.84,2.55,4.34,3.4a99.77,99.77,0,0,0-2.74,12.62,54.29,54.29,0,0,1-3.57,5.76c-1.34,1.91-2.62,3.18-3.54,3.18s-1.14-.84-.86-2.9a72.59,72.59,0,0,1,1.85-8,61.56,61.56,0,0,0,1.7-6.8h0a3.8,3.8,0,0,0-1.9-3.34,8.15,8.15,0,0,0-4.9-1.35c-2.27,0-4.54,4.61-5.47,15.17a28.25,28.25,0,0,0,1,12.06C122.22,54.41,124,56,126.27,56c3,0,5.73-2.2,8-5a29,29,0,0,0,2.23-3,18.84,18.84,0,0,0,1.18,3.85c1.13,2.48,2.83,4,4.9,4,3,.08,6.1-2.06,8.8-4.82a32.84,32.84,0,0,0,2.9-3.48c0,4.75.92,8.58,2.55,11.42a11.59,11.59,0,0,0,4.24,4.33,54.43,54.43,0,0,1-15.06.28,71,71,0,0,1-20.78-6.17c-6.25-3-11.85-6.17-16.67-9-1.49-.84-3-1.62-4.47-2.4a54.6,54.6,0,0,0,4.68-18,79.76,79.76,0,0,1,1.76-11.42c.78-2.41,1.49-3.25,2.56-3.25.83,0,1.27,1.7,1.33,4.1a30.54,30.54,0,0,1-1.2,8.67c-.06.48.92.56,2.34.28a10.84,10.84,0,0,0,4.75-2.55,8.42,8.42,0,0,0,3-6,14.6,14.6,0,0,0-1.77-8.8,9,9,0,0,0-7.24-4.06c-3.9-.2-7.44,1.35-10.28,5.6s-4.9,11.21-5.76,21.85a43.8,43.8,0,0,1-1.78,10.78h-.2a9.83,9.83,0,0,0-6.25,1.14A6.4,6.4,0,0,0,86.54,49a6.78,6.78,0,0,0,1.56,5.25A6.44,6.44,0,0,0,92.92,56.46ZM196.55,32.7c.85-1.91,1.77-3.06,2.55-3.06.57,0,.92.86.92,2a8.43,8.43,0,0,1-2,5,10,10,0,0,1-2.77,2.42A19.84,19.84,0,0,1,196.55,32.7Zm-41.43,4.61-.07.15a32.78,32.78,0,0,1-4.46,6.1c-1.63,1.77-3.26,3.12-4.13,3.12h0c-.56,0-1.06-.36-1.34-1.56a18.6,18.6,0,0,1,.27-6c.22-1.64.85-4.13,1.42-6.4s1.2-4,1.2-4c.22-.64.37-1.28.57-1.84,2.48.21,5.18.28,8.3.35C156.25,30.23,155.69,33.64,155.12,37.31Z"/><path class="cls-1" d="M248.27,115.06c-.36-.64-.93-1-1.13-.36-1.35,3.83-9.37,4.4-25.6,0a43.63,43.63,0,0,0-4.7-1.06c.36-1.08.64-2.06,1-3a76,76,0,0,0,2.4-10.64,59.7,59.7,0,0,1,1.5-9.15,10.35,10.35,0,0,0,3.12-7.8,4.42,4.42,0,0,0-1.7-3.33,4.54,4.54,0,0,0-3.9-1c-1.7.35-3.62,3.34-5.25,7.22a52.6,52.6,0,0,0-2.76,9.3,15.45,15.45,0,0,1-1.42,2.64c-1.35,2-2.7,3.6-3.82,3.6s-1.92-1.34-1.92-3.4a16.34,16.34,0,0,1,1.85-7.23,77.15,77.15,0,0,1,3.9-7,4.82,4.82,0,0,0,.78-1.85c0-.64-1.14-1.56-2.56-2.34a12.3,12.3,0,0,0-3.4-1.28c-1.06,0-2.62,1.08-4,3a32.42,32.42,0,0,0-4.12,7.24,31,31,0,0,0-1.58,4.9,3.81,3.81,0,0,0-.4.62c-1.14,1.92-2.5,4.4-3.9,6.32s-2.69,3.48-3.47,3.48c-1.14,0-1.22-1.35-.92-3.4a67.56,67.56,0,0,1,1.63-6.87,44.07,44.07,0,0,0,1.63-8.1c.07-2.06,0-3.76-.78-4.88s-2.2-1.72-4.48-1.5c-1.77.28-4.19,1.91-6.95,4.68a55,55,0,0,0-4.06,4.68,26,26,0,0,0,.43-3.47,7.4,7.4,0,0,0-.78-4.9c-.78-1.14-2.13-1.7-4.4-1.48-1.7.27-4.26,1.83-7,4.6a39.3,39.3,0,0,0-3.76,4.33c.08-.36.21-.85.28-1.2.64-3.06,1.35-5.47,1.7-7.1.29-1.14-1.2-1.71-3.13-1.64a8.65,8.65,0,0,0-5.67,2.36,10.46,10.46,0,0,0-2.56,4.8c-.56,2.07-1,4.76-1.56,8.1,0,.23-.06.45-.09.68a4.06,4.06,0,0,0-.33.53,29.52,29.52,0,0,1-5.17,6.53c-2,1.92-4,3.25-5.4,3.25a3.2,3.2,0,0,1-3-2.4,9.33,9.33,0,0,1-.3-.93,22.16,22.16,0,0,0,6.67-4.4c2.84-2.76,5.18-6.16,5.76-9.5a7.37,7.37,0,0,0-1-5.53,6.83,6.83,0,0,0-5.74-2.55c-4.47,0-8.1,2.91-10.8,7A29.17,29.17,0,0,0,124,93.08a2.84,2.84,0,0,0-.9,1.08,46.66,46.66,0,0,1-3.9,6.1c-1.35,1.91-2.61,3.18-3.47,3.18s-1.15-.84-.86-2.9.93-4.38,1.57-7.08a39.78,39.78,0,0,0,1.63-8.37,7,7,0,0,0-1.28-5.17,5.3,5.3,0,0,0-4.9-1.7c-1.7.27-4,1.62-6.45,3.9a32.06,32.06,0,0,0-4,4.6c.2-1.06.42-2.06.7-3.12.92-3.9,2.06-7.38,3-10.13a47.28,47.28,0,0,0,1.5-5.33c0-1.2-1-2.42-2.34-3.32a10.07,10.07,0,0,0-4.75-1.5c-1.13,0-2.26,1.78-3.4,4.62a64.78,64.78,0,0,0-3,11,106.86,106.86,0,0,0-1.77,13.4l-.09,1.16a3.59,3.59,0,0,0-.47.69,24.73,24.73,0,0,1-5.26,6.6c-2.06,1.92-4.18,3.2-5.53,3.2-2.84,0-4.19-3.12-3.84-8.15a22.68,22.68,0,0,1,1.5-6.54c.64-1.77,1.63-2.9,2.7-2.9.64,0,.85.71.78,1.77A7,7,0,0,1,80.44,91h0a2.38,2.38,0,0,0,.86,1.56,4.5,4.5,0,0,0,3,1,5.28,5.28,0,0,0,4-2.7,9.22,9.22,0,0,0,1.2-4.1A7.5,7.5,0,0,0,88,81.2a7,7,0,0,0-5.82-2.55c-4.47,0-8.09,2.92-10.85,7a28.29,28.29,0,0,0-3.73,8.46l-.06.1a64.1,64.1,0,0,1-3.9,6.18c-1.35,1.77-2.7,3.12-3.55,3.12-.64,0-1.12-.36-1.42-1.5a18.8,18.8,0,0,1,.07-6c.22-1.64.85-4.33,1.42-6.68s1.28-4.26,1.28-4.33c3.83-5.68,5.9-10.14,6.1-15a10.06,10.06,0,0,0-1.2-4.76c-.78-1.4-1.84-2.4-3-2.4-2.78,0-6.88,6.53-10.28,18.87a96.52,96.52,0,0,0-3.2,17.6,20.5,20.5,0,0,0,1.48,9.5c1.14,2.48,2.91,4,5,4v0c3,0,5.89-2.2,8.23-5a28.9,28.9,0,0,0,2.71-3.58A15.17,15.17,0,0,0,69.38,109c1.91,2.7,4.4,4.26,7.23,4.26,3.69,0,7.24-2.2,10.22-5a28.38,28.38,0,0,0,3.77-4.52,42.51,42.51,0,0,0,0,4.59c.28,3,1.12,4,3.32,4,2.49,0,3.27-1.49,4.13-5l.7-2.83a70.89,70.89,0,0,1,3.33-10.15c1.63-3.67,3.06-6.15,4.13-6.37s1.13.9,1.07,2.7-.5,4-.8,6.74c-1.12,10.07,1.36,15.47,5.9,15.47v0c3,0,5.67-2.2,7.94-5a32.73,32.73,0,0,0,2.82-4,15.14,15.14,0,0,0,2.2,5.27c1.78,2.69,4.26,4.25,7.1,4.25v0c3.69,0,7.23-2.2,10.07-5a27.72,27.72,0,0,0,3.59-4.33c.28,4.18,1.58,6.18,4,6.18,1.35,0,2.14,0,2.7-.5s.7-1.35,1-2.85c.07-.35.14-.84.22-1.2a61.7,61.7,0,0,1,3.9-10.85c1.63-3.42,3.27-5.61,4.33-5.82s1.06.87.78,2.57-.84,3.9-1.14,6.3c-.35,4.27-.49,7.67.07,10.07s1.55,3.68,3.55,3.68a3.92,3.92,0,0,0,2.62-.57,4.85,4.85,0,0,0,1-2.54l.07-.14a63.2,63.2,0,0,1,4.4-12.85c1.7-3.41,3.35-5.82,4.4-6s1.05.49.85,1.92a44.36,44.36,0,0,0-1.06,6c-.57,5-.19,9,.86,11.78s2.76,4.25,5.1,4.25h0c2.83,0,5.6-2.27,7.93-5.25a34.34,34.34,0,0,0,2.93-4.36,18.92,18.92,0,0,0,.92,3c1.12,2.34,3,3.76,5.3,3.76a9.63,9.63,0,0,0,6.74-3,25.59,25.59,0,0,0,2.75-3.2c-.35,2.77-1,5.75-1.63,8.73a27.9,27.9,0,0,0-8.94,1.63,15,15,0,0,0-9.64,10.3,12.42,12.42,0,0,0,1.27,9,7.26,7.26,0,0,0,6.33,4h0c3,0,5.81-1.63,8.36-4.33a44.34,44.34,0,0,0,6.87-10.44c.3-.77.72-1.4,1-2.2a65.33,65.33,0,0,1,9.8,3.7c7.3,3.4,13.64,4.1,18.16,2.9s7.22-4.46,7.22-9A6.78,6.78,0,0,0,248.27,115.06Zm-116-19.3v-.44a21.07,21.07,0,0,1,1.56-6.3c.65-1.63,1.55-2.63,2.35-2.63.56,0,.84.57.9,1.42a6.35,6.35,0,0,1-.5,3,9.64,9.64,0,0,1-2.6,3.63A13.3,13.3,0,0,1,132.29,95.76ZM204.43,127c-1.63,3.54-3.33,5.88-4.83,5.88h0c-.92,0-1.77-.79-2-2.15a8.66,8.66,0,0,1,.57-5.3c1.06-2.7,3.2-4.82,7.3-5.32a9.7,9.7,0,0,1,1.48-.15C206.06,122.51,205.28,124.92,204.43,127Z"/><path class="cls-1" d="M273.76,111.28c-4.7-1.07-9.3-3.14-14.53-4.66-5.4-1.5-11.08-2.8-18.1-2.2-2.12.18-3.6.14-4.37-1.1s-.78-3.4-.47-7.36c.65-7.6,5.1-15.06,10.85-22.62,5.74-7.73,12.8-15.24,18.6-22.15,6-7.1,10.34-13.55,11.15-19.37,1.12-8-2.46-13.26-7.2-12.85-2.43.2-4.9,2.07-6.6,5.34a20.73,20.73,0,0,0-1.36,12.6c.6,1.26-1.6,2.43-4.37,2.67a14.47,14.47,0,0,1-9.75-2.6c-3.3-2.2-5.42-5.62-5.75-11.34-.07-6.57,3.3-13.26,9.1-18.2A32.1,32.1,0,0,1,273.81,0c8.92.54,15.63,4.07,20,9.44,4.42,5.53,6.54,12.9,6.08,20.83-.27,10.2-4.16,18.43-9.26,25.93S279.2,69.75,273.8,75.8c-3.6,3.76-6.75,7.3-8.6,10.6a26.5,26.5,0,0,0,9.46,2.95c6.32.93,12.28-.4,18.72-5.73,1.68-1.46,3.63.18,4.73,3.37a19,19,0,0,1,.4,11.95c-1.1,4.53-4.2,8.58-9.74,11a24.83,24.83,0,0,1-15,1.3Z"/><path class="cls-1" d="M140.87,136.77c-1.38,0-2.07-.47-1.83-1.65,0-.18.36-1.65.74-3.38h-2.12c-.32,1.13-.61,2.14-.9,3.13-.36,1.33-.68,1.89-1.13,1.89-1.4,0-2.07-.47-1.85-1.65.09-.41,1.49-6.65,2.05-8.88.72-2.77,1.15-3.59,2-3.59,1.65,0,2,.92,1.6,2.48s-.74,2.82-1.08,4.06h2c.27-1.17.54-2.25.72-3,.72-2.77,1.13-3.59,1.94-3.59,1.69,0,2.05.92,1.62,2.48-1.11,4.08-1.87,7.08-2.64,9.74C141.63,136.2,141.34,136.77,140.87,136.77Z"/><path class="cls-1" d="M146.45,126.24c.74-2.77,1.13-3.59,2-3.59s2.05.68,1.76,1.8c-.83,3.13-3.25,11.81-3.18,12.2-.16.61-3.07.18-2.53-2.32C144.92,132.3,145.57,129.51,146.45,126.24Z"/><path class="cls-1" d="M157.3,136.77c-1,0-1.65-.25-1.83-.83l0,0-1.15-7c-.61,2.3-1.13,4.22-1.65,6-.38,1.33-.68,1.89-1.13,1.89-1.4,0-2.07-.47-1.85-1.65.07-.41,1.49-6.65,2.05-8.88.72-2.77,1.15-3.59,2-3.59A2.15,2.15,0,0,1,155,123a1.53,1.53,0,0,1,.59.81,46,46,0,0,1,1.22,5.5c.29-1.22.54-2.32.72-3,.74-2.77,1.15-3.59,2-3.59,1.65,0,2,.92,1.6,2.48-1.08,4.08-1.85,7.08-2.64,9.74C158.07,136.2,157.78,136.77,157.3,136.77Z"/><path class="cls-1" d="M163.65,136.77c-1.4,0-2.1-.47-1.85-1.65.07-.41,1.47-6.56,2-8.77.09-.36.18-.68.27-1a6.2,6.2,0,0,1-1.8-.5c-.86-.43-.7-1.94-.54-2.16.32-.47.9,0,2.8,0a35.16,35.16,0,0,0,5.64-.09c.61,0,.88,2.91-1.6,2.91H167.3c-1,3.92-1.78,6.72-2.53,9.31C164.39,136.2,164.1,136.77,163.65,136.77Z"/><path class="cls-1" d="M176.85,132.3a4.55,4.55,0,0,1-4.8,4.55,3.48,3.48,0,0,1-3.86-3.58,2.79,2.79,0,0,1,2.57-2.93c.83,0,1.44.45,1.19.7-1.51,1.56-1,3.27.2,3.27a1.44,1.44,0,0,0,1.51-1.56c0-2.62-3.72-3.34-3.72-5.61,0-2.66,2.57-4.53,4.85-4.53a3.4,3.4,0,0,1,3.4,4.06c-.54,2.21-3.61,2.07-3.47,1.62.5-1.71.54-3.16-.2-3.31s-1.62.74-1.62,1.58C172.91,128.72,176.85,129.48,176.85,132.3Z"/></svg>
