<svg xmlns="http://www.w3.org/2000/svg" viewBox="0 0 31.858 42.419" style="enable-background:new 0 0 31.8575 42.419" xml:space="preserve"><switch><g><path d="M16.08 3.028c2.541 1.757 4.166 4.767 4.151 7.866v2.552l.895-.056-3.414 8.525h.49l9.655-9.203c-.883-.467-1.916-.707-2.943-.707-1.408 0-2.804.45-3.788 1.385.256-3.698-.458-7.704-3.332-10.292 5.431.722 9.836 4.812 10.79 10.065-.014-.01-.03-.017-.044-.027a.256.256 0 0 1-.084.118l-9.158 8.661h4.191c.998 0 1.807.809 1.807 1.807v13.685c0 .998-.809 1.807-1.807 1.807H9.804a1.807 1.807 0 0 1-1.807-1.807V23.722c0-.998.809-1.807 1.807-1.807h3.72L3.68 13.313a.239.239 0 0 1-.097-.158l-.01.007.006-.031c0-.03.007-.057.02-.085.999-5.203 5.387-9.245 10.79-9.95-2.077 2.01-3.29 4.857-3.286 7.749l-.008 2.568c-.974-.954-2.382-1.41-3.805-1.41-1.095 0-2.2.27-3.12.79l10.46 9.122h.38l-3.915-8.502.883.006c-.265-3.88.647-8.13 4.102-10.391m-.144 18.887h.862l3.33-8.215c-1.043-1.105-2.55-1.66-4.055-1.66-1.47 0-2.94.53-3.977 1.592l3.84 8.283m-1.71-20.059C8.274 2.633 3.528 6.995 2.388 12.723a1.415 1.415 0 0 0-.048.23c-.05.29.006.582.146.827.093.188.225.355.391.491l7.317 6.394h-.39a3.06 3.06 0 0 0-3.057 3.057v13.685a3.06 3.06 0 0 0 3.057 3.057h13.685a3.06 3.06 0 0 0 3.057-3.057V23.722a3.06 3.06 0 0 0-3.057-3.057h-1.05l6.821-6.452a1.25 1.25 0 0 0 .553-1.273C28.772 7.204 23.897 2.648 17.959 1.86c-1.204-.212-2.347-.206-3.733-.004zM6.644 13.292a5.47 5.47 0 0 1 .646-.038c1.093 0 2.091.33 2.774.91l1.624 3.527-5.044-4.4zm15.531.839c.694-.56 1.676-.876 2.739-.876.178 0 .357.009.534.027l-4.743 4.52 1.47-3.671zm-8.54-.151c.688-.444 1.54-.69 2.438-.69.953 0 1.852.274 2.562.767l-2.316 5.713-2.684-5.79z" style="fill:#ff0"/><path d="M28.54 13.136c.013.01.03.017.043.027C27.63 7.91 23.225 3.82 17.794 3.098c2.874 2.588 3.588 6.594 3.331 10.292 1.703-1.617 4.64-1.786 6.732-.678l-9.654 9.203h-.49l3.412-8.525-.894.056v-2.552c.015-3.099-1.61-6.109-4.151-7.866-3.455 2.262-4.367 6.511-4.102 10.39l-.883-.005 3.914 8.502h-.379L4.17 12.793c2.118-1.195 5.202-1.068 6.925.62l.008-2.568c-.005-2.892 1.21-5.738 3.285-7.749-5.402.705-9.79 4.746-10.79 9.95a.193.193 0 0 0-.019.085l-.007.03c.004-.002.008-.003.011-.006.01.056.036.112.097.158l9.844 8.602h-3.72c-.998 0-1.807.809-1.807 1.807v13.685c0 .998.809 1.807 1.807 1.807h13.685c.998 0 1.807-.809 1.807-1.807V23.722c0-.998-.809-1.807-1.807-1.807h-4.191l9.157-8.66a.255.255 0 0 0 .085-.119zm-16.444.496c2.1-2.15 5.97-2.117 8.032.068l-3.33 8.215h-.863l-3.84-8.283z" style="fill:#9146ff"/><path d="m11.753 24.604-.8 2.046v8.363H13.8v1.513H15.4l1.512-1.513h2.314L22.34 31.9v-7.295H11.753zm9.52 6.761-1.78 1.78h-2.846l-1.513 1.512v-1.512h-2.402V25.67h8.54v5.694zm-1.78-3.647v3.11h-1.067v-3.11h1.068zm-2.846 0v3.11h-1.068v-3.11h1.067z" style="fill-rule:evenodd;clip-rule:evenodd;fill:#fff"/></g></switch></svg>