<svg xmlns="http://www.w3.org/2000/svg" width="80" height="80"><g data-name="golden egg"><ellipse cx="40" cy="68.977" rx="21.889" ry="6.765" style="opacity:.3"/><path d="M65.263 44.386C64.9 57.294 53.298 67.442 39.345 67.051s-24.97-11.172-24.608-24.08S26.506 6.886 40.459 7.277s25.166 24.201 24.805 37.11Z" style="fill-rule:evenodd;fill:#f6941e"/><path d="M36.908 68.476a27.571 27.571 0 0 1-16.347-7.634 23.959 23.959 0 0 1-7.414-17.916c.195-6.954 3.339-16.233 8.009-23.638 5.652-8.962 12.523-13.792 19.346-13.601 6.848.193 13.626 5.391 19.095 14.641 4.6 7.78 7.448 17.24 7.256 24.103a23.957 23.957 0 0 1-8.405 17.472A27.758 27.758 0 0 1 39.3 68.641q-1.207-.034-2.393-.165Zm4.365-59.55q-.431-.047-.86-.06c-7.63-.213-13.654 7.501-16.567 12.12-4.32 6.85-7.342 15.703-7.519 22.03a20.81 20.81 0 0 0 6.46 15.552 24.578 24.578 0 0 0 16.603 6.893 24.587 24.587 0 0 0 16.964-5.953 20.81 20.81 0 0 0 7.319-15.166c.174-6.208-2.565-15.207-6.814-22.395-4.577-7.74-10.21-12.43-15.586-13.02Z" style="fill:#fbd681"/><path d="M23.037 28.19a26.993 26.993 0 0 0 2.77 16.606c5.106 9.804 16.735 9.008 24.603 4.621a17.641 17.641 0 0 0 8.848-14.291c.893 2.9 1.828 8.243-.487 15.867-2.586 7.1-10.058 10.757-15.989 11.414-11.203 1.241-21.488-5.896-22.408-15.964a42.518 42.518 0 0 1 2.663-18.253Z" style="fill:#ca7918;fill-rule:evenodd"/><path d="M27.927 34.472s-3.434-9.076.9-15.657 7.882-7.504 11.792-7.239 12.745 6.49 12.773 15.19-1.64 14.92-9.8 15.993-14.261-9.118-9.39-19.086c0 0-4.753 2.924-6.275 10.799Z" style="fill:#f9b10f;fill-rule:evenodd"/><path d="M49.632 31.113a7.958 7.958 0 0 0-5.952-5.578c-5.1-1.381-10.418-3.771-6.983-9.63s17.82 2.123 12.935 15.208Z" style="fill:#fbd681;fill-rule:evenodd"/></g></svg>