<svg xmlns="http://www.w3.org/2000/svg" xmlns:xlink="http://www.w3.org/1999/xlink" viewBox="0 0 53.6 36">
	<defs>
		<g id="crown">
			<path stroke="rgba(0, 0, 0, 0.35)" stroke-width="4" d="m 49 7 q 1 -3 -2 -1 l -8 5 q 1 2 1 3 c 0 6 -9 6 -9 0 q 0 -2 1 -4 l -4 -6 q -2 -3 -4 0 l -4 6 q 1 2 1 4 c 0 6 -9 6 -9 0 q 0 -1 1 -3 l -8 -5 q -3 -2 -2 1 l 6 19 v 5 q 0 2 2 2 h 30 q 2 0 2 -2 v -5 z m -23 23 c -3 0 -5 -2 -5 -5 c 0 -3 2 -7 5 -7 s 5 4 5 7 c 0 3 -2 5 -5 5 z" style="fill-rule:evenodd;clip-rule:evenodd;fill:none"/>
			<path d="m 49 7 q 1 -3 -2 -1 l -8 5 q 1 2 1 3 c 0 6 -9 6 -9 0 q 0 -2 1 -4 l -4 -6 q -2 -3 -4 0 l -4 6 q 1 2 1 4 c 0 6 -9 6 -9 0 q 0 -1 1 -3 l -8 -5 q -3 -2 -2 1 l 6 19 v 5 q 0 2 2 2 h 30 q 2 0 2 -2 v -5 z m -23 23 c -3 0 -5 -2 -5 -5 c 0 -3 2 -7 5 -7 s 5 4 5 7 c 0 3 -2 5 -5 5 z" style="fill-rule:evenodd;clip-rule:evenodd;" />
		</g>
	</defs>
</svg>