<?xml version="1.0" encoding="utf-8"?>
<!-- Generator: Adobe Illustrator 24.3.0, SVG Export Plug-In . SVG Version: 6.00 Build 0)  -->
<svg version="1.1" id="RPEGG" xmlns="http://www.w3.org/2000/svg" xmlns:xlink="http://www.w3.org/1999/xlink" x="0px" y="0px"
	 viewBox="0 0 106 106" style="enable-background:new 0 0 106 106;" xml:space="preserve">
<style type="text/css">
	.st0{fill:#FFFFFF;}
</style>
<g>
	<path class="st0" d="M78.1,48.5l-5.1-0.1l0.1-1.7l6.2-5.1l1.4-3.2l0.9,1.1l19.2-13.1c0,0-0.9-3.1-3.7-7l0.2-1.8
		c0.2-1.2-0.7-2.3-1.9-2.4L93.5,15c-1.7-1.7-3.7-3.4-6.2-5L70.9,26.6l1.3,1.5l-1.5,0.5L65.2,26l-4.9,4.1l0.8,4.4l-4.7,3.8l-4-4.6
		l0.1-0.1l1.4,0.3l7.4-6.9l0.6,0.7l4.2-3.4l-5.3-6.3l-4.2,3.4L57,22l-7.8,6c0,0,0,1,0,1.5l-12.4,8.6l5.4,6.2l5.7-6l3.4,4.7l0,0
		l-1.6-0.4l-3.7,2.8l1,1.3l-22.3,19l-1.4-0.5l-3.5,2.8l0.2,1.3l-8.8,5.2l-2.2-0.3l-3.9,3.5c0,0,3.4,11.5,14.7,18.2l4.4-3.5l0.3-2.2
		l6-7.5l0.6-0.5l1.3,0.4l3.2-2.8l-0.1-1.4l2.9-2.5l11.1,11.6l7.1-6.2l-10-12.6l9.5-8.2l8.3,0.2l0.2,0.3l-2.1,2.1l5.1,6.8l1.8-1.7
		l5.8,9l6.5-6.1l-4.2-10.8l5.2-5.7L78.1,48.5z M76.7,51.1l2.5,3.6L76,58.1L74,55.6l2.5-1.9L75.9,53l-3.1-0.1l0.1-1.9L76.7,51.1z
		 M63.2,31.2l2.4-2l1.4,0.7L66.7,30l-3.3,2.6L63.2,31.2z"/>
</g>
</svg>
