<?xml version="1.0" encoding="utf-8"?>
<!-- Generator: Adobe Illustrator 24.3.0, SVG Export Plug-In . SVG Version: 6.00 Build 0)  -->
<svg version="1.1" id="EggK47" xmlns="http://www.w3.org/2000/svg" xmlns:xlink="http://www.w3.org/1999/xlink" x="0px" y="0px"
	 viewBox="0 0 106 106" style="enable-background:new 0 0 106 106;" xml:space="preserve">
<style type="text/css">
	.st0{fill:#FFFFFF;}
</style>
<g>
	<path class="st0" d="M61.7,51.4l0.4-1.3l22.4-19.7l-0.2-1.8l14.6-12.7l-3.3-3.3l-4.3,3.6C86.7,13.9,83,8.7,83,8.7l-1.9,1.7
		c3.5,4,5.2,7.5,6.1,9.5l-0.9,0.7l-6.1-3l-3.4,2.8l-1.6-1l-11.5,9.5l0.2,2.2l-0.5,0.4l-3.6-1.1l-5.3,4.8l-1.3-0.8l-1.2,1.2l2.6,3.1
		L26.6,61.9l0.4,6.5l-2.7,4.5l-3.1-0.2L7.1,85l10.5,12.1l14.8-23.3l1.3-0.5l8.7,24.1l10.8-9.1l-6.4-13.9l7.1-6.7l-3-5
		c2.8,2.7,18.2,16.9,38.8,15.6L91,63.1C91,63.1,73.2,64.4,61.7,51.4z M86.6,15.1c0.2-0.2,0.5-0.2,0.8,0l1.6,1.2c0.3,0.2,0.3,0.7,0,1
		l-0.6,0.5c-0.3,0.2-0.7,0.2-0.9-0.2l-0.9-1.7C86.3,15.6,86.4,15.2,86.6,15.1z M45.5,71.6L44,68.2l4.2-2.1l-0.5-0.9L45,64.5l0.9-2
		l1.4-0.3l2.9,4.9L45.5,71.6z"/>
</g>
</svg>
