<svg xmlns="http://www.w3.org/2000/svg" viewBox="0 0 106 106" style="enable-background:new 0 0 106 106" xml:space="preserve"><path d="m94.3 7.4-2.8.5-1 3-12.1 11.8-1.1-.9-5 4.5 3.8 4.1.6 2.9-2 1.4-5.4-6.5-9-1-12 10.3-.5-.5 2-1.7-3.5-4.3-2.1 2-.7-.7-5.1 4.9.7.7-2 1.8 3.1 3.7 2.4-2 .6.6-6.2 5.2 1.8 1.9 7.9-6.8h1l1.1 1.2.2.7-.3.3.3 2.3-2 1.3-1.2-1.1-28.2 21.2 2.2 2.7-12.1 9.4v4.2l9.4 8.6 1.7-.6 6.2 6.1 5.2-4.6.6-14h2.9l1.5-1.4s2.9 3.2 6.7 6.1c3.8 2.9 10.3 8.1 10.3 8.1L58.3 81v-2.4l-2.7-.6s-8-4.8-11.6-9.1l1.1-1.1-1.1-2.6 7.4-6.5L59 70.5l3.4 1.1 9.5-8-5.7-15.9 1.9-1.4 1.5 1.1 2.3-1.8-1-1.9 1-.8 11.7 10.9 2.7-2.5L77.4 38l4.3-3.3-.7-6.2-.8-1.3.3-1.5L95 15.3l2.8-.5.5-2.9-4-4.5zm-37 31.2-4.3.6.8 2.3-1.8.5-1.1-.3-.9-1.3v-.9l11-9.6 2.3 1.5-.4 2.3-3.2-.1.9 2.2-4.2.4.9 2.4zm11.1 23.6-4.6 4.4-4.6-8 .8-2.4.9-.1-.1-1.6-1.7-2.5 4.3-3.8 5 14z" style="fill:#fff"/></svg>