<?xml version="1.0" encoding="utf-8"?>
<!-- Generator: Adobe Illustrator 24.3.0, SVG Export Plug-In . SVG Version: 6.00 Build 0)  -->
<svg version="1.1" id="Scrambler" xmlns="http://www.w3.org/2000/svg" xmlns:xlink="http://www.w3.org/1999/xlink" x="0px" y="0px"
	 viewBox="0 0 106 106" style="enable-background:new 0 0 106 106;" xml:space="preserve">
<style type="text/css">
	.st0{fill:#FFFFFF;}
</style>
<g>
	<path class="st0" d="M94.5,15.3c-0.3-0.6-0.9-1.5-1.8-2.6c-0.9-1-1.6-1.8-2.2-2.3c-0.5-0.4-1.1-0.4-1.6-0.1l-3.7,3L83,12.7
		l-3.1,2.2l0.5,2.2L46,44.6c-0.2,0.2-0.4,0.4-0.7,0.6l-2.6-2.5l-1.7,1.5l2.5,3c-5.2,6.5-10,17.3-10,17.3l-3.3,0.2L11.4,83l11.3,12.9
		L41,67.7l2.8,1.5l0.6-0.2c7.9-2.4,9.5-7.5,9.5-7.7l0.2-0.7l-3.9-5.1l10.5-6.8L85.1,28c0.8-0.7,0.9-1.8,0.3-2.7l-0.7-1l9.4-7.5
		C94.6,16.5,94.8,15.8,94.5,15.3z M44.1,66.1l-1.5-0.8l2.5-3.8l3,0l0.9-1L46.9,59l1.2-1.4l2.7,3.5C50.3,62.2,48.5,64.6,44.1,66.1z"
		/>
</g>
</svg>
