<svg xmlns="http://www.w3.org/2000/svg" viewBox="0 0 174.18 57.78"><defs><style>.cls-1{fill:#ee2524}</style></defs><g id="Layer_2" data-name="Layer 2"><g id="Layer_1-2" data-name="Layer 1"><path class="cls-1" d="M172.77 8.15 166 1.41 164.62 0H9.56L8.15 1.41 1.41 8.15 0 9.56v38.66l1.41 1.41 6.74 6.74 1.41 1.41h155l1.44-1.41 6.74-6.74 1.41-1.41V9.56Zm-3.4 38.08L162.63 53H11.55l-6.74-6.77V11.55l6.74-6.74h151.08l6.74 6.74Z"/><path class="cls-1" d="m39.54 14.8-4.2 4.21v21.02l4.2 4.21h8.42l4.21-4.21V28.47h-8.42v6.31h2.1v3.16h-4.19V21.12h4.19v4.19h6.32v-6.3l-4.21-4.21h-8.42zM60.57 14.8l-4.21 4.21v21.02l4.21 4.21h8.42l4.21-4.21V28.47h-8.42v6.31h2.1v3.16h-4.19V21.12h4.19v4.19h6.32v-6.3l-4.21-4.21h-8.42zM14.28 18.97v25.27H26.9l4.21-4.21h.02v-2.09H20.6v-3.1h10.53v-6.31H20.6v-7.41h10.53V14.8H18.45l-4.17 4.17zM105.22 14.8 101 19v21l4.21 4.21h8.42l4.22-4.21V19l-4.21-4.21Zm6.31 23.14h-4.19V21.12h4.19ZM159.91 28.47h-8.42v6.31h2.09v3.16h-4.19V21.12h4.19v4.19h6.33v-6.3l-4.21-4.21h-8.42l-4.21 4.21v21.02l4.21 4.21h8.42l4.21-4.21V28.47zM126.28 14.8 122 19v25.2h6.33v-9.37h4.18v9.41h6.33v-9.62l-3-2.95 3-2.94V19l-4.21-4.21Zm6.27 13.72h-4.18v-7.4h4.18ZM87.11 14.88c-5.65 0-10.23 7.85-10.23 14.41a10.23 10.23 0 1 0 20.45 0c0-6.56-4.58-14.41-10.22-14.41Zm-6.43 19a10.19 10.19 0 0 1-.55-4.4l4.56 4.72 1.38 2.68s-4.07.38-5.39-2.95Zm12.86 0c-1.3 3.33-5.39 3-5.39 3l1.38-2.68 4.56-4.72a10.37 10.37 0 0 1-.55 4.45ZM87.7 40.56h-.87l-.79 1.11.61.91-.29 1.78h1.75l-.29-1.78.67-.91-.79-1.11zM83.1 40.56h-2.11l-3.79 3.8h8.23l-1.12-3.8H83.1zM91.47 40.56h-1.25l-1.12 3.8h7.91l-3.65-3.8h-1.89z"/><path class="cls-1" transform="rotate(-45 161.87 42.271)" d="M160.48 40.88h2.78v2.78h-2.78z"/></g></g></svg>