<svg xmlns="http://www.w3.org/2000/svg" viewBox="0 0 51.1 34.8" style="enable-background:new 0 0 51.1 34.8" xml:space="preserve"><switch><g><path d="M48.5 6.3c-.2-.3-.5-.4-.7-.4-.2 0-.4.1-.6.2l-7 5.4v.3c.2 3-.8 4.7-1.6 5.6-1 1.1-2.4 1.7-3.9 1.7-1.6 0-3-.7-3.8-2-1.2-1.8-1.1-4.5.2-7.6l.1-.3L26.3 2c-.2-.3-.5-.4-.8-.4-.3 0-.6.2-.8.4l-4.9 7.3.2.3c1.3 3.1 1.4 5.8.2 7.6-.8 1.3-2.2 2-3.8 2-1.5 0-2.9-.6-3.9-1.7-.9-.9-1.9-2.7-1.6-5.6v-.3l-7-5.4c-.2-.2-.4-.3-.6-.3-.3 0-.6.1-.7.4-.2.2-.3.5-.2.8l5.9 20v5c0 .3.1.5.3.7.2.2.4.3.7.3h32.4c.3 0 .5-.1.7-.3.2-.2.3-.4.3-.7v-5l5.9-20c.1-.3.1-.6-.1-.8m-23 22.6c-2 0-3.7-1.6-3.7-3.7 0-2.2 1.8-5.8 3.7-5.8 1.9 0 3.7 3.6 3.7 5.8 0 2.1-1.6 3.7-3.7 3.7" style="fill-rule:evenodd;clip-rule:evenodd;fill:#fff200"/></g></switch></svg>