<?xml version="1.0" encoding="utf-8"?>
<!-- Generator: Adobe Illustrator 24.3.0, SVG Export Plug-In . SVG Version: 6.00 Build 0)  -->
<svg version="1.1" id="Crackshot" xmlns="http://www.w3.org/2000/svg" xmlns:xlink="http://www.w3.org/1999/xlink" x="0px" y="0px"
	 viewBox="0 0 106 106" style="enable-background:new 0 0 106 106;" xml:space="preserve">
<style type="text/css">
	.st0{fill:#FFFFFF;}
</style>
<path class="st0" d="M97.3,9.6l-3.1-3.1l-3.6,2L54.4,40.2l-0.8,0l-1.4-1.6l1.4-1.2l4.2-2l3.7-2.8L56.6,27L53,29.8l-3.8,5.3l-0.4-0.5
	l-1.9,1.6l0.4,0.5L37.5,45L37,44.4L35.1,46l0.5,0.6L29,49.9l-1.8,1.8l5.2,5.7l2.1-1.8l4-5.6l1.5,1.8l-0.5,1.6l-1.1-0.8l-1.6,1.2
	l0.6,0.9l-1.9,1.7l2.9,3.2l-3.4,6.2l-3.9,0.4l-17,14l2.4,2.1L15,83.8l-2.3-1.9l-4.1,3.9l16.6,13.8l3.3-4.2l-2.3-1.9l1.2-1.3l1.5,1.3
	l12.1-18.1l6,2.4l4-4l-5.7-6L44.9,65l3.3-4.3l2.3,2.4h6.3l3.7-3.2l1-5.7l-3.2-3.6l22-19l-3.1-4l16.9-14.1L97.3,9.6z M18.1,83.7
	l3,2.7l-1.4,1.3L16.5,85L18.1,83.7z M24.3,91.6l-2.4-2l1.3-1.3l2.3,2L24.3,91.6z M41.6,49.6l-1-1.1l9.8-8.2l1.1,1.2L41.6,49.6z
	 M58.9,55.2l-0.4,3.5L56,61.1l-4.6,0.3l-1.9-2.1l0.7-0.9l1.3,1.4h3.4l0.9-0.8l-2.8-0.7l-1.4-1.7l0.2-0.3l4.6-4L58.9,55.2z"/>
</svg>
