<?xml version="1.0" encoding="utf-8"?>
<!-- Generator: Adobe Illustrator 24.3.0, SVG Export Plug-In . SVG Version: 6.00 Build 0)  -->
<svg version="1.1" id="Free_Ranger" xmlns="http://www.w3.org/2000/svg" xmlns:xlink="http://www.w3.org/1999/xlink" x="0px"
	 y="0px" viewBox="0 0 106 106" style="enable-background:new 0 0 106 106;" xml:space="preserve">
<style type="text/css">
	.st0{fill:#FFFFFF;}
</style>
<g>
	<path class="st0" d="M76.8,32.6l-0.1-2.2l22.5-19.3l-3.3-3.3l-11.4,9.6l-4.7-1.3l-7.6,6.5l-2.2-1L44.3,43.4l-3.6-3.5l0.9-0.7
		l6.5-3.9l2.7,0.2l1.2-1.1c0,0-1.8-3.4-6.9-8l-1.2,1.3v2.1l-4.6,5.8l-8.3,8l-3.9,1.7L13.2,56.4l-2.9,0.9c0,0,1,2.1,2.4,3.6
		c2,2,4,3.2,3.7,3l0.8-2.6l13.1-11.7l2.5-3.1l0.2-0.2l3.5,3.8L24.1,60.7l1.7,8.9l-19,16.5L17,98.2l16.9-17l3.4,7.5l11.3-6.3l-5-9.4
		l9.4-9.8l-2.2-3.8l1.5,0.8l6.6,5.5l8.7-10.8c-7.7-4.6-9.6-8-9.6-8l5.2-2L76.8,32.6z M78,20.6l1.8,0.6l-4.6,4l-1-1.1L78,20.6z
		 M17.5,89.1l-3.5-5l2.5-2.2l3.8,4.4L17.5,89.1z M25.6,84.9l-4.4-7.3l7.8-6.6l3.5,7.3L25.6,84.9z M49.5,62.8l-7.3,7.6l-2.5-4.6
		l4.9-2.3l-0.3-2c-1.5,0.6-2.5-0.1-3.2-0.7l4.9-3.7l0.1,0.1L49.5,62.8z"/>
</g>
</svg>
