
<svg xmlns="http://www.w3.org/2000/svg" version="1.1" xmlns:xlink="http://www.w3.org/1999/xlink" preserveAspectRatio="none" x="0px" y="0px" width="400px" height="400px" viewBox="0 0 400 400">
<defs>
<g id="chick_shadow_0_Layer0_0_FILL">
<path fill="#000000" fill-opacity="0.2980392156862745" stroke="none" d="
M 126.4 14.4
Q 126.4 8.45 107.9 4.2 89.4 0 63.2 0 37 0 18.5 4.2 0 8.45 0 14.4 0 20.35 18.5 24.55 37 28.8 63.2 28.8 89.4 28.8 107.9 24.55 126.4 20.35 126.4 14.4 Z"/>
</g>

<g id="Egg1_0_Layer0_0_MEMBER_0_FILL">
<path fill="#FFFFFF" stroke="none" d="
M 231.5 25.95
Q 200.35 0 168.05 0 135.7 0 103.5 25.95 74.65 49.2 50 89.6 27.15 127 13.5 169.45 0 211.45 0 244.15 0 276.05 12.9 305.2 25.4 333.3 48.15 355.05 70.9 376.75 100.4 388.65 130.95 400.95 164.4 400.95 197.85 400.95 228.4 388.65 257.95 376.75 280.7 355.05 303.45 333.35 315.95 305.2 328.85 276.05 328.85 244.15 328.85 211.2 316.5 169.45 303.85 126.75 282.5 89.6 259.25 49.15 231.5 25.95 Z"/>
</g>

<g id="Egg1_0_Layer0_0_MEMBER_1_FILL">
<path fill="#D8D8D8" stroke="none" d="
M 236.4 58.8
Q 221.35 41.75 205.6 31.95 229.5 68.75 244.05 114.2 258.2 158.2 258.2 192.9 258.2 223.3 245.9 251.05 234 277.85 212.3 298.5 190.65 319.2 162.5 330.5 133.4 342.25 101.55 342.25 79.1 342.25 57.8 336.35 78.05 357.3 105.2 368.95 133.35 380.95 164.4 380.95 193.75 380.95 220.55 370.2 246.5 359.8 266.5 340.85 286.5 321.9 297.5 297.35 308.85 271.9 308.85 244.15 308.85 213.4 296.8 173.55 284.75 133.65 265.15 99.55 251.65 76.05 236.4 58.8 Z"/>
</g>
</defs>

<g transform="matrix( 0.7763671875, 0, 0, 1, 150.95,285.55) ">
<g transform="matrix( 1, 0, 0, 1, 0,0) ">
<use xlink:href="#chick_shadow_0_Layer0_0_FILL"/>
</g>
</g>

<g id="Egg_button" transform="matrix( 1, 0, 0, 1, 144.1,159.65) ">
<g transform="matrix( 0.3399658203125, 0, 0, 0.3499755859375, 0,0) ">
<use xlink:href="#Egg1_0_Layer0_0_MEMBER_0_FILL"/>
</g>

<g transform="matrix( 0.3399658203125, 0, 0, 0.3499755859375, 0,0) ">
<use xlink:href="#Egg1_0_Layer0_0_MEMBER_1_FILL"/>
</g>
</g>
</svg>
