<svg id="Layer_1" data-name="Layer 1" xmlns="http://www.w3.org/2000/svg" viewBox="0 0 58 58"><defs><style>.cls-1{fill:#fff}</style></defs><circle class="cls-1" cx="26.49" cy="29.42" r="1.41"/><circle class="cls-1" cx="31.86" cy="29.42" r="1.41"/><path class="cls-1" d="M32.65 32.55a.91.91 0 0 0-1.11.64 2.4 2.4 0 0 1-4.64 0 .91.91 0 1 0-1.75.47 4.21 4.21 0 0 0 8.14 0 .91.91 0 0 0-.64-1.11Z"/><path class="cls-1" d="M29 11c-8.2 0-14.86 13-14.86 21.22a14.86 14.86 0 0 0 29.72 0C43.86 24 37.2 11 29 11Zm.18 29.16a8.53 8.53 0 1 1 8.52-8.53 8.53 8.53 0 0 1-8.52 8.49Z"/></svg>