<svg width="64" height="64" viewBox="0 0 64 64" fill="none" xmlns="http://www.w3.org/2000/svg">
<g clip-path="url(#clip0_157_1827)">
<path d="M62.4375 41.5555C62.4375 40.848 62.0485 40.1643 61.4122 39.7968L55.5859 36.433C55.85 35.0055 56 33.443 56 32.0555C56 30.668 55.8448 29.0993 55.5825 27.678L61.4088 24.3143C62.0453 23.9467 62.4342 23.2629 62.4342 22.5555C62.4342 20.793 57.1867 10.1755 54.4517 10.1755C54.0977 10.1755 53.7407 10.2664 53.4209 10.4509L47.5809 13.8234C45.3625 11.928 42.8 10.443 40 9.45054V2.71554C40 1.77517 39.3548 0.930542 38.4338 0.738042C36.35 0.302667 34.2125 0.055542 32 0.055542C29.7875 0.055542 27.6438 0.302667 25.565 0.738167C24.65 0.931042 24 1.77554 24 2.71554V9.45054C21.2 10.443 18.6375 11.928 16.425 13.818L10.5788 10.4505C10.26 10.2655 9.90254 10.1743 9.54879 10.1743C7.08379 10.1743 1.56629 20.418 1.56629 22.5543C1.56629 23.2618 1.95529 23.9455 2.59167 24.313L8.41792 27.6768C8.15504 29.1055 8.00004 30.5555 8.00004 32.0555C8.00004 33.5555 8.15529 35.0118 8.41754 36.433L2.59129 39.7968C1.95479 40.1644 1.56592 40.8482 1.56592 41.5555C1.56592 43.318 6.81342 53.9355 9.54842 53.9355C9.90242 53.9355 10.2594 53.8447 10.5792 53.6602L16.4192 50.2877C18.6375 52.1805 21.2 53.668 24 54.6555V61.3905C24 62.3309 24.6453 63.1755 25.5663 63.368C27.65 63.8055 29.7875 64.0555 31.8875 64.0555C33.9875 64.0555 36.2438 63.8084 38.3225 63.3729C39.35 63.068 40 62.3305 40 61.393V54.658C42.8025 53.6658 45.3663 52.1805 47.5813 50.2868L53.4213 53.6593C53.7409 53.8439 54.0983 53.9347 54.452 53.9347C56.9125 53.9305 62.4375 43.693 62.4375 41.5555ZM32 42.0555C26.4863 42.0555 22 37.5693 22 32.0555C22 26.5418 26.4875 22.0555 32 22.0555C37.5125 22.0555 42 26.5418 42 32.0555C42 37.5693 37.5125 42.0555 32 42.0555Z" fill="white"/>
</g>
<defs>
<clipPath id="clip0_157_1827">
<rect width="64" height="64" fill="white"/>
</clipPath>
</defs>
</svg>
