<svg xmlns="http://www.w3.org/2000/svg" xmlns:xlink="http://www.w3.org/1999/xlink" viewBox="0 0 826.93 448.56"><defs><style>.cls-1{fill:#2eb74b;}.cls-2{fill:#47e3ea;}.cls-3{fill:#ff206e;}.cls-4{fill:#ffcb00;}.cls-5{fill:url(#linear-gradient);}.cls-6{fill:url(#linear-gradient-2);}.cls-7{fill:url(#linear-gradient-3);}.cls-8{fill:url(#linear-gradient-4);}.cls-9{fill:url(#linear-gradient-5);}.cls-10{fill:url(#linear-gradient-6);}.cls-11{fill:url(#linear-gradient-7);}.cls-12{fill:url(#linear-gradient-8);}.cls-13{fill:url(#linear-gradient-9);}.cls-14{fill:url(#linear-gradient-10);}.cls-15{fill:url(#linear-gradient-11);}.cls-16{fill:url(#linear-gradient-12);}.cls-17{fill:#fff;}</style><linearGradient id="linear-gradient" x1="571.2" y1="243.53" x2="569.63" y2="138.68" gradientUnits="userSpaceOnUse"><stop offset="0.25" stop-color="#9cfcff"/><stop offset="0.34" stop-color="#84f2fb"/><stop offset="0.56" stop-color="#4cdbf2"/><stop offset="0.76" stop-color="#23caec"/><stop offset="0.91" stop-color="#09c0e7"/><stop offset="1" stop-color="#00bce6"/></linearGradient><linearGradient id="linear-gradient-2" x1="110.95" y1="414.2" x2="110.95" y2="298.91" xlink:href="#linear-gradient"/><linearGradient id="linear-gradient-3" x1="245.11" y1="429.81" x2="245.11" y2="314.52" gradientUnits="userSpaceOnUse"><stop offset="0" stop-color="#ff7abf"/><stop offset="0.32" stop-color="#ff8cc0"/><stop offset="0.35" stop-color="#ff84b8"/><stop offset="0.57" stop-color="#ff5381"/><stop offset="0.76" stop-color="#ff2e59"/><stop offset="0.91" stop-color="#ff1841"/><stop offset="1" stop-color="#ff1038"/></linearGradient><linearGradient id="linear-gradient-4" x1="395.87" y1="429.81" x2="395.87" y2="314.52" gradientUnits="userSpaceOnUse"><stop offset="0.21" stop-color="#ff0"/><stop offset="0.23" stop-color="#fffb00"/><stop offset="0.47" stop-color="#ffd001"/><stop offset="0.69" stop-color="#ffb002"/><stop offset="0.87" stop-color="#ff9d02"/><stop offset="1" stop-color="#ff9602"/></linearGradient><linearGradient id="linear-gradient-5" x1="535.06" y1="429.81" x2="535.06" y2="314.52" gradientUnits="userSpaceOnUse"><stop offset="0.41" stop-color="#4ce57b"/><stop offset="0.46" stop-color="#44d86e"/><stop offset="0.61" stop-color="#30bb4f"/><stop offset="0.75" stop-color="#22a538"/><stop offset="0.88" stop-color="#19982b"/><stop offset="1" stop-color="#169426"/></linearGradient><linearGradient id="linear-gradient-6" x1="586.74" y1="398.78" x2="586.74" y2="385.3" gradientUnits="userSpaceOnUse"><stop offset="0.21" stop-color="#ff0"/><stop offset="0.35" stop-color="#ffec01"/><stop offset="0.62" stop-color="#ffcc01"/><stop offset="0.84" stop-color="#ffb902"/><stop offset="1" stop-color="#ffb202"/></linearGradient><linearGradient id="linear-gradient-7" x1="647.66" y1="431.81" x2="647.66" y2="316.52" xlink:href="#linear-gradient-3"/><linearGradient id="linear-gradient-8" x1="647.66" y1="431.81" x2="647.66" y2="316.52" xlink:href="#linear-gradient-3"/><linearGradient id="linear-gradient-9" x1="667.44" y1="431.81" x2="667.44" y2="316.52" xlink:href="#linear-gradient-3"/><linearGradient id="linear-gradient-10" x1="667.43" y1="431.81" x2="667.43" y2="316.52" xlink:href="#linear-gradient-3"/><linearGradient id="linear-gradient-11" x1="402.51" y1="236.19" x2="401.02" y2="136.29" gradientUnits="userSpaceOnUse"><stop offset="0.21" stop-color="#ff0"/><stop offset="0.34" stop-color="#fff400"/><stop offset="0.58" stop-color="#ffd701"/><stop offset="0.89" stop-color="#ffa802"/><stop offset="1" stop-color="#ff9602"/></linearGradient><linearGradient id="linear-gradient-12" x1="230.08" y1="249.62" x2="228.51" y2="144.77" gradientUnits="userSpaceOnUse"><stop offset="0.38" stop-color="#4ce57b"/><stop offset="0.49" stop-color="#3ed065"/><stop offset="0.71" stop-color="#28af43"/><stop offset="0.88" stop-color="#1b9b2e"/><stop offset="1" stop-color="#169426"/></linearGradient></defs><g id="Layer_3" data-name="Layer 3"><path d="M826.65,105Q823.4,79.55,820,54.13a49.42,49.42,0,0,0-1.14-4.84c-5.51.29-10.73.2-15.85.9Q716.66,61.89,630.31,73.8c-3.92.54-7.84,1-11.94,1.59V70.8L610.75,70q-.56-4.37-1.11-8.76c-.47-3.68-.57-3.81-4.38-3.88-2.08-.05-4.16.07-6.56.12-.3-2.46-.57-4.75-.84-7.11l2.65-1.77c.15-5.13.3-10.26.46-15.64l-7.86-.32c-.46-1.73-.86-3.26-1.31-5l-4.13.79c.06,1.85.1,3.44.15,5.1l-5.76,2.13c1.13,4.19,2.31,8.09,3.21,12,.49,2.14,1.34,3.63,3.78,3.7.28,2.54.54,4.84.8,7.2-3.47,1.22-7.11,1.16-10.06,3.36.46,4,.89,8,1.33,11.84L573.2,77l2.6,4.24-62.12,8.51q-1.53-2.17-3.16-4.29c-.3-7.4-4.43-12.73-12-13-22-20.31-51.73-31-86.36-31-33.33,0-64.27,9.24-89.28,26.33-14-6-27.42-13.31-41.07-20.36.5-1.74.94-3.24,1.39-4.81-2.27-2.07-4.39-4.15-6.68-6A2.86,2.86,0,0,1,275.49,33c1.29-3.47,2.43-7,4-10.38a47.08,47.08,0,0,1,9.2-13,3.12,3.12,0,0,0,1-3.31c-.42-1.58-1.66-1.63-2.9-1.75-1.6-.16-3.2-.3-4.75-.44-.92-1.32-.49-3.49-2.72-3.69C273.83,0,268.32-.76,263.34,2.26a75.07,75.07,0,0,0-9.49,6.45c-5.52,4.63-10.64,9.67-12.93,16.83-.13.39-.52.68-1,1.28a8,8,0,0,0-5.82-4.36L231.65,26c.85,1.71,1.6,3.23,2.47,5-3.85.75-6.74,2.38-7.53,6.33s.87,6.71,4.16,8.78c-.11,2.38-.21,4.68-.31,7.08.53.7,1.16,1.47,1.72,2.28,1.78,2.61,1.3,4.53-1.56,6-1,.5-2.13.69-3.11,1.21-.82.44-1.87,1-2.18,1.75-1,2.59-1.77,5.29-2.61,7.89,17.32,7.67,32.64,15.91,41.5,16.08.27-.47.6-1,.88-1.51,1.87-3.64,3.8-7,1-11.36-1.59-2.46-.18-4.69,2.79-5.08,2.39-.31,4.1-1.19,5-3.44,3.43,1.21,6.59,2.27,9.72,3.43,7.31,2.74,14.72,5.23,21.86,8.36.75.32,1.49.67,2.23,1-.94.87-1.88,1.74-2.8,2.63a135.94,135.94,0,0,0-20.41,25.09,28.76,28.76,0,0,0-27.87-18.85L202.8,90.14a28.83,28.83,0,0,0-27.56,23.68l-4.78,26.3-.72.19c-6.45,1.78-12.82,3.84-19.21,5.81-.67.21-1.84.8-1.8.95.49,1.84-1.1,1.54-1.92,2s-1.38.69-2.61,1.29c1.7.42,3.51.44,3.67,1,.83,2.63,3,1.79,4.68,2.16a56.63,56.63,0,0,0,6.61,1c2.84.28,5.65.81,8.5,1l-2.84,15.64c-3.51.45-7,.89-10.51,1.39s-4.57,1.56-5.26,5.09a4.86,4.86,0,0,1-.43,1l-2.91.79c0,.88,0,1.61,0,2.33.12,2.55.46,4.95-1.5,7.3-1.39,1.68-.83,4.22.91,5.73a3.84,3.84,0,0,1,1.37,3.2c0,1.36.15,2.72.08,4.08-.24,4.56-1.16,5.6-5.77,6.67-.48.11-1,.19-1.46.3L15.68,235.15c-2.54.54-5.12,1-7.6,1.75-5.76,1.79-8.6,6.19-8,12.19a21.49,21.49,0,0,0,.71,3.64Q5.43,269.38,10.13,286C12,292.67,15.4,295,22.2,293.91c3.39-.52,6.74-1.34,10.14-2,1.29,2.65,2.45,5.38,3.91,7.93a6.49,6.49,0,0,0,7.25,3.35c1.83-.32,3.68-.56,5.49-1a66.41,66.41,0,0,0-5.82,34,52.27,52.27,0,0,0,8.45,24.32,22.21,22.21,0,0,0-3,6.5l-9.85,35.53a22.49,22.49,0,0,0,11.65,26.15C63.61,435.29,83.32,439,103.14,439c4.36,0,8.72-.18,13-.55,22.12-1.92,40.54-9.06,53.74-20.74a22.45,22.45,0,0,0,12.53,3.82c.3,0,.61,0,.91,0l41.1-1.66a22.46,22.46,0,0,0,13-4.78,22.39,22.39,0,0,0,13.32,3.71l41.1-1.66a22.46,22.46,0,0,0,15.41-7,80.11,80.11,0,0,0,10.66,13.07c16.77,16.57,40.32,25.33,68.11,25.33,31.62,0,60.43-11,81.13-30.88a103.23,103.23,0,0,0,10.36-11.6,22.46,22.46,0,0,0,21,14.36c.5,0,1,0,1.49-.05l43.82-2.9a22.48,22.48,0,0,0,15-7.17,31.54,31.54,0,0,0,23.33,9.87,36.85,36.85,0,0,0,21.32-7c5.28,4.42,13.15,8.08,24.74,8.08a42.3,42.3,0,0,0,20-5.25,46.58,46.58,0,0,0,21.92,5.25c18,0,34.23-8,45.81-22.62a74,74,0,0,0,15.59-46c0-26.79-19.28-47-44.84-47a58.14,58.14,0,0,0-8.39.63,37.59,37.59,0,0,0,.47-5.83,30.29,30.29,0,0,0-30.48-30.61l9.07-44.63a28.85,28.85,0,0,0-28.27-34.6H629l-20.95,0,1.09-5.26a5,5,0,0,0,4.67-2.2,10.22,10.22,0,0,0,2-7.33c-.23-1.71-.2-3.44-.29-5.23.57-.2,1-.39,1.47-.52,3.06-.88,3.3-1.24,3-4.42-.17-1.46-.35-2.92-.57-4.86,7.53-.89,14.67-1.64,21.77-2.62a63.35,63.35,0,0,0,7.58-2c-.83-7.08-1.59-13.66-2.38-20.37,1.45-.23,2.53-.44,3.62-.57q75.82-9.24,151.65-18.53c6.25-.77,12.45-2.08,18.62-3.38,2.24-.47,4.34-1.63,6.67-2.54C826.83,108.67,826.88,106.81,826.65,105ZM40.74,282.06l-15.4,2.62A22.71,22.71,0,0,1,24.29,282q-4.59-16.08-9.12-32.19c-1.11-3.93-.43-4.93,3.75-5.82L143.6,217.33c2.18-.47,4.32-1.06,6.73-1.66a7,7,0,0,1,.57,1.07c1.1,2.84,2.12,3.71,5,3.72L155.4,223a34.28,34.28,0,0,0-11.93,3.49q-47.58,23.69-95.21,47.29C44.51,275.59,41.56,277.93,40.74,282.06Zm13.79,4.55c-1.1-4.18-.71-5.11,3.2-7q47.55-23.34,95.14-46.62c.25-.12.52-.22.77-.33l-5,27.38a139.89,139.89,0,0,0-29.24-.59c-23.4,2-43,10.14-56.68,23.46a67.85,67.85,0,0,0-7,8C55.36,289.47,54.9,288.05,54.53,286.61Z"/></g><g id="Layer_11" data-name="Layer 11"><path class="cls-1" d="M251.66,109,233.1,211l56.52-1.61-8.09,45.84L171,258.37l26.88-147.88Z"/><path class="cls-2" d="M596.09,109.58l-21.2,101.51,56.54-.14-9.28,45.62-110.62.27,30.71-147.13Z"/><path class="cls-2" d="M56.47,413.59l9.85-35.53c9.84,5,27.21,8.8,41.21,7.59,9.53-.83,13.54-4.31,13.07-9.76-.15-1.75-1.28-3.41-4.49-4.31-3.2-.7-10.72-1.61-19.87-3.17-9.54-1.52-16.42-4.06-22.22-7.67a28.21,28.21,0,0,1-12.44-21.46c-2.38-27.41,18.07-49.17,55.8-52.45,19.83-1.72,38.18,2,48.39,6.78l-10.09,35c-8-3.81-24.52-7.08-36.58-6-7.39.64-13,3.28-12.58,8.54q.26,2.91,3.85,3.78c5,.74,10.71,1.42,20.46,3.12,10.15,1.86,17.84,4.72,22.67,8.41a29.46,29.46,0,0,1,11.84,21.31c2.31,26.64-14.29,49.83-55.12,53.37C88.83,422.93,67.53,419.1,56.47,413.59Z"/><path class="cls-3" d="M242.27,285.82l-6.62,38.83,26.29-1.07,6.63-38.82,41.1-1.66L289.93,398.68l-41.1,1.66,7.07-40.75-26.3,1.06-7.07,40.76-41.1,1.66,19.74-115.58Z"/><path class="cls-4" d="M472.38,346.68c0,47.7-35.3,82.37-86.37,82.37-43.07,0-65.77-26.27-65.77-61.15,0-46.86,34.89-82.16,86.58-82.16C449.68,285.74,472.38,313.27,472.38,346.68Zm-99.6,16.81c0,12.6,7.14,20.8,18.7,20.8,16.6,0,28.16-14.92,28.16-33.2,0-12-6.94-20.59-18.71-20.59C384.12,330.5,372.78,345.42,372.78,363.49Z"/><path class="cls-1" d="M510.84,317.91,478.63,320l5.51-38.92L592.38,274l-5.51,38.92L554.66,315l-12.37,86-43.82,2.9Z"/><path class="cls-4" d="M573.59,392.43c0-8.64,7.56-16.56,15.12-16.38,6.12.18,10.08,4.14,10.08,10.44,0,8.64-8.1,16.2-15.66,16.2C577.19,402.69,573.59,398.55,573.59,392.43Z"/><path class="cls-3" d="M645.05,321c8.64,0,16.74-9.54,16.74-18.54a10.31,10.31,0,0,0-10.62-10.62c-8.82,0-16.74,9-16.74,18.36C634.43,316.47,638.39,321,645.05,321Z"/><path class="cls-3" d="M696.71,327.63c-21.8,0-37.44,18.17-41.11,39.39-6.31,10-12.63,16.23-17,16.23-8.64,0,1.8-23,13.14-53.82h-21.6c-14.58,39.42-27.36,73.8,1.08,73.8,9.09,0,18-6.79,25.47-15.54,3.49,9.37,11.68,15.54,23.49,15.54,25.2,0,41.4-23.94,41.4-48.6C721.55,340.59,712.91,327.63,696.71,327.63ZM683,384.33c-4.32,0-6.84-3.78-6.84-10.8,0-11.52,8.64-27.9,16.92-27.9,4.5,0,6.66,4.14,6.66,10.62C699.77,368.67,691.13,384.33,683,384.33Z"/><path class="cls-4" d="M505,142.81c0,67.37-47.88,116.35-117.12,116.35-58.42,0-89.2-37.1-89.2-86.38,0-66.18,47.31-116,117.41-116C474.17,56.74,505,95.62,505,142.81Z"/></g><g id="Layer_12" data-name="Layer 12"><path class="cls-5" d="M545,113.09l45.68-.11-20.19,96.68a4,4,0,0,0,3.91,4.82l51.65-.13L618.44,252,516,252.21Z"/><path class="cls-6" d="M98.68,416.94c-14.05,0-28.44-2.39-37.88-6.21L68.48,383a94.9,94.9,0,0,0,33.1,6.26c2,0,4-.09,5.85-.25,5.51-.47,9.56-1.77,12.39-4a11,11,0,0,0,4.32-10.11c-.2-2.21-1.41-6.15-7.4-7.82l-.22-.06c-1.8-.39-4.72-.83-8.41-1.38-3.26-.48-7.31-1.09-11.64-1.83-8.58-1.37-15.17-3.63-20.78-7.12-5.93-3.78-9.9-10.67-10.57-18.4-2.28-26.29,18.19-45.18,52.15-48.12,3.17-.28,6.41-.42,9.63-.42,14.19,0,26.1,2.65,33.59,5.51l-7.87,27.28a94.78,94.78,0,0,0-29.12-4.85c-1.82,0-3.56.07-5.19.21-4,.35-17.14,2.32-16.22,12.87.32,3.68,2.84,6.35,6.91,7.32l.34.07c1.38.21,2.83.41,4.41.63,4,.56,9,1.26,15.94,2.48,9.4,1.72,16.65,4.37,20.93,7.65l.1.07a25.5,25.5,0,0,1,10.19,18.41c2.4,27.7-16.84,46-51.49,49C105.92,416.78,102.3,416.94,98.68,416.94Z"/><path class="cls-7" d="M204.12,290.74l32.93-1.33-5.79,33.95A4,4,0,0,0,235.2,328h.16l26.3-1.06a4,4,0,0,0,3.78-3.33L271.52,288l32.93-1.33L286.09,394.2l-32.92,1.33,6.23-35.87a4,4,0,0,0-3.94-4.68h-.17L229,356a4,4,0,0,0-3.78,3.32l-6.52,37.57-32.94,1.34Z"/><path class="cls-8" d="M385.57,425.43c-38.1,0-61.77-21.89-61.77-57.14,0-21.82,8.05-41.63,22.68-55.78,15.14-14.64,35.85-22.38,59.89-22.38,19.17,0,35.08,5.79,46,16.76,10,10,15.54,24.31,15.54,40.17C467.93,393.21,434.06,425.43,385.57,425.43Zm14.92-98.54c-18.33,0-32.16,15.9-32.16,37,0,14.83,9.12,24.8,22.7,24.8,18.34,0,32.16-16,32.16-37.2C423.19,336.77,414.07,326.89,400.49,326.89Z"/><path class="cls-9" d="M514.35,317.87a4,4,0,0,0-4-4.57h-.26l-27.3,1.81,4.37-30.83,100.09-6.62-4.37,30.83-29,1.91a4,4,0,0,0-3.69,3.42l-11.91,82.82L502.69,399Z"/><path class="cls-10" d="M583.68,398.08c-4.82,0-5.54-3.92-5.54-6.26,0-6.14,5.49-12.38,10.87-12.38h.16c4,.12,6.17,2.34,6.17,6.44C595.34,392.45,588.93,398.08,583.68,398.08Z"/><path class="cls-11" d="M644.6,321.36c8.64,0,16.74-9.54,16.74-18.54a10.31,10.31,0,0,0-10.62-10.62c-8.82,0-16.74,9-16.74,18.36C634,316.86,637.94,321.36,644.6,321.36Z"/><path class="cls-12" d="M644.6,317.36c-4.21,0-6.62-2.48-6.62-6.8,0-7.25,6.31-14.36,12.74-14.36a6.33,6.33,0,0,1,6.62,6.62C657.34,309.89,650.79,317.36,644.6,317.36Z"/><path class="cls-13" d="M696.26,328c-21.79,0-37.44,18.17-41.11,39.39-6.31,10-12.62,16.23-17,16.23-8.64,0,1.8-23,13.14-53.82h-21.6c-14.58,39.42-27.36,73.8,1.08,73.8,9.09,0,18-6.79,25.48-15.54,3.49,9.37,11.67,15.54,23.48,15.54,25.2,0,41.4-23.94,41.4-48.6C721.1,341,712.46,328,696.26,328Zm-13.68,56.7c-4.32,0-6.84-3.78-6.84-10.8,0-11.52,8.64-27.9,16.92-27.9,4.5,0,6.66,4.14,6.66,10.62C699.32,369.06,690.68,384.72,682.58,384.72Z"/><path class="cls-14" d="M679.7,399.62c-9.62,0-16.63-4.6-19.73-12.94a4,4,0,0,0-3.05-2.54,4.14,4.14,0,0,0-.7-.06,4,4,0,0,0-3,1.4c-5.54,6.45-13.93,14.14-22.44,14.14-5.35,0-8.89-1.34-10.81-4.09-6.53-9.39,2.91-35.72,12.52-61.71h13.06c-1.17,3.11-2.31,6.12-3.43,9.07-9.49,25-13.53,36.33-9.7,41.88a6.75,6.75,0,0,0,5.74,2.87c7.43,0,15.2-9.84,20.41-18.1a4,4,0,0,0,.56-1.45C662.1,350.72,675,332,696.26,332c6.36,0,11.7,2.35,15.43,6.8A25.15,25.15,0,0,1,717.1,355c0,11.43-3.78,22.75-10.38,31.06C701.81,392.26,693.14,399.62,679.7,399.62Zm13-57.6c-11.55,0-20.92,19.3-20.92,31.9,0,13.73,8.3,14.8,10.84,14.8,11,0,20.74-17.94,20.74-32.08C703.32,343.07,695.16,342,692.66,342Z"/><path class="cls-15" d="M499.63,143.91c0,64.2-45.61,110.86-111.59,110.86-55.66,0-85-35.35-85-82.3,0-63.06,45.08-110.57,111.87-110.57C470.31,61.9,499.63,99,499.63,143.91Z"/><path class="cls-16" d="M200.73,114.78l45.67-1.29-17.68,97.17a4,4,0,0,0,3.93,4.72l51.73-1.47-6.67,37.8-102.39,2.91Z"/></g><g id="Layer_14" data-name="Layer 14"><path d="M359,179.66c0,23.52,13,38.81,34.06,38.81,30.24,0,51.29-27.83,51.29-61.93,0-22.35-8.89-5.82-43.7-.42S359,121.41,359,179.66Z"/><path d="M423.1,107.69c-10.06-2.32-8-2.28-10,7.09-5.09-6.08-3.77-10.18-12.93-6.6l-3-4.48-12.55,7.47L391,98.92l-6.2-.52c6.79-6.2,6.11-4.84,1.15-12.16,10.56-1.86,7.73-2.23,7.44-11.52,7.3,3.46,7.4,7.27,14,0,2.93,7.93,4.07,2.92,9.49.79l-2,7.28,16.13-.6-11.35,7.47,5.08,9.56C414.64,99.28,420.93,101.8,423.1,107.69Z"/><path d="M360.11,136.12c-.55,2.6-8.3,3.17-17.3,1.27s-18.89-8.17-18.89-8.17S335.8,126,344.81,128,360.66,133.51,360.11,136.12Z"/><path d="M360.11,136.12c1.16,2.4-4.63,7.58-12.92,11.57s-27.13,8.65-27.13,8.65S334.71,143,343,139,359,133.72,360.11,136.12Z"/><path d="M360.11,136.12c1.51,1.25-.77,6.5-5.09,11.72S339.53,162,339.53,162s5.69-13.45,10-18.67S358.6,134.87,360.11,136.12Z"/><path d="M437.37,129.84c1,2.49,8.7,1.8,17.28-1.54S472,117.19,472,117.19s-12.24-1.21-20.82,2.12S436.41,127.36,437.37,129.84Z"/><path d="M437.37,129.84c-.75,2.56,5.8,6.74,14.62,9.34s28.17,4.16,28.17,4.16-16.61-10.82-25.44-13.42S438.12,127.29,437.37,129.84Z"/><path d="M437.37,129.84c-1.29,1.48,1.81,6.29,6.92,10.75S461.86,152,461.86,152s-7.79-12.35-12.9-16.81S438.66,128.36,437.37,129.84Z"/><path class="cls-17" d="M393,180.52c-7.36,0-24.5-1-24.5-10.09a31.37,31.37,0,0,1,.55-6.88,133.52,133.52,0,0,0,25,2.64,52,52,0,0,0,8-.63A145,145,0,0,0,432.9,157l1.86-.7v6.14C434.76,172.75,416.83,180.52,393,180.52Z"/></g></svg>