<?xml version="1.0" encoding="UTF-8"?>
<svg width="64px" height="64px" viewBox="0 0 64 64" version="1.1" xmlns="http://www.w3.org/2000/svg" xmlns:xlink="http://www.w3.org/1999/xlink">
    <!-- Generator: Sketch 43.2 (39069) - http://www.bohemiancoding.com/sketch -->
    <title>Artboard</title>
    <desc>Created with Sketch.</desc>
    <defs></defs>
    <g id="Page-1" stroke="none" stroke-width="1" fill="none" fill-rule="evenodd">
        <g id="Artboard">
            <circle id="Oval" fill="#53AA28" cx="32" cy="32" r="32"></circle>
            <path d="M54.0141244,21.6135945 C54.5642347,22.1637047 54.8392857,22.8316858 54.8392857,23.6175576 C54.8392857,24.4034294 54.5642347,25.0714105 54.0141244,25.6215207 L28.6698848,50.9657604 C28.1197745,51.5158706 27.4517935,51.7909217 26.6659217,51.7909217 C25.8800498,51.7909217 25.2120688,51.5158706 24.6619585,50.9657604 L9.98587558,36.2896774 C9.4357653,35.7395671 9.16071429,35.0715861 9.16071429,34.2857143 C9.16071429,33.4998425 9.4357653,32.8318614 9.98587558,32.2817512 L13.9938018,28.2738249 C14.5439121,27.7237146 15.2118932,27.4486636 15.997765,27.4486636 C16.7836368,27.4486636 17.4516178,27.7237146 18.0017281,28.2738249 L26.6659217,36.9674885 L45.9982719,17.6056682 C46.5483822,17.0555579 47.2163632,16.7805069 48.002235,16.7805069 C48.7881068,16.7805069 49.4560879,17.0555579 50.0061982,17.6056682 L54.0141244,21.6135945 Z" id="" fill="#FFFFFF"></path>
        </g>
    </g>
</svg>