<?xml version="1.0" encoding="UTF-8"?>
<svg width="64px" height="64px" viewBox="0 0 64 64" version="1.1" xmlns="http://www.w3.org/2000/svg" xmlns:xlink="http://www.w3.org/1999/xlink">
    <!-- Generator: Sketch 43.2 (39069) - http://www.bohemiancoding.com/sketch -->
    <title>Artboard Copy 2</title>
    <desc>Created with Sketch.</desc>
    <defs></defs>
    <g id="Page-1" stroke="none" stroke-width="1" fill="none" fill-rule="evenodd">
        <g id="Artboard-Copy-2" fill-rule="nonzero" fill="#FF0000">
            <path d="M22.2256146,49.7932709 C20.6586919,51.3601936 18.1165017,51.354643 16.5564363,49.7808928 L14.1592488,47.3626774 C12.6087879,45.798616 12.6142969,43.2754771 14.1715729,41.7182012 L23.9178661,31.9719079 L14.1715729,22.2256146 C12.6094757,20.6635175 12.6094757,18.1308575 14.1715729,16.5687604 L16.5687604,14.1715729 C18.1308575,12.6094757 20.6635175,12.6094757 22.2256146,14.1715729 L31.9719079,23.9178661 L41.7182012,14.1715729 C43.2754771,12.6142969 45.798616,12.6087879 47.3626774,14.1592488 L49.7808928,16.5564363 C51.354643,18.1165017 51.3601936,20.6586919 49.7932709,22.2256146 L40.0469776,31.9719079 L49.7932709,41.7182012 C51.355368,43.2802983 51.355368,45.8129582 49.7932709,47.3750554 L47.3750554,49.7932709 C45.8129582,51.355368 43.2802983,51.355368 41.7182012,49.7932709 L31.9719079,40.0469776 L22.2256146,49.7932709 Z" id="✕"></path>
        </g>
    </g>
</svg>