<svg width="80" height="64" viewBox="0 0 80 64" fill="none" xmlns="http://www.w3.org/2000/svg">
<g clip-path="url(#clip0_166_1817)">
<path d="M80 20.35C80 21.2146 79.7134 22.085 79.1235 22.8125L72.8785 30.5163C72.0885 31.4908 70.926 31.9975 69.7523 31.9975C68.876 31.9975 67.9935 31.7148 67.256 31.1326L60 25.4125V58C60 61.3138 57.3138 64 54 64H26C22.6875 64 20 61.3125 20 58V25.4125L12.6375 31.1375C12.0063 31.7125 11.1238 31.8875 10.2475 31.8875C9.07404 31.8875 7.91129 31.3804 7.12129 30.4062L0.876538 22.8125C0.286538 22.0875 0 21.2125 0 20.35C0 19.1923 0.513875 18.045 1.50125 17.265L18.3763 3.94C19.975 2.68625 21.9625 2 23.8875 2H28.2C29.1625 7.67 34.0625 12 40 12C45.9375 12 50.8413 7.67 51.7988 2H55.9988C58.0425 2 60.0263 2.68625 61.6225 3.94625L78.4975 17.2712C79.4875 18.05 80 19.2 80 20.35Z" fill="white"/>
</g>
<defs>
<clipPath id="clip0_166_1817">
<rect width="80" height="64" fill="white"/>
</clipPath>
</defs>
</svg>
