<svg id="Layer_1" data-name="Layer 1" xmlns="http://www.w3.org/2000/svg" viewBox="0 0 58 58"><defs><style>.cls-1{fill:#fff}</style></defs><path class="cls-1" d="m43.75 16.19.79-.58-2.62-3.29-1.87 1.49-1.52-.81L37 14.12l.53 1.72L29 22.65l-1.39.08-6.38 5.1-.78-.65-1.35 1 .47 1-.7.56a.72.72 0 0 0-.17.93l3.16 5.27 2.22.33 4.33 9.48 2.64 1 4.56-4.37.27-2.72-2.37-5.37 5-4.59-2.25-3.3 2.8-2.4-.34-.89 5.61-4.58-.33-.48.63-.48Zm-7.31 13.27-3.57 3.31-.41-.93 1.67-1.66-2.52-1.47 2.36-2 .57.31ZM22.06 21.63a5.87 5.87 0 0 0 1.31-1.76 5.68 5.68 0 0 0 .63-2.15v-.45a6 6 0 0 0-3.33-5.35 5.87 5.87 0 0 0-2.15-.58h-.45a6 6 0 0 0-4 1.58 6.16 6.16 0 0 0-1.32 1.75 5.68 5.68 0 0 0-.58 2.15v.45a5.91 5.91 0 0 0 1.58 4 6.16 6.16 0 0 0 1.75 1.32 5.83 5.83 0 0 0 2.15.59H18a6 6 0 0 0 2.18-.41 6.15 6.15 0 0 0 1.88-1.14Zm-5.81-.16a1.45 1.45 0 0 1-.84-.22.81.81 0 0 1-.31-.6 1.4 1.4 0 0 1 .44-.93l.77-.81.1-.1.71-.79.35-.39a3.28 3.28 0 0 0 .23-.28 9.49 9.49 0 0 0 .72-1.09 1.91 1.91 0 0 0 .21-.72.65.65 0 0 0-.2-.53.69.69 0 0 0-.54-.2.61.61 0 0 0-.53.22 2.34 2.34 0 0 0-.34.64 3 3 0 0 1-.33.65.71.71 0 0 1-.54.23.91.91 0 0 1-.65-.23 1 1 0 0 1-.28-.62 2.55 2.55 0 0 1 .38-1.35 2.9 2.9 0 0 1 1-1A3 3 0 0 1 18 13a2.54 2.54 0 0 1 1 .19 2.17 2.17 0 0 1 .85.51 2.39 2.39 0 0 1 .58.8 2.33 2.33 0 0 1 .21 1 2.75 2.75 0 0 1-.26 1.19 4.21 4.21 0 0 1-.58.94 11.56 11.56 0 0 1-.93 1.05 11.15 11.15 0 0 0-.87 1h2a.86.86 0 0 1 .64.25 1.11 1.11 0 0 1 .23.62.79.79 0 0 1-.25.61.78.78 0 0 1-.65.27Z"/></svg>