<svg data-name="Layer 1" xmlns="http://www.w3.org/2000/svg" viewBox="0 0 58 58"><path d="m41.24 26.11 1.95-2a1.91 1.91 0 0 0 0-2.71l-3.29-3.23.21-.21a1 1 0 0 0 0-1.45l-3.33-3.32a1 1 0 0 0-1.46 0l-1.92 1.93a4.57 4.57 0 1 0-5.28 7.31C23.8 23 19 25.21 16.69 27.57A10.18 10.18 0 0 0 17.07 42a10.18 10.18 0 0 0 14.4.3c3-3 6-9.87 5.32-14.68l.14.14a1.89 1.89 0 0 0 1.51.55L40 29.92a1.52 1.52 0 0 1 .29 1.65l-5.21 12.12 1.29.5a.88.88 0 0 0 1.05-.45l6.51-12.28a1.54 1.54 0 0 0-.09-1.59Zm-14.3-7.75a3.21 3.21 0 0 1 6.25-1.05l-2 2a1.91 1.91 0 0 0-.37 2.18 2.93 2.93 0 0 1-.67.07 3.21 3.21 0 0 1-3.21-3.2Z" style="fill:#fff"/></svg>