<svg id="Layer_1" data-name="Layer 1" xmlns="http://www.w3.org/2000/svg" viewBox="0 0 58 58"><defs><style>.cls-1{fill:#fff}</style></defs><path class="cls-1" d="m48.31 10.74-1.93 1.62a12.45 12.45 0 0 1-3.79-3.42l-.88.75A16.38 16.38 0 0 1 44.45 14l-.39.33L41.32 13l-1.52 1.21-.74-.44-5.23 4.3.12 1-.22.18-1.62-.48-2.39 2.18-.59-.37-.53.54 1.16 1.41L17 33l.2 3-1.2 2-1.39-.08-6.39 5.55L13 49l6.67-10.6.58-.25 3.94 10.91L29.08 45l-2.9-6.32 3.23-3-1.35-2.25c1.25 1.23 8.23 7.67 17.55 7.08l.57-6.88s-8 .58-13.25-5.32l.16-.57 10.15-8.92-.09-.82 6.63-5.72ZM25.62 37.42l-.71-1.56 1.64-.81-.2-.59-2 .14 2.11-1.42 1.34 2.21ZM12.9 20.87a5.82 5.82 0 0 0 1.75 1.31 5.64 5.64 0 0 0 2.15.59h.45a5.82 5.82 0 0 0 2.18-.41 6 6 0 0 0 1.86-1.16 5.85 5.85 0 0 0 1.9-3.92v-.45a6 6 0 0 0-1.58-4 6 6 0 0 0-1.75-1.31 5.87 5.87 0 0 0-2.15-.58h-.45a6 6 0 0 0-2.18.41 6.14 6.14 0 0 0-1.86 1.16 6 6 0 0 0-1.32 1.76 5.78 5.78 0 0 0-.59 2.15v.45a6 6 0 0 0 .42 2.13 6.22 6.22 0 0 0 1.17 1.87Zm2.24-7.79a.76.76 0 0 1 .63-.26h1.55a.83.83 0 0 1 .93.94v6.41a1 1 0 0 1-.26.74.87.87 0 0 1-.67.26 1 1 0 0 1-.7-.26 1 1 0 0 1-.26-.74v-5.61h-.59a.79.79 0 0 1-.63-.26.85.85 0 0 1-.23-.61.87.87 0 0 1 .23-.61Z"/></svg>